<svg width="650" height="650" viewBox="0 0 650 650" fill="none" xmlns="http://www.w3.org/2000/svg">
<g opacity="0.5">
<path opacity="0.79" d="M487.364 487.364C576.901 397.827 576.901 252.658 487.364 163.121C397.827 73.5841 252.659 73.584 163.121 163.121C73.5843 252.658 73.5842 397.827 163.121 487.364C252.659 576.901 397.827 576.901 487.364 487.364Z" stroke="#DFE4E9" stroke-width="0.5" stroke-miterlimit="10"/>
<path opacity="0.79" d="M475.938 475.938C559.165 392.711 559.165 257.774 475.938 174.547C392.711 91.32 257.774 91.3199 174.547 174.547C91.3199 257.774 91.3199 392.711 174.547 475.938C257.774 559.165 392.711 559.165 475.938 475.938Z" stroke="#DFE4E9" stroke-width="0.7273" stroke-miterlimit="10"/>
<path opacity="0.79" d="M325.253 522.199C434.03 522.199 522.212 434.017 522.212 325.239C522.212 216.462 434.03 128.28 325.253 128.28C216.475 128.28 128.293 216.462 128.293 325.239C128.293 434.017 216.475 522.199 325.253 522.199Z" stroke="#DFE4E9" stroke-width="0.9545" stroke-miterlimit="10"/>
<path opacity="0.79" d="M325.253 506.065C425.12 506.065 506.078 425.107 506.078 325.24C506.078 225.372 425.12 144.414 325.253 144.414C225.385 144.414 144.427 225.372 144.427 325.24C144.427 425.107 225.385 506.065 325.253 506.065Z" stroke="#DFE4E9" stroke-width="1.1818" stroke-miterlimit="10"/>
<path opacity="0.79" d="M325.253 489.907C416.196 489.907 489.92 416.183 489.92 325.24C489.92 234.296 416.196 160.572 325.253 160.572C234.31 160.572 160.585 234.296 160.585 325.24C160.585 416.183 234.31 489.907 325.253 489.907Z" stroke="#DFE4E9" stroke-width="1.4091" stroke-miterlimit="10"/>
<path opacity="0.79" d="M325.253 473.748C407.272 473.748 473.761 407.259 473.761 325.239C473.761 243.22 407.272 176.73 325.253 176.73C243.233 176.73 176.744 243.22 176.744 325.239C176.744 407.259 243.233 473.748 325.253 473.748Z" stroke="#DFE4E9" stroke-width="1.6364" stroke-miterlimit="10"/>
<path opacity="0.79" d="M325.253 457.59C398.348 457.59 457.603 398.335 457.603 325.24C457.603 252.145 398.348 192.889 325.253 192.889C252.158 192.889 192.902 252.145 192.902 325.24C192.902 398.335 252.158 457.59 325.253 457.59Z" stroke="#DFE4E9" stroke-width="1.8636" stroke-miterlimit="10"/>
<path opacity="0.79" d="M325.252 441.431C389.423 441.431 441.444 389.41 441.444 325.239C441.444 261.068 389.423 209.047 325.252 209.047C261.081 209.047 209.061 261.068 209.061 325.239C209.061 389.41 261.081 441.431 325.252 441.431Z" stroke="#DFE4E9" stroke-width="2.0909" stroke-miterlimit="10"/>
<path opacity="0.79" d="M325.253 425.273C380.5 425.273 425.286 380.486 425.286 325.24C425.286 269.993 380.5 225.206 325.253 225.206C270.006 225.206 225.219 269.993 225.219 325.24C225.219 380.486 270.006 425.273 325.253 425.273Z" stroke="#DFE4E9" stroke-width="2.3182" stroke-miterlimit="10"/>
<path opacity="0.79" d="M325.253 409.115C371.575 409.115 409.128 371.563 409.128 325.24C409.128 278.917 371.575 241.365 325.253 241.365C278.93 241.365 241.378 278.917 241.378 325.24C241.378 371.563 278.93 409.115 325.253 409.115Z" stroke="#DFE4E9" stroke-width="2.5454" stroke-miterlimit="10"/>
<path opacity="0.79" d="M325.253 392.956C362.651 392.956 392.969 362.638 392.969 325.239C392.969 287.841 362.651 257.523 325.253 257.523C287.854 257.523 257.536 287.841 257.536 325.239C257.536 362.638 287.854 392.956 325.253 392.956Z" stroke="#DFE4E9" stroke-width="2.7727" stroke-miterlimit="10"/>
<path opacity="0.79" d="M325.253 376.798C353.727 376.798 376.811 353.714 376.811 325.24C376.811 296.765 353.727 273.682 325.253 273.682C296.778 273.682 273.695 296.765 273.695 325.24C273.695 353.714 296.778 376.798 325.253 376.798Z" stroke="#DFE4E9" stroke-width="3" stroke-miterlimit="10"/>
</g>
</svg>
