<svg id="svg" version="1.1" xmlns="http://www.w3.org/2000/svg" xmlns:xlink="http://www.w3.org/1999/xlink" width="400" height="70.93513058129739" viewBox="0, 0, 400,70.93513058129739"><g id="svgg"><path id="path0" d="M15.667 0.255 C 8.795 1.212,3.242 6.196,1.373 13.083 L 0.920 14.750 0.919 23.000 C 0.917 31.102,0.924 31.274,1.298 32.583 C 2.744 37.632,6.368 41.650,11.010 43.348 C 13.849 44.387,11.937 44.333,46.098 44.333 L 77.333 44.333 77.333 48.250 L 77.333 52.167 39.083 52.167 L 0.833 52.167 0.833 61.502 L 0.833 70.837 39.708 70.794 L 78.583 70.750 79.855 70.378 C 85.923 68.602,90.731 64.006,92.017 58.750 C 92.129 58.292,92.273 57.879,92.337 57.833 C 93.231 57.194,93.234 39.836,92.341 38.205 C 92.254 38.047,91.871 37.167,91.490 36.251 C 89.854 32.316,86.650 29.160,82.759 27.649 C 79.853 26.521,82.537 26.605,47.875 26.547 L 16.500 26.493 16.500 22.664 L 16.500 18.834 54.708 18.792 L 92.917 18.750 92.960 9.375 L 93.003 -0.000 55.126 0.017 C 24.690 0.031,16.939 0.078,15.667 0.255 M103.000 35.417 L 103.000 70.833 200.333 70.833 L 297.667 70.833 297.667 61.417 L 297.667 52.000 208.250 52.000 L 118.833 52.000 118.833 48.167 L 118.833 44.333 208.250 44.333 L 297.667 44.333 297.667 35.333 L 297.667 26.333 208.250 26.333 L 118.833 26.333 118.833 22.583 L 118.833 18.833 208.250 18.833 L 297.667 18.833 297.667 9.417 L 297.667 0.000 200.333 0.000 L 103.000 0.000 103.000 35.417 M308.000 35.417 L 308.000 70.833 315.833 70.833 L 323.667 70.833 323.667 44.917 L 323.667 19.000 350.152 19.000 C 381.164 19.000,379.471 18.889,381.799 21.068 C 384.456 23.552,384.489 23.913,384.495 50.458 L 384.500 70.833 392.250 70.833 L 400.000 70.833 399.999 43.625 C 399.998 13.796,400.026 14.703,399.007 11.660 C 396.881 5.316,391.429 0.940,384.688 0.167 C 383.782 0.064,369.329 0.002,345.625 0.001 L 308.000 0.000 308.000 35.417 " stroke="none" fill="#FFFFFF" fill-rule="evenodd"></path><path id="path1" d="" stroke="none" fill="#08fc8c" fill-rule="evenodd"></path><path id="path2" d="" stroke="none" fill="#08fc8c" fill-rule="evenodd"></path><path id="path3" d="" stroke="none" fill="#08fc8c" fill-rule="evenodd"></path><path id="path4" d="" stroke="none" fill="#08fc8c" fill-rule="evenodd"></path></g></svg>