<svg version="1.2" baseProfile="tiny-ps" xmlns="http://www.w3.org/2000/svg" viewBox="0 0 330 80" width="248" height="60"><title>image2vector-svg</title><style>tspan { white-space:pre }.shp0 { fill: #000000 } </style><g ><path fill-rule="evenodd" class="shp0" d="M43.58 4.98C43.95 5.07 44.85 5.27 45.58 5.42C52.99 6.98 60.37 11.43 64.92 17.08C65.28 17.54 65.72 18.06 65.89 18.25C66.05 18.43 66.35 18.85 66.54 19.17C66.74 19.49 66.95 19.79 67 19.83C67.51 20.24 69.53 23.96 70.36 26C70.64 26.69 70.93 27.4 71 27.58C71.17 27.98 71.72 29.79 71.98 30.79C72.08 31.18 72.24 31.78 72.33 32.13C73.37 36.05 73.25 43.2 72.06 48C71.1 51.89 68.34 58.02 66.89 59.47C66.77 59.59 66.67 59.75 66.67 59.81C66.67 59.88 66.53 60.08 66.38 60.26C66.22 60.44 65.6 61.19 65 61.92C62.81 64.6 57.57 69.17 56.68 69.17C56.6 69.17 56.5 69.22 56.47 69.29C56.32 69.63 50.84 72.33 50.3 72.33C50.17 72.33 50 72.4 49.91 72.47C49.82 72.55 49.3 72.75 48.75 72.9C48.2 73.06 47.56 73.26 47.33 73.34C47.1 73.42 46.5 73.56 46 73.66C45.5 73.75 44.45 73.96 43.67 74.11C41.57 74.53 34.49 74.53 32.5 74.1C31.72 73.94 30.75 73.73 30.33 73.66C28.96 73.39 25.92 72.41 24.42 71.75C22.9 71.08 21.25 70.25 21.19 70.13C21.16 70.06 21.07 70 20.99 70C19.83 70 13.55 64.79 11.14 61.83C9.61 59.95 6.5 55.1 6.5 54.58C6.5 54.55 6.27 54.04 6 53.44C5.73 52.85 5.5 52.25 5.5 52.11C5.5 51.97 5.43 51.81 5.35 51.76C5.27 51.71 5.17 51.5 5.12 51.29C5.07 51.09 4.9 50.5 4.75 50C3.83 46.9 3.54 45.34 3.32 42.28C3.11 39.46 3.28 34.98 3.64 33.5C3.72 33.18 3.88 32.5 3.99 32C5.01 27.36 7.33 22.22 9.87 18.92C16.25 10.65 23.98 6.19 34.42 4.76C35.36 4.63 42.92 4.81 43.58 4.98ZM116.54 18.02L140 18L140 29.33L93.5 29.33L93.5 34.16L113.04 34.2C129.31 34.24 132.67 34.29 133.08 34.48C133.99 34.9 134.63 35.17 134.75 35.17C135.52 35.17 138.31 38.04 139.08 39.63C140.04 41.63 140.45 49.77 139.74 52.92C139.22 55.21 136.66 59.17 135.68 59.17C135.6 59.17 135.42 59.26 135.3 59.38C135.04 59.63 133.54 60.38 132.5 60.78C131.8 61.06 130.15 61.08 107.88 61.13L84 61.17L84 49.83L130.5 49.83L130.5 45.01L111.04 44.96L91.58 44.91L90.48 44.47C87.09 43.12 84.73 40.37 84.16 37.12C83.81 35.1 84.03 26.81 84.47 25.5C85.81 21.52 88.67 18.96 92.75 18.11C92.93 18.07 103.64 18.03 116.54 18.02ZM146.17 18L264.5 18L264.5 29.33L155.83 29.33L155.83 34L264.5 34L264.5 45L155.83 45L155.83 49.67L264.5 49.67L264.5 61.17L146.17 61.17L146.17 18ZM270.83 17.99L318.58 18.08L319.83 18.56C323.07 19.81 325.04 21.84 326.31 25.25C326.76 26.43 326.82 28.9 326.83 44.71L326.83 61.17L317.34 61.17L317.3 47.38C317.25 32.88 317.2 32.03 316.46 31.69C316.39 31.66 316.33 31.57 316.33 31.49C316.33 31.19 315.35 30.35 314.56 29.97L313.75 29.58L297.04 29.54L280.33 29.49L280.33 61.17L270.83 61.17L270.83 17.99ZM40.4 27.01C36.17 33.73 44.25 41.56 50.92 37.19C56.09 33.81 55.18 26.04 49.33 23.78C46.17 22.55 42.32 23.94 40.4 27.01Z" /></g></svg>