<svg xmlns="http://www.w3.org/2000/svg" width="63" height="69" viewBox="0 0 63 69">
    <g fill="none" fill-rule="evenodd">
        <g fill="#999" fill-rule="nonzero">
            <g>
                <path d="M45.714 63.387c.786-.153 1.651.076 2.28.534 3.302 2.369 7.233 3.591 11.321 3.591s8.02-1.222 11.321-3.59c.63-.46 1.494-.612 2.28-.535 6.29.84 11.871 4.278 15.488 9.474.708.993 1.336 2.062 1.808 3.209.236.458.157.993-.235 1.451-.63 1.07-1.337 2.063-2.123 3.056-1.1 1.452-2.359 2.75-3.617 3.973-1.1 1.07-2.358 2.14-3.616 3.057-6.21 4.507-13.68 6.876-21.384 6.876-7.705 0-15.174-2.369-21.385-6.876-1.258-.994-2.515-1.987-3.616-3.057-1.337-1.222-2.516-2.52-3.617-3.973-.707-.916-1.493-1.986-2.122-3.056-.236-.458-.315-.993-.079-1.451.472-1.07 1.1-2.216 1.808-3.21 3.538-5.195 9.199-8.633 15.488-9.473zm13.596-37.18c9.852 0 17.905 8.081 17.905 17.967S69.162 62.142 59.31 62.142c-9.851 0-17.904-8.082-17.904-17.968s8.053-17.967 17.904-17.967z" transform="translate(-209 -193) translate(181 167)"/>
            </g>
        </g>
    </g>
</svg>
