<svg width="16" height="16" viewBox="0 0 16 16" fill="none" xmlns="http://www.w3.org/2000/svg">
<path d="M8 16C12.4183 16 16 12.4183 16 8C16 3.58172 12.4183 0 8 0C3.58172 0 0 3.58172 0 8C0 12.4183 3.58172 16 8 16Z" fill="url(#paint0_linear_510_13841)"/>
<path d="M8 16C12.4183 16 16 12.4183 16 8C16 3.58172 12.4183 0 8 0C3.58172 0 0 3.58172 0 8C0 12.4183 3.58172 16 8 16Z" fill="url(#paint1_radial_510_13841)"/>
<path d="M9.77143 5.54944C8.91718 6.40457 8.0575 7.26416 7.20312 8.11754C7.65684 8.5707 8.1104 9.02483 8.56224 9.47827C9.41509 8.62239 10.2751 7.76213 11.1316 6.90826C10.6784 6.45641 10.2245 6.00294 9.77143 5.54944Z" fill="url(#paint2_linear_510_13841)"/>
<path d="M9.09344 4.86938C8.23956 5.72588 7.37931 6.58592 6.52344 7.43873C6.97691 7.89057 7.431 8.34413 7.88416 8.79785C8.7375 7.94348 9.59709 7.08382 10.4522 6.22957C9.99869 5.77651 9.54525 5.3226 9.09344 4.86938Z" fill="url(#paint3_linear_510_13841)"/>
<path d="M9.09344 4.86938C8.23956 5.72588 7.37931 6.58592 6.52344 7.43873C7.20363 8.11648 7.88525 8.79813 8.56303 9.47832C9.41587 8.62245 10.2759 7.7622 11.1324 6.90832C10.4526 6.2306 9.77116 5.5492 9.09344 4.86938Z" fill="url(#paint4_linear_510_13841)"/>
<path d="M9.08844 2.15137C8.13409 3.12049 7.16194 4.09899 6.1875 5.0713C6.46794 5.35112 6.74937 5.63205 7.03147 5.91374C8.0035 4.94309 8.97475 3.96777 9.92972 3.00327C9.64806 2.71887 9.36753 2.43477 9.08844 2.15137Z" fill="url(#paint5_linear_510_13841)"/>
<path d="M9.92972 3.00327C8.97475 3.96774 8.0035 4.94305 7.03147 5.91374C6.74937 5.63205 6.46794 5.35109 6.1875 5.0713C7.16194 4.09899 8.13409 3.12052 9.08844 2.15137C9.36753 2.43477 9.64806 2.71887 9.92972 3.00327Z" fill="url(#paint6_linear_510_13841)"/>
<path d="M12.9964 6.06897C12.0319 7.02394 11.0566 7.9952 10.0859 8.96723C10.3676 9.24933 10.6486 9.5308 10.9284 9.8112C11.9007 8.83679 12.8792 7.86463 13.8483 6.91029C13.5649 6.63116 13.2808 6.35063 12.9964 6.06897Z" fill="url(#paint7_linear_510_13841)"/>
<path d="M6.20953 3.04248C5.86853 3.38536 5.52638 3.72795 5.18372 4.06954C4.80494 4.44711 4.79657 5.04748 5.16857 5.41639C5.54041 5.78526 6.14882 5.78345 6.52513 5.40757C6.866 5.06736 7.20666 4.72642 7.54644 4.38551C7.09769 3.9352 6.6515 3.48698 6.20953 3.04248Z" fill="url(#paint8_linear_510_13841)"/>
<path d="M9.42068 1.13297C9.05218 0.755877 8.4614 0.756783 8.09193 1.13472C7.47152 1.76885 6.8428 2.40619 6.21008 3.04244C5.83324 3.42151 5.82386 4.02507 6.19424 4.39498C6.5644 4.76485 7.17184 4.76204 7.54702 4.38548C8.17753 3.75285 8.80503 3.12019 9.42525 2.49172C9.79469 2.11794 9.78906 1.51 9.42068 1.13297Z" fill="url(#paint9_linear_510_13841)"/>
<path d="M12.9964 6.06897C12.0319 7.02394 11.0566 7.9952 10.0859 8.96723C10.3676 9.24933 10.6486 9.5308 10.9284 9.8112C11.9007 8.83679 12.8792 7.86463 13.8483 6.91029C13.5649 6.63116 13.2808 6.35063 12.9964 6.06897Z" fill="url(#paint10_linear_510_13841)"/>
<path d="M11.6144 8.45276C11.2734 8.79254 10.9325 9.13319 10.5923 9.47407C10.2164 9.85038 10.2146 10.4588 10.5835 10.8306C10.9524 11.2026 11.5528 11.1943 11.9303 10.8155C12.2719 10.4728 12.6145 10.1307 12.9574 9.78966C12.5129 9.34776 12.0647 8.90157 11.6144 8.45276Z" fill="url(#paint11_linear_510_13841)"/>
<path d="M14.8653 6.57926C14.4883 6.21091 13.8804 6.20526 13.5066 6.57469C12.8781 7.19494 12.2454 7.82241 11.6128 8.45291C11.2363 8.82807 11.2334 9.43554 11.6033 9.80569C11.9732 10.1761 12.5768 10.1667 12.9559 9.78985C13.5921 9.15713 14.2294 8.52844 14.8636 7.90801C15.2415 7.53851 15.2424 6.94772 14.8653 6.57926Z" fill="url(#paint12_linear_510_13841)"/>
<path d="M12.1414 5.22128C10.7285 5.15431 9.31606 5.0934 7.90431 5.04053C7.61363 5.33178 7.32247 5.623 7.03125 5.91384C8.04678 6.92793 9.07059 7.95175 10.0847 8.96728C11.0553 7.99528 12.0307 7.024 12.9951 6.06903C12.7107 5.7874 12.426 5.50468 12.1414 5.22128Z" fill="url(#paint13_linear_510_13841)"/>
<path d="M12.1433 5.22117C11.4033 4.48429 10.6637 3.74273 9.93144 3.0033C9.2626 3.67879 8.58575 4.35964 7.90625 5.04045C7.96256 5.09688 8.01894 5.15335 8.07531 5.20982C9.19729 6.33557 11.0264 6.33338 12.1433 5.22117Z" fill="url(#paint14_linear_510_13841)"/>
<path d="M9.7624 2.83266C8.80762 3.79801 7.83627 4.77388 6.86383 5.74479C6.76977 5.83873 6.76927 5.99029 6.8628 6.08364C6.95633 6.17695 7.1084 6.17667 7.20233 6.08282C8.17399 5.11238 9.14515 4.13757 10.1004 3.17394C10.1927 3.08079 10.1917 2.92882 10.0983 2.8345C10.0049 2.74016 9.85471 2.73928 9.7624 2.83266Z" fill="url(#paint15_linear_510_13841)"/>
<path d="M12.8271 5.89981C11.8635 6.855 10.8887 7.82619 9.91825 8.79782C9.8244 8.89179 9.82412 9.04379 9.91743 9.13735C10.0107 9.23088 10.1624 9.23038 10.2563 9.13632C11.2272 8.16388 12.2031 7.1925 13.1684 6.23775C13.2618 6.14543 13.2609 5.99518 13.1666 5.90187C13.0722 5.80853 12.9203 5.8074 12.8271 5.89981Z" fill="url(#paint16_linear_510_13841)"/>
<path d="M8.90079 9.13867C8.67489 8.91217 8.44861 8.68549 8.22207 8.45874C7.65694 8.79767 7.09294 9.13526 6.53125 9.46964C7.09625 9.5866 7.66073 9.7027 8.22457 9.81729C8.41179 10.0054 8.71411 10.0058 8.90083 9.81816C9.08761 9.63054 9.08798 9.32629 8.90079 9.13867Z" fill="url(#paint17_linear_510_13841)"/>
<path d="M8.22374 9.13809C8.41052 8.95074 8.41033 8.64656 8.22271 8.4588C7.76971 8.0054 7.3159 7.55202 6.86291 7.10021C6.67528 6.91305 6.3711 6.91339 6.18344 7.10014C5.99579 7.2869 5.99622 7.58918 6.18428 7.77643C6.29888 8.34024 6.41497 8.90474 6.53191 9.46975C6.86959 9.3594 7.20768 9.24815 7.54609 9.13628C7.73393 9.3244 8.03696 9.32534 8.22374 9.13809Z" fill="url(#paint18_linear_510_13841)"/>
<path d="M8.08181 9.67621C7.78941 9.38268 7.49631 9.08903 7.20294 8.79565C5.75744 10.0142 4.32847 11.2143 2.95312 12.3519C3.02653 12.4953 3.12409 12.6311 3.24575 12.7529C3.82159 13.3286 4.70578 13.3678 5.241 12.8241C5.88741 12.1693 6.54722 11.503 7.21509 10.8303C7.34659 10.8314 7.47809 10.8323 7.60959 10.8332C7.78819 10.8343 7.95906 10.7636 8.085 10.6367C8.34719 10.3725 8.34681 9.94209 8.08181 9.67621Z" fill="url(#paint19_linear_510_13841)"/>
<path d="M4.55482 12.1328C5.41988 11.264 6.30769 10.3736 7.20563 9.47399C7.39157 9.28768 7.39057 8.98374 7.20257 8.79577C6.91335 8.50655 6.62385 8.21759 6.33447 7.9293C6.0826 7.67821 5.67666 7.6483 5.40519 7.87402C5.25097 8.00234 5.16379 8.19096 5.16507 8.38915C5.16591 8.52065 5.16685 8.65215 5.16794 8.78365C4.49529 9.45152 3.82891 10.1113 3.17416 10.7577C2.74597 11.1799 2.67891 11.818 2.95276 12.3521C3.48947 12.6246 4.1311 12.5589 4.55482 12.1328Z" fill="url(#paint20_linear_510_13841)"/>
<defs>
<linearGradient id="paint0_linear_510_13841" x1="2.34316" y1="13.6568" x2="13.6569" y2="2.34313" gradientUnits="userSpaceOnUse">
<stop stop-color="#230BE0"/>
<stop offset="1" stop-color="#DDA2FC"/>
</linearGradient>
<radialGradient id="paint1_radial_510_13841" cx="0" cy="0" r="1" gradientUnits="userSpaceOnUse" gradientTransform="translate(9.47887 6.47887) scale(10.2095)">
<stop stop-color="#230BE0" stop-opacity="0.4"/>
<stop offset="0.0344" stop-color="#2E14E2" stop-opacity="0.386"/>
<stop offset="0.2167" stop-color="#633FEA" stop-opacity="0.313"/>
<stop offset="0.3954" stop-color="#8F62F0" stop-opacity="0.242"/>
<stop offset="0.5667" stop-color="#B17EF5" stop-opacity="0.173"/>
<stop offset="0.7285" stop-color="#C992F9" stop-opacity="0.109"/>
<stop offset="0.8771" stop-color="#D89EFB" stop-opacity="0.049"/>
<stop offset="1" stop-color="#DDA2FC" stop-opacity="0"/>
</radialGradient>
<linearGradient id="paint2_linear_510_13841" x1="5.38871" y1="11.2901" x2="17.9618" y2="-1.2829" gradientUnits="userSpaceOnUse">
<stop stop-color="#DDA2FC"/>
<stop offset="0.1867" stop-color="#E1ADFC"/>
<stop offset="0.511" stop-color="#EBC9FD"/>
<stop offset="0.9317" stop-color="#FCF7FF"/>
<stop offset="1" stop-color="white"/>
</linearGradient>
<linearGradient id="paint3_linear_510_13841" x1="2.12355" y1="13.1969" x2="14.6966" y2="0.62393" gradientUnits="userSpaceOnUse">
<stop stop-color="#DDA2FC"/>
<stop offset="0.1867" stop-color="#E1ADFC"/>
<stop offset="0.511" stop-color="#EBC9FD"/>
<stop offset="0.9317" stop-color="#FCF7FF"/>
<stop offset="1" stop-color="white"/>
</linearGradient>
<linearGradient id="paint4_linear_510_13841" x1="6.86991" y1="9.13013" x2="9.43921" y2="6.56083" gradientUnits="userSpaceOnUse">
<stop stop-color="#DDA2FC" stop-opacity="0"/>
<stop offset="0.2386" stop-color="#DAA0FC" stop-opacity="0.239"/>
<stop offset="0.3893" stop-color="#D299FA" stop-opacity="0.389"/>
<stop offset="0.5155" stop-color="#C38DF8" stop-opacity="0.516"/>
<stop offset="0.6283" stop-color="#AE7CF5" stop-opacity="0.628"/>
<stop offset="0.7321" stop-color="#9366F1" stop-opacity="0.732"/>
<stop offset="0.8294" stop-color="#724BEC" stop-opacity="0.829"/>
<stop offset="0.9198" stop-color="#4C2CE6" stop-opacity="0.92"/>
<stop offset="1" stop-color="#230BE0"/>
</linearGradient>
<linearGradient id="paint5_linear_510_13841" x1="-1.24107" y1="13.3326" x2="12.9992" y2="-0.907664" gradientUnits="userSpaceOnUse">
<stop stop-color="#230BE0"/>
<stop offset="1" stop-color="#F2D5FF"/>
</linearGradient>
<linearGradient id="paint6_linear_510_13841" x1="8.87143" y1="4.84368" x2="7.44848" y2="3.42074" gradientUnits="userSpaceOnUse">
<stop stop-color="#DDA2FC" stop-opacity="0"/>
<stop offset="0.1429" stop-color="#D99FFB" stop-opacity="0.143"/>
<stop offset="0.2897" stop-color="#CD95FA" stop-opacity="0.29"/>
<stop offset="0.4385" stop-color="#B884F6" stop-opacity="0.439"/>
<stop offset="0.5885" stop-color="#9B6DF2" stop-opacity="0.589"/>
<stop offset="0.7396" stop-color="#764EEC" stop-opacity="0.74"/>
<stop offset="0.8893" stop-color="#492AE6" stop-opacity="0.889"/>
<stop offset="1" stop-color="#230BE0"/>
</linearGradient>
<linearGradient id="paint7_linear_510_13841" x1="11.156" y1="7.12726" x2="12.5789" y2="8.55021" gradientUnits="userSpaceOnUse">
<stop stop-color="#DDA2FC" stop-opacity="0"/>
<stop offset="0.1429" stop-color="#D99FFB" stop-opacity="0.143"/>
<stop offset="0.2897" stop-color="#CD95FA" stop-opacity="0.29"/>
<stop offset="0.4385" stop-color="#B884F6" stop-opacity="0.439"/>
<stop offset="0.5885" stop-color="#9B6DF2" stop-opacity="0.589"/>
<stop offset="0.7396" stop-color="#764EEC" stop-opacity="0.74"/>
<stop offset="0.8893" stop-color="#492AE6" stop-opacity="0.889"/>
<stop offset="1" stop-color="#230BE0"/>
</linearGradient>
<linearGradient id="paint8_linear_510_13841" x1="-3.03589" y1="13.6276" x2="11.4591" y2="-0.867398" gradientUnits="userSpaceOnUse">
<stop stop-color="#230BE0"/>
<stop offset="1" stop-color="#F2D5FF"/>
</linearGradient>
<linearGradient id="paint9_linear_510_13841" x1="-3.81537" y1="14.3933" x2="10.5792" y2="-0.00128569" gradientUnits="userSpaceOnUse">
<stop stop-color="#230BE0"/>
<stop offset="1" stop-color="#F2D5FF"/>
</linearGradient>
<linearGradient id="paint10_linear_510_13841" x1="2.66538" y1="17.2381" x2="16.9056" y2="2.99787" gradientUnits="userSpaceOnUse">
<stop stop-color="#230BE0"/>
<stop offset="1" stop-color="#F2D5FF"/>
</linearGradient>
<linearGradient id="paint11_linear_510_13841" x1="2.37065" y1="19.0334" x2="16.8656" y2="4.53853" gradientUnits="userSpaceOnUse">
<stop stop-color="#230BE0"/>
<stop offset="1" stop-color="#F2D5FF"/>
</linearGradient>
<linearGradient id="paint12_linear_510_13841" x1="1.60262" y1="19.8128" x2="15.9971" y2="5.41826" gradientUnits="userSpaceOnUse">
<stop stop-color="#230BE0"/>
<stop offset="1" stop-color="#F2D5FF"/>
</linearGradient>
<linearGradient id="paint13_linear_510_13841" x1="0.426017" y1="15.5768" x2="14.6365" y2="1.3663" gradientUnits="userSpaceOnUse">
<stop stop-color="#DDA2FC"/>
<stop offset="0.1867" stop-color="#E1ADFC"/>
<stop offset="0.511" stop-color="#EBC9FD"/>
<stop offset="0.9317" stop-color="#FCF7FF"/>
<stop offset="1" stop-color="white"/>
</linearGradient>
<linearGradient id="paint14_linear_510_13841" x1="-1.41903" y1="16.5669" x2="12.7715" y2="2.37635" gradientUnits="userSpaceOnUse">
<stop stop-color="#DDA2FC"/>
<stop offset="0.1867" stop-color="#E1ADFC"/>
<stop offset="0.511" stop-color="#EBC9FD"/>
<stop offset="0.9317" stop-color="#FCF7FF"/>
<stop offset="1" stop-color="white"/>
</linearGradient>
<linearGradient id="paint15_linear_510_13841" x1="0.352711" y1="12.5855" x2="16.2168" y2="-3.27851" gradientUnits="userSpaceOnUse">
<stop stop-color="#DDA2FC"/>
<stop offset="0.1867" stop-color="#E1ADFC"/>
<stop offset="0.511" stop-color="#EBC9FD"/>
<stop offset="0.9317" stop-color="#FCF7FF"/>
<stop offset="1" stop-color="white"/>
</linearGradient>
<linearGradient id="paint16_linear_510_13841" x1="3.59637" y1="15.4618" x2="19.4605" y2="-0.402308" gradientUnits="userSpaceOnUse">
<stop stop-color="#DDA2FC"/>
<stop offset="0.1867" stop-color="#E1ADFC"/>
<stop offset="0.511" stop-color="#EBC9FD"/>
<stop offset="0.9317" stop-color="#FCF7FF"/>
<stop offset="1" stop-color="white"/>
</linearGradient>
<linearGradient id="paint17_linear_510_13841" x1="0.71707" y1="16.6402" x2="12.4472" y2="4.90988" gradientUnits="userSpaceOnUse">
<stop stop-color="#230BE0"/>
<stop offset="1" stop-color="#F2D5FF"/>
</linearGradient>
<linearGradient id="paint18_linear_510_13841" x1="-2.75175" y1="18.0722" x2="11.7474" y2="3.5732" gradientUnits="userSpaceOnUse">
<stop stop-color="#230BE0"/>
<stop offset="1" stop-color="#F2D5FF"/>
</linearGradient>
<linearGradient id="paint19_linear_510_13841" x1="-1.00797" y1="18.0194" x2="10.8998" y2="6.11166" gradientUnits="userSpaceOnUse">
<stop stop-color="#230BE0"/>
<stop offset="1" stop-color="#F2D5FF"/>
</linearGradient>
<linearGradient id="paint20_linear_510_13841" x1="-4.97345" y1="19.9533" x2="11.044" y2="3.93582" gradientUnits="userSpaceOnUse">
<stop stop-color="#230BE0"/>
<stop offset="1" stop-color="#F2D5FF"/>
</linearGradient>
</defs>
</svg>
