<svg width="16" height="16" viewBox="0 0 16 16" fill="none" xmlns="http://www.w3.org/2000/svg">
<path d="M3.04591 2.28984C1.88959 2.96094 0.896249 3.84306 0.0942487 4.91194C-0.0613763 5.11931 -0.0201888 5.41272 0.187624 5.56838C0.395186 5.72403 0.689186 5.68131 0.843155 5.475C1.57009 4.50684 2.46912 3.7085 3.5165 3.10103C3.74081 2.97103 3.81678 2.684 3.68678 2.46016C3.55584 2.23537 3.26747 2.15984 3.04591 2.28984ZM15.9056 4.91194C15.1036 3.84306 14.1103 2.96094 12.954 2.28988C12.7306 2.15988 12.4431 2.23541 12.3131 2.46016C12.1831 2.684 12.2591 2.97103 12.4834 3.10103C13.5308 3.70847 14.4298 4.50681 15.1567 5.475C15.3107 5.68125 15.6046 5.72409 15.8123 5.56838C16.0201 5.41272 16.0613 5.11928 15.9056 4.91194ZM7.99994 10.3438C7.74084 10.3438 7.53119 10.5534 7.53119 10.8125V12.6875C7.53119 12.9466 7.74084 13.1562 7.99994 13.1562C8.25903 13.1562 8.46869 12.9466 8.46869 12.6875V10.8125C8.46869 10.5534 8.25903 10.3438 7.99994 10.3438ZM8.93744 0.96875H7.06244C6.80334 0.96875 6.59369 1.17841 6.59369 1.4375C6.59369 1.69659 6.80334 1.90625 7.06244 1.90625H7.53119V3.3125C7.53119 3.57159 7.74084 3.78125 7.99994 3.78125C8.25903 3.78125 8.46869 3.57159 8.46869 3.3125V1.90625H8.93744C9.19653 1.90625 9.40619 1.69659 9.40619 1.4375C9.40619 1.17841 9.19653 0.96875 8.93744 0.96875Z" fill="url(#paint0_linear_510_13874)"/>
<path d="M0.46875 11.2812H15.5312C15.7903 11.2812 16 11.0716 16 10.8125C16 6.41844 12.3936 2.84375 8 2.84375C3.60638 2.84375 0 6.41844 0 10.8125C0 11.0716 0.209656 11.2812 0.46875 11.2812ZM13.6562 12.2188H2.34375C1.05103 12.2188 0 13.2702 0 14.5625C0 14.8216 0.209656 15.0312 0.46875 15.0312H15.5312C15.7903 15.0312 16 14.8216 16 14.5625C16 13.2702 14.949 12.2188 13.6562 12.2188Z" fill="url(#paint1_linear_510_13874)"/>
<defs>
<linearGradient id="paint0_linear_510_13874" x1="7.99994" y1="13.1562" x2="7.99994" y2="0.96875" gradientUnits="userSpaceOnUse">
<stop stop-color="#FFC2CC"/>
<stop offset="1" stop-color="#FFF2F4"/>
</linearGradient>
<linearGradient id="paint1_linear_510_13874" x1="8" y1="15.0312" x2="8" y2="2.84375" gradientUnits="userSpaceOnUse">
<stop stop-color="#FD3A84"/>
<stop offset="1" stop-color="#FFA68D"/>
</linearGradient>
</defs>
</svg>
