<svg xmlns="http://www.w3.org/2000/svg" width="14" height="16" viewBox="0 0 14 16">
    <g fill="none" fill-rule="evenodd">
        <g fill="#999" fill-rule="nonzero">
            <g>
                <path d="M8 24c2.21 0 4-1.79 4-4s-1.79-4-4-4-4 1.79-4 4 1.79 4 4 4zm2.8 1h-.522c-.694.319-1.466.5-2.278.5-.813 0-1.581-.181-2.278-.5H5.2C2.881 25 1 26.881 1 29.2v1.3c0 .828.672 1.5 1.5 1.5h11c.828 0 1.5-.672 1.5-1.5v-1.3c0-2.319-1.881-4.2-4.2-4.2z" transform="translate(-1104 -303) translate(1103 287) matrix(-1 0 0 1 16 0)"/>
            </g>
        </g>
    </g>
</svg>
