<svg xmlns="http://www.w3.org/2000/svg" width="36" height="47" viewBox="0 0 36 47">
    <g fill="none" fill-rule="evenodd">
        <g fill="#34CA98" fill-rule="nonzero">
            <g>
                <g>
                    <g>
                        <path d="M163.089 103.718c-.302-.204-.698-.181-.975.056-.278.237-.37.633-.228.973 1.096 2.486.935 5.365-.433 7.705-2.67-13.153-8.55-20.804-8.81-21.138-.188-.236-.484-.351-.776-.303-.293.05-.536.26-.635.547-.032.091-3.208 9.142-10.358 14.707-7.21 5.612-6.884 12.985-6.868 13.248-.013 6.6 3.414 12.705 8.988 16.009 5.573 3.304 12.445 3.304 18.019 0 5.574-3.304 9-9.409 8.987-16.009v-.018c-.233-11.124-6.639-15.592-6.911-15.777zM152 137c-3.864-.005-6.996-3.413-7-7.62 0-6.25 6.16-13.794 6.421-14.112.152-.171.36-.268.579-.268.218 0 .427.097.579.268.262.318 6.421 7.861 6.421 14.112-.004 4.207-3.136 7.615-7 7.62z" transform="translate(-665 -210) translate(179 104) translate(352 15)"/>
                    </g>
                </g>
            </g>
        </g>
    </g>
</svg>
