<svg xmlns="http://www.w3.org/2000/svg" width="16" height="16" viewBox="0 0 16 16">
    <g fill="none" fill-rule="evenodd">
        <g fill="#999" fill-rule="nonzero">
            <g>
                <path d="M12.645 73.717C14.677 75.146 16 77.483 16 80.127 16 84.47 12.426 87.99 8.016 88 3.613 88.01.006 84.476 0 80.14c-.003-2.645 1.32-4.988 3.348-6.42.378-.263.904-.152 1.13.245l.51.892c.19.333.1.756-.214.984-1.339.978-2.193 2.527-2.193 4.283C2.577 83.054 4.984 85.46 8 85.46c2.955 0 5.439-2.355 5.42-5.368-.01-1.644-.797-3.232-2.197-4.254-.313-.228-.4-.65-.21-.98l.51-.893c.225-.394.748-.511 1.122-.248zM9.29 80.381v-7.62c0-.421-.345-.761-.774-.761H7.484c-.43 0-.774.34-.774.762v7.619c0 .422.345.762.774.762h1.032c.43 0 .774-.34.774-.762z" transform="translate(-1103 -359) translate(1103 287)"/>
            </g>
        </g>
    </g>
</svg>
