<svg xmlns="http://www.w3.org/2000/svg" width="15" height="24" viewBox="0 0 15 24">
    <g fill="none" fill-rule="evenodd">
        <g fill="#999" fill-rule="nonzero">
            <g>
                <g>
                    <path d="M15 13.929c0 .035 0 .035-.039.07-2.254 2.897-4.508 5.758-6.762 8.654-.233.318-.466.6-.699.918-.038 0-.038 0-.077-.035-.77-.989-1.5-1.943-2.27-2.932l-2.307-2.967c-.73-.953-1.5-1.907-2.23-2.896l-.578-.742c0-.035-.038-.035-.038-.07.038 0 .038.035.077.035 1.038.565 2.115 1.13 3.154 1.695 1.192.671 2.423 1.307 3.615 1.978.192.106.423.212.616.318.038 0 .038.036.038.07v-.07c.505-.282 1.01-.565 1.516-.812l5.945-3.18c0-.034.039-.034.039-.034zm-.077-2.253c.038.036.077.073.077.11-.155-.074-.31-.147-.503-.22-.193-.074-.386-.184-.58-.258-.115-.036-.231-.11-.386-.146-.193-.074-.425-.184-.619-.257l-.074-.033c.068.032.135.066.2.1.347.149.731.296 1.077.481.27.111.539.259.847.37 0-.037 0 0 .038 0-.577.37-1.192.702-1.77 1.034-1.884 1.072-3.73 2.106-5.615 3.177-.038 0-.038.037-.077.037-.038 0-.038-.037-.038-.037v.021c-.038.037-.038 0-.077 0-.115-.073-.23-.11-.308-.183L.077 11.91c-.029-.028-.058-.035-.07-.036H0c.385-.184.77-.331 1.154-.515l1.5-.66c.384-.183.77-.33 1.154-.513.538-.257 1.115-.477 1.654-.734.384-.147.769-.33 1.153-.477.27-.11.539-.22.808-.367.039 0 .039-.037.077-.037v.037c0-.024.017-.032.04-.035l-.04-.018v-.039c0 .037-.038.074-.077.074-.267.11-.497.219-.765.328-.344.147-.727.293-1.071.476l-1.263.548-1.033.439-1.263.548c-.344.146-.689.292-1.071.475-.268.11-.574.256-.842.365-.038 0-.038.037-.077 0H0c.115-.182.23-.328.344-.511.613-.987 1.263-1.974 1.875-2.96.65-1.06 1.34-2.12 1.99-3.18.612-.988 1.225-1.975 1.837-2.925.46-.731.918-1.425 1.34-2.156.057 0 .071-.021.09-.031L7.5 0l7.423 11.676z" transform="translate(-318 -15) translate(1) translate(317 15)"/>
                </g>
            </g>
        </g>
    </g>
</svg>
