<svg xmlns="http://www.w3.org/2000/svg" width="20" height="20" viewBox="0 0 20 20">
    <g fill="none" fill-rule="evenodd">
        <g fill="#999" fill-rule="nonzero">
            <g>
                <g>
                    <g>
                        <g>
                            <path d="M16 14l-1.39 6.07L12.398 22l-1.106-.965v-1.93L10 17.976c2.023-1.026 3.949-2.188 6-3.976zM1.028 18.632c.632-.705 1.706-.915 2.475-.138.75.78.608 1.781-.139 2.477-1.216 1.218-3.056 1.032-3.304 1l-.028-.003s-.31-2.028.996-3.336zM4.016 14l1.539 1.538-.694.694.907.907.694-.694L8 17.984c-.504.275-1.775.953-1.893 1.016L3 15.893c.063-.118.741-1.389 1.016-1.893zM17.128 2.334c1.324-.34 2.33-.354 2.861-.323.078 1.338-.129 5.685-5.214 10.77-1.898 1.899-3.697 3.123-5.604 4.219l-1.664-1.665.643-.644-.842-.841-.643.644L5 12.828c1.096-1.906 2.32-3.706 4.219-5.604 3.175-3.177 6.054-4.412 7.909-4.89zM8 6c-1.788 2.051-2.95 3.977-3.976 6l-1.13-1.293H.965L0 9.6l1.93-2.21zm6.13-.243c-1.164 0-2.108.946-2.108 2.112 0 1.166.944 2.112 2.108 2.112 1.165 0 2.109-.946 2.109-2.112 0-1.166-.944-2.112-2.109-2.112zm-.385 1.262c.423-.261.978-.13 1.24.293.261.423.13.978-.293 1.24-.423.26-.978.13-1.24-.293-.26-.423-.13-.978.293-1.24z" transform="translate(-436 -121) translate(179 104) translate(257 15)"/>
                        </g>
                    </g>
                </g>
            </g>
        </g>
    </g>
</svg>
