<svg xmlns="http://www.w3.org/2000/svg" width="21" height="20" viewBox="0 0 21 20">
    <g fill="none" fill-rule="evenodd">
        <g fill="#FFF" fill-rule="nonzero">
            <g>
                <path d="M992.214 21.429h-13.402c-.31 0-.562-.256-.562-.572 0-.316.252-.571.563-.571h13.5c.31 0 .562-.256.562-.572 0-.947-.756-1.714-1.688-1.714H978.25c-1.243 0-2.25 1.023-2.25 2.286v11.428c0 1.263 1.007 2.286 2.25 2.286h13.964c.985 0 1.786-.769 1.786-1.714v-9.143c0-.945-.8-1.714-1.786-1.714zm-1.589 7.428c-.621 0-1.125-.512-1.125-1.143 0-.63.504-1.143 1.125-1.143s1.125.512 1.125 1.143-.504 1.143-1.125 1.143z" transform="translate(-1152 -119) translate(178 103) rotate(15 985 26)"/>
            </g>
        </g>
    </g>
</svg>
