<svg xmlns="http://www.w3.org/2000/svg" width="38" height="27" viewBox="0 0 38 27">
    <g fill="none" fill-rule="evenodd" opacity=".391">
        <g fill="#34CA98" fill-rule="nonzero">
            <g>
                <g>
                    <path d="M365.606 18c.303 0 .608.018.908.054.275.033.521.17.674.375.153.205.197.458.123.694l-.887 2.79c-.103.322-.41.562-.786.61-4.058.531-6.094 5.244-6.942 7.976.88-.335 2.013-.608 3.373-.608.88 0 1.785.116 2.69.345 2.206.559 4.03 1.82 5.138 3.552 1.12 1.751 1.398 3.78.783 5.715-1.029 3.236-4.411 5.497-8.226 5.497h-.037c-3.092-.107-5.494-1.17-7.141-3.16-2.943-3.555-2.593-9.204-1.398-12.962C355.913 22.473 360.736 18 365.606 18zm20 0c.304 0 .609.018.908.054.276.033.522.17.674.375.153.205.198.457.123.694l-.887 2.79c-.103.322-.41.562-.786.61-4.058.531-6.095 5.244-6.942 7.976.879-.335 2.014-.608 3.373-.608.88 0 1.785.116 2.69.345 2.205.559 4.03 1.82 5.138 3.552 1.12 1.75 1.398 3.78.784 5.715-1.029 3.236-4.412 5.497-8.226 5.497h-.038c-3.091-.106-5.494-1.17-7.14-3.159-2.944-3.556-2.593-9.205-1.4-12.963 2.036-6.405 6.86-10.878 11.73-10.878z" transform="translate(-732 -2555) translate(379 2537)"/>
                </g>
            </g>
        </g>
    </g>
</svg>
