<svg xmlns="http://www.w3.org/2000/svg" width="23" height="22" viewBox="0 0 23 22">
    <g fill="none" fill-rule="evenodd" opacity=".6">
        <g fill="#FFF" fill-rule="nonzero">
            <g>
                <g>
                    <path d="M5.992 10c.002.222.008.441.008.664C6 15.815 5.653 22 4 22s-2-6.185-2-11.336c0-.223.006-.442.008-.664h3.984zm6.854-8C18.396 2 23.045 6.224 23 11.553c-.048 5.406-5.04 9.621-10.127 9.441C10.656 20.92 8.622 20.1 7 19.056c.182-1.16.31-2.602.379-4.387.252.028.51.013.764-.05 1.08-.272 1.722-1.31 1.431-2.323-.244-.857-1.07-1.407-1.951-1.407-.065 0-.13.018-.195.024-.008-1.011-.032-2.012-.079-2.967.691-.27 1.232-.628 1.584-1.092.715-.94.524-2.043.449-2.359-.25-1.05.41-2.12 1.543-2.323.64-.115 1.283-.172 1.921-.172zM9.482 15.873c-.288 1 .339 2.049 1.43 2.322 1.074.27 2.19-.33 2.48-1.34.29-1.012-.35-2.052-1.432-2.324-1.078-.27-2.189.326-2.478 1.342zm5.737-2.161c-.789.74-.789 1.944 0 2.683.79.74 2.074.74 2.863 0 .79-.74.79-1.943 0-2.682v-.001c-.79-.738-2.074-.739-2.863 0zm2.305-5.375c-1.079.27-1.722 1.307-1.431 2.322.292 1.023 1.41 1.61 2.478 1.341 1.08-.27 1.721-1.313 1.432-2.322-.29-1.013-1.4-1.613-2.48-1.341zM5.933 7c.03.65.051 1.32.067 2H2c.016-.68.038-1.35.067-2 .577.34 1.23.55 1.933.55.704 0 1.356-.21 1.933-.55zm6.342-.9c-.29 1.012.35 2.052 1.432 2.324 1.086.27 2.19-.33 2.478-1.342.291-1.013-.352-2.052-1.43-2.322-1.08-.27-2.19.331-2.48 1.34zM2.828 0C5.128 0 7 1.644 7 3.616 7 4.93 5.753 6 4.219 6S1.437 4.93 1.437 3.616V2.424c0-.657-.67-1.232-1.437-1.232V0h2.828z" transform="translate(-1232 -16) translate(1) translate(1231 16)"/>
                </g>
            </g>
        </g>
    </g>
</svg>
