<svg xmlns="http://www.w3.org/2000/svg" width="18" height="23" viewBox="0 0 18 23">
    <g fill="none" fill-rule="evenodd">
        <g fill="#999" fill-rule="nonzero">
            <g>
                <g>
                    <path d="M18.272 14.75c-.136-.98-.61-1.738-1.457-2.237-.39-.224-.814-.379-1.254-.568.05-.034.084-.069.118-.086 2.118-1.102 1.932-4.423.39-5.56-.627-.464-1.322-.757-2.05-.929-.526-.12-1.05-.206-1.593-.292 0-.964.017-2.29.017-3.357H10.46c-.017 1.05-.017 2.341-.034 3.288H8.834c0-.947.017-2.238.017-3.288H6.885c-.017 1.067-.017 2.393-.034 3.34-1.355-.018-2.66-.018-4.016-.035 0 .74-.017 1.428-.017 2.151.288 0 .542 0 .78.018.254 0 .508 0 .745.017.695.051 1.05.447 1.05 1.136-.033 2.874-.067 5.766-.084 8.64 0 .637-.271.878-.881.878H3.106c-.135.809-.27 1.584-.406 2.392l4.016.052c0 1.033-.017 2.34-.017 3.425H8.68c.017-1.084.017-2.358.034-3.373l1.593.051c0 1.033-.017 2.29-.017 3.34h1.982c.017-1.085.017-2.359.034-3.357.068-.017.119-.017.17-.034.949-.155 1.915-.241 2.83-.465 1.203-.31 2.152-1.015 2.66-2.22.356-.93.44-1.91.305-2.926zM8.868 7.385c1.236 0 2.44-.103 3.558.413.746.327 1.118.947 1.067 1.687-.05.792-.49 1.36-1.287 1.618-1.085.361-2.22.344-3.39.292.018-1.308.035-2.616.052-4.01zm4.32 10.052c-1.101.499-2.253.499-3.422.516-.322 0-.644-.017-1-.017l.05-4.458c1.509 0 3-.12 4.406.516.729.327 1.153.895 1.153 1.739-.017.843-.458 1.377-1.187 1.704z" transform="translate(-511 -14) translate(1) translate(509 13) rotate(15 10.516 12.737)"/>
                </g>
            </g>
        </g>
    </g>
</svg>
