<svg width="32" height="32" viewBox="0 0 32 32" fill="none" xmlns="http://www.w3.org/2000/svg">
<g clip-path="url(#clip0_458_15901)">
<path d="M26.869 8.52678C24.3884 7.57203 20.7694 7.62323 18.0514 10.6308L17.2283 11.5415L19.687 14.5264L20.8313 13.143C21.672 12.2128 22.7395 11.7211 23.9184 11.7211C24.8791 11.7211 25.9129 12.0779 26.6839 12.6754C27.3997 13.2303 28.2532 14.2575 28.2532 15.9999C28.2532 17.7422 27.3998 18.7694 26.6838 19.3243C25.9129 19.9219 24.8791 20.2787 23.9184 20.2787C22.7395 20.2787 21.672 19.787 20.8313 18.8568L13.9487 10.6308C11.2307 7.62336 7.61167 7.57203 5.13105 8.52684C2.65055 9.48159 0 11.9462 0 15.9999C0 20.0537 2.65061 22.5183 5.13111 23.4732C7.61155 24.4278 11.2306 24.3766 13.9487 21.3692L14.7783 20.4512L12.3148 17.4714L11.1688 18.8568C10.3281 19.7871 9.26065 20.2787 8.08176 20.2787C7.12107 20.2787 6.08724 19.9219 5.31623 19.3244C4.60031 18.7695 3.74697 17.7423 3.74697 16C3.74697 14.2576 4.60031 13.2304 5.31623 12.6755C6.08717 12.0779 7.12107 11.7211 8.08176 11.7211C9.26065 11.7211 10.3281 12.2128 11.1688 13.143L18.0514 21.3692C20.7695 24.3766 24.3885 24.428 26.869 23.4732C29.3495 22.5183 32 20.0537 32 16C32 11.9462 29.3495 9.48159 26.869 8.52678Z" fill="white"/>
<path d="M8.08174 13.5967C7.39776 13.5967 5.62256 14.0284 5.62256 15.9999C5.62256 16.7887 5.90609 17.4085 6.46527 17.8419C6.99907 18.2556 7.65029 18.403 8.08174 18.403C8.72795 18.403 9.27851 18.1447 9.76423 17.6135L11.0982 15.9999L9.76423 14.3863C9.27857 13.855 8.72801 13.5967 8.08174 13.5967Z" fill="white"/>
<path d="M23.9179 18.403C24.6019 18.403 26.3771 17.9713 26.3771 15.9999C26.3771 15.211 26.0936 14.5913 25.5344 14.1579C25.0006 13.7441 24.3493 13.5967 23.9179 13.5967C23.2717 13.5967 22.7211 13.855 22.2354 14.3862L20.9014 15.9999L22.2354 17.6135C22.7212 18.1447 23.2717 18.403 23.9179 18.403Z" fill="white"/>
</g>
<defs>
<clipPath id="clip0_458_15901">
<rect width="32" height="32" fill="white"/>
</clipPath>
</defs>
</svg>
