<svg width="100" height="78" viewBox="0 0 100 78" fill="none" xmlns="http://www.w3.org/2000/svg">
<path d="M93.6505 0.111328H6.3493C2.84295 0.111328 0 2.9541 0 6.46044V71.5398C0 75.046 2.84295 77.8888 6.3493 77.8888H93.6505C97.157 77.8888 100 75.046 100 71.5397V6.46044C100 2.9541 97.1572 0.111328 93.6505 0.111328ZM93.6505 6.46044V52.6365L81.1378 41.2603C79.2571 39.5508 76.365 39.6191 74.5681 41.4175L61.9044 54.0793L36.9349 24.254C35.0475 22 31.5904 21.9778 29.6746 24.2048L6.3493 51.3128V6.46044H93.6505ZM66.6667 23.1271C66.6667 18.3048 70.5743 14.3969 75.3966 14.3969C80.219 14.3969 84.1267 18.3048 84.1267 23.1271C84.1267 27.9493 80.2192 31.8571 75.3966 31.8571C70.5745 31.8573 66.6667 27.9493 66.6667 23.1271Z" fill="#8E98A0"/>
</svg>
