<svg version="1.2" baseProfile="tiny-ps" xmlns="http://www.w3.org/2000/svg" viewBox="0 0 40 40" width="40" height="40">
	<title>orange-flame-svg</title>
	<defs>
		<linearGradient id="grd1" gradientUnits="userSpaceOnUse"  x1="20" y1="40" x2="20" y2="0">
			<stop offset="0" stop-color="#fd5900"  />
			<stop offset="1" stop-color="#ffde00"  />
		</linearGradient>
		<linearGradient id="grd2" gradientUnits="userSpaceOnUse"  x1="20" y1="40" x2="20" y2="16.6">
			<stop offset="0" stop-color="#ffe59a"  />
			<stop offset="1" stop-color="#ffffd5"  />
		</linearGradient>
	</defs>
	<style>
		tspan { white-space:pre }
		.s0 { fill: url(#grd1) } 
		.s1 { fill: url(#grd2) } 
	</style>
	<path id="Layer" class="s0" d="m35.23 24.77c0 8.4-6.83 15.23-15.23 15.23c-9.25 0-15.23-5.06-15.23-12.89c0-4.89 3.44-8.59 6.76-12.17c3.59-3.87 7.31-8.04 7.31-13.76c0-0.45 0.26-0.87 0.68-1.06c0.41-0.19 0.9-0.13 1.25 0.16c0.59 0.49 14.48 12.37 14.48 24.49z" />
	<path id="Layer" class="s1" d="m28.2 31.8c0 4.52-3.68 8.2-8.2 8.2c-4.52 0-8.2-3.68-8.2-8.2c0-1.44 0.38-2.86 1.1-4.1l6.09-10.55c0.42-0.73 1.61-0.73 2.03 0l6.09 10.55c0.72 1.24 1.1 2.66 1.1 4.1z" />
</svg>