<svg width="40" height="40" viewBox="0 0 40 40" fill="none" xmlns="http://www.w3.org/2000/svg">
<path d="M20.7507 0.271006C20.4005 -0.019697 19.913 -0.0814938 19.5033 0.110772C19.0913 0.303037 18.8281 0.717333 18.8281 1.17163C18.8281 6.89826 15.1134 11.0611 11.5222 14.9349C8.20117 18.518 4.76562 22.2236 4.76562 27.1091C4.76562 34.9403 10.7463 39.9997 20 39.9997C28.4 39.9997 35.2344 33.1653 35.2344 24.7654C35.2344 12.6369 21.3413 0.764208 20.7507 0.271006Z" fill="url(#paint0_linear_458_15932)"/>
<path d="M15.3125 0C14.6648 0 14.1406 0.524141 14.1406 1.17188C14.1406 5.05711 11.4719 8.09391 8.09359 11.7411L8.08445 11.7491C7.64499 12.2241 7.67702 12.9611 8.15312 13.4005C8.63218 13.8454 9.37663 13.8046 9.81249 13.3341C13.2434 9.62969 16.4844 5.97609 16.4844 1.17188C16.4844 0.524141 15.9602 0 15.3125 0V0ZM27.1068 27.6999L21.014 17.1484C20.5974 16.4229 19.4026 16.4229 18.9861 17.1484L12.8933 27.6999C12.1768 28.9393 11.7969 30.3561 11.7969 31.7969C11.7969 36.3196 15.4773 40 20 40C24.5227 40 28.2031 36.3196 28.2031 31.7969C28.2031 30.3561 27.8232 28.9393 27.1068 27.6999Z" fill="url(#paint1_linear_458_15932)"/>
<defs>
<linearGradient id="paint0_linear_458_15932" x1="20" y1="39.9997" x2="20" y2="0.000225067" gradientUnits="userSpaceOnUse">
<stop stop-color="#FD5900"/>
<stop offset="1" stop-color="#FFDE00"/>
</linearGradient>
<linearGradient id="paint1_linear_458_15932" x1="17.9887" y1="40" x2="17.9887" y2="0" gradientUnits="userSpaceOnUse">
<stop stop-color="#FFE59A"/>
<stop offset="1" stop-color="#FFFFD5"/>
</linearGradient>
</defs>
</svg>
