<svg width="40" height="40" viewBox="0 0 40 40" fill="none" xmlns="http://www.w3.org/2000/svg">
<g clip-path="url(#clip0_781_101878)">
<path d="M39.9269 17.0638C38.6841 8.21753 31.0616 1.09354 22.1856 0.123073C13.6849 -0.799271 5.78624 3.51971 2.01656 11.1598C0.354837 14.5896 -0.297429 18.4016 0.126009 22.1816C1.0964 31.0576 8.22156 38.6739 17.2669 39.942C19.4176 40.2128 21.5399 39.5244 23.1332 38.1224C24.8178 36.6392 25.7837 34.2323 25.7837 31.9915V29.2964C25.7837 27.3578 27.3607 25.7808 29.2993 25.7808H31.9955C34.2363 25.7808 36.6494 24.8149 38.1326 23.1315C39.5879 21.4775 40.2302 19.4393 39.9269 17.0638Z" fill="url(#paint0_linear_781_101878)"/>
<path d="M14.1238 14.1218C15.4946 12.751 15.5013 10.5268 14.1238 9.1494C12.7448 7.77034 10.516 7.7812 9.1525 9.1494C7.77618 10.5257 7.7804 12.7522 9.1525 14.1196C10.5209 15.495 12.7492 15.4941 14.1238 14.1218ZM7.69454 19.5589C7.69227 19.5589 7.69227 19.5589 7.69227 19.5589C5.82227 20.0614 4.70766 21.992 5.20891 23.8653C5.71313 25.7424 7.64977 26.8517 9.51188 26.351C11.3864 25.8497 12.5011 23.9179 11.9998 22.0434C11.4963 20.1723 9.56227 19.0565 7.69454 19.5589ZM34.6385 15.9781C34.135 14.1081 32.1987 12.9923 30.3355 13.4925C28.461 13.9937 27.3463 15.9255 27.8476 17.8C28.348 19.6632 30.2731 20.7868 32.1551 20.2846C34.0251 19.7821 35.1398 17.8514 34.6385 15.9781ZM23.8673 5.2069C21.9498 4.69737 20.0533 5.84909 19.5598 7.69253C19.0608 9.56479 20.1755 11.4954 22.0454 11.9978C23.9374 12.5028 25.8538 11.3779 26.353 9.51097C26.8611 7.61284 25.7216 5.70323 23.8673 5.2069ZM17.802 27.8456C15.8839 27.3359 13.9845 28.4926 13.4967 30.3301C12.8962 32.5528 14.5673 34.7578 16.8979 34.7578C18.4175 34.7578 19.8602 33.7484 20.2877 32.1497C20.7866 30.2786 19.672 28.348 17.802 27.8456Z" fill="url(#paint1_linear_781_101878)"/>
</g>
<defs>
<linearGradient id="paint0_linear_781_101878" x1="20.0005" y1="40" x2="20.0005" y2="2.38419e-05" gradientUnits="userSpaceOnUse">
<stop stop-color="#FD3A84"/>
<stop offset="1" stop-color="#FFA68D"/>
</linearGradient>
<linearGradient id="paint1_linear_781_101878" x1="19.9237" y1="34.7578" x2="19.9237" y2="5.08589" gradientUnits="userSpaceOnUse">
<stop stop-color="#FFC2CC"/>
<stop offset="1" stop-color="#FFF2F4"/>
</linearGradient>
<clipPath id="clip0_781_101878">
<rect width="40" height="40" fill="white"/>
</clipPath>
</defs>
</svg>
