<svg width="32" height="26" viewBox="0 0 32 26" fill="none" xmlns="http://www.w3.org/2000/svg">
<path d="M31.3534 0.839297C31.2936 0.68781 31.1557 0.581214 30.994 0.561435C30.8327 0.541731 30.6728 0.611956 30.5782 0.744553C30.0167 1.53191 29.2797 1.79437 28.4261 2.0983C27.7378 2.3435 27.026 2.59684 26.2567 3.14916C25.1687 3.93022 24.6711 4.99492 24.9192 6.00407L24.8927 6.03807C24.4384 5.37901 23.9441 4.76943 23.4224 4.22512C20.9818 1.67851 17.5716 0.147495 14.0657 0.02475C13.9113 0.0193424 13.7543 0.0166016 13.5992 0.0166016C9.68455 0.0166016 5.9376 1.76659 3.31922 4.81773C0.714533 7.8531 -0.439952 11.8044 0.15192 15.6586C0.201404 15.9807 0.263332 16.3062 0.336149 16.6262C1.29885 20.8636 3.75768 24.087 7.08224 25.4697C7.90175 25.8106 8.72837 25.9834 9.53884 25.9834C11.5525 25.9834 13.3113 24.9064 14.3644 23.0285C14.7647 22.314 15.023 21.5751 15.1318 20.8321C15.196 20.3935 15.1521 19.9554 15.1096 19.5308C15.0658 19.0937 15.0245 18.6807 15.0907 18.2648C15.2423 17.3115 15.9082 16.7423 16.872 16.7423C17.1461 16.7423 17.4263 16.7874 17.7061 16.8765C17.3785 17.4773 17.081 18.0509 16.8211 18.5827C16.2702 19.7095 15.8902 20.6427 15.6913 21.3561C15.5687 21.796 15.243 22.9652 16.0372 23.5165C16.2894 23.6915 16.6092 23.7533 16.9421 23.6914C17.242 23.6356 18.1546 23.4661 20.748 20.5138C21.444 19.7215 22.194 18.8047 22.978 17.7882C24.9905 17.1104 26.5566 15.4236 26.9709 13.4853C27.0746 13.0008 27.1179 12.4822 27.0994 11.9436C27.853 10.7791 28.5139 9.69257 29.1789 8.52453C29.1917 8.50201 29.2043 8.47801 29.2167 8.45341C30.182 8.18903 31.0134 7.43782 31.5014 6.38734C32.2139 4.85418 32.1613 2.88374 31.3534 0.839297ZM20.4737 8.09918C20.1245 8.65364 19.5244 8.98469 18.8682 8.98469C18.5119 8.98469 18.1634 8.88387 17.8604 8.69305C17.4321 8.42326 17.1342 8.00288 17.0221 7.50931C16.9101 7.01573 16.9966 6.50794 17.2664 6.07955C17.6156 5.52509 18.2158 5.19404 18.8721 5.19404C19.2284 5.19404 19.5769 5.29486 19.8798 5.48575C20.3081 5.75539 20.6059 6.17578 20.718 6.66943C20.8301 7.16307 20.7434 7.67079 20.4737 8.09918ZM22.9335 11.5329C23.8916 10.1212 24.9049 8.71794 25.8673 7.46975C26.0233 7.61064 26.1977 7.74828 26.3867 7.87939C26.6998 8.09666 27.0273 8.26467 27.3618 8.37971C26.5493 9.76924 25.6756 11.1459 24.6178 12.7039C22.8797 15.2648 21.0726 17.6437 19.5291 19.4022C18.667 20.3845 17.9125 21.1429 17.3312 21.6126C17.5556 20.8948 17.9844 19.9097 18.5812 18.7424C19.6485 16.6552 21.1941 14.0948 22.9335 11.5329ZM6.11176 11.5207C5.75537 11.5207 5.40684 11.4199 5.1038 11.229C4.67549 10.9593 4.37777 10.539 4.26562 10.0453C4.15347 9.55167 4.24028 9.04388 4.51015 8.61549C4.85912 8.0611 5.45929 7.73006 6.11546 7.73006C6.47192 7.73006 6.82045 7.83087 7.12342 8.02177C8.0076 8.57868 8.27398 9.75109 7.71744 10.6351C7.3681 11.1897 6.76785 11.5207 6.11176 11.5207ZM4.12517 15.6938C4.47429 15.1393 5.07439 14.8082 5.73063 14.8082C6.08694 14.8082 6.4354 14.9091 6.73852 15.0999C7.16683 15.3697 7.46455 15.79 7.5767 16.2836C7.68892 16.7771 7.60211 17.2848 7.33217 17.7134C6.9832 18.2677 6.38303 18.5988 5.72686 18.5988C5.37047 18.5988 5.02187 18.498 4.71875 18.3071C4.29043 18.0373 3.99279 17.6171 3.88072 17.1234C3.76871 16.6299 3.8556 16.1221 4.12517 15.6938ZM10.1944 4.43831C10.5435 3.88385 11.1437 3.5528 11.7999 3.5528C12.1561 3.5528 12.5046 3.65362 12.8076 3.84444C13.6919 4.4012 13.9583 5.57368 13.4016 6.45786C13.0524 7.0124 12.4522 7.34345 11.796 7.34345C11.4397 7.34345 11.0912 7.24263 10.7882 7.05174C10.36 6.7821 10.0623 6.36178 9.95019 5.86806C9.83789 5.37449 9.92471 4.86677 10.1944 4.43831Z" fill="white"/>
</svg>
