<svg width="24" height="24" viewBox="0 0 24 24" fill="none" xmlns="http://www.w3.org/2000/svg">
<path d="M20.4905 3.51345C15.8111 -1.16594 8.19472 -1.16594 3.51533 3.51345C1.24862 5.78105 0 8.79528 0 12.001C0 15.2067 1.24862 18.221 3.51533 20.4877C5.85549 22.8278 8.92921 23.9974 12.0029 23.9974C15.0766 23.9974 18.1503 22.8278 20.4904 20.4877C25.1698 15.8083 25.1698 8.19373 20.4905 3.51345ZM19.1758 19.173C15.2207 23.1281 8.78507 23.1281 4.82995 19.173C2.91472 17.2578 1.85946 14.7103 1.85946 12.001C1.85946 9.29174 2.91472 6.74425 4.82995 4.82807C8.78507 0.872954 15.2207 0.873891 19.1758 4.82807C23.13 8.78319 23.13 15.2188 19.1758 19.173Z" fill="url(#paint0_linear)"/>
<path d="M16.0087 14.5701L13.3766 11.9417L16.0087 9.31336C16.3713 8.95078 16.3713 8.36226 16.0097 7.99869C15.6462 7.63424 15.0576 7.63517 14.6941 7.99776L12.0602 10.628L9.42625 7.99776C9.06273 7.63517 8.47421 7.63424 8.11069 7.99869C7.7481 8.36221 7.7481 8.95073 8.11162 9.31336L10.7437 11.9417L8.11162 14.5701C7.7481 14.9326 7.7481 15.5212 8.11069 15.8847C8.292 16.0669 8.53093 16.1571 8.76896 16.1571C9.00699 16.1571 9.24498 16.066 9.42629 15.8856L12.0602 13.2554L14.6942 15.8856C14.8755 16.0669 15.1135 16.1571 15.3515 16.1571C15.5895 16.1571 15.8284 16.066 16.0098 15.8847C16.3723 15.5212 16.3723 14.9326 16.0087 14.5701Z" fill="url(#paint1_linear)"/>
<defs>
<linearGradient id="paint0_linear" x1="0.340909" y1="1.5035" x2="25.4658" y2="3.28122" gradientUnits="userSpaceOnUse">
<stop stop-color="#11998E"/>
<stop offset="1" stop-color="#38EF7D"/>
</linearGradient>
<linearGradient id="paint1_linear" x1="7.95879" y1="8.25256" x2="16.797" y2="8.87856" gradientUnits="userSpaceOnUse">
<stop stop-color="#11998E"/>
<stop offset="1" stop-color="#38EF7D"/>
</linearGradient>
</defs>
</svg>
