<svg width="32" height="32" viewBox="0 0 32 32" fill="none" xmlns="http://www.w3.org/2000/svg">
<path d="M0 30.125H32V32H0V30.125Z" fill="white"/>
<path d="M1.9375 16.875H3.8125V28.25H1.9375V16.875Z" fill="white"/>
<path d="M5.6875 20.625H7.5625V28.25H5.6875V20.625Z" fill="white"/>
<path d="M9.4375 22.5H11.3125V28.25H9.4375V22.5Z" fill="white"/>
<path d="M13.1875 22.5H15.0625V28.25H13.1875V22.5Z" fill="white"/>
<path d="M16.9375 20.625H18.8125V28.25H16.9375V20.625Z" fill="white"/>
<path d="M20.6875 16.875H22.5625V28.25H20.6875V16.875Z" fill="white"/>
<path d="M24.4375 18.75H26.3125V28.25H24.4375V18.75Z" fill="white"/>
<path d="M28.1875 13.125H30.0625V28.25H28.1875V13.125Z" fill="white"/>
<path d="M12.25 20.625C7.59731 20.625 3.8125 16.8402 3.8125 12.1875C3.8125 7.53481 7.59731 3.75 12.25 3.75H13.1875V11.25H20.6875V12.1875C20.6875 16.8402 16.9027 20.625 12.25 20.625Z" fill="white"/>
<path d="M24.4375 9.375H15.0625V0H16C20.6527 0 24.4375 3.78481 24.4375 8.4375V9.375Z" fill="white"/>
</svg>
