<svg width="40" height="40" viewBox="0 0 40 40" fill="none" xmlns="http://www.w3.org/2000/svg">
<path d="M20 40C31.0457 40 40 31.0457 40 20C40 8.9543 31.0457 0 20 0C8.9543 0 0 8.9543 0 20C0 31.0457 8.9543 40 20 40Z" fill="url(#paint0_linear_491_32257)"/>
<path d="M32.2599 16.0166C32.122 15.5923 31.7554 15.2831 31.314 15.219L24.2225 14.1885L21.0511 7.76258C20.8537 7.36258 20.4463 7.10938 20.0002 7.10938C19.5542 7.10938 19.1468 7.36258 18.9494 7.76266L15.778 14.1886L8.68649 15.2191C8.24508 15.2832 7.87828 15.5924 7.74047 16.0166C7.60266 16.4409 7.71766 16.9066 8.03703 17.2179L13.1685 22.2198L11.9571 29.2826C11.8817 29.7222 12.0624 30.1666 12.4233 30.4288C12.7842 30.6909 13.2626 30.7255 13.6574 30.518L20.0002 27.1834L26.343 30.518C26.7409 30.727 27.219 30.689 27.5772 30.4288C27.938 30.1666 28.1188 29.7223 28.0434 29.2826L26.832 22.2198L31.9634 17.2179C32.2828 16.9065 32.3977 16.4408 32.2599 16.0166Z" fill="url(#paint1_linear_491_32257)"/>
<defs>
<linearGradient id="paint0_linear_491_32257" x1="20" y1="40" x2="20" y2="0" gradientUnits="userSpaceOnUse">
<stop stop-color="#FD5900"/>
<stop offset="1" stop-color="#FFDE00"/>
</linearGradient>
<linearGradient id="paint1_linear_491_32257" x1="20.0002" y1="30.6526" x2="20.0002" y2="7.10938" gradientUnits="userSpaceOnUse">
<stop stop-color="#FFE59A"/>
<stop offset="1" stop-color="#FFFFD5"/>
</linearGradient>
</defs>
</svg>
