<svg width="32" height="28" viewBox="0 0 32 28" fill="none" xmlns="http://www.w3.org/2000/svg">
<path d="M26.9331 12.6177V14.6807C28.9524 15.6897 30.1257 16.9386 30.1257 18.1776C30.1257 21.0172 24.4126 23.248 18.7603 23.7182C18.2442 23.7607 17.8606 24.2136 17.9037 24.7291C17.9442 25.2248 18.3716 25.6251 18.9146 25.5863C23.8348 25.1812 32.0001 23.0581 32.0001 18.1776C32.0001 15.5121 29.392 13.6784 26.9331 12.6177Z" fill="white"/>
<path d="M10.3638 20.5351C9.84326 20.0054 8.93857 20.2642 8.77969 20.9919L8.36551 22.8886C2.16101 21.2186 -0.81787 17.6269 5.07813 14.6807V12.6177C-2.6585 15.9552 -1.44443 22.2239 7.965 24.7223L7.59257 26.4276C7.43288 27.1587 8.15744 27.7771 8.85625 27.4976L13.5421 25.6233C14.162 25.3754 14.3319 24.574 13.8626 24.0963L10.3638 20.5351Z" fill="white"/>
<path d="M16.4162 0.55543C16.1272 0.391617 15.7732 0.393117 15.4856 0.55918L7.88867 4.94524C9.1753 5.68805 15.3045 9.2268 16.0037 9.63049L24.1215 4.92174L16.4162 0.55543Z" fill="white"/>
<path d="M6.95221 15.3405C6.95221 15.6754 7.13084 15.9847 7.42077 16.1522L15.0683 20.5675V11.2542L6.95215 6.56836V15.3405H6.95221Z" fill="white"/>
<path d="M25.0585 15.3408V6.54541L16.9424 11.2532V20.5677L24.5899 16.1524C24.8799 15.985 25.0585 15.6757 25.0585 15.3408Z" fill="white"/>
</svg>
