<svg width="32" height="32" viewBox="0 0 32 32" fill="none" xmlns="http://www.w3.org/2000/svg">
<path d="M9.93164 20.1626L15.5987 21.9988V13.8681L9.93164 12.0317V20.1626Z" fill="white"/>
<path d="M16.0963 9.75342L10.8887 11.4329L16.0963 13.1128L21.3042 11.4329L16.0963 9.75342Z" fill="white"/>
<path d="M16.4697 22.0391L22.2613 20.1626V12.0317L16.4697 13.9083V22.0391Z" fill="white"/>
<path d="M30.9495 10.6013C30.95 9.86241 30.5495 9.18121 29.9036 8.82239C29.2579 8.46377 28.4681 8.48306 27.8407 8.87385L23.1014 4.13453C23.5421 3.44905 23.5312 2.56671 23.0739 1.89214C22.6163 1.21758 21.8004 0.881169 21.0003 1.03729C20.2004 1.1936 19.5709 1.81184 19.4003 2.60881H12.6687C12.4993 1.81438 11.8735 1.19633 11.0767 1.03748C10.2799 0.87844 9.46504 1.2088 9.00351 1.87772C8.54217 2.54644 8.52307 3.42566 8.95478 4.11406L4.17102 8.87658C3.49158 8.45168 2.62581 8.46533 1.95982 8.91146C1.29403 9.3576 0.952162 10.1534 1.08665 10.9435C1.22133 11.7337 1.80702 12.3712 2.58294 12.572V19.3434C1.59126 19.5997 0.944951 20.5536 1.07398 21.5698C1.2034 22.586 2.068 23.3477 3.09242 23.3477C3.4682 23.3479 3.83657 23.2438 4.15641 23.0466L8.96901 27.86C8.52735 28.5453 8.53768 29.4278 8.99474 30.1029C9.45199 30.7779 10.2681 31.1147 11.0683 30.959C11.8684 30.803 12.4984 30.1844 12.6687 29.3872H19.4003C19.5709 30.1873 20.2037 30.8073 21.0073 30.9617C21.8105 31.1157 22.6282 30.7738 23.0825 30.0934C23.537 29.4132 23.5399 28.5273 23.0901 27.844L27.8557 23.0497C28.5441 23.4699 29.4159 23.4434 30.0777 22.9823C30.7396 22.5213 31.0664 21.713 30.9115 20.9213C30.7563 20.1298 30.1484 19.5046 29.3614 19.3276V12.5862C30.2893 12.3761 30.9483 11.5524 30.9495 10.6013ZM28.4896 19.3225C27.8288 19.4631 27.2813 19.9226 27.0278 20.5491C26.7744 21.1751 26.8485 21.8861 27.2256 22.4469L22.4662 27.2351C21.9068 26.8858 21.2128 26.8293 20.6045 27.0839C19.996 27.3382 19.5489 27.8719 19.405 28.5154H12.664C12.5196 27.8685 12.0688 27.3329 11.456 27.08C10.8436 26.827 10.146 26.8884 9.58725 27.245L4.78459 22.4418C5.16582 21.8719 5.23384 21.1482 4.96585 20.5169C4.69805 19.8858 4.1297 19.4323 3.45494 19.3104V12.6036C4.12678 12.4823 4.69318 12.0323 4.96254 11.4049C5.23189 10.7779 5.16875 10.0573 4.79375 9.48663L9.56523 4.73679C10.1232 5.10301 10.8253 5.17182 11.4439 4.92097C12.0625 4.67052 12.5186 4.13219 12.664 3.48062H19.405C19.5496 4.12771 20.0009 4.6637 20.614 4.91649C21.227 5.16909 21.925 5.10711 22.4837 4.75004L27.2166 9.48176C26.8455 10.0429 26.7763 10.7508 27.0313 11.3731C27.286 11.9956 27.8321 12.4517 28.4896 12.5917V19.3225Z" fill="white"/>
</svg>
