<svg width="64" height="64" viewBox="0 0 64 64" fill="none" xmlns="http://www.w3.org/2000/svg">
<path d="M47.5042 16.684L33.5042 0.684C33.1242 0.252 32.5762 0 32.0002 0C31.4242 0 30.8762 0.252 30.4962 0.684L16.4962 16.684C15.9802 17.276 15.8522 18.112 16.1802 18.828C16.5042 19.54 17.2162 20 18.0002 20H26.0002V46C26.0002 47.104 26.8962 48 28.0002 48H36.0002C37.1042 48 38.0002 47.104 38.0002 46V20H46.0002C46.7842 20 47.4962 19.544 47.8202 18.828C48.1442 18.112 48.0242 17.272 47.5042 16.684Z" fill="#8E98A0"/>
<path d="M54 44V56H10V44H2V60C2 62.212 3.792 64 6 64H58C60.212 64 62 62.212 62 60V44H54Z" fill="#8E98A0"/>
</svg>
