<svg width="638" height="438" viewBox="0 0 638 438" fill="none" xmlns="http://www.w3.org/2000/svg">
<g opacity="0.2">
<path d="M3.12733 5.49813C4.64561 5.49813 5.8763 4.26733 5.8763 2.74906C5.8763 1.23079 4.64561 0 3.12733 0C1.60906 0 0.378235 1.23079 0.378235 2.74906C0.378235 4.26733 1.60906 5.49813 3.12733 5.49813Z" fill="white"/>
<path d="M34.6958 5.49813C36.214 5.49813 37.4449 4.26733 37.4449 2.74906C37.4449 1.23079 36.214 0 34.6958 0C33.1775 0 31.9467 1.23079 31.9467 2.74906C31.9467 4.26733 33.1775 5.49813 34.6958 5.49813Z" fill="white"/>
<path d="M69.0133 2.74906C69.0133 4.26105 67.7763 5.49813 66.2643 5.49813C64.7524 5.49813 63.5152 4.26105 63.5152 2.74906C63.5152 1.23708 64.7524 0 66.2643 0C67.7763 0 69.0133 1.23708 69.0133 2.74906Z" fill="white"/>
<path d="M97.8328 5.49813C99.351 5.49813 100.582 4.26733 100.582 2.74906C100.582 1.23079 99.351 0 97.8328 0C96.3145 0 95.0837 1.23079 95.0837 2.74906C95.0837 4.26733 96.3145 5.49813 97.8328 5.49813Z" fill="white"/>
<path d="M129.401 5.49813C130.92 5.49813 132.15 4.26733 132.15 2.74906C132.15 1.23079 130.92 0 129.401 0C127.883 0 126.652 1.23079 126.652 2.74906C126.652 4.26733 127.883 5.49813 129.401 5.49813Z" fill="white"/>
<path d="M160.97 5.49813C162.488 5.49813 163.719 4.26733 163.719 2.74906C163.719 1.23079 162.488 0 160.97 0C159.452 0 158.221 1.23079 158.221 2.74906C158.221 4.26733 159.452 5.49813 160.97 5.49813Z" fill="white"/>
<path d="M192.561 5.49813C194.08 5.49813 195.31 4.26733 195.31 2.74906C195.31 1.23079 194.08 0 192.561 0C191.043 0 189.812 1.23079 189.812 2.74906C189.812 4.26733 191.043 5.49813 192.561 5.49813Z" fill="white"/>
<path d="M224.13 5.49813C225.648 5.49813 226.879 4.26733 226.879 2.74906C226.879 1.23079 225.648 0 224.13 0C222.611 0 221.381 1.23079 221.381 2.74906C221.381 4.26733 222.611 5.49813 224.13 5.49813Z" fill="white"/>
<path d="M255.698 5.49813C257.217 5.49813 258.447 4.26733 258.447 2.74906C258.447 1.23079 257.217 0 255.698 0C254.18 0 252.949 1.23079 252.949 2.74906C252.949 4.26733 254.18 5.49813 255.698 5.49813Z" fill="white"/>
<path d="M290.016 2.74906C290.016 4.26105 288.779 5.49813 287.267 5.49813C285.755 5.49813 284.518 4.26105 284.518 2.74906C284.518 1.23708 285.755 0 287.267 0C288.779 0 290.016 1.23708 290.016 2.74906Z" fill="white"/>
<path d="M318.835 5.49813C320.354 5.49813 321.584 4.26733 321.584 2.74906C321.584 1.23079 320.354 0 318.835 0C317.317 0 316.086 1.23079 316.086 2.74906C316.086 4.26733 317.317 5.49813 318.835 5.49813Z" fill="white"/>
<path d="M350.404 5.49813C351.922 5.49813 353.153 4.26733 353.153 2.74906C353.153 1.23079 351.922 0 350.404 0C348.885 0 347.655 1.23079 347.655 2.74906C347.655 4.26733 348.885 5.49813 350.404 5.49813Z" fill="white"/>
<path d="M381.995 5.49813C383.514 5.49813 384.744 4.26733 384.744 2.74906C384.744 1.23079 383.514 0 381.995 0C380.477 0 379.246 1.23079 379.246 2.74906C379.246 4.26733 380.477 5.49813 381.995 5.49813Z" fill="white"/>
<path d="M413.564 5.49813C415.082 5.49813 416.313 4.26733 416.313 2.74906C416.313 1.23079 415.082 0 413.564 0C412.045 0 410.815 1.23079 410.815 2.74906C410.815 4.26733 412.045 5.49813 413.564 5.49813Z" fill="white"/>
<path d="M445.132 5.49813C446.651 5.49813 447.881 4.26733 447.881 2.74906C447.881 1.23079 446.651 0 445.132 0C443.614 0 442.383 1.23079 442.383 2.74906C442.383 4.26733 443.614 5.49813 445.132 5.49813Z" fill="white"/>
<path d="M476.701 5.49813C478.219 5.49813 479.45 4.26733 479.45 2.74906C479.45 1.23079 478.219 0 476.701 0C475.182 0 473.952 1.23079 473.952 2.74906C473.952 4.26733 475.182 5.49813 476.701 5.49813Z" fill="white"/>
<path d="M508.269 5.49813C509.788 5.49813 511.018 4.26733 511.018 2.74906C511.018 1.23079 509.788 0 508.269 0C506.751 0 505.52 1.23079 505.52 2.74906C505.52 4.26733 506.751 5.49813 508.269 5.49813Z" fill="white"/>
<path d="M539.838 5.49813C541.356 5.49813 542.587 4.26733 542.587 2.74906C542.587 1.23079 541.356 0 539.838 0C538.319 0 537.089 1.23079 537.089 2.74906C537.089 4.26733 538.319 5.49813 539.838 5.49813Z" fill="white"/>
<path d="M574.155 2.74906C574.155 4.26105 572.918 5.49813 571.406 5.49813C569.894 5.49813 568.657 4.26105 568.657 2.74906C568.657 1.23708 569.894 0 571.406 0C572.941 0 574.155 1.23708 574.155 2.74906Z" fill="white"/>
<path d="M602.998 5.49813C604.516 5.49813 605.747 4.26733 605.747 2.74906C605.747 1.23079 604.516 0 602.998 0C601.479 0 600.249 1.23079 600.249 2.74906C600.249 4.26733 601.479 5.49813 602.998 5.49813Z" fill="white"/>
<path d="M634.566 5.49813C636.085 5.49813 637.315 4.26733 637.315 2.74906C637.315 1.23079 636.085 0 634.566 0C633.048 0 631.817 1.23079 631.817 2.74906C631.817 4.26733 633.048 5.49813 634.566 5.49813Z" fill="white"/>
<path d="M3.12733 36.3795C4.64561 36.3795 5.8763 35.1487 5.8763 33.6304C5.8763 32.1122 4.64561 30.8813 3.12733 30.8813C1.60906 30.8813 0.378235 32.1122 0.378235 33.6304C0.378235 35.1487 1.60906 36.3795 3.12733 36.3795Z" fill="white"/>
<path d="M34.6958 36.3795C36.214 36.3795 37.4449 35.1487 37.4449 33.6304C37.4449 32.1122 36.214 30.8813 34.6958 30.8813C33.1775 30.8813 31.9467 32.1122 31.9467 33.6304C31.9467 35.1487 33.1775 36.3795 34.6958 36.3795Z" fill="white"/>
<path d="M69.0133 33.6304C69.0133 35.1424 67.7763 36.3795 66.2643 36.3795C64.7524 36.3795 63.5152 35.1424 63.5152 33.6304C63.5152 32.1184 64.7524 30.8813 66.2643 30.8813C67.7763 30.9043 69.0133 32.1184 69.0133 33.6304Z" fill="white"/>
<path d="M97.8328 36.3795C99.351 36.3795 100.582 35.1487 100.582 33.6304C100.582 32.1122 99.351 30.8813 97.8328 30.8813C96.3145 30.8813 95.0837 32.1122 95.0837 33.6304C95.0837 35.1487 96.3145 36.3795 97.8328 36.3795Z" fill="white"/>
<path d="M129.401 36.3795C130.92 36.3795 132.15 35.1487 132.15 33.6304C132.15 32.1122 130.92 30.8813 129.401 30.8813C127.883 30.8813 126.652 32.1122 126.652 33.6304C126.652 35.1487 127.883 36.3795 129.401 36.3795Z" fill="white"/>
<path d="M160.97 36.3795C162.488 36.3795 163.719 35.1487 163.719 33.6304C163.719 32.1122 162.488 30.8813 160.97 30.8813C159.452 30.8813 158.221 32.1122 158.221 33.6304C158.221 35.1487 159.452 36.3795 160.97 36.3795Z" fill="white"/>
<path d="M192.561 36.3795C194.08 36.3795 195.31 35.1487 195.31 33.6304C195.31 32.1122 194.08 30.8813 192.561 30.8813C191.043 30.8813 189.812 32.1122 189.812 33.6304C189.812 35.1487 191.043 36.3795 192.561 36.3795Z" fill="white"/>
<path d="M224.13 36.3795C225.648 36.3795 226.879 35.1487 226.879 33.6304C226.879 32.1122 225.648 30.8813 224.13 30.8813C222.611 30.8813 221.381 32.1122 221.381 33.6304C221.381 35.1487 222.611 36.3795 224.13 36.3795Z" fill="white"/>
<path d="M255.698 36.3795C257.217 36.3795 258.447 35.1487 258.447 33.6304C258.447 32.1122 257.217 30.8813 255.698 30.8813C254.18 30.8813 252.949 32.1122 252.949 33.6304C252.949 35.1487 254.18 36.3795 255.698 36.3795Z" fill="white"/>
<path d="M290.016 33.6304C290.016 35.1424 288.779 36.3795 287.267 36.3795C285.755 36.3795 284.518 35.1424 284.518 33.6304C284.518 32.1184 285.755 30.8813 287.267 30.8813C288.779 30.9043 290.016 32.1184 290.016 33.6304Z" fill="white"/>
<path d="M318.835 36.3795C320.354 36.3795 321.584 35.1487 321.584 33.6304C321.584 32.1122 320.354 30.8813 318.835 30.8813C317.317 30.8813 316.086 32.1122 316.086 33.6304C316.086 35.1487 317.317 36.3795 318.835 36.3795Z" fill="white"/>
<path d="M350.404 36.3795C351.922 36.3795 353.153 35.1487 353.153 33.6304C353.153 32.1122 351.922 30.8813 350.404 30.8813C348.885 30.8813 347.655 32.1122 347.655 33.6304C347.655 35.1487 348.885 36.3795 350.404 36.3795Z" fill="white"/>
<path d="M381.995 36.3795C383.514 36.3795 384.744 35.1487 384.744 33.6304C384.744 32.1122 383.514 30.8813 381.995 30.8813C380.477 30.8813 379.246 32.1122 379.246 33.6304C379.246 35.1487 380.477 36.3795 381.995 36.3795Z" fill="white"/>
<path d="M413.564 36.3795C415.082 36.3795 416.313 35.1487 416.313 33.6304C416.313 32.1122 415.082 30.8813 413.564 30.8813C412.045 30.8813 410.815 32.1122 410.815 33.6304C410.815 35.1487 412.045 36.3795 413.564 36.3795Z" fill="white"/>
<path d="M445.132 36.3795C446.651 36.3795 447.881 35.1487 447.881 33.6304C447.881 32.1122 446.651 30.8813 445.132 30.8813C443.614 30.8813 442.383 32.1122 442.383 33.6304C442.383 35.1487 443.614 36.3795 445.132 36.3795Z" fill="white"/>
<path d="M476.701 36.3795C478.219 36.3795 479.45 35.1487 479.45 33.6304C479.45 32.1122 478.219 30.8813 476.701 30.8813C475.182 30.8813 473.952 32.1122 473.952 33.6304C473.952 35.1487 475.182 36.3795 476.701 36.3795Z" fill="white"/>
<path d="M508.269 36.3795C509.788 36.3795 511.018 35.1487 511.018 33.6304C511.018 32.1122 509.788 30.8813 508.269 30.8813C506.751 30.8813 505.52 32.1122 505.52 33.6304C505.52 35.1487 506.751 36.3795 508.269 36.3795Z" fill="white"/>
<path d="M539.838 36.3795C541.356 36.3795 542.587 35.1487 542.587 33.6304C542.587 32.1122 541.356 30.8813 539.838 30.8813C538.319 30.8813 537.089 32.1122 537.089 33.6304C537.089 35.1487 538.319 36.3795 539.838 36.3795Z" fill="white"/>
<path d="M574.155 33.6304C574.155 35.1424 572.918 36.3795 571.406 36.3795C569.894 36.3795 568.657 35.1424 568.657 33.6304C568.657 32.1184 569.894 30.8813 571.406 30.8813C572.941 30.9043 574.155 32.1184 574.155 33.6304Z" fill="white"/>
<path d="M602.998 36.3795C604.516 36.3795 605.747 35.1487 605.747 33.6304C605.747 32.1122 604.516 30.8813 602.998 30.8813C601.479 30.8813 600.249 32.1122 600.249 33.6304C600.249 35.1487 601.479 36.3795 602.998 36.3795Z" fill="white"/>
<path d="M634.566 36.3795C636.085 36.3795 637.315 35.1487 637.315 33.6304C637.315 32.1122 636.085 30.8813 634.566 30.8813C633.048 30.8813 631.817 32.1122 631.817 33.6304C631.817 35.1487 633.048 36.3795 634.566 36.3795Z" fill="white"/>
<path d="M3.12733 67.2835C4.64561 67.2835 5.8763 66.0528 5.8763 64.5345C5.8763 63.0162 4.64561 61.7854 3.12733 61.7854C1.60906 61.7854 0.378235 63.0162 0.378235 64.5345C0.378235 66.0528 1.60906 67.2835 3.12733 67.2835Z" fill="white"/>
<path d="M34.6958 67.2835C36.214 67.2835 37.4449 66.0528 37.4449 64.5345C37.4449 63.0162 36.214 61.7854 34.6958 61.7854C33.1775 61.7854 31.9467 63.0162 31.9467 64.5345C31.9467 66.0528 33.1775 67.2835 34.6958 67.2835Z" fill="white"/>
<path d="M69.0133 64.5345C69.0133 66.0465 67.7763 67.2835 66.2643 67.2835C64.7524 67.2835 63.5152 66.0465 63.5152 64.5345C63.5152 63.0225 64.7524 61.7854 66.2643 61.7854C67.7763 61.7854 69.0133 62.9996 69.0133 64.5345Z" fill="white"/>
<path d="M97.8328 67.2835C99.351 67.2835 100.582 66.0528 100.582 64.5345C100.582 63.0162 99.351 61.7854 97.8328 61.7854C96.3145 61.7854 95.0837 63.0162 95.0837 64.5345C95.0837 66.0528 96.3145 67.2835 97.8328 67.2835Z" fill="white"/>
<path d="M129.401 67.2835C130.92 67.2835 132.15 66.0528 132.15 64.5345C132.15 63.0162 130.92 61.7854 129.401 61.7854C127.883 61.7854 126.652 63.0162 126.652 64.5345C126.652 66.0528 127.883 67.2835 129.401 67.2835Z" fill="white"/>
<path d="M160.97 67.2835C162.488 67.2835 163.719 66.0528 163.719 64.5345C163.719 63.0162 162.488 61.7854 160.97 61.7854C159.452 61.7854 158.221 63.0162 158.221 64.5345C158.221 66.0528 159.452 67.2835 160.97 67.2835Z" fill="white"/>
<path d="M192.561 67.2835C194.08 67.2835 195.31 66.0528 195.31 64.5345C195.31 63.0162 194.08 61.7854 192.561 61.7854C191.043 61.7854 189.812 63.0162 189.812 64.5345C189.812 66.0528 191.043 67.2835 192.561 67.2835Z" fill="white"/>
<path d="M224.13 67.2835C225.648 67.2835 226.879 66.0528 226.879 64.5345C226.879 63.0162 225.648 61.7854 224.13 61.7854C222.611 61.7854 221.381 63.0162 221.381 64.5345C221.381 66.0528 222.611 67.2835 224.13 67.2835Z" fill="white"/>
<path d="M255.698 67.2835C257.217 67.2835 258.447 66.0528 258.447 64.5345C258.447 63.0162 257.217 61.7854 255.698 61.7854C254.18 61.7854 252.949 63.0162 252.949 64.5345C252.949 66.0528 254.18 67.2835 255.698 67.2835Z" fill="white"/>
<path d="M290.016 64.5345C290.016 66.0465 288.779 67.2835 287.267 67.2835C285.755 67.2835 284.518 66.0465 284.518 64.5345C284.518 63.0225 285.755 61.7854 287.267 61.7854C288.779 61.7854 290.016 62.9996 290.016 64.5345Z" fill="white"/>
<path d="M318.835 67.2835C320.354 67.2835 321.584 66.0528 321.584 64.5345C321.584 63.0162 320.354 61.7854 318.835 61.7854C317.317 61.7854 316.086 63.0162 316.086 64.5345C316.086 66.0528 317.317 67.2835 318.835 67.2835Z" fill="white"/>
<path d="M350.404 67.2835C351.922 67.2835 353.153 66.0528 353.153 64.5345C353.153 63.0162 351.922 61.7854 350.404 61.7854C348.885 61.7854 347.655 63.0162 347.655 64.5345C347.655 66.0528 348.885 67.2835 350.404 67.2835Z" fill="white"/>
<path d="M381.995 67.2835C383.514 67.2835 384.744 66.0528 384.744 64.5345C384.744 63.0162 383.514 61.7854 381.995 61.7854C380.477 61.7854 379.246 63.0162 379.246 64.5345C379.246 66.0528 380.477 67.2835 381.995 67.2835Z" fill="white"/>
<path d="M413.564 67.2835C415.082 67.2835 416.313 66.0528 416.313 64.5345C416.313 63.0162 415.082 61.7854 413.564 61.7854C412.045 61.7854 410.815 63.0162 410.815 64.5345C410.815 66.0528 412.045 67.2835 413.564 67.2835Z" fill="white"/>
<path d="M445.132 67.2835C446.651 67.2835 447.881 66.0528 447.881 64.5345C447.881 63.0162 446.651 61.7854 445.132 61.7854C443.614 61.7854 442.383 63.0162 442.383 64.5345C442.383 66.0528 443.614 67.2835 445.132 67.2835Z" fill="white"/>
<path d="M476.701 67.2835C478.219 67.2835 479.45 66.0528 479.45 64.5345C479.45 63.0162 478.219 61.7854 476.701 61.7854C475.182 61.7854 473.952 63.0162 473.952 64.5345C473.952 66.0528 475.182 67.2835 476.701 67.2835Z" fill="white"/>
<path d="M508.269 67.2835C509.788 67.2835 511.018 66.0528 511.018 64.5345C511.018 63.0162 509.788 61.7854 508.269 61.7854C506.751 61.7854 505.52 63.0162 505.52 64.5345C505.52 66.0528 506.751 67.2835 508.269 67.2835Z" fill="white"/>
<path d="M539.838 67.2835C541.356 67.2835 542.587 66.0528 542.587 64.5345C542.587 63.0162 541.356 61.7854 539.838 61.7854C538.319 61.7854 537.089 63.0162 537.089 64.5345C537.089 66.0528 538.319 67.2835 539.838 67.2835Z" fill="white"/>
<path d="M574.155 64.5345C574.155 66.0465 572.918 67.2835 571.406 67.2835C569.894 67.2835 568.657 66.0465 568.657 64.5345C568.657 63.0225 569.894 61.7854 571.406 61.7854C572.941 61.7854 574.155 62.9996 574.155 64.5345Z" fill="white"/>
<path d="M602.998 67.2835C604.516 67.2835 605.747 66.0528 605.747 64.5345C605.747 63.0162 604.516 61.7854 602.998 61.7854C601.479 61.7854 600.249 63.0162 600.249 64.5345C600.249 66.0528 601.479 67.2835 602.998 67.2835Z" fill="white"/>
<path d="M634.566 67.2835C636.085 67.2835 637.315 66.0528 637.315 64.5345C637.315 63.0162 636.085 61.7854 634.566 61.7854C633.048 61.7854 631.817 63.0162 631.817 64.5345C631.817 66.0528 633.048 67.2835 634.566 67.2835Z" fill="white"/>
<path d="M3.12733 98.1646C4.64561 98.1646 5.8763 96.9338 5.8763 95.4156C5.8763 93.8973 4.64561 92.6665 3.12733 92.6665C1.60906 92.6665 0.378235 93.8973 0.378235 95.4156C0.378235 96.9338 1.60906 98.1646 3.12733 98.1646Z" fill="white"/>
<path d="M34.6958 98.1646C36.214 98.1646 37.4449 96.9338 37.4449 95.4156C37.4449 93.8973 36.214 92.6665 34.6958 92.6665C33.1775 92.6665 31.9467 93.8973 31.9467 95.4156C31.9467 96.9338 33.1775 98.1646 34.6958 98.1646Z" fill="white"/>
<path d="M69.0133 95.4156C69.0133 96.9276 67.7763 98.1646 66.2643 98.1646C64.7524 98.1646 63.5152 96.9276 63.5152 95.4156C63.5152 93.9036 64.7524 92.6665 66.2643 92.6665C67.7763 92.6665 69.0133 93.9036 69.0133 95.4156Z" fill="white"/>
<path d="M97.8328 98.1646C99.351 98.1646 100.582 96.9338 100.582 95.4156C100.582 93.8973 99.351 92.6665 97.8328 92.6665C96.3145 92.6665 95.0837 93.8973 95.0837 95.4156C95.0837 96.9338 96.3145 98.1646 97.8328 98.1646Z" fill="white"/>
<path d="M129.401 98.1646C130.92 98.1646 132.15 96.9338 132.15 95.4156C132.15 93.8973 130.92 92.6665 129.401 92.6665C127.883 92.6665 126.652 93.8973 126.652 95.4156C126.652 96.9338 127.883 98.1646 129.401 98.1646Z" fill="white"/>
<path d="M160.97 98.1646C162.488 98.1646 163.719 96.9338 163.719 95.4156C163.719 93.8973 162.488 92.6665 160.97 92.6665C159.452 92.6665 158.221 93.8973 158.221 95.4156C158.221 96.9338 159.452 98.1646 160.97 98.1646Z" fill="white"/>
<path d="M192.561 98.1646C194.08 98.1646 195.31 96.9338 195.31 95.4156C195.31 93.8973 194.08 92.6665 192.561 92.6665C191.043 92.6665 189.812 93.8973 189.812 95.4156C189.812 96.9338 191.043 98.1646 192.561 98.1646Z" fill="white"/>
<path d="M224.13 98.1646C225.648 98.1646 226.879 96.9338 226.879 95.4156C226.879 93.8973 225.648 92.6665 224.13 92.6665C222.611 92.6665 221.381 93.8973 221.381 95.4156C221.381 96.9338 222.611 98.1646 224.13 98.1646Z" fill="white"/>
<path d="M255.698 98.1646C257.217 98.1646 258.447 96.9338 258.447 95.4156C258.447 93.8973 257.217 92.6665 255.698 92.6665C254.18 92.6665 252.949 93.8973 252.949 95.4156C252.949 96.9338 254.18 98.1646 255.698 98.1646Z" fill="white"/>
<path d="M290.016 95.4156C290.016 96.9276 288.779 98.1646 287.267 98.1646C285.755 98.1646 284.518 96.9276 284.518 95.4156C284.518 93.9036 285.755 92.6665 287.267 92.6665C288.779 92.6665 290.016 93.9036 290.016 95.4156Z" fill="white"/>
<path d="M318.835 98.1646C320.354 98.1646 321.584 96.9338 321.584 95.4156C321.584 93.8973 320.354 92.6665 318.835 92.6665C317.317 92.6665 316.086 93.8973 316.086 95.4156C316.086 96.9338 317.317 98.1646 318.835 98.1646Z" fill="white"/>
<path d="M350.404 98.1646C351.922 98.1646 353.153 96.9338 353.153 95.4156C353.153 93.8973 351.922 92.6665 350.404 92.6665C348.885 92.6665 347.655 93.8973 347.655 95.4156C347.655 96.9338 348.885 98.1646 350.404 98.1646Z" fill="white"/>
<path d="M381.995 98.1646C383.514 98.1646 384.744 96.9338 384.744 95.4156C384.744 93.8973 383.514 92.6665 381.995 92.6665C380.477 92.6665 379.246 93.8973 379.246 95.4156C379.246 96.9338 380.477 98.1646 381.995 98.1646Z" fill="white"/>
<path d="M413.564 98.1646C415.082 98.1646 416.313 96.9338 416.313 95.4156C416.313 93.8973 415.082 92.6665 413.564 92.6665C412.045 92.6665 410.815 93.8973 410.815 95.4156C410.815 96.9338 412.045 98.1646 413.564 98.1646Z" fill="white"/>
<path d="M445.132 98.1646C446.651 98.1646 447.881 96.9338 447.881 95.4156C447.881 93.8973 446.651 92.6665 445.132 92.6665C443.614 92.6665 442.383 93.8973 442.383 95.4156C442.383 96.9338 443.614 98.1646 445.132 98.1646Z" fill="white"/>
<path d="M476.701 98.1646C478.219 98.1646 479.45 96.9338 479.45 95.4156C479.45 93.8973 478.219 92.6665 476.701 92.6665C475.182 92.6665 473.952 93.8973 473.952 95.4156C473.952 96.9338 475.182 98.1646 476.701 98.1646Z" fill="white"/>
<path d="M508.269 98.1646C509.788 98.1646 511.018 96.9338 511.018 95.4156C511.018 93.8973 509.788 92.6665 508.269 92.6665C506.751 92.6665 505.52 93.8973 505.52 95.4156C505.52 96.9338 506.751 98.1646 508.269 98.1646Z" fill="white"/>
<path d="M539.838 98.1646C541.356 98.1646 542.587 96.9338 542.587 95.4156C542.587 93.8973 541.356 92.6665 539.838 92.6665C538.319 92.6665 537.089 93.8973 537.089 95.4156C537.089 96.9338 538.319 98.1646 539.838 98.1646Z" fill="white"/>
<path d="M574.155 95.4156C574.155 96.9276 572.918 98.1646 571.406 98.1646C569.894 98.1646 568.657 96.9276 568.657 95.4156C568.657 93.9036 569.894 92.6665 571.406 92.6665C572.941 92.6665 574.155 93.9036 574.155 95.4156Z" fill="white"/>
<path d="M602.998 98.1646C604.516 98.1646 605.747 96.9338 605.747 95.4156C605.747 93.8973 604.516 92.6665 602.998 92.6665C601.479 92.6665 600.249 93.8973 600.249 95.4156C600.249 96.9338 601.479 98.1646 602.998 98.1646Z" fill="white"/>
<path d="M634.566 98.1646C636.085 98.1646 637.315 96.9338 637.315 95.4156C637.315 93.8973 636.085 92.6665 634.566 92.6665C633.048 92.6665 631.817 93.8973 631.817 95.4156C631.817 96.9338 633.048 98.1646 634.566 98.1646Z" fill="white"/>
<path d="M3.12733 129.046C4.64561 129.046 5.8763 127.815 5.8763 126.297C5.8763 124.779 4.64561 123.548 3.12733 123.548C1.60906 123.548 0.378235 124.779 0.378235 126.297C0.378235 127.815 1.60906 129.046 3.12733 129.046Z" fill="white"/>
<path d="M34.6958 129.046C36.214 129.046 37.4449 127.815 37.4449 126.297C37.4449 124.779 36.214 123.548 34.6958 123.548C33.1775 123.548 31.9467 124.779 31.9467 126.297C31.9467 127.815 33.1775 129.046 34.6958 129.046Z" fill="white"/>
<path d="M69.0133 126.297C69.0133 127.809 67.7763 129.046 66.2643 129.046C64.7524 129.046 63.5152 127.809 63.5152 126.297C63.5152 124.785 64.7524 123.548 66.2643 123.548C67.7763 123.548 69.0133 124.785 69.0133 126.297Z" fill="white"/>
<path d="M97.8328 129.046C99.351 129.046 100.582 127.815 100.582 126.297C100.582 124.779 99.351 123.548 97.8328 123.548C96.3145 123.548 95.0837 124.779 95.0837 126.297C95.0837 127.815 96.3145 129.046 97.8328 129.046Z" fill="white"/>
<path d="M129.401 129.046C130.92 129.046 132.15 127.815 132.15 126.297C132.15 124.779 130.92 123.548 129.401 123.548C127.883 123.548 126.652 124.779 126.652 126.297C126.652 127.815 127.883 129.046 129.401 129.046Z" fill="white"/>
<path d="M160.97 129.046C162.488 129.046 163.719 127.815 163.719 126.297C163.719 124.779 162.488 123.548 160.97 123.548C159.452 123.548 158.221 124.779 158.221 126.297C158.221 127.815 159.452 129.046 160.97 129.046Z" fill="white"/>
<path d="M192.561 129.046C194.08 129.046 195.31 127.815 195.31 126.297C195.31 124.779 194.08 123.548 192.561 123.548C191.043 123.548 189.812 124.779 189.812 126.297C189.812 127.815 191.043 129.046 192.561 129.046Z" fill="white"/>
<path d="M224.13 129.046C225.648 129.046 226.879 127.815 226.879 126.297C226.879 124.779 225.648 123.548 224.13 123.548C222.611 123.548 221.381 124.779 221.381 126.297C221.381 127.815 222.611 129.046 224.13 129.046Z" fill="white"/>
<path d="M255.698 129.046C257.217 129.046 258.447 127.815 258.447 126.297C258.447 124.779 257.217 123.548 255.698 123.548C254.18 123.548 252.949 124.779 252.949 126.297C252.949 127.815 254.18 129.046 255.698 129.046Z" fill="white"/>
<path d="M290.016 126.297C290.016 127.809 288.779 129.046 287.267 129.046C285.755 129.046 284.518 127.809 284.518 126.297C284.518 124.785 285.755 123.548 287.267 123.548C288.779 123.548 290.016 124.785 290.016 126.297Z" fill="white"/>
<path d="M318.835 129.046C320.354 129.046 321.584 127.815 321.584 126.297C321.584 124.779 320.354 123.548 318.835 123.548C317.317 123.548 316.086 124.779 316.086 126.297C316.086 127.815 317.317 129.046 318.835 129.046Z" fill="white"/>
<path d="M350.404 129.046C351.922 129.046 353.153 127.815 353.153 126.297C353.153 124.779 351.922 123.548 350.404 123.548C348.885 123.548 347.655 124.779 347.655 126.297C347.655 127.815 348.885 129.046 350.404 129.046Z" fill="white"/>
<path d="M381.995 129.046C383.514 129.046 384.744 127.815 384.744 126.297C384.744 124.779 383.514 123.548 381.995 123.548C380.477 123.548 379.246 124.779 379.246 126.297C379.246 127.815 380.477 129.046 381.995 129.046Z" fill="white"/>
<path d="M413.564 129.046C415.082 129.046 416.313 127.815 416.313 126.297C416.313 124.779 415.082 123.548 413.564 123.548C412.045 123.548 410.815 124.779 410.815 126.297C410.815 127.815 412.045 129.046 413.564 129.046Z" fill="white"/>
<path d="M445.132 129.046C446.651 129.046 447.881 127.815 447.881 126.297C447.881 124.779 446.651 123.548 445.132 123.548C443.614 123.548 442.383 124.779 442.383 126.297C442.383 127.815 443.614 129.046 445.132 129.046Z" fill="white"/>
<path d="M476.701 129.046C478.219 129.046 479.45 127.815 479.45 126.297C479.45 124.779 478.219 123.548 476.701 123.548C475.182 123.548 473.952 124.779 473.952 126.297C473.952 127.815 475.182 129.046 476.701 129.046Z" fill="white"/>
<path d="M508.269 129.046C509.788 129.046 511.018 127.815 511.018 126.297C511.018 124.779 509.788 123.548 508.269 123.548C506.751 123.548 505.52 124.779 505.52 126.297C505.52 127.815 506.751 129.046 508.269 129.046Z" fill="white"/>
<path d="M539.838 129.046C541.356 129.046 542.587 127.815 542.587 126.297C542.587 124.779 541.356 123.548 539.838 123.548C538.319 123.548 537.089 124.779 537.089 126.297C537.089 127.815 538.319 129.046 539.838 129.046Z" fill="white"/>
<path d="M574.155 126.297C574.155 127.809 572.918 129.046 571.406 129.046C569.894 129.046 568.657 127.809 568.657 126.297C568.657 124.785 569.894 123.548 571.406 123.548C572.941 123.548 574.155 124.785 574.155 126.297Z" fill="white"/>
<path d="M602.998 129.046C604.516 129.046 605.747 127.815 605.747 126.297C605.747 124.779 604.516 123.548 602.998 123.548C601.479 123.548 600.249 124.779 600.249 126.297C600.249 127.815 601.479 129.046 602.998 129.046Z" fill="white"/>
<path d="M634.566 129.046C636.085 129.046 637.315 127.815 637.315 126.297C637.315 124.779 636.085 123.548 634.566 123.548C633.048 123.548 631.817 124.779 631.817 126.297C631.817 127.815 633.048 129.046 634.566 129.046Z" fill="white"/>
<path d="M3.12733 159.927C4.64561 159.927 5.8763 158.697 5.8763 157.178C5.8763 155.66 4.64561 154.429 3.12733 154.429C1.60906 154.429 0.378235 155.66 0.378235 157.178C0.378235 158.697 1.60906 159.927 3.12733 159.927Z" fill="white"/>
<path d="M34.6958 159.927C36.214 159.927 37.4449 158.697 37.4449 157.178C37.4449 155.66 36.214 154.429 34.6958 154.429C33.1775 154.429 31.9467 155.66 31.9467 157.178C31.9467 158.697 33.1775 159.927 34.6958 159.927Z" fill="white"/>
<path d="M69.0133 157.178C69.0133 158.69 67.7763 159.927 66.2643 159.927C64.7524 159.927 63.5152 158.69 63.5152 157.178C63.5152 155.666 64.7524 154.429 66.2643 154.429C67.7763 154.429 69.0133 155.666 69.0133 157.178Z" fill="white"/>
<path d="M97.8328 159.927C99.351 159.927 100.582 158.697 100.582 157.178C100.582 155.66 99.351 154.429 97.8328 154.429C96.3145 154.429 95.0837 155.66 95.0837 157.178C95.0837 158.697 96.3145 159.927 97.8328 159.927Z" fill="white"/>
<path d="M129.401 159.927C130.92 159.927 132.15 158.697 132.15 157.178C132.15 155.66 130.92 154.429 129.401 154.429C127.883 154.429 126.652 155.66 126.652 157.178C126.652 158.697 127.883 159.927 129.401 159.927Z" fill="white"/>
<path d="M160.97 159.927C162.488 159.927 163.719 158.697 163.719 157.178C163.719 155.66 162.488 154.429 160.97 154.429C159.452 154.429 158.221 155.66 158.221 157.178C158.221 158.697 159.452 159.927 160.97 159.927Z" fill="white"/>
<path d="M192.561 159.927C194.08 159.927 195.31 158.697 195.31 157.178C195.31 155.66 194.08 154.429 192.561 154.429C191.043 154.429 189.812 155.66 189.812 157.178C189.812 158.697 191.043 159.927 192.561 159.927Z" fill="white"/>
<path d="M224.13 159.927C225.648 159.927 226.879 158.697 226.879 157.178C226.879 155.66 225.648 154.429 224.13 154.429C222.611 154.429 221.381 155.66 221.381 157.178C221.381 158.697 222.611 159.927 224.13 159.927Z" fill="white"/>
<path d="M255.698 159.927C257.217 159.927 258.447 158.697 258.447 157.178C258.447 155.66 257.217 154.429 255.698 154.429C254.18 154.429 252.949 155.66 252.949 157.178C252.949 158.697 254.18 159.927 255.698 159.927Z" fill="white"/>
<path d="M290.016 157.178C290.016 158.69 288.779 159.927 287.267 159.927C285.755 159.927 284.518 158.69 284.518 157.178C284.518 155.666 285.755 154.429 287.267 154.429C288.779 154.429 290.016 155.666 290.016 157.178Z" fill="white"/>
<path d="M318.835 159.927C320.354 159.927 321.584 158.697 321.584 157.178C321.584 155.66 320.354 154.429 318.835 154.429C317.317 154.429 316.086 155.66 316.086 157.178C316.086 158.697 317.317 159.927 318.835 159.927Z" fill="white"/>
<path d="M350.404 159.927C351.922 159.927 353.153 158.697 353.153 157.178C353.153 155.66 351.922 154.429 350.404 154.429C348.885 154.429 347.655 155.66 347.655 157.178C347.655 158.697 348.885 159.927 350.404 159.927Z" fill="white"/>
<path d="M381.995 159.927C383.514 159.927 384.744 158.697 384.744 157.178C384.744 155.66 383.514 154.429 381.995 154.429C380.477 154.429 379.246 155.66 379.246 157.178C379.246 158.697 380.477 159.927 381.995 159.927Z" fill="white"/>
<path d="M413.564 159.927C415.082 159.927 416.313 158.697 416.313 157.178C416.313 155.66 415.082 154.429 413.564 154.429C412.045 154.429 410.815 155.66 410.815 157.178C410.815 158.697 412.045 159.927 413.564 159.927Z" fill="white"/>
<path d="M445.132 159.927C446.651 159.927 447.881 158.697 447.881 157.178C447.881 155.66 446.651 154.429 445.132 154.429C443.614 154.429 442.383 155.66 442.383 157.178C442.383 158.697 443.614 159.927 445.132 159.927Z" fill="white"/>
<path d="M476.701 159.927C478.219 159.927 479.45 158.697 479.45 157.178C479.45 155.66 478.219 154.429 476.701 154.429C475.182 154.429 473.952 155.66 473.952 157.178C473.952 158.697 475.182 159.927 476.701 159.927Z" fill="white"/>
<path d="M508.269 159.927C509.788 159.927 511.018 158.697 511.018 157.178C511.018 155.66 509.788 154.429 508.269 154.429C506.751 154.429 505.52 155.66 505.52 157.178C505.52 158.697 506.751 159.927 508.269 159.927Z" fill="white"/>
<path d="M539.838 159.927C541.356 159.927 542.587 158.697 542.587 157.178C542.587 155.66 541.356 154.429 539.838 154.429C538.319 154.429 537.089 155.66 537.089 157.178C537.089 158.697 538.319 159.927 539.838 159.927Z" fill="white"/>
<path d="M574.155 157.178C574.155 158.69 572.918 159.927 571.406 159.927C569.894 159.927 568.657 158.69 568.657 157.178C568.657 155.666 569.894 154.429 571.406 154.429C572.941 154.429 574.155 155.666 574.155 157.178Z" fill="white"/>
<path d="M602.998 159.927C604.516 159.927 605.747 158.697 605.747 157.178C605.747 155.66 604.516 154.429 602.998 154.429C601.479 154.429 600.249 155.66 600.249 157.178C600.249 158.697 601.479 159.927 602.998 159.927Z" fill="white"/>
<path d="M634.566 159.927C636.085 159.927 637.315 158.697 637.315 157.178C637.315 155.66 636.085 154.429 634.566 154.429C633.048 154.429 631.817 155.66 631.817 157.178C631.817 158.697 633.048 159.927 634.566 159.927Z" fill="white"/>
<path d="M3.12733 190.809C4.64561 190.809 5.8763 189.578 5.8763 188.06C5.8763 186.541 4.64561 185.311 3.12733 185.311C1.60906 185.311 0.378235 186.541 0.378235 188.06C0.378235 189.578 1.60906 190.809 3.12733 190.809Z" fill="white"/>
<path d="M34.6958 190.809C36.214 190.809 37.4449 189.578 37.4449 188.06C37.4449 186.541 36.214 185.311 34.6958 185.311C33.1775 185.311 31.9467 186.541 31.9467 188.06C31.9467 189.578 33.1775 190.809 34.6958 190.809Z" fill="white"/>
<path d="M69.0133 188.06C69.0133 189.572 67.7763 190.809 66.2643 190.809C64.7524 190.809 63.5152 189.572 63.5152 188.06C63.5152 186.548 64.7524 185.311 66.2643 185.311C67.7763 185.333 69.0133 186.548 69.0133 188.06Z" fill="white"/>
<path d="M97.8328 190.809C99.351 190.809 100.582 189.578 100.582 188.06C100.582 186.541 99.351 185.311 97.8328 185.311C96.3145 185.311 95.0837 186.541 95.0837 188.06C95.0837 189.578 96.3145 190.809 97.8328 190.809Z" fill="white"/>
<path d="M129.401 190.809C130.92 190.809 132.15 189.578 132.15 188.06C132.15 186.541 130.92 185.311 129.401 185.311C127.883 185.311 126.652 186.541 126.652 188.06C126.652 189.578 127.883 190.809 129.401 190.809Z" fill="white"/>
<path d="M160.97 190.809C162.488 190.809 163.719 189.578 163.719 188.06C163.719 186.541 162.488 185.311 160.97 185.311C159.452 185.311 158.221 186.541 158.221 188.06C158.221 189.578 159.452 190.809 160.97 190.809Z" fill="white"/>
<path d="M192.561 190.809C194.08 190.809 195.31 189.578 195.31 188.06C195.31 186.541 194.08 185.311 192.561 185.311C191.043 185.311 189.812 186.541 189.812 188.06C189.812 189.578 191.043 190.809 192.561 190.809Z" fill="white"/>
<path d="M224.13 190.809C225.648 190.809 226.879 189.578 226.879 188.06C226.879 186.541 225.648 185.311 224.13 185.311C222.611 185.311 221.381 186.541 221.381 188.06C221.381 189.578 222.611 190.809 224.13 190.809Z" fill="white"/>
<path d="M255.698 190.809C257.217 190.809 258.447 189.578 258.447 188.06C258.447 186.541 257.217 185.311 255.698 185.311C254.18 185.311 252.949 186.541 252.949 188.06C252.949 189.578 254.18 190.809 255.698 190.809Z" fill="white"/>
<path d="M290.016 188.06C290.016 189.572 288.779 190.809 287.267 190.809C285.755 190.809 284.518 189.572 284.518 188.06C284.518 186.548 285.755 185.311 287.267 185.311C288.779 185.333 290.016 186.548 290.016 188.06Z" fill="white"/>
<path d="M318.835 190.809C320.354 190.809 321.584 189.578 321.584 188.06C321.584 186.541 320.354 185.311 318.835 185.311C317.317 185.311 316.086 186.541 316.086 188.06C316.086 189.578 317.317 190.809 318.835 190.809Z" fill="white"/>
<path d="M350.404 190.809C351.922 190.809 353.153 189.578 353.153 188.06C353.153 186.541 351.922 185.311 350.404 185.311C348.885 185.311 347.655 186.541 347.655 188.06C347.655 189.578 348.885 190.809 350.404 190.809Z" fill="white"/>
<path d="M381.995 190.809C383.514 190.809 384.744 189.578 384.744 188.06C384.744 186.541 383.514 185.311 381.995 185.311C380.477 185.311 379.246 186.541 379.246 188.06C379.246 189.578 380.477 190.809 381.995 190.809Z" fill="white"/>
<path d="M413.564 190.809C415.082 190.809 416.313 189.578 416.313 188.06C416.313 186.541 415.082 185.311 413.564 185.311C412.045 185.311 410.815 186.541 410.815 188.06C410.815 189.578 412.045 190.809 413.564 190.809Z" fill="white"/>
<path d="M445.132 190.809C446.651 190.809 447.881 189.578 447.881 188.06C447.881 186.541 446.651 185.311 445.132 185.311C443.614 185.311 442.383 186.541 442.383 188.06C442.383 189.578 443.614 190.809 445.132 190.809Z" fill="white"/>
<path d="M476.701 190.809C478.219 190.809 479.45 189.578 479.45 188.06C479.45 186.541 478.219 185.311 476.701 185.311C475.182 185.311 473.952 186.541 473.952 188.06C473.952 189.578 475.182 190.809 476.701 190.809Z" fill="white"/>
<path d="M508.269 190.809C509.788 190.809 511.018 189.578 511.018 188.06C511.018 186.541 509.788 185.311 508.269 185.311C506.751 185.311 505.52 186.541 505.52 188.06C505.52 189.578 506.751 190.809 508.269 190.809Z" fill="white"/>
<path d="M539.838 190.809C541.356 190.809 542.587 189.578 542.587 188.06C542.587 186.541 541.356 185.311 539.838 185.311C538.319 185.311 537.089 186.541 537.089 188.06C537.089 189.578 538.319 190.809 539.838 190.809Z" fill="white"/>
<path d="M574.155 188.06C574.155 189.572 572.918 190.809 571.406 190.809C569.894 190.809 568.657 189.572 568.657 188.06C568.657 186.548 569.894 185.311 571.406 185.311C572.941 185.333 574.155 186.548 574.155 188.06Z" fill="white"/>
<path d="M602.998 190.809C604.516 190.809 605.747 189.578 605.747 188.06C605.747 186.541 604.516 185.311 602.998 185.311C601.479 185.311 600.249 186.541 600.249 188.06C600.249 189.578 601.479 190.809 602.998 190.809Z" fill="white"/>
<path d="M634.566 190.809C636.085 190.809 637.315 189.578 637.315 188.06C637.315 186.541 636.085 185.311 634.566 185.311C633.048 185.311 631.817 186.541 631.817 188.06C631.817 189.578 633.048 190.809 634.566 190.809Z" fill="white"/>
<path d="M3.12733 221.713C4.64561 221.713 5.8763 220.482 5.8763 218.963C5.8763 217.445 4.64561 216.214 3.12733 216.214C1.60906 216.214 0.378235 217.445 0.378235 218.963C0.378235 220.482 1.60906 221.713 3.12733 221.713Z" fill="white"/>
<path d="M34.6958 221.713C36.214 221.713 37.4449 220.482 37.4449 218.963C37.4449 217.445 36.214 216.214 34.6958 216.214C33.1775 216.214 31.9467 217.445 31.9467 218.963C31.9467 220.482 33.1775 221.713 34.6958 221.713Z" fill="white"/>
<path d="M69.0133 218.963C69.0133 220.475 67.7763 221.713 66.2643 221.713C64.7524 221.713 63.5152 220.475 63.5152 218.963C63.5152 217.451 64.7524 216.214 66.2643 216.214C67.7763 216.214 69.0133 217.429 69.0133 218.963Z" fill="white"/>
<path d="M97.8328 221.713C99.351 221.713 100.582 220.482 100.582 218.963C100.582 217.445 99.351 216.214 97.8328 216.214C96.3145 216.214 95.0837 217.445 95.0837 218.963C95.0837 220.482 96.3145 221.713 97.8328 221.713Z" fill="white"/>
<path d="M129.401 221.713C130.92 221.713 132.15 220.482 132.15 218.963C132.15 217.445 130.92 216.214 129.401 216.214C127.883 216.214 126.652 217.445 126.652 218.963C126.652 220.482 127.883 221.713 129.401 221.713Z" fill="white"/>
<path d="M160.97 221.713C162.488 221.713 163.719 220.482 163.719 218.963C163.719 217.445 162.488 216.214 160.97 216.214C159.452 216.214 158.221 217.445 158.221 218.963C158.221 220.482 159.452 221.713 160.97 221.713Z" fill="white"/>
<path d="M192.561 221.713C194.08 221.713 195.31 220.482 195.31 218.963C195.31 217.445 194.08 216.214 192.561 216.214C191.043 216.214 189.812 217.445 189.812 218.963C189.812 220.482 191.043 221.713 192.561 221.713Z" fill="white"/>
<path d="M224.13 221.713C225.648 221.713 226.879 220.482 226.879 218.963C226.879 217.445 225.648 216.214 224.13 216.214C222.611 216.214 221.381 217.445 221.381 218.963C221.381 220.482 222.611 221.713 224.13 221.713Z" fill="white"/>
<path d="M258.469 219.372C258.701 217.871 257.672 216.467 256.171 216.235C254.671 216.004 253.267 217.032 253.035 218.533C252.803 220.033 253.832 221.437 255.332 221.669C256.833 221.901 258.237 220.872 258.469 219.372Z" fill="white"/>
<path d="M290.016 218.963C290.016 220.475 288.779 221.713 287.267 221.713C285.755 221.713 284.518 220.475 284.518 218.963C284.518 217.451 285.755 216.214 287.267 216.214C288.779 216.214 290.016 217.429 290.016 218.963Z" fill="white"/>
<path d="M318.835 221.713C320.354 221.713 321.584 220.482 321.584 218.963C321.584 217.445 320.354 216.214 318.835 216.214C317.317 216.214 316.086 217.445 316.086 218.963C316.086 220.482 317.317 221.713 318.835 221.713Z" fill="white"/>
<path d="M350.404 221.713C351.922 221.713 353.153 220.482 353.153 218.963C353.153 217.445 351.922 216.214 350.404 216.214C348.885 216.214 347.655 217.445 347.655 218.963C347.655 220.482 348.885 221.713 350.404 221.713Z" fill="white"/>
<path d="M381.995 221.713C383.514 221.713 384.744 220.482 384.744 218.963C384.744 217.445 383.514 216.214 381.995 216.214C380.477 216.214 379.246 217.445 379.246 218.963C379.246 220.482 380.477 221.713 381.995 221.713Z" fill="white"/>
<path d="M413.564 221.713C415.082 221.713 416.313 220.482 416.313 218.963C416.313 217.445 415.082 216.214 413.564 216.214C412.045 216.214 410.815 217.445 410.815 218.963C410.815 220.482 412.045 221.713 413.564 221.713Z" fill="white"/>
<path d="M445.132 221.713C446.651 221.713 447.881 220.482 447.881 218.963C447.881 217.445 446.651 216.214 445.132 216.214C443.614 216.214 442.383 217.445 442.383 218.963C442.383 220.482 443.614 221.713 445.132 221.713Z" fill="white"/>
<path d="M479.44 219.316C479.63 217.809 478.563 216.434 477.057 216.243C475.551 216.053 474.175 217.12 473.985 218.626C473.795 220.132 474.861 221.508 476.368 221.698C477.874 221.889 479.249 220.822 479.44 219.316Z" fill="white"/>
<path d="M508.269 221.713C509.788 221.713 511.018 220.482 511.018 218.963C511.018 217.445 509.788 216.214 508.269 216.214C506.751 216.214 505.52 217.445 505.52 218.963C505.52 220.482 506.751 221.713 508.269 221.713Z" fill="white"/>
<path d="M539.838 221.713C541.356 221.713 542.587 220.482 542.587 218.963C542.587 217.445 541.356 216.214 539.838 216.214C538.319 216.214 537.089 217.445 537.089 218.963C537.089 220.482 538.319 221.713 539.838 221.713Z" fill="white"/>
<path d="M574.155 218.963C574.155 220.475 572.918 221.713 571.406 221.713C569.894 221.713 568.657 220.475 568.657 218.963C568.657 217.451 569.894 216.214 571.406 216.214C572.941 216.214 574.155 217.429 574.155 218.963Z" fill="white"/>
<path d="M602.998 221.713C604.516 221.713 605.747 220.482 605.747 218.963C605.747 217.445 604.516 216.214 602.998 216.214C601.479 216.214 600.249 217.445 600.249 218.963C600.249 220.482 601.479 221.713 602.998 221.713Z" fill="white"/>
<path d="M634.566 221.713C636.085 221.713 637.315 220.482 637.315 218.963C637.315 217.445 636.085 216.214 634.566 216.214C633.048 216.214 631.817 217.445 631.817 218.963C631.817 220.482 633.048 221.713 634.566 221.713Z" fill="white"/>
<path d="M5.86871 250.27C6.11285 248.771 5.09595 247.359 3.59741 247.115C2.09888 246.87 0.686193 247.887 0.442055 249.386C0.197917 250.884 1.21479 252.297 2.71333 252.541C4.21186 252.785 5.62457 251.768 5.86871 250.27Z" fill="white"/>
<path d="M37.4409 250.273C37.6851 248.775 36.6682 247.362 35.1697 247.118C33.6711 246.874 32.2584 247.891 32.0143 249.389C31.7701 250.888 32.787 252.3 34.2855 252.545C35.7841 252.789 37.1968 251.772 37.4409 250.273Z" fill="white"/>
<path d="M69.0133 249.845C69.0133 251.357 67.7763 252.594 66.2643 252.594C64.7524 252.594 63.5152 251.357 63.5152 249.845C63.5152 248.333 64.7524 247.096 66.2643 247.096C67.7763 247.096 69.0133 248.333 69.0133 249.845Z" fill="white"/>
<path d="M100.537 250.134C100.713 248.626 99.6344 247.26 98.1264 247.084C96.6185 246.907 95.2527 247.986 95.0758 249.494C94.8989 251.002 95.9779 252.368 97.4859 252.544C98.9938 252.721 100.36 251.642 100.537 250.134Z" fill="white"/>
<path d="M132.157 250.283C132.401 248.784 131.384 247.371 129.886 247.127C128.387 246.883 126.975 247.9 126.73 249.398C126.486 250.897 127.503 252.31 129.002 252.554C130.5 252.798 131.913 251.781 132.157 250.283Z" fill="white"/>
<path d="M163.729 250.286C163.973 248.787 162.956 247.375 161.458 247.131C159.959 246.886 158.547 247.903 158.302 249.402C158.058 250.9 159.075 252.313 160.574 252.557C162.072 252.801 163.485 251.785 163.729 250.286Z" fill="white"/>
<path d="M195.305 250.267C195.549 248.768 194.532 247.356 193.033 247.112C191.535 246.868 190.122 247.884 189.878 249.383C189.634 250.881 190.651 252.294 192.149 252.538C193.648 252.782 195.061 251.765 195.305 250.267Z" fill="white"/>
<path d="M226.877 250.27C227.121 248.771 226.104 247.359 224.606 247.114C223.107 246.87 221.694 247.887 221.45 249.386C221.206 250.884 222.223 252.297 223.722 252.541C225.22 252.785 226.633 251.768 226.877 250.27Z" fill="white"/>
<path d="M255.698 252.594C257.217 252.594 258.447 251.363 258.447 249.845C258.447 248.326 257.217 247.096 255.698 247.096C254.18 247.096 252.949 248.326 252.949 249.845C252.949 251.363 254.18 252.594 255.698 252.594Z" fill="white"/>
<path d="M290.016 249.845C290.016 251.357 288.779 252.594 287.267 252.594C285.755 252.594 284.518 251.357 284.518 249.845C284.518 248.333 285.755 247.096 287.267 247.096C288.779 247.096 290.016 248.333 290.016 249.845Z" fill="white"/>
<path d="M321.593 250.279C321.837 248.781 320.82 247.368 319.322 247.124C317.823 246.88 316.411 247.897 316.166 249.395C315.922 250.894 316.939 252.306 318.438 252.55C319.936 252.795 321.349 251.778 321.593 250.279Z" fill="white"/>
<path d="M353.165 250.283C353.409 248.784 352.392 247.371 350.894 247.127C349.395 246.883 347.982 247.9 347.738 249.398C347.494 250.897 348.511 252.31 350.01 252.554C351.508 252.798 352.921 251.781 353.165 250.283Z" fill="white"/>
<path d="M384.741 250.263C384.985 248.764 383.968 247.352 382.47 247.108C380.971 246.864 379.558 247.88 379.314 249.379C379.07 250.877 380.087 252.29 381.586 252.534C383.084 252.778 384.497 251.762 384.741 250.263Z" fill="white"/>
<path d="M416.313 250.266C416.557 248.768 415.54 247.355 414.042 247.111C412.543 246.867 411.13 247.884 410.886 249.382C410.642 250.881 411.659 252.294 413.158 252.538C414.656 252.782 416.069 251.765 416.313 250.266Z" fill="white"/>
<path d="M447.885 250.269C448.129 248.771 447.112 247.358 445.614 247.114C444.115 246.87 442.702 247.887 442.458 249.385C442.214 250.884 443.231 252.297 444.73 252.541C446.228 252.785 447.641 251.768 447.885 250.269Z" fill="white"/>
<path d="M476.701 252.594C478.219 252.594 479.45 251.363 479.45 249.845C479.45 248.326 478.219 247.096 476.701 247.096C475.182 247.096 473.952 248.326 473.952 249.845C473.952 251.363 475.182 252.594 476.701 252.594Z" fill="white"/>
<path d="M511.029 250.276C511.273 248.778 510.256 247.365 508.758 247.121C507.259 246.877 505.847 247.894 505.602 249.392C505.358 250.891 506.375 252.303 507.874 252.548C509.372 252.792 510.785 251.775 511.029 250.276Z" fill="white"/>
<path d="M542.601 250.279C542.845 248.781 541.829 247.368 540.33 247.124C538.832 246.88 537.419 247.897 537.175 249.395C536.931 250.894 537.947 252.306 539.446 252.55C540.944 252.795 542.357 251.778 542.601 250.279Z" fill="white"/>
<path d="M574.155 249.845C574.155 251.357 572.918 252.594 571.406 252.594C569.894 252.594 568.657 251.357 568.657 249.845C568.657 248.333 569.894 247.096 571.406 247.096C572.941 247.096 574.155 248.333 574.155 249.845Z" fill="white"/>
<path d="M605.809 250.232C605.966 248.722 604.869 247.371 603.359 247.214C601.849 247.057 600.498 248.154 600.341 249.664C600.184 251.174 601.281 252.525 602.791 252.682C604.301 252.839 605.652 251.742 605.809 250.232Z" fill="white"/>
<path d="M637.321 250.266C637.565 248.768 636.549 247.355 635.05 247.111C633.551 246.867 632.139 247.884 631.895 249.382C631.65 250.881 632.667 252.294 634.166 252.538C635.664 252.782 637.077 251.765 637.321 250.266Z" fill="white"/>
<path d="M3.12733 283.475C4.64561 283.475 5.8763 282.244 5.8763 280.726C5.8763 279.208 4.64561 277.977 3.12733 277.977C1.60906 277.977 0.378235 279.208 0.378235 280.726C0.378235 282.244 1.60906 283.475 3.12733 283.475Z" fill="white"/>
<path d="M34.6958 283.475C36.214 283.475 37.4449 282.244 37.4449 280.726C37.4449 279.208 36.214 277.977 34.6958 277.977C33.1775 277.977 31.9467 279.208 31.9467 280.726C31.9467 282.244 33.1775 283.475 34.6958 283.475Z" fill="white"/>
<path d="M69.0133 280.726C69.0133 282.238 67.7763 283.475 66.2643 283.475C64.7524 283.475 63.5152 282.238 63.5152 280.726C63.5152 279.214 64.7524 277.977 66.2643 277.977C67.7763 277.977 69.0133 279.214 69.0133 280.726Z" fill="white"/>
<path d="M97.8328 283.475C99.351 283.475 100.582 282.244 100.582 280.726C100.582 279.208 99.351 277.977 97.8328 277.977C96.3145 277.977 95.0837 279.208 95.0837 280.726C95.0837 282.244 96.3145 283.475 97.8328 283.475Z" fill="white"/>
<path d="M129.401 283.475C130.92 283.475 132.15 282.244 132.15 280.726C132.15 279.208 130.92 277.977 129.401 277.977C127.883 277.977 126.652 279.208 126.652 280.726C126.652 282.244 127.883 283.475 129.401 283.475Z" fill="white"/>
<path d="M160.97 283.475C162.488 283.475 163.719 282.244 163.719 280.726C163.719 279.208 162.488 277.977 160.97 277.977C159.452 277.977 158.221 279.208 158.221 280.726C158.221 282.244 159.452 283.475 160.97 283.475Z" fill="white"/>
<path d="M192.561 283.475C194.08 283.475 195.31 282.244 195.31 280.726C195.31 279.208 194.08 277.977 192.561 277.977C191.043 277.977 189.812 279.208 189.812 280.726C189.812 282.244 191.043 283.475 192.561 283.475Z" fill="white"/>
<path d="M224.13 283.475C225.648 283.475 226.879 282.244 226.879 280.726C226.879 279.208 225.648 277.977 224.13 277.977C222.611 277.977 221.381 279.208 221.381 280.726C221.381 282.244 222.611 283.475 224.13 283.475Z" fill="white"/>
<path d="M255.698 283.475C257.217 283.475 258.447 282.244 258.447 280.726C258.447 279.208 257.217 277.977 255.698 277.977C254.18 277.977 252.949 279.208 252.949 280.726C252.949 282.244 254.18 283.475 255.698 283.475Z" fill="white"/>
<path d="M290.016 280.726C290.016 282.238 288.779 283.475 287.267 283.475C285.755 283.475 284.518 282.238 284.518 280.726C284.518 279.214 285.755 277.977 287.267 277.977C288.779 277.977 290.016 279.214 290.016 280.726Z" fill="white"/>
<path d="M318.835 283.475C320.354 283.475 321.584 282.244 321.584 280.726C321.584 279.208 320.354 277.977 318.835 277.977C317.317 277.977 316.086 279.208 316.086 280.726C316.086 282.244 317.317 283.475 318.835 283.475Z" fill="white"/>
<path d="M350.404 283.475C351.922 283.475 353.153 282.244 353.153 280.726C353.153 279.208 351.922 277.977 350.404 277.977C348.885 277.977 347.655 279.208 347.655 280.726C347.655 282.244 348.885 283.475 350.404 283.475Z" fill="white"/>
<path d="M381.995 283.475C383.514 283.475 384.744 282.244 384.744 280.726C384.744 279.208 383.514 277.977 381.995 277.977C380.477 277.977 379.246 279.208 379.246 280.726C379.246 282.244 380.477 283.475 381.995 283.475Z" fill="white"/>
<path d="M413.564 283.475C415.082 283.475 416.313 282.244 416.313 280.726C416.313 279.208 415.082 277.977 413.564 277.977C412.045 277.977 410.815 279.208 410.815 280.726C410.815 282.244 412.045 283.475 413.564 283.475Z" fill="white"/>
<path d="M445.132 283.475C446.651 283.475 447.881 282.244 447.881 280.726C447.881 279.208 446.651 277.977 445.132 277.977C443.614 277.977 442.383 279.208 442.383 280.726C442.383 282.244 443.614 283.475 445.132 283.475Z" fill="white"/>
<path d="M476.701 283.475C478.219 283.475 479.45 282.244 479.45 280.726C479.45 279.208 478.219 277.977 476.701 277.977C475.182 277.977 473.952 279.208 473.952 280.726C473.952 282.244 475.182 283.475 476.701 283.475Z" fill="white"/>
<path d="M508.269 283.475C509.788 283.475 511.018 282.244 511.018 280.726C511.018 279.208 509.788 277.977 508.269 277.977C506.751 277.977 505.52 279.208 505.52 280.726C505.52 282.244 506.751 283.475 508.269 283.475Z" fill="white"/>
<path d="M539.838 283.475C541.356 283.475 542.587 282.244 542.587 280.726C542.587 279.208 541.356 277.977 539.838 277.977C538.319 277.977 537.089 279.208 537.089 280.726C537.089 282.244 538.319 283.475 539.838 283.475Z" fill="white"/>
<path d="M574.155 280.726C574.155 282.238 572.918 283.475 571.406 283.475C569.894 283.475 568.657 282.238 568.657 280.726C568.657 279.214 569.894 277.977 571.406 277.977C572.941 277.977 574.155 279.214 574.155 280.726Z" fill="white"/>
<path d="M602.998 283.475C604.516 283.475 605.747 282.244 605.747 280.726C605.747 279.208 604.516 277.977 602.998 277.977C601.479 277.977 600.249 279.208 600.249 280.726C600.249 282.244 601.479 283.475 602.998 283.475Z" fill="white"/>
<path d="M634.566 283.475C636.085 283.475 637.315 282.244 637.315 280.726C637.315 279.208 636.085 277.977 634.566 277.977C633.048 277.977 631.817 279.208 631.817 280.726C631.817 282.244 633.048 283.475 634.566 283.475Z" fill="white"/>
<path d="M3.12733 314.357C4.64561 314.357 5.8763 313.126 5.8763 311.607C5.8763 310.089 4.64561 308.858 3.12733 308.858C1.60906 308.858 0.378235 310.089 0.378235 311.607C0.378235 313.126 1.60906 314.357 3.12733 314.357Z" fill="white"/>
<path d="M34.6958 314.357C36.214 314.357 37.4449 313.126 37.4449 311.607C37.4449 310.089 36.214 308.858 34.6958 308.858C33.1775 308.858 31.9467 310.089 31.9467 311.607C31.9467 313.126 33.1775 314.357 34.6958 314.357Z" fill="white"/>
<path d="M69.0133 311.607C69.0133 313.119 67.7763 314.357 66.2643 314.357C64.7524 314.357 63.5152 313.119 63.5152 311.607C63.5152 310.096 64.7524 308.858 66.2643 308.858C67.7763 308.858 69.0133 310.096 69.0133 311.607Z" fill="white"/>
<path d="M97.8328 314.357C99.351 314.357 100.582 313.126 100.582 311.607C100.582 310.089 99.351 308.858 97.8328 308.858C96.3145 308.858 95.0837 310.089 95.0837 311.607C95.0837 313.126 96.3145 314.357 97.8328 314.357Z" fill="white"/>
<path d="M129.401 314.357C130.92 314.357 132.15 313.126 132.15 311.607C132.15 310.089 130.92 308.858 129.401 308.858C127.883 308.858 126.652 310.089 126.652 311.607C126.652 313.126 127.883 314.357 129.401 314.357Z" fill="white"/>
<path d="M160.97 314.357C162.488 314.357 163.719 313.126 163.719 311.607C163.719 310.089 162.488 308.858 160.97 308.858C159.452 308.858 158.221 310.089 158.221 311.607C158.221 313.126 159.452 314.357 160.97 314.357Z" fill="white"/>
<path d="M192.561 314.357C194.08 314.357 195.31 313.126 195.31 311.607C195.31 310.089 194.08 308.858 192.561 308.858C191.043 308.858 189.812 310.089 189.812 311.607C189.812 313.126 191.043 314.357 192.561 314.357Z" fill="white"/>
<path d="M224.13 314.357C225.648 314.357 226.879 313.126 226.879 311.607C226.879 310.089 225.648 308.858 224.13 308.858C222.611 308.858 221.381 310.089 221.381 311.607C221.381 313.126 222.611 314.357 224.13 314.357Z" fill="white"/>
<path d="M255.698 314.357C257.217 314.357 258.447 313.126 258.447 311.607C258.447 310.089 257.217 308.858 255.698 308.858C254.18 308.858 252.949 310.089 252.949 311.607C252.949 313.126 254.18 314.357 255.698 314.357Z" fill="white"/>
<path d="M290.016 311.607C290.016 313.119 288.779 314.357 287.267 314.357C285.755 314.357 284.518 313.119 284.518 311.607C284.518 310.096 285.755 308.858 287.267 308.858C288.779 308.858 290.016 310.096 290.016 311.607Z" fill="white"/>
<path d="M318.835 314.357C320.354 314.357 321.584 313.126 321.584 311.607C321.584 310.089 320.354 308.858 318.835 308.858C317.317 308.858 316.086 310.089 316.086 311.607C316.086 313.126 317.317 314.357 318.835 314.357Z" fill="white"/>
<path d="M350.404 314.357C351.922 314.357 353.153 313.126 353.153 311.607C353.153 310.089 351.922 308.858 350.404 308.858C348.885 308.858 347.655 310.089 347.655 311.607C347.655 313.126 348.885 314.357 350.404 314.357Z" fill="white"/>
<path d="M381.995 314.357C383.514 314.357 384.744 313.126 384.744 311.607C384.744 310.089 383.514 308.858 381.995 308.858C380.477 308.858 379.246 310.089 379.246 311.607C379.246 313.126 380.477 314.357 381.995 314.357Z" fill="white"/>
<path d="M413.564 314.357C415.082 314.357 416.313 313.126 416.313 311.607C416.313 310.089 415.082 308.858 413.564 308.858C412.045 308.858 410.815 310.089 410.815 311.607C410.815 313.126 412.045 314.357 413.564 314.357Z" fill="white"/>
<path d="M445.132 314.357C446.651 314.357 447.881 313.126 447.881 311.607C447.881 310.089 446.651 308.858 445.132 308.858C443.614 308.858 442.383 310.089 442.383 311.607C442.383 313.126 443.614 314.357 445.132 314.357Z" fill="white"/>
<path d="M476.701 314.357C478.219 314.357 479.45 313.126 479.45 311.607C479.45 310.089 478.219 308.858 476.701 308.858C475.182 308.858 473.952 310.089 473.952 311.607C473.952 313.126 475.182 314.357 476.701 314.357Z" fill="white"/>
<path d="M508.269 314.357C509.788 314.357 511.018 313.126 511.018 311.607C511.018 310.089 509.788 308.858 508.269 308.858C506.751 308.858 505.52 310.089 505.52 311.607C505.52 313.126 506.751 314.357 508.269 314.357Z" fill="white"/>
<path d="M539.838 314.357C541.356 314.357 542.587 313.126 542.587 311.607C542.587 310.089 541.356 308.858 539.838 308.858C538.319 308.858 537.089 310.089 537.089 311.607C537.089 313.126 538.319 314.357 539.838 314.357Z" fill="white"/>
<path d="M574.155 311.607C574.155 313.119 572.918 314.357 571.406 314.357C569.894 314.357 568.657 313.119 568.657 311.607C568.657 310.096 569.894 308.858 571.406 308.858C572.941 308.858 574.155 310.096 574.155 311.607Z" fill="white"/>
<path d="M602.998 314.357C604.516 314.357 605.747 313.126 605.747 311.607C605.747 310.089 604.516 308.858 602.998 308.858C601.479 308.858 600.249 310.089 600.249 311.607C600.249 313.126 601.479 314.357 602.998 314.357Z" fill="white"/>
<path d="M634.566 314.357C636.085 314.357 637.315 313.126 637.315 311.607C637.315 310.089 636.085 308.858 634.566 308.858C633.048 308.858 631.817 310.089 631.817 311.607C631.817 313.126 633.048 314.357 634.566 314.357Z" fill="white"/>
<path d="M3.12733 345.237C4.64561 345.237 5.8763 344.007 5.8763 342.488C5.8763 340.97 4.64561 339.739 3.12733 339.739C1.60906 339.739 0.378235 340.97 0.378235 342.488C0.378235 344.007 1.60906 345.237 3.12733 345.237Z" fill="white"/>
<path d="M34.6958 345.237C36.214 345.237 37.4449 344.007 37.4449 342.488C37.4449 340.97 36.214 339.739 34.6958 339.739C33.1775 339.739 31.9467 340.97 31.9467 342.488C31.9467 344.007 33.1775 345.237 34.6958 345.237Z" fill="white"/>
<path d="M69.0133 342.488C69.0133 344 67.7763 345.237 66.2643 345.237C64.7524 345.237 63.5152 344 63.5152 342.488C63.5152 340.976 64.7524 339.739 66.2643 339.739C67.7763 339.762 69.0133 340.976 69.0133 342.488Z" fill="white"/>
<path d="M97.8328 345.237C99.351 345.237 100.582 344.007 100.582 342.488C100.582 340.97 99.351 339.739 97.8328 339.739C96.3145 339.739 95.0837 340.97 95.0837 342.488C95.0837 344.007 96.3145 345.237 97.8328 345.237Z" fill="white"/>
<path d="M129.401 345.237C130.92 345.237 132.15 344.007 132.15 342.488C132.15 340.97 130.92 339.739 129.401 339.739C127.883 339.739 126.652 340.97 126.652 342.488C126.652 344.007 127.883 345.237 129.401 345.237Z" fill="white"/>
<path d="M160.97 345.237C162.488 345.237 163.719 344.007 163.719 342.488C163.719 340.97 162.488 339.739 160.97 339.739C159.452 339.739 158.221 340.97 158.221 342.488C158.221 344.007 159.452 345.237 160.97 345.237Z" fill="white"/>
<path d="M192.561 345.237C194.08 345.237 195.31 344.007 195.31 342.488C195.31 340.97 194.08 339.739 192.561 339.739C191.043 339.739 189.812 340.97 189.812 342.488C189.812 344.007 191.043 345.237 192.561 345.237Z" fill="white"/>
<path d="M224.13 345.237C225.648 345.237 226.879 344.007 226.879 342.488C226.879 340.97 225.648 339.739 224.13 339.739C222.611 339.739 221.381 340.97 221.381 342.488C221.381 344.007 222.611 345.237 224.13 345.237Z" fill="white"/>
<path d="M255.698 345.237C257.217 345.237 258.447 344.007 258.447 342.488C258.447 340.97 257.217 339.739 255.698 339.739C254.18 339.739 252.949 340.97 252.949 342.488C252.949 344.007 254.18 345.237 255.698 345.237Z" fill="white"/>
<path d="M290.016 342.488C290.016 344 288.779 345.237 287.267 345.237C285.755 345.237 284.518 344 284.518 342.488C284.518 340.976 285.755 339.739 287.267 339.739C288.779 339.762 290.016 340.976 290.016 342.488Z" fill="white"/>
<path d="M318.835 345.237C320.354 345.237 321.584 344.007 321.584 342.488C321.584 340.97 320.354 339.739 318.835 339.739C317.317 339.739 316.086 340.97 316.086 342.488C316.086 344.007 317.317 345.237 318.835 345.237Z" fill="white"/>
<path d="M350.404 345.237C351.922 345.237 353.153 344.007 353.153 342.488C353.153 340.97 351.922 339.739 350.404 339.739C348.885 339.739 347.655 340.97 347.655 342.488C347.655 344.007 348.885 345.237 350.404 345.237Z" fill="white"/>
<path d="M381.995 345.237C383.514 345.237 384.744 344.007 384.744 342.488C384.744 340.97 383.514 339.739 381.995 339.739C380.477 339.739 379.246 340.97 379.246 342.488C379.246 344.007 380.477 345.237 381.995 345.237Z" fill="white"/>
<path d="M413.564 345.237C415.082 345.237 416.313 344.007 416.313 342.488C416.313 340.97 415.082 339.739 413.564 339.739C412.045 339.739 410.815 340.97 410.815 342.488C410.815 344.007 412.045 345.237 413.564 345.237Z" fill="white"/>
<path d="M445.132 345.237C446.651 345.237 447.881 344.007 447.881 342.488C447.881 340.97 446.651 339.739 445.132 339.739C443.614 339.739 442.383 340.97 442.383 342.488C442.383 344.007 443.614 345.237 445.132 345.237Z" fill="white"/>
<path d="M476.701 345.237C478.219 345.237 479.45 344.007 479.45 342.488C479.45 340.97 478.219 339.739 476.701 339.739C475.182 339.739 473.952 340.97 473.952 342.488C473.952 344.007 475.182 345.237 476.701 345.237Z" fill="white"/>
<path d="M508.269 345.237C509.788 345.237 511.018 344.007 511.018 342.488C511.018 340.97 509.788 339.739 508.269 339.739C506.751 339.739 505.52 340.97 505.52 342.488C505.52 344.007 506.751 345.237 508.269 345.237Z" fill="white"/>
<path d="M539.838 345.237C541.356 345.237 542.587 344.007 542.587 342.488C542.587 340.97 541.356 339.739 539.838 339.739C538.319 339.739 537.089 340.97 537.089 342.488C537.089 344.007 538.319 345.237 539.838 345.237Z" fill="white"/>
<path d="M574.155 342.488C574.155 344 572.918 345.237 571.406 345.237C569.894 345.237 568.657 344 568.657 342.488C568.657 340.976 569.894 339.739 571.406 339.739C572.941 339.762 574.155 340.976 574.155 342.488Z" fill="white"/>
<path d="M602.998 345.237C604.516 345.237 605.747 344.007 605.747 342.488C605.747 340.97 604.516 339.739 602.998 339.739C601.479 339.739 600.249 340.97 600.249 342.488C600.249 344.007 601.479 345.237 602.998 345.237Z" fill="white"/>
<path d="M634.566 345.237C636.085 345.237 637.315 344.007 637.315 342.488C637.315 340.97 636.085 339.739 634.566 339.739C633.048 339.739 631.817 340.97 631.817 342.488C631.817 344.007 633.048 345.237 634.566 345.237Z" fill="white"/>
<path d="M3.12733 376.142C4.64561 376.142 5.8763 374.911 5.8763 373.393C5.8763 371.874 4.64561 370.644 3.12733 370.644C1.60906 370.644 0.378235 371.874 0.378235 373.393C0.378235 374.911 1.60906 376.142 3.12733 376.142Z" fill="white"/>
<path d="M34.6958 376.142C36.214 376.142 37.4449 374.911 37.4449 373.393C37.4449 371.874 36.214 370.644 34.6958 370.644C33.1775 370.644 31.9467 371.874 31.9467 373.393C31.9467 374.911 33.1775 376.142 34.6958 376.142Z" fill="white"/>
<path d="M69.0133 373.393C69.0133 374.905 67.7763 376.142 66.2643 376.142C64.7524 376.142 63.5152 374.905 63.5152 373.393C63.5152 371.881 64.7524 370.644 66.2643 370.644C67.7763 370.644 69.0133 371.858 69.0133 373.393Z" fill="white"/>
<path d="M97.8328 376.142C99.351 376.142 100.582 374.911 100.582 373.393C100.582 371.874 99.351 370.644 97.8328 370.644C96.3145 370.644 95.0837 371.874 95.0837 373.393C95.0837 374.911 96.3145 376.142 97.8328 376.142Z" fill="white"/>
<path d="M129.401 376.142C130.92 376.142 132.15 374.911 132.15 373.393C132.15 371.874 130.92 370.644 129.401 370.644C127.883 370.644 126.652 371.874 126.652 373.393C126.652 374.911 127.883 376.142 129.401 376.142Z" fill="white"/>
<path d="M160.97 376.142C162.488 376.142 163.719 374.911 163.719 373.393C163.719 371.874 162.488 370.644 160.97 370.644C159.452 370.644 158.221 371.874 158.221 373.393C158.221 374.911 159.452 376.142 160.97 376.142Z" fill="white"/>
<path d="M192.561 376.142C194.08 376.142 195.31 374.911 195.31 373.393C195.31 371.874 194.08 370.644 192.561 370.644C191.043 370.644 189.812 371.874 189.812 373.393C189.812 374.911 191.043 376.142 192.561 376.142Z" fill="white"/>
<path d="M224.13 376.142C225.648 376.142 226.879 374.911 226.879 373.393C226.879 371.874 225.648 370.644 224.13 370.644C222.611 370.644 221.381 371.874 221.381 373.393C221.381 374.911 222.611 376.142 224.13 376.142Z" fill="white"/>
<path d="M255.698 376.142C257.217 376.142 258.447 374.911 258.447 373.393C258.447 371.874 257.217 370.644 255.698 370.644C254.18 370.644 252.949 371.874 252.949 373.393C252.949 374.911 254.18 376.142 255.698 376.142Z" fill="white"/>
<path d="M290.016 373.393C290.016 374.905 288.779 376.142 287.267 376.142C285.755 376.142 284.518 374.905 284.518 373.393C284.518 371.881 285.755 370.644 287.267 370.644C288.779 370.644 290.016 371.858 290.016 373.393Z" fill="white"/>
<path d="M318.835 376.142C320.354 376.142 321.584 374.911 321.584 373.393C321.584 371.874 320.354 370.644 318.835 370.644C317.317 370.644 316.086 371.874 316.086 373.393C316.086 374.911 317.317 376.142 318.835 376.142Z" fill="white"/>
<path d="M350.404 376.142C351.922 376.142 353.153 374.911 353.153 373.393C353.153 371.874 351.922 370.644 350.404 370.644C348.885 370.644 347.655 371.874 347.655 373.393C347.655 374.911 348.885 376.142 350.404 376.142Z" fill="white"/>
<path d="M381.995 376.142C383.514 376.142 384.744 374.911 384.744 373.393C384.744 371.874 383.514 370.644 381.995 370.644C380.477 370.644 379.246 371.874 379.246 373.393C379.246 374.911 380.477 376.142 381.995 376.142Z" fill="white"/>
<path d="M413.564 376.142C415.082 376.142 416.313 374.911 416.313 373.393C416.313 371.874 415.082 370.644 413.564 370.644C412.045 370.644 410.815 371.874 410.815 373.393C410.815 374.911 412.045 376.142 413.564 376.142Z" fill="white"/>
<path d="M445.132 376.142C446.651 376.142 447.881 374.911 447.881 373.393C447.881 371.874 446.651 370.644 445.132 370.644C443.614 370.644 442.383 371.874 442.383 373.393C442.383 374.911 443.614 376.142 445.132 376.142Z" fill="white"/>
<path d="M476.701 376.142C478.219 376.142 479.45 374.911 479.45 373.393C479.45 371.874 478.219 370.644 476.701 370.644C475.182 370.644 473.952 371.874 473.952 373.393C473.952 374.911 475.182 376.142 476.701 376.142Z" fill="white"/>
<path d="M508.269 376.142C509.788 376.142 511.018 374.911 511.018 373.393C511.018 371.874 509.788 370.644 508.269 370.644C506.751 370.644 505.52 371.874 505.52 373.393C505.52 374.911 506.751 376.142 508.269 376.142Z" fill="white"/>
<path d="M539.838 376.142C541.356 376.142 542.587 374.911 542.587 373.393C542.587 371.874 541.356 370.644 539.838 370.644C538.319 370.644 537.089 371.874 537.089 373.393C537.089 374.911 538.319 376.142 539.838 376.142Z" fill="white"/>
<path d="M574.155 373.393C574.155 374.905 572.918 376.142 571.406 376.142C569.894 376.142 568.657 374.905 568.657 373.393C568.657 371.881 569.894 370.644 571.406 370.644C572.941 370.644 574.155 371.858 574.155 373.393Z" fill="white"/>
<path d="M602.998 376.142C604.516 376.142 605.747 374.911 605.747 373.393C605.747 371.874 604.516 370.644 602.998 370.644C601.479 370.644 600.249 371.874 600.249 373.393C600.249 374.911 601.479 376.142 602.998 376.142Z" fill="white"/>
<path d="M634.566 376.142C636.085 376.142 637.315 374.911 637.315 373.393C637.315 371.874 636.085 370.644 634.566 370.644C633.048 370.644 631.817 371.874 631.817 373.393C631.817 374.911 633.048 376.142 634.566 376.142Z" fill="white"/>
<path d="M3.12733 407.023C4.64561 407.023 5.8763 405.792 5.8763 404.274C5.8763 402.756 4.64561 401.525 3.12733 401.525C1.60906 401.525 0.378235 402.756 0.378235 404.274C0.378235 405.792 1.60906 407.023 3.12733 407.023Z" fill="white"/>
<path d="M34.6958 407.023C36.214 407.023 37.4449 405.792 37.4449 404.274C37.4449 402.756 36.214 401.525 34.6958 401.525C33.1775 401.525 31.9467 402.756 31.9467 404.274C31.9467 405.792 33.1775 407.023 34.6958 407.023Z" fill="white"/>
<path d="M69.0133 404.274C69.0133 405.786 67.7763 407.023 66.2643 407.023C64.7524 407.023 63.5152 405.786 63.5152 404.274C63.5152 402.762 64.7524 401.525 66.2643 401.525C67.7763 401.525 69.0133 402.762 69.0133 404.274Z" fill="white"/>
<path d="M97.8328 407.023C99.351 407.023 100.582 405.792 100.582 404.274C100.582 402.756 99.351 401.525 97.8328 401.525C96.3145 401.525 95.0837 402.756 95.0837 404.274C95.0837 405.792 96.3145 407.023 97.8328 407.023Z" fill="white"/>
<path d="M129.401 407.023C130.92 407.023 132.15 405.792 132.15 404.274C132.15 402.756 130.92 401.525 129.401 401.525C127.883 401.525 126.652 402.756 126.652 404.274C126.652 405.792 127.883 407.023 129.401 407.023Z" fill="white"/>
<path d="M160.97 407.023C162.488 407.023 163.719 405.792 163.719 404.274C163.719 402.756 162.488 401.525 160.97 401.525C159.452 401.525 158.221 402.756 158.221 404.274C158.221 405.792 159.452 407.023 160.97 407.023Z" fill="white"/>
<path d="M192.561 407.023C194.08 407.023 195.31 405.792 195.31 404.274C195.31 402.756 194.08 401.525 192.561 401.525C191.043 401.525 189.812 402.756 189.812 404.274C189.812 405.792 191.043 407.023 192.561 407.023Z" fill="white"/>
<path d="M224.13 407.023C225.648 407.023 226.879 405.792 226.879 404.274C226.879 402.756 225.648 401.525 224.13 401.525C222.611 401.525 221.381 402.756 221.381 404.274C221.381 405.792 222.611 407.023 224.13 407.023Z" fill="white"/>
<path d="M255.698 407.023C257.217 407.023 258.447 405.792 258.447 404.274C258.447 402.756 257.217 401.525 255.698 401.525C254.18 401.525 252.949 402.756 252.949 404.274C252.949 405.792 254.18 407.023 255.698 407.023Z" fill="white"/>
<path d="M290.016 404.274C290.016 405.786 288.779 407.023 287.267 407.023C285.755 407.023 284.518 405.786 284.518 404.274C284.518 402.762 285.755 401.525 287.267 401.525C288.779 401.525 290.016 402.762 290.016 404.274Z" fill="white"/>
<path d="M318.835 407.023C320.354 407.023 321.584 405.792 321.584 404.274C321.584 402.756 320.354 401.525 318.835 401.525C317.317 401.525 316.086 402.756 316.086 404.274C316.086 405.792 317.317 407.023 318.835 407.023Z" fill="white"/>
<path d="M350.404 407.023C351.922 407.023 353.153 405.792 353.153 404.274C353.153 402.756 351.922 401.525 350.404 401.525C348.885 401.525 347.655 402.756 347.655 404.274C347.655 405.792 348.885 407.023 350.404 407.023Z" fill="white"/>
<path d="M381.995 407.023C383.514 407.023 384.744 405.792 384.744 404.274C384.744 402.756 383.514 401.525 381.995 401.525C380.477 401.525 379.246 402.756 379.246 404.274C379.246 405.792 380.477 407.023 381.995 407.023Z" fill="white"/>
<path d="M413.564 407.023C415.082 407.023 416.313 405.792 416.313 404.274C416.313 402.756 415.082 401.525 413.564 401.525C412.045 401.525 410.815 402.756 410.815 404.274C410.815 405.792 412.045 407.023 413.564 407.023Z" fill="white"/>
<path d="M445.132 407.023C446.651 407.023 447.881 405.792 447.881 404.274C447.881 402.756 446.651 401.525 445.132 401.525C443.614 401.525 442.383 402.756 442.383 404.274C442.383 405.792 443.614 407.023 445.132 407.023Z" fill="white"/>
<path d="M476.701 407.023C478.219 407.023 479.45 405.792 479.45 404.274C479.45 402.756 478.219 401.525 476.701 401.525C475.182 401.525 473.952 402.756 473.952 404.274C473.952 405.792 475.182 407.023 476.701 407.023Z" fill="white"/>
<path d="M508.269 407.023C509.788 407.023 511.018 405.792 511.018 404.274C511.018 402.756 509.788 401.525 508.269 401.525C506.751 401.525 505.52 402.756 505.52 404.274C505.52 405.792 506.751 407.023 508.269 407.023Z" fill="white"/>
<path d="M539.838 407.023C541.356 407.023 542.587 405.792 542.587 404.274C542.587 402.756 541.356 401.525 539.838 401.525C538.319 401.525 537.089 402.756 537.089 404.274C537.089 405.792 538.319 407.023 539.838 407.023Z" fill="white"/>
<path d="M574.155 404.274C574.155 405.786 572.918 407.023 571.406 407.023C569.894 407.023 568.657 405.786 568.657 404.274C568.657 402.762 569.894 401.525 571.406 401.525C572.941 401.525 574.155 402.762 574.155 404.274Z" fill="white"/>
<path d="M602.998 407.023C604.516 407.023 605.747 405.792 605.747 404.274C605.747 402.756 604.516 401.525 602.998 401.525C601.479 401.525 600.249 402.756 600.249 404.274C600.249 405.792 601.479 407.023 602.998 407.023Z" fill="white"/>
<path d="M634.566 407.023C636.085 407.023 637.315 405.792 637.315 404.274C637.315 402.756 636.085 401.525 634.566 401.525C633.048 401.525 631.817 402.756 631.817 404.274C631.817 405.792 633.048 407.023 634.566 407.023Z" fill="white"/>
<path d="M3.12733 437.904C4.64561 437.904 5.8763 436.674 5.8763 435.155C5.8763 433.637 4.64561 432.406 3.12733 432.406C1.60906 432.406 0.378235 433.637 0.378235 435.155C0.378235 436.674 1.60906 437.904 3.12733 437.904Z" fill="white"/>
<path d="M34.6958 437.904C36.214 437.904 37.4449 436.674 37.4449 435.155C37.4449 433.637 36.214 432.406 34.6958 432.406C33.1775 432.406 31.9467 433.637 31.9467 435.155C31.9467 436.674 33.1775 437.904 34.6958 437.904Z" fill="white"/>
<path d="M69.0133 435.155C69.0133 436.667 67.7763 437.904 66.2643 437.904C64.7524 437.904 63.5152 436.667 63.5152 435.155C63.5152 433.643 64.7524 432.406 66.2643 432.406C67.7763 432.406 69.0133 433.643 69.0133 435.155Z" fill="white"/>
<path d="M97.8328 437.904C99.351 437.904 100.582 436.674 100.582 435.155C100.582 433.637 99.351 432.406 97.8328 432.406C96.3145 432.406 95.0837 433.637 95.0837 435.155C95.0837 436.674 96.3145 437.904 97.8328 437.904Z" fill="white"/>
<path d="M129.401 437.904C130.92 437.904 132.15 436.674 132.15 435.155C132.15 433.637 130.92 432.406 129.401 432.406C127.883 432.406 126.652 433.637 126.652 435.155C126.652 436.674 127.883 437.904 129.401 437.904Z" fill="white"/>
<path d="M160.97 437.904C162.488 437.904 163.719 436.674 163.719 435.155C163.719 433.637 162.488 432.406 160.97 432.406C159.452 432.406 158.221 433.637 158.221 435.155C158.221 436.674 159.452 437.904 160.97 437.904Z" fill="white"/>
<path d="M192.561 437.904C194.08 437.904 195.31 436.674 195.31 435.155C195.31 433.637 194.08 432.406 192.561 432.406C191.043 432.406 189.812 433.637 189.812 435.155C189.812 436.674 191.043 437.904 192.561 437.904Z" fill="white"/>
<path d="M224.13 437.904C225.648 437.904 226.879 436.674 226.879 435.155C226.879 433.637 225.648 432.406 224.13 432.406C222.611 432.406 221.381 433.637 221.381 435.155C221.381 436.674 222.611 437.904 224.13 437.904Z" fill="white"/>
<path d="M255.698 437.904C257.217 437.904 258.447 436.674 258.447 435.155C258.447 433.637 257.217 432.406 255.698 432.406C254.18 432.406 252.949 433.637 252.949 435.155C252.949 436.674 254.18 437.904 255.698 437.904Z" fill="white"/>
<path d="M290.016 435.155C290.016 436.667 288.779 437.904 287.267 437.904C285.755 437.904 284.518 436.667 284.518 435.155C284.518 433.643 285.755 432.406 287.267 432.406C288.779 432.406 290.016 433.643 290.016 435.155Z" fill="white"/>
<path d="M318.835 437.904C320.354 437.904 321.584 436.674 321.584 435.155C321.584 433.637 320.354 432.406 318.835 432.406C317.317 432.406 316.086 433.637 316.086 435.155C316.086 436.674 317.317 437.904 318.835 437.904Z" fill="white"/>
<path d="M350.404 437.904C351.922 437.904 353.153 436.674 353.153 435.155C353.153 433.637 351.922 432.406 350.404 432.406C348.885 432.406 347.655 433.637 347.655 435.155C347.655 436.674 348.885 437.904 350.404 437.904Z" fill="white"/>
<path d="M381.995 437.904C383.514 437.904 384.744 436.674 384.744 435.155C384.744 433.637 383.514 432.406 381.995 432.406C380.477 432.406 379.246 433.637 379.246 435.155C379.246 436.674 380.477 437.904 381.995 437.904Z" fill="white"/>
<path d="M413.564 437.904C415.082 437.904 416.313 436.674 416.313 435.155C416.313 433.637 415.082 432.406 413.564 432.406C412.045 432.406 410.815 433.637 410.815 435.155C410.815 436.674 412.045 437.904 413.564 437.904Z" fill="white"/>
<path d="M445.132 437.904C446.651 437.904 447.881 436.674 447.881 435.155C447.881 433.637 446.651 432.406 445.132 432.406C443.614 432.406 442.383 433.637 442.383 435.155C442.383 436.674 443.614 437.904 445.132 437.904Z" fill="white"/>
<path d="M476.701 437.904C478.219 437.904 479.45 436.674 479.45 435.155C479.45 433.637 478.219 432.406 476.701 432.406C475.182 432.406 473.952 433.637 473.952 435.155C473.952 436.674 475.182 437.904 476.701 437.904Z" fill="white"/>
<path d="M508.269 437.904C509.788 437.904 511.018 436.674 511.018 435.155C511.018 433.637 509.788 432.406 508.269 432.406C506.751 432.406 505.52 433.637 505.52 435.155C505.52 436.674 506.751 437.904 508.269 437.904Z" fill="white"/>
<path d="M539.838 437.904C541.356 437.904 542.587 436.674 542.587 435.155C542.587 433.637 541.356 432.406 539.838 432.406C538.319 432.406 537.089 433.637 537.089 435.155C537.089 436.674 538.319 437.904 539.838 437.904Z" fill="white"/>
<path d="M574.155 435.155C574.155 436.667 572.918 437.904 571.406 437.904C569.894 437.904 568.657 436.667 568.657 435.155C568.657 433.643 569.894 432.406 571.406 432.406C572.941 432.406 574.155 433.643 574.155 435.155Z" fill="white"/>
<path d="M602.998 437.904C604.516 437.904 605.747 436.674 605.747 435.155C605.747 433.637 604.516 432.406 602.998 432.406C601.479 432.406 600.249 433.637 600.249 435.155C600.249 436.674 601.479 437.904 602.998 437.904Z" fill="white"/>
<path d="M634.566 437.904C636.085 437.904 637.315 436.674 637.315 435.155C637.315 433.637 636.085 432.406 634.566 432.406C633.048 432.406 631.817 433.637 631.817 435.155C631.817 436.674 633.048 437.904 634.566 437.904Z" fill="white"/>
</g>
</svg>
