<svg width="592" height="435" viewBox="0 0 592 435" fill="none" xmlns="http://www.w3.org/2000/svg">
<g clip-path="url(#clip0_14_3626)">
<path opacity="0.3" d="M360.994 332.275L361.32 326.304L360.585 325.323L359.197 324.75L357.156 322.46L357.565 320.089L397.409 315.917L396.837 314.118L395.612 312.891L395.204 311.746L395.694 306.594L393.734 301.932L394.143 299.805L394.388 296.779L396.184 293.671L396.021 292.771L394.633 291.954V289.336L393.163 287.782L390.795 282.793L380.263 245.335L342.95 248.606L344.011 250.242L342.95 305.04L346.542 332.193L347.277 331.784L348.338 331.866L348.828 332.193L349.481 332.111L351.114 329.003V327.122L352.013 326.223L353.156 326.632L355.932 331.866V332.602L353.237 334.401L356.095 334.074L360.096 332.766L360.994 332.275Z" fill="#D0D0D0"/>
<path opacity="0.3" d="M-151.1 417.825H-149.14L-148.569 418.397L-149.385 419.379L-150.936 419.542L-152.978 420.605L-155.999 420.524L-154.202 419.787L-153.957 418.888L-151.916 418.642L-151.1 417.825ZM-144.323 416.434L-143.262 416.843H-142.527L-142.118 417.825L-141.874 417.334L-141.139 417.497L-140.241 418.724V419.133L-143.67 420.687L-145.629 420.605L-146.446 420.196L-147.344 420.769H-148.977L-149.875 419.624L-146.038 419.215L-144.323 416.434ZM-139.914 416.352L-139.097 416.434L-138.526 417.007V417.825L-139.587 417.906L-140.322 417.007L-139.914 416.352ZM-137.873 416.598L-136.811 416.516L-136.893 417.334L-137.791 417.825L-137.873 416.598ZM-137.628 418.397L-134.852 418.315L-134.689 419.215L-135.75 419.297L-135.995 418.888L-136.648 419.379L-136.975 418.888L-137.709 418.724L-137.628 418.397ZM-1.84796 424.613L-0.133365 424.695L-0.949841 426.249L-1.84796 426.167L-2.17455 425.513L-1.76632 424.449M-2.66443 422.077L-2.17455 421.014L-2.33785 419.133L-0.37831 418.724L3.29583 422.323L4.35725 425.104L5.90856 426.412L6.15349 430.583H5.01043L3.94901 428.702L1.41795 426.739H0.928055L1.82618 429.029L3.21419 429.193L3.37748 430.911L2.64266 430.992L-0.704896 427.394L-0.786548 426.658L0.764763 425.84V425.022L0.356525 424.368L-0.949841 423.877L-2.33785 422.814L-1.19479 422.895L-0.786548 422.568L-1.27643 421.832L-1.76632 422.241L-2.66443 422.077ZM-4.78727 417.17L-3.72585 417.252L-1.76632 419.297L-1.92961 419.951L-2.58279 419.869L-2.66443 421.341L-2.25619 421.75V422.977L-2.90938 423.222L-3.23597 424.204L-3.88915 423.877L-4.21574 422.077L-3.31761 420.932L-5.03222 419.133L-4.95057 418.152L-4.78727 417.17ZM-3.56256 415.943L-2.01126 416.107L0.0299274 416.189L2.80595 418.806L2.64266 419.215L1.74453 419.706L0.846403 419.542L0.764763 418.97L-0.215005 417.661L-0.45995 418.233L0.356525 419.297L0.193233 420.278L-0.45995 420.196L-1.52137 420.36L-1.60302 418.97L-3.72585 416.679L-3.56256 415.943ZM-13.9318 408.664L-13.197 408.337H-11.8906L-11.3191 407.928L-7.97152 409.728L-7.88988 410.954L-8.29812 411.363H-8.9513L-10.0944 410.791L-9.19624 411.854H-7.72659L-7.31835 413.49H-8.05318L-9.84942 412.263L-10.7475 412.099L-10.2577 413.163L-10.176 413.899L-9.52283 413.408L-8.13483 414.389L-7.07341 414.308L-7.2367 414.962L-5.6854 418.479V421.26L-5.3588 422.977L-6.01199 423.222L-6.99175 421.587L-7.39999 420.36L-8.70636 419.051L-8.86965 416.843L-9.35954 415.453H-9.93107L-9.68613 416.352V416.761L-10.8292 417.579L-10.7475 414.88L-12.0539 413.572L-13.1153 411.69L-14.0951 410.709L-13.9318 408.664ZM-8.05318 406.783L-7.15505 408.255L-5.19551 408.174L-4.37904 409.891L-4.86893 410.382L-3.23597 412.999V414.062L-4.21574 414.717V415.289L-5.84869 416.843L-6.25693 415.698L-6.33857 414.635L-5.84869 414.062V413.163L-7.07341 411.609L-7.48164 408.583L-8.21647 407.356L-8.05318 406.783ZM-54.3473 391.816L-57.6132 395.169V396.478L-55.8986 395.824L-55.2455 394.27L-53.4492 392.307L-54.3473 391.816ZM-80.148 405.393V405.884L-78.6783 406.865L-78.515 405.72L-78.0251 406.456L-75.1675 406.538L-74.5959 406.047L-74.4326 404.575L-74.8409 404.002H-75.9839V403.348L-75.6573 402.857V402.53L-76.8821 402.285L-79.5764 405.229L-80.148 405.393ZM-86.7614 410.464L-85.5367 415.207H-83.8221L-81.8626 413.163L-81.6176 414.144L-76.4738 410.873L-75.9023 410.055L-76.7188 409.155V408.583L-76.3105 407.519L-77.0454 407.438L-78.6783 408.255V407.274L-80.8828 406.783L-82.8423 407.029L-83.0056 409.809L-83.6588 408.174L-84.8835 408.092L-85.7 408.583L-86.7614 410.464ZM-88.5577 417.17L-88.476 416.598L-86.7614 415.534L-86.2715 415.78L-85.2101 415.943L-84.1487 416.925L-85.9449 416.761L-86.2715 416.271L-87.088 416.761L-88.5577 417.17ZM-92.8033 419.869L-93.7015 420.524L-92.4767 421.669L-91.8236 421.096L-91.9052 420.033L-92.8033 419.869ZM-97.9471 413.408L-96.8041 413.49L-96.4775 413.981L-97.9471 414.062V413.408ZM-109.296 423.141V423.55L-108.725 423.631L-108.806 423.141H-109.296ZM-109.623 420.524L-110.439 421.341V421.75L-109.868 422.65L-109.051 421.832L-109.623 421.75V420.524ZM-111.256 419.869L-111.501 420.687L-112.562 420.769L-112.889 420.932V421.996L-113.297 422.732H-112.807L-112.235 421.996L-111.582 421.914L-110.847 421.096L-110.684 420.033L-111.256 419.869ZM-114.848 418.233L-115.011 419.706L-113.868 420.36L-112.889 419.869V419.051L-111.501 418.806L-111.582 418.315L-112.317 418.152L-112.889 418.642L-113.623 418.233H-114.848ZM-118.849 418.152L-118.032 418.724L-118.277 419.706L-119.42 418.806L-118.849 418.152ZM-122.278 419.215L-121.135 419.297L-121.707 419.951L-122.278 419.215ZM-125.136 421.669L-123.666 422.568L-125.054 422.65L-125.136 421.669ZM-145.874 396.151L-144.894 396.642L-145.548 397.132L-145.874 396.151ZM-146.446 390.998L-146.119 391.98L-145.466 390.998H-146.446ZM-126.605 375.213L-125.381 375.131L-124.646 375.459L-123.748 375.05L-122.686 374.968L-121.38 375.622L-120.727 377.176L-120.808 377.912L-121.788 379.548L-123.748 379.384L-125.462 377.912L-126.279 377.585L-127.177 375.949L-126.605 375.213ZM-143.833 363.436L-143.751 364.99L-142.118 366.626V367.034L-142.772 366.871L-144.16 366.217L-144.405 365.317L-144.65 364.008L-143.833 363.436ZM-128.892 344.379V345.361L-127.34 346.833H-125.462L-124.972 347.733V349.041L-123.258 350.595L-121.788 351.577L-121.87 352.149L-122.441 353.049L-123.584 352.067L-125.299 352.149L-125.952 351.495L-126.687 349.777L-127.912 347.978L-130.035 347.896L-130.851 347.324L-130.035 345.606L-128.892 344.379ZM-115.175 340.699H-114.358L-114.277 341.599H-115.093L-115.175 340.699ZM-101.948 356.811L-101.213 356.893V357.874L-102.601 357.465L-101.948 356.811ZM2.39771 420.36L1.41795 420.687L1.33629 421.587H2.31606L2.39771 420.36ZM-126.279 416.679L-127.34 416.352L-130.688 416.843L-132.974 417.988L-133.056 419.542L-131.504 420.115L-130.28 419.379L-128.892 419.297L-125.054 420.442L-124.972 419.379L-126.279 418.479V416.679ZM-124.564 418.561L-124.891 417.416L-123.911 417.579L-123.829 418.724H-122.36L-122.033 416.679L-121.788 418.642L-119.747 418.561L-117.134 415.862L-116.481 415.943L-117.053 417.007L-115.91 417.743L-112.48 417.579L-110.358 416.598L-109.214 416.516L-108.97 417.743L-108.48 417.334L-108.153 416.189L-103.336 416.352L-101.785 415.044L-102.846 414.144L-102.356 413.163L-100.233 413.326L-100.397 412.345L-98.3554 412.508L-97.7838 411.609L-96.8857 411.772L-93.1299 410.218L-92.9666 408.828L-88.3944 406.865L-86.7614 405.311L-85.7816 404.82L-84.7202 405.475L-82.8423 404.739L-81.9442 403.185L-81.536 402.121L-80.148 401.385L-78.9233 400.813L-78.5967 399.668L-79.4948 398.277L-81.291 398.114L-81.4543 397.05L-80.8011 395.742L-79.6581 395.578L-78.5967 394.352L-77.0454 394.27L-74.2693 391.653L-73.9427 390.507L-72.718 388.626L-69.6154 385.273L-67.5742 384.537L-66.0229 383.801L-64.3083 384.455L-63.1653 386.582H-64.39L-65.5331 385.355L-67.9825 386.991L-69.3705 387.072L-69.5338 389.608L-72.0649 393.615L-71.575 395.251H-69.6971L-70.187 396.069L-71.33 396.151L-73.2896 397.623V398.359L-71.7383 399.177L-68.9622 398.686L-67.8192 397.296L-66.6761 397.378L-64.2267 395.987L-63.8185 394.106L-62.5121 394.024L-57.3683 394.679L-56.5518 393.779L-55.7353 390.099L-57.0417 390.998L-56.5518 389.199L-57.8582 388.054L-57.205 386.827L-57.1234 388.054H-54.3473L-53.7758 387.236L-52.4694 387.154L-52.7144 388.545L-51.1631 388.626L-52.7144 389.69L-49.3668 390.589L-52.2245 390.916L-53.2859 391.898L-52.5511 393.043L-48.7953 391.653L-46.9174 393.043L-46.3459 392.307L-45.856 393.452L-42.5901 395.333H-40.2223L-37.0381 394.924L-33.5272 395.824L-31.8943 397.378L-28.2201 397.705L-26.7505 396.478L-26.0973 398.441L-27.5669 399.013L-26.5872 399.995L-20.5453 403.103L-19.4022 405.147L-14.9932 408.501L-12.2988 406.865L-12.7887 405.066L-15.6464 403.43L-13.1153 404.411L-12.7071 403.839L-11.9723 404.902V407.11L-10.2577 406.62L-8.54307 408.092L-10.5843 400.077L-9.60447 401.14L-8.46141 406.047L-6.66517 408.092L-4.70562 407.765L-3.23597 410.627H-2.50114L-2.01126 415.207L0.764763 415.616L2.07112 417.416L3.54077 418.315L3.86737 420.605L2.39771 422.732L4.76549 424.04L5.74526 422.077L5.58196 424.613L4.92878 425.349L6.07185 426.739L6.64338 424.776L6.48009 423.795L7.13327 423.959L7.62315 425.84L6.80668 426.985L7.29657 429.111L7.7048 429.438L7.94975 428.13L8.52128 428.62L8.27634 430.256L9.2561 430.42L8.92952 431.156L10.3175 431.074V430.256H9.50105L9.5827 428.866L8.92952 428.375L10.3175 428.13L10.7258 427.475V426.167L11.134 427.23L10.6441 428.702L11.6239 431.892L13.0935 431.974L14.8898 428.539L14.9714 426.985L13.91 423.713L13.8284 422.732L14.2366 421.75L13.6651 421.178L12.2771 421.26L10.2359 419.624H8.84787L7.21491 418.479H5.9902L5.58196 417.17L4.4389 416.925L4.27561 415.698L3.45913 415.289L3.54077 413.899L-0.623243 407.846L-2.0929 406.62V405.638L-5.60375 402.776L-6.17528 401.876L-7.48164 400.24L-9.03294 399.75V397.95L-10.0127 396.887L-11.4007 396.314L-13.1153 397.378L-14.4217 399.095L-14.7483 401.058L-15.973 401.14L-18.0142 403.348L-18.6674 403.103V401.058L-20.6269 399.259L-22.5048 397.623L-22.913 395.987L-24.9542 394.924L-24.7909 393.125L-27.0771 393.043L-27.6486 393.943H-28.6284L-29.1999 393.37L-30.1797 394.024L-31.6493 393.043V322.869L-37.283 319.516L-38.7527 319.107L-40.5489 320.007L-42.3451 320.088L-44.223 318.78L-47.7339 318.289L-52.4694 315.345L-57.1234 315.018L-58.7563 315.427L-58.9196 313.954L-60.3893 313.382L-59.4911 312.564L-59.6544 311.828L-62.2672 310.928H-64.2267L-64.5533 311.255L-65.2881 310.765L-65.2065 308.638L-65.8596 307.902L-67.9008 310.274L-68.554 310.192V309.538L-67.166 308.884V308.229L-68.7173 306.266L-69.6154 306.185L-73.2896 308.72H-76.4738L-76.1472 307.984L-77.6169 307.902L-81.8626 310.683H-83.3322L-83.8221 310.029L-86.0266 311.255L-88.9659 314.282L-91.252 316.49L-92.4767 317.471L-94.5996 317.553L-96.3958 317.226L-98.2737 316.163L-100.56 319.352L-100.641 321.315L-98.5187 323.278L-96.8041 326.959L-96.6408 331.293L-94.273 332.929L-91.497 333.256L-90.9254 333.911L-92.1502 335.792L-91.5786 338L-92.9666 335.873V333.911L-94.1913 333.665L-94.1097 334.647L-93.5382 336.364L-91.1704 339.39H-92.3134L-94.1097 340.29L-99.1718 338.245L-99.2535 336.61L-98.1104 335.546V334.401L-99.825 333.992L-101.703 334.156L-105.622 334.319L-104.397 336.201L-105.949 334.728L-112.807 335.71L-113.46 336.937L-109.459 340.781L-110.113 341.926L-110.358 343.561L-110.929 344.216L-111.011 345.77L-107.418 348.714L-104.071 348.878L-100.315 350.432H-98.682L-98.0288 349.941L-94.9262 350.023L-94.8445 349.368L-93.8648 350.268L-93.7831 351.904L-95.8243 351.822L-95.7426 354.521L-95.3344 357.138L-97.7022 359.346L-99.2535 359.265L-100.886 358.61L-101.703 358.692L-104.234 360.41L-105.622 360.573L-106.765 358.283H-109.296L-111.092 359.919L-111.501 361.391L-114.195 362.863L-118.522 366.38L-118.767 368.916L-118.196 370.715L-117.379 371.696L-116.563 371.369L-115.828 372.187L-116.481 372.678L-117.706 373.414L-116.808 374.641L-118.931 375.54L-118.277 377.34L-116.889 379.221L-116.236 382.574L-112.97 383.801L-110.847 383.147L-109.459 382.247L-109.051 383.964L-108.806 387.563L-110.358 388.708V392.307L-110.847 393.043H-112.235L-110.847 394.024L-109.133 393.943L-108.806 393.125L-105.05 392.634L-103.418 394.76L-102.356 394.188L-101.295 398.359L-100.478 398.768L-99.6617 398.196L-99.5801 396.233L-98.8452 395.415L-98.2737 396.314L-98.1104 397.623L-96.8041 397.95L-92.9666 396.969L-92.8033 397.95L-94.4363 398.85L-95.7426 400.24L-98.0288 405.965L-101.54 407.601L-102.683 408.828L-102.928 409.973L-103.744 409.482L-111.337 412.181L-112.807 415.534L-113.868 415.207L-113.46 414.308L-114.685 413.163L-117.543 412.999L-121.87 415.616L-123.666 416.679H-125.544L-125.952 418.642L-124.564 418.561Z" fill="#D0D0D0"/>
<path opacity="0.3" d="M-50.02 267.008L-47.5706 265.209L-46.9174 263.246L-47.7339 261.938L-49.2035 261.774L-50.1016 260.465L-49.2035 254.822L-47.8971 254.577L-45.9376 251.96L-44.6312 246.234L-42.6717 243.29L-38.7526 241.9L-37.6912 240.836L-38.0178 239.282L-39.8957 237.238L-40.8755 232.494L-42.0185 231.022L-43.0799 228.241L-42.3451 226.524L-41.2021 224.07L-40.7938 221.698L-41.2021 217.691L-40.3856 206.567L-37.5279 206.077L-34.5069 207.222L-33.5272 209.43H-31.8942L-29.9347 207.058L-27.1587 192.745L10.5625 199.452L43.2215 204.359L29.0148 305.858L-1.43969 301.441L-53.8574 270.771L-53.4492 268.399L-51.8162 266.927L-50.02 267.008Z" fill="#D0D0D0"/>
<path opacity="0.3" d="M312.985 250.16L313.72 248.361L314.7 248.77L315.271 247.952L314.618 247.379L314.863 246.153L313.965 245.417L314.455 244.599L314.373 243.372L313.475 243.29L314.128 242.636L315.19 243.29L315.434 242.145L315.108 241.245L315.19 240.673L316.822 241.164L316.496 239.937L317.802 238.874L317.394 238.137L316.496 238.219L316.006 237.483L316.741 236.747L318.047 236.583L318.455 235.929L319.598 235.766L319.517 235.111L318.782 234.375V233.966H320.007L320.333 233.394L319.19 232.576L319.109 232.085L309.964 232.739L312.25 228.568L313.638 227.341V225.542L312.332 223.497L279.836 225.133L247.912 225.706L251.259 245.662L250.688 277.559L252.811 279.44L255.097 278.377L257.71 279.031L257.873 288.764L300.575 287.701L301.554 286.474L301.963 284.02L300.738 282.139L300.33 280.34L301.064 279.767V279.113L299.676 278.213L299.595 277.641L300.901 276.905L299.921 276.005L301.309 270.198L304.085 268.89V268.235L303.187 267.09L305.555 262.674H307.106L308.331 261.692L308.086 257.439L310.617 253.759L312.087 253.268L311.679 250.733L312.985 250.16Z" fill="#D0D0D0"/>
<path opacity="0.3" d="M141.852 214.419L128.38 213.601L86.1681 209.675L43.2215 204.359L52.611 132.141L89.2707 136.803L119.889 139.583L146.914 141.546L145.771 159.621L141.852 214.419Z" fill="#D0D0D0"/>
<path opacity="0.3" d="M549.191 96.3178L549.518 95.4181L546.905 85.3583L546.824 85.1129L534.658 87.8937V88.4662L533.923 88.7116L533.515 88.1391L524.942 90.102L527.228 103.433L528.698 104.66L525.84 107.441L527.228 109.24L531.637 105.56L533.025 104.497H533.678L535.638 101.961L536.781 102.043L539.149 101.143H540.863L545.191 98.935L547.477 98.1989L548.293 97.381L549.518 97.79L549.191 96.3178Z" fill="#D0D0D0"/>
<path opacity="0.3" d="M507.306 135.331L506 135.576L504.775 136.476L503.795 138.193L510.001 160.358L518.9 158.476L517.104 152.261L516.206 152.67L513.511 150.543L513.103 149.153L511.634 148.335L511.47 145.309L509.756 143.509L508.858 142.855L507.878 141.955L507.551 139.338L507.796 137.621L508.613 135.821L507.306 135.331Z" fill="#D0D0D0"/>
<path d="M449.745 314.036L446.479 313.464L445.091 312.728L443.294 313.873V315.917L444.438 317.635L444.029 321.152L442.315 321.642L441.498 320.743L441.008 318.126L400.103 320.824L397.409 315.917L357.565 320.088L357.156 322.46L359.197 324.75L360.586 325.323L361.32 326.304L360.994 332.275L360.096 332.765L360.504 333.093L361.32 332.847L361.892 332.193L370.465 329.985L377.976 329.576L384.59 331.13L391.53 335.219L393.489 335.873L395.286 337.509L395.204 339.717H397.164L398.715 338.9L400.756 338.981L402.389 338.327L404.757 336.691L407.288 334.319L408.186 333.992L408.676 334.401H409.819L410.227 333.747L409.819 332.765L409.329 332.275L409.492 331.62L411.125 330.721L415.208 330.394L415.861 331.212L416.677 331.293L418.555 332.111L421.005 333.583L421.984 334.974L422.883 335.955L425.169 337.1V339.063L427.455 340.617L428.271 340.699L429.578 341.844L430.149 343.153L430.966 343.316L431.619 345.034L432.19 345.524L433.007 344.625L435.375 344.706L435.783 345.851L436.681 346.588V347.651L439.049 349.45L439.212 357.302L437.742 362.045L438.559 363.027L438.396 365.808L437.742 366.953L438.314 367.934L440.192 369.815L440.437 371.042L441.09 371.86L440.763 370.306L441.825 369.815L442.478 366.871L440.029 365.889L440.11 365.399L442.233 365.072L442.968 367.198L443.866 367.689L443.948 366.053L444.846 366.298L445.336 366.953L445.254 367.525L442.886 370.96L442.723 371.86L441.335 373.414V374.314L444.356 377.421L448.683 383.883L450.153 385.6V387.072L452.439 390.835L454.317 391.325L454.888 390.344L453.174 390.589L450.724 386.909L450.888 385.764L452.112 385.109V383.883L451.623 382.819L452.357 382.083L452.684 382.819L453.255 383.228V386.5L452.276 386.009L451.623 386.745L452.766 388.054L453.582 390.18L454.562 389.69L456.44 390.671L458.154 392.47L459.461 396.642L461.992 400.567L462.645 399.504L464.931 399.095L467.544 400.158L467.789 401.549L470.483 404.657L470.565 405.556L472.361 407.765L471.789 408.174V410.382L473.994 411.527H475.219L477.423 410.055L478.648 410.3L479.546 410.627L481.424 409.237L481.587 408.664L482.567 408.91L484.526 407.519L485.588 405.638L485.016 403.021L484.853 401.958L485.751 398.686L486.241 398.523L486.731 399.831L487.384 398.359L486.731 392.47L486.404 383.883L485.588 378.321L485.016 376.931L479.628 367.852L475.382 360.41L473.586 357.711L472.524 354.766L472.361 351.986L473.096 351.74V351.004L472.198 349.205L468.932 345.933L462.727 338L458.073 329.494L454.562 320.743L454.072 317.717L453.092 316.899L452.684 313.791L449.745 314.036ZM457.256 424.04L458.644 423.959L458.073 423.141L457.256 424.04ZM463.216 423.141V422.568L464.523 422.405L467.544 419.706L468.769 419.215L470.728 418.479L470.973 419.542L472.361 420.196L470.238 421.178H468.279L465.094 423.222L463.216 423.141ZM477.26 416.925L474.81 418.07L473.994 419.133L474.892 419.215L477.26 416.925ZM480.362 414.553L479.464 414.798L478.321 416.434L479.219 416.271L480.444 414.962L480.362 414.553ZM487.139 401.712L485.751 406.292L485.098 407.11L484.282 409.237L483.302 410.545L482.73 411.936L481.179 413.735V414.471L483.383 412.181L485.343 409.319L485.833 407.683L487.547 403.675L487.139 401.712Z" fill="#F26F21"/>
<path opacity="0.3" d="M457.991 288.682V289.827L454.562 294.898L453.582 295.062L454.807 295.47V297.106L454.072 298.006L453.582 302.913L451.704 307.984L452.112 309.62L452.684 313.791L449.745 314.036L446.479 313.464L445.091 312.728L443.294 313.873V315.917L444.438 317.635L444.029 321.152L442.315 321.642L441.498 320.743L441.008 318.126L400.103 320.825L397.409 315.917L396.837 314.118L395.612 312.891L395.204 311.746L395.694 306.594L393.734 301.932L394.143 299.805L394.388 296.779L396.184 293.671L396.021 292.771L394.633 291.954V289.336L393.163 287.782L390.795 282.793L380.263 245.335L398.96 242.963L416.432 240.509L416.351 242.063L414.8 242.881L413.656 245.498L413.82 246.562L418.8 249.669L420.923 249.424L423.454 252.696L423.781 254.086L427.21 258.257L429.333 259.648L430.476 259.811L432.272 261.12L433.17 262.919L434.803 264.228L436.273 264.637L438.477 266.845L438.559 267.99L440.682 270.28L444.764 272.161L447.703 277.641L447.948 279.849L451.133 281.567L453.174 285.492L453.827 288.028L457.256 288.355L457.991 288.682Z" fill="#D0D0D0"/>
<path opacity="0.3" d="M94.8228 402.857L94.6595 405.475L96.0475 407.029L96.1291 408.01L92.21 411.69L92.1284 412.672L93.6797 415.289L95.0677 418.724V420.851L94.6595 421.832L94.7411 424.613L98.0887 426.33L98.9868 427.23L99.9666 426.33L101.681 423.386L105.355 421.014L108.05 420.605L110.091 419.787L111.479 418.806L114.092 415.943L111.805 415.044L110.662 413.899L110.744 412.508L110.336 412.018H108.703L108.866 409.973L108.295 408.991L106.172 407.11L102.498 405.556L100.212 405.393L97.5171 403.184L96.5374 402.694L94.8228 402.857ZM82.3307 388.953L81.4326 390.18L81.3509 391.571L83.5554 393.534L85.1067 393.943L85.5966 394.76L85.9232 397.214L88.8625 397.378L93.1898 395.251L93.1082 393.206L91.9651 392.798L89.1074 390.671L87.6378 390.426L85.27 391.489L84.0453 389.281L82.3307 388.953ZM81.106 398.359L81.8408 397.214L83.882 396.969L84.3719 398.441L81.106 398.359ZM75.3907 391.244L76.7787 394.515L79.3097 394.024L79.5547 392.389L78.4116 391.162L75.3907 391.244ZM72.0431 385.764L71.145 387.727H75.2274L79.1464 389.035L81.1876 387.727L81.3509 386.5L77.4318 386.663L72.0431 385.764ZM58.9795 377.094L57.4282 378.812L55.0604 379.303L55.7136 381.102L57.5098 383.392L57.5915 384.21L59.3061 383.964L61.184 384.046L62.572 385.028L65.4296 384.373V383.801L64.6132 383.147L64.2049 381.429L63.5518 381.184L63.1435 382.002L62.1637 380.938L62.327 379.793L60.8574 377.094L59.9593 376.522L58.9795 377.094ZM33.0156 366.953L29.5864 369.324L29.7497 371.206L31.7092 372.187L33.2605 373.25L35.465 373.577L37.5878 371.778L37.4245 370.224L38.0777 368.834V367.689L37.2612 366.953H33.0156ZM24.1976 370.878L23.9527 371.86L22.4014 372.596L21.9115 374.068L22.728 374.722L23.6261 373.496L25.1774 373.005L25.504 370.878H24.1976Z" fill="#D0D0D0"/>
<path opacity="0.3" d="M-29.0366 99.753L-48.9586 95.3364L-42.0186 64.8297L-39.6508 60.086L-39.3242 58.3685L-38.671 57.6324L-39.4058 55.9966L-41.7736 55.0152L-41.6103 51.5801L-38.3444 46.8364L-36.3032 46.1821L-34.9969 44.301L-35.0785 42.9924L-33.6089 41.6838L-30.9962 37.1855L-27.567 33.2597L-27.9752 30.6425L-30.8329 28.1071L-32.1392 25.1627L-31.2411 21.6459L-31.8126 18.3744L-21.4434 -27.5084L-9.84944 -25.0548L-13.7685 -7.06154L-10.7476 -1.00927L-12.0539 2.91653L-9.11461 6.84233L-7.5633 7.41484L-4.37905 14.2032V15.9207L-2.50116 18.3744H-1.76633L-0.623261 20.0919H1.98946V21.4005L-3.80752 35.3044L-4.21576 38.6577L-3.07269 39.0666L-1.76633 41.1931L0.519799 40.0481L3.45912 38.0852L5.01041 39.6391L5.41865 41.6838L5.01041 44.301L7.0516 52.2344L9.17444 55.097L11.0523 56.242L11.3789 58.6956V62.0489L13.2568 63.93L14.5632 62.0489L20.1969 63.3575L21.9115 62.3761L29.2597 63.7664L31.5459 61.0675L33.0155 60.5767L33.9953 62.0489L35.3017 65.4022L36.0365 65.484L29.0964 110.304L-10.0127 103.597L-29.0366 99.753Z" fill="#D0D0D0"/>
<path opacity="0.3" d="M345.073 167.473L344.256 171.726V173.362L346.216 176.224V176.797L345.971 177.533L346.705 179.087L346.461 181.05L345.154 182.522L344.093 185.957L340.99 190.292L340.909 196.017H340.092L340.827 197.571V198.307L339.031 200.515L339.112 201.415L340.337 203.214L340.255 203.95L337.234 204.441L336.744 205.422L335.765 204.932L334.948 205.341L334.622 208.04L336.01 209.512L335.683 211.475L334.458 211.72L328.825 209.266L325.559 212.293L325.804 213.765H323.518L322.375 212.538L320.905 209.43V207.876L321.558 207.385L321.64 206.322L320.252 204.768L319.517 202.723L317.312 199.37L313.393 198.307L307.351 192.5L307.025 190.537L309.311 184.321L308.984 182.767L309.964 181.868V180.804L307.678 179.577L305.229 179.005L302.453 179.986L301.391 178.105L301.881 176.551L301.309 174.588L294.288 167.718L292.492 166.491L290.45 161.666L289.471 157.249L290.614 154.223L291.185 153.651L291.267 151.77L290.695 151.034L291.512 149.807L292.981 149.316L293.716 149.071L294.533 148.089V146.126L295.921 144.163L296.329 143.755L296.411 140.892L295.676 139.747L294.859 139.502L293.961 138.193L294.778 134.922L297.227 134.267H299.187L302.616 132.795L304.004 130.996L304.085 129.033L304.984 127.97L306.045 125.352L305.963 123.226L303.677 120.363H302.697L301.963 119.464L302.126 118.155L300.738 116.765L298.697 115.701L299.105 115.211L336.581 112.921L336.663 116.683L339.439 120.445L340.419 123.798L341.725 126.416L345.073 167.473Z" fill="#D0D0D0"/>
<path opacity="0.3" d="M349.726 125.68L345.562 127.561L341.725 126.416L345.072 167.473L344.256 171.726V173.362L346.216 176.224V176.797L345.971 177.533L346.705 179.087L346.46 181.05L345.154 182.522L344.093 185.957L340.99 190.292L340.908 196.017H340.092L340.827 197.571L341.725 198.225L342.215 197.407L341.643 196.017L345.399 195.608L345.562 196.589L346.46 196.753L346.787 196.017L346.297 194.954L346.542 194.299L347.604 194.954L348.992 194.626L350.38 195.117L353.156 196.835L354.625 194.545L357.483 192.745L359.932 195.444L361.239 193.727L361.484 191.519L364.586 189.637L364.75 190.701L366.301 191.682L368.75 191.519L369.73 190.946L369.812 188.165L371.853 185.139L375.609 181.54L375.527 180.15L376.507 177.042L378.303 177.86L383.773 174.18L383.447 172.789L382.222 171.072L383.039 169.518L377.65 122.735L377.568 121.59L351.114 124.371L349.726 125.68Z" fill="#D0D0D0"/>
<path opacity="0.3" d="M290.695 99.6712L292.41 100.98L292.9 101.879L291.593 104.578L291.512 106.623L293.145 111.121L295.349 112.348L298.044 112.921L299.105 115.211L298.697 115.702L300.738 116.765L302.126 118.155L301.963 119.464L302.697 120.363H303.677L305.963 123.226L306.045 125.352L304.984 127.97L304.085 129.033L304.004 130.996L302.616 132.795L299.187 134.267H297.227L294.778 134.922L293.961 138.193L294.859 139.502L295.676 139.747L296.411 140.892L296.329 143.755L295.921 144.164L294.533 146.126V148.089L293.716 149.071L292.981 149.316L291.512 149.807L290.695 151.034L291.267 151.77L291.185 153.651L290.614 154.223L289.389 153.569L288.491 152.669L288.001 151.361L286.613 150.298L274.937 150.952L252.729 151.933L231.582 151.852L230.113 148.253L230.684 146.454L230.031 143.755L230.194 141.383L229.133 140.81L228.806 135.821L226.52 131.732L226.357 128.706L224.561 125.189L223.499 122.163V121.018L223.009 119.627V117.746L222.601 117.01L222.03 115.62L221.785 114.556L220.723 113.575L221.54 110.058L222.928 105.887L222.356 104.251L221.295 103.924L220.968 102.616L221.785 102.207L221.866 101.307L220.805 100.08L220.887 98.7715L222.683 98.8533H245.707L275.345 98.1172L290.532 97.5447L290.695 99.6712Z" fill="#D0D0D0"/>
<path opacity="0.3" d="M210.844 162.239L175.164 161.257L145.771 159.621L141.852 214.419L197.127 216.791L247.749 216.873L247.34 177.533L244.728 176.96L242.605 173.116L240.564 171.072L240.972 169.19L243.176 167.064L243.258 166.083L242.033 164.365L241.298 165.183L239.666 164.692L237.298 162.239H210.844Z" fill="#D0D0D0"/>
<path opacity="0.3" d="M401.083 213.765L384.345 214.91L380.099 215.564L365.893 216.382L363.77 217.036L345.317 218.672L344.746 218.181H341.725L342.705 220.798L342.215 221.535L323.191 222.761L324.007 220.553L325.15 221.289L325.722 220.962L326.702 217.609L325.885 216.791L326.702 215.155L326.865 214.419L325.804 213.765L325.559 212.293L328.825 209.266L334.458 211.72L335.683 211.475L336.01 209.512L334.622 208.04L334.948 205.341L335.765 204.932L336.744 205.422L337.234 204.441L340.255 203.95L340.337 203.214L339.112 201.415L339.031 200.515L340.827 198.307V197.571L341.725 198.225L342.215 197.407L341.643 196.017L345.399 195.608L345.562 196.589L346.46 196.753L346.787 196.017L346.297 194.954L346.542 194.299L347.604 194.954L348.992 194.626L350.38 195.117L353.156 196.835L354.625 194.545L357.483 192.745L359.932 195.444L361.239 193.727L361.484 191.519L364.586 189.637L364.75 190.701L366.301 191.682L368.75 191.519L369.73 190.946L369.812 188.165L371.853 185.139L375.609 181.54L375.527 180.15L376.507 177.042L378.303 177.86L383.773 174.18L383.447 172.789L382.222 171.072L383.039 169.518L384.1 169.927L385.896 170.008L387.448 169.354L389.815 170.336L391.612 173.116V173.934L394.959 174.507L396.837 174.343L398.388 176.061L400.185 176.224V175.406L401.736 174.752L404.185 175.406L405.165 176.061L406.227 175.488H406.961L407.451 174.098L410.227 172.626L410.635 173.28L411.289 175.652L414.146 176.797L415.126 178.514L415.044 179.414L415.534 180.232L415.044 183.176L416.596 184.485L417.249 185.384L418.065 185.875L417.984 186.611L421.576 191.191H422.719L423.944 192.664L424.924 192.909L426.067 192.827L422.066 198.225L419.698 199.043L417.249 201.497L416.922 203.296L415.208 204.359L415.126 205.75L413.983 206.895L412.513 207.304L412.105 208.857L411.289 209.185L405.655 212.62L401.083 213.765ZM321.068 223.007L320.497 222.434L320.66 221.616H321.558L322.13 222.189L321.885 223.007H321.068Z" fill="#D0D0D0"/>
<path opacity="0.3" d="M327.927 336.691L326.947 335.219L327.192 334.156L323.273 328.594L324.007 324.832L324.824 323.687L324.906 322.542L295.512 324.178L296.9 314.445L298.86 310.519L303.759 303.649L302.289 301.605H303.922V298.906L301.963 296.861L302.371 295.47L301.391 294.653L300.085 288.846L300.575 287.701L257.873 288.764L258.281 305.04L258.853 307.82L260.976 310.11L261.547 314.527L264.65 318.289L265.303 321.806H266.119L266.038 327.777L263.343 333.011L264.405 334.892L263.343 336.119L263.915 338.573L263.833 342.089L262.037 344.952L261.955 345.606L260.567 346.588L261.384 348.06L262.364 348.96L263.67 347.896L267.997 347.16L272.978 347.078L280.816 350.186L287.348 351.004L288.572 349.859L290.042 349.696L293.961 351.495L295.267 351.168L296.166 349.941L292.736 348.469L290.94 349.287L290.042 349.123L288.899 347.487L291.593 345.688L292.9 345.606V346.997L294.124 346.915L296.9 346.669L297.227 348.551L298.125 348.878L298.615 350.432L302.534 351.25L303.922 352.558V353.131H302.942L301.718 354.521L303.106 355.503L307.515 356.32L309.719 358.61L313.312 357.793L310.291 357.956L310.209 357.465L312.495 356.893L312.658 355.421L313.638 355.175V354.03L314.536 354.112V355.421L316.577 355.503L317.231 353.949L317.966 354.194L318.129 356.239L319.109 356.402L317.639 358.038L319.762 357.302L321.395 356.402L323.763 353.703H323.191L322.13 354.685L321.803 354.603L321.395 353.949L322.13 352.967V351.086L323.028 350.432L323.599 351.004L324.416 350.35L325.232 350.268L325.722 351.331L325.232 352.885H327.192L331.356 354.276L331.764 355.339L333.07 356.484L335.356 356.566L336.418 357.138L337.888 356.32L338.622 354.93V353.54H337.479L336.5 352.395L335.601 351.495L332.989 350.759L330.866 350.922L327.437 348.96V347.078L328.498 346.261L330.458 346.751L327.927 345.443L328.09 344.788H331.029L333.152 341.926L331.029 340.454L331.682 339.227L330.703 338.573H330.049L328.416 340.29V342.008L327.927 342.58L327.028 342.498L325.722 341.353H324.661V340.126L325.15 339.554L325.804 340.126L327.192 338.818L327.763 337.509L328.416 337.264L327.927 336.691ZM319.517 334.483L321.068 335.301L321.721 336.201L323.763 336.282L324.987 336.937L325.15 338.082L324.824 338.573L324.089 337.346L322.946 338.327L322.211 339.472L319.925 340.126L318.619 340.208L315.598 339.39L315.679 338L317.312 336.364L318.21 334.401L319.517 334.483ZM315.679 335.465V336.364L314.21 338H313.23V336.201L314.536 334.974L315.679 335.465Z" fill="#D0D0D0"/>
<path opacity="0.3" d="M550.416 55.2605L550.906 58.532L553.519 60.1678L554.172 61.9671L556.05 63.1121L557.193 62.8668L558.009 60.4131L557.356 58.0413L558.663 57.3052L559.071 55.0152L558.581 53.9519L561.275 52.398L559.479 50.5168L560.214 48.5539L561.357 46.7546L561.765 49.3718L563.072 47.7361L564.133 48.4721L565.113 47.8178V46.4275L567.726 45.3642L567.97 42.9924L570.012 42.8288L572.216 39.8027V39.2302L571.481 38.8212L571.4 36.1222L571.89 35.2226L572.053 36.5312L572.869 36.1222L572.706 33.505L571.971 33.7504L571.89 34.7318L570.91 33.5868L571.645 32.4418L572.135 32.5236L573.033 32.1964L573.441 34.4865L575.074 34.2411L577.442 34.8136V33.9958L576.543 33.0143L577.605 33.0961L577.687 31.215L578.176 31.8693L578.421 33.4232L580.136 34.6501L580.299 33.8322L581.034 33.6686L580.789 33.0143L581.442 32.5236L581.361 31.215L580.054 31.0514L578.421 31.6239L579.564 30.3153L580.136 29.661L581.197 29.4974L581.524 30.5607L582.912 31.8693L583.239 30.1517L585.116 29.1703L584.382 28.1071L584.463 26.7167L585.361 27.1256H585.933L587.321 25.9806L587.648 24.0995L589.444 24.3448L589.525 23.7723L589.689 22.4637L590.097 23.6087L591.322 22.7909L593.2 19.4376L593.118 17.6383L591.975 16.0025L589.525 13.3853H587.974L587.321 15.1846L584.953 12.731L585.198 12.0767V10.8499L583.892 7.16945L583.239 7.00587L582.667 7.33302H578.748L578.503 4.38867L571.89 -16.8761L565.929 -19.9022L563.562 -19.984L558.091 -14.586L555.887 -15.4039L555.07 -18.5936H552.866L547.232 -2.64505L547.804 2.42577L546.416 4.38867L546.089 8.1509L547.15 11.177L547.804 11.3406V12.6492L546.497 16.3297L545.272 17.4747L544.211 19.274L543.884 25.6534L541.925 24.8356L540.7 25.1627L550.416 55.2605ZM578.666 35.059L577.85 35.7133V36.7765L578.421 36.1222L579.156 36.7765L579.483 36.3676L580.381 36.5312L579.564 35.8769L579.891 35.2226L578.666 35.059ZM577.278 37.1855L576.462 38.0851L576.87 38.4123L576.788 39.2302H577.687V37.758L577.278 37.1855ZM574.829 35.8769L575.564 36.9401L576.38 37.3491L576.625 36.5312V35.059L575.564 34.4865L575.237 35.4679L574.829 35.8769ZM574.012 39.9663L572.624 38.5759L573.931 36.613L574.584 36.8583L574.747 37.758L575.564 38.4123V39.3119L574.747 40.1298L574.012 39.9663Z" fill="#D0D0D0"/>
<path opacity="0.3" d="M507.878 170.254V168.863H507.224V170.336L507.878 170.254ZM517.512 167.064L518.492 165.265L518.574 163.22L518.084 162.729L517.512 163.465L517.349 165.183L516.696 166.328L516.451 167.228L512.695 168.536L512.123 169.191L511.062 169.354L510.735 170.09L509.674 170.581L509.429 168.536L509.756 167.964L509.102 167.555L509.266 166.328L507.959 167.146V165.51L508.939 165.265L507.388 164.938L506.816 164.283L507.143 163.22L506.49 162.729L505.918 164.038L506.326 164.692L505.755 165.183L504.857 165.592L503.224 164.774L503.06 163.793L502.244 162.893L501.101 161.503L502.326 160.848L501.509 160.358V159.621L501.999 158.804L503.387 158.558L502.244 158.067L502.162 157.495L501.101 157.413L500.774 158.313L500.284 158.558L500.366 155.777L501.183 154.96L501.836 155.532L501.917 154.223L501.101 153.487L500.366 154.387L499.55 155.532L499.06 154.714L499.223 152.751L499.958 151.933L500.693 152.67L501.672 152.097L501.346 150.707L500.529 151.524L499.795 149.807L499.631 148.417L500.529 146.454L501.428 145.309L502.571 145.145L502.162 144.491L502.571 144L502.326 143.428L502.489 141.71L501.264 142.037L500.611 142.937L501.428 144L499.305 146.944L498.57 146.617L497.998 147.353L497.508 149.153L496.039 149.562L497.1 150.052L498.162 151.116L497.998 151.688L498.733 152.67L497.835 153.487L498.243 153.733L497.835 154.796V156.514L497.427 157.577L498.162 158.476L498.733 161.257L499.795 162.402L501.101 163.547L501.428 165.837L502.734 167.473L503.06 168.618V169.436H502.489L501.264 168.454L500.938 168.618L499.958 168.454L498.57 167.309L497.427 167.064L496.61 167.473L495.631 167.228L495.304 167.391L493.916 166.737L493.099 165.919L492.283 164.856L491.793 164.692L491.14 165.265L489.834 166.328L488.935 165.674L488.609 163.793L489.262 162.075L489.017 161.666L489.262 161.339L488.691 160.521L489.507 160.439L490.323 159.703L490.65 158.231L492.038 156.105L489.915 154.632L489.099 156.023L488.609 155.532H487.792L487.303 155.45L486.976 155.123L487.058 154.714L485.67 154.223L485.016 154.469L484.037 154.387L483.465 153.815L483.057 153.651L482.894 153.078L483.383 152.424V151.688L482.404 151.524L481.587 150.788L480.852 150.87L479.546 150.625L478.811 150.298L478.974 148.989L478.158 148.58L477.995 148.008H477.423L476.77 147.026L476.933 146.208L474.81 146.535L473.014 145.227L471.871 145.472L471.136 146.617H470.075L468.687 148.989L465.992 149.316L464.441 148.498L462.318 151.606L460.522 151.361L457.991 154.551L457.256 155.859L455.787 157.168L454.399 147.844L503.795 138.193L510.001 160.358L518.9 158.476V162.811L518.818 165.347L518.002 166.819L517.512 167.064ZM506.571 165.592L505.51 166.328L506.163 167.8L507.551 168.454L507.224 167.146L506.571 165.592Z" fill="#D0D0D0"/>
<path opacity="0.3" d="M570.746 92.4739H573.522L574.257 91.9832L574.339 90.9199L572.788 89.4477L573.114 90.2656L571.889 91.4924H570.011L570.093 92.1467L570.746 92.4739ZM563.398 93.9461L562.418 93.4553L563.235 92.801L563.725 91.0835L564.704 90.2656L565.358 90.102L565.847 90.8381L566.746 91.0017L567.235 90.511L567.644 92.0649L566.582 92.3103L564.296 92.8828L563.398 93.9461ZM534.903 74.8078L549.926 71.6999L550.743 70.473L550.988 69.0827L552.539 68.5919L552.947 67.6923L554.335 66.7926L555.397 67.038L556.785 69.7369L557.601 70.0641L558.499 69.0009L559.152 70.0641V70.9638L556.703 72.9267L556.866 73.581L556.131 74.3988L556.458 75.0531L555.397 75.2985L556.131 76.2799L555.478 76.8525L555.968 77.6703L556.703 77.5068L556.948 76.8525L557.846 77.3432H559.316L561.357 79.4697L561.52 81.5961L562.99 81.6779L563.643 82.5776L564.133 84.2133L564.949 84.7859H566.501L568.052 84.7041L568.705 83.968L570.011 82.9865L570.91 82.7412L569.93 81.0236L569.685 81.7597L568.46 78.8154H567.807L567.48 79.5514L566.501 78.7336L567.562 77.8339L569.032 78.1611L570.91 79.8786L571.971 82.0869L572.951 84.7859L572.134 87.0759V85.6037L571.563 84.7859L568.705 86.667L567.97 86.4216L566.664 87.2395L566.582 88.2209L564.786 89.2024L563.153 90.9199L561.52 92.4739H560.54L563.235 89.7749L563.643 88.2209L563.235 87.7302L562.99 86.667L562.255 86.5852L562.173 87.6484L561.357 88.6299H560.377L560.132 89.5295L560.459 90.511L559.479 91.4106L558.581 91.2471L558.254 92.0649L557.111 89.6113L556.05 88.7117L553.927 87.6484L553.437 85.8491H552.784L552.212 83.7226L546.905 85.3584L546.824 85.113L534.658 87.8938V88.4663L533.923 88.7117L533.515 88.1391L524.942 90.102L524.37 89.2842L524.779 77.016L534.903 74.8078Z" fill="#D0D0D0"/>
<path opacity="0.3" d="M377.568 121.59L377.65 122.735L395.122 119.873L395.531 118.891L398.715 114.066V110.549L399.368 108.831L401.164 108.177L402.797 101.798L403.614 101.389L404.43 101.879L404.267 102.37L403.369 103.024L403.614 103.76L404.267 104.088L405.818 102.943L406.145 94.9274L404.838 93.0463L403.859 90.0202V87.9755L401.981 84.3768V82.9047L401.001 80.2057L399.123 77.752L396.755 76.9342L392.836 79.3878L390.795 83.15L390.632 83.8861L388.182 86.7487L386.958 86.5851L384.59 84.295L384.508 81.5143L385.733 79.9603L387.366 79.7967L388.346 78.4063L388.509 75.1348L389.162 74.4805L390.06 74.3988L390.795 73.0084L390.632 65.1568L390.387 64.0935L389.407 63.1121L388.019 62.2942L387.937 60.822L388.509 60.3313L389.979 60.9856L389.734 59.5952L388.182 57.387L387.611 56.0783L386.713 55.1787H384.916L378.303 52.8068L377.16 51.4165L374.629 51.1711L373.649 51.4165L370.057 49.5353H368.914L369.322 50.3532L367.117 50.2714L367.199 50.7622L367.689 51.2529L365.648 52.9704L365.729 54.4426L366.954 56.3237L368.179 56.4873V56.978L366.954 57.387L365.239 57.3052L362.953 59.3498L363.035 61.3945L363.362 66.1382L361.565 68.919L362.218 65.2385L361.565 64.7478L360.83 69.0826L360.014 67.2015L360.422 65.3203L360.014 64.5025L360.504 63.4392L360.014 62.5396L360.83 61.7217V60.7402L359.769 61.231L358.708 63.7664L358.136 64.3389L357.075 66.3018L355.687 66.1382L355.605 67.1197H354.299L354.462 68.3465L354.625 69.9822L352.176 70.9637L352.257 72.0269L353.074 73.4173L352.992 77.6703L351.931 81.2689L350.543 83.3136L351.523 84.4586L352.176 87.3212L351.359 89.3659L351.196 91.0834L352.584 93.8642L354.625 97.8718L355.605 99.4257L356.911 105.069L356.83 112.266L356.095 115.456L354.462 118.073L353.727 121.099L352.094 123.553L351.114 124.371L377.568 121.59ZM299.35 42.4198L301.799 45.5278L315.679 48.6357L316.822 49.4536L320.088 50.1079L320.66 50.5168L322.946 50.3532L326.947 51.0075L328.09 52.2343L327.273 53.0522L327.926 53.7065L331.029 54.279L332.009 55.2605L332.09 58.8591L331.029 61.1492L332.662 61.231L333.479 60.5767L334.213 61.231L333.315 63.7664L334.132 65.075L335.111 65.3203L335.765 63.8482L338.132 60.0859L339.439 55.1787L341.317 53.5429L340.908 52.2343L341.317 51.4982L342.133 52.8068L341.888 54.6062L344.256 52.8068L344.419 50.9257L346.134 51.4165L346.787 50.1079L347.359 50.5986L346.787 51.8254L345.971 52.2343L345.154 53.8701L346.297 55.3423L347.195 54.9333L346.787 54.3608L347.604 53.134L349.155 51.7436H349.808L349.971 49.6171L351.604 48.145L358.054 47.736L359.606 45.2006L362.708 44.9552L365.811 45.9367L369.24 48.145L369.812 47.9814L369.648 45.1188L370.22 44.9552L373.894 45.8549L375.119 45.6913L377.487 45.1188L378.875 45.446L380.344 45.5278V44.6281L379.773 43.892L378.548 43.7284L377.65 43.0741L378.058 41.9291L377.405 41.6837L375.282 41.7655L375.2 40.9477L376.099 40.2934L376.588 40.9477L376.997 39.4755L376.425 38.903L376.997 38.7394L375.854 37.6762L376.099 36.6129L376.18 35.059H375.119L373.894 35.8768L372.343 35.9586L371.935 37.4308L370.383 37.5944L370.138 36.6129L368.342 36.6947L367.526 37.6762L366.954 37.5944L366.791 36.9401L364.668 37.2672L364.586 33.3414L365.403 31.7057L364.831 31.6239L363.362 32.5235H361.565L358.463 34.7318L353.401 34.9772L350.053 35.6315L348.502 36.8583L347.359 37.9215L345.317 39.3119L345.072 39.9662L344.583 38.5758L343.521 38.0851V38.5758L344.093 39.1483V40.2116L342.868 39.7208H342.378L342.133 40.7023L340.5 39.1483L339.439 38.9848L338.377 40.2116L335.765 40.1298L335.356 38.9848L333.723 37.4308L332.662 36.1222V35.5497L331.764 34.4047L329.641 33.4232L326.947 33.3414L326.049 32.6053H324.906L324.334 32.9325L322.538 34.7318L321.966 35.6315L321.15 35.059L321.313 34.2411L321.966 32.5235L324.579 28.4342L325.232 28.2706L326.62 26.7166L327.192 25.408L329.641 24.9173L330.294 24.4266L330.213 23.6087L329.804 23.1998L326.13 23.3633L324.497 23.7723L322.374 24.7537L321.395 25.7352L320.007 27.5345L318.537 28.3524L315.843 31.1332L315.516 32.4418L309.474 36.204L306.208 36.6129L304.739 36.9401L302.861 39.3937L301.391 39.9662L297.799 41.8473L299.35 42.4198ZM381.569 45.5278L384.672 45.6095L385.161 45.2006L384.998 43.5649L383.61 42.0927L382.059 42.1745L381.977 42.5834L382.875 42.9106L381.569 43.5649L381.324 44.3827L380.834 43.892L380.508 44.5463L381.569 45.5278ZM320.252 11.2588L318.374 11.4224L316.169 12.9763L310.372 17.3111L311.025 18.1289L312.495 18.3743L314.781 16.7386L313.883 16.3296L315.761 15.021H316.577L319.027 13.467L318.945 12.731L320.252 11.2588ZM353.809 62.6213V63.4392L355.523 64.7478L355.36 62.7849L353.809 62.6213ZM353.237 64.9114L354.135 64.9932V65.7293H353.319L353.237 64.9114ZM370.71 47.4907V48.2267L371.363 48.0632V47.6542L370.71 47.4907ZM374.547 50.0261L374.466 49.1264L373.159 48.9628L372.669 48.6357H371.935L371.608 48.881L372.343 49.2082L373.241 50.1079L374.547 50.0261ZM359.851 51.0075L359.769 51.9072L359.524 52.4797L359.687 54.279L360.014 54.5244L360.586 54.6062L360.994 53.8701L361.075 52.5615L360.83 52.0708L360.749 51.1711L359.851 51.0075Z" fill="#D0D0D0"/>
<path opacity="0.3" d="M215.416 6.10626L214.518 8.39631L215.171 9.54134L214.926 13.7125L214.518 14.6122L216.723 22.0548L217.784 24.0995L218.355 35.5498L219.172 37.758L218.845 42.5017L221.213 48.554L221.458 53.2977L221.376 55.0152L221.295 56.8145L220.56 58.4503L218.029 60.0042L217.784 60.9857L219.172 63.0304L219.499 64.5026L221.621 64.9933L222.846 66.5472L222.683 98.8533H245.707L275.345 98.1172L290.532 97.5447L289.634 93.8643L289.471 91.4107L287.674 88.957L285.388 88.3845L281.142 85.4402L280.653 82.7412L275.509 80.2058L275.345 79.1425H272.651L270.855 77.0161L269.222 75.9528L269.793 71.7816L269.059 70.4731L269.467 66.0565L270.283 64.5844L270.038 62.3761L269.059 61.3129L267.589 61.0675V59.6771L269.875 54.9334L274.692 51.7437L274.366 41.1113L275.101 41.4385L275.59 41.0295L275.672 40.1299L276.407 39.6391L277.55 40.6206L278.121 40.5388L277.142 38.7395L280.653 36.2041L283.184 33.1779L284.49 32.5236L288.327 27.6982L293.471 22.9545L296.655 21.237L301.799 19.0287L308.004 15.3483L307.515 15.0211L304.494 15.5936L302.208 15.6754L301.391 14.3668L300.248 13.6307L292.246 14.6122L291.43 12.3221L290.124 12.2403L288.736 12.8946L285.715 15.43H282.367L280.653 14.6122L280.408 13.2218L277.223 12.5675L276.733 11.2589L276.162 10.1956L275.345 10.9317L273.223 11.0135L265.139 6.5152H262.772L262.119 5.94269L259.587 7.00592L258.934 8.06916L256.24 8.72347L255.179 8.55989V7.1695L254.607 6.43341H249.79L249.463 5.28839H247.34L246.442 5.61554L244.483 4.22515L244.728 3.08013L244.238 1.11722L243.666 0.217562L243.503 -2.23606L242.686 -4.77148L240.972 -6.08008H238.604L238.686 0.462924L213.457 0.135773L215.416 6.10626Z" fill="#D0D0D0"/>
<path opacity="0.3" d="M345.317 333.256L341.235 333.338L339.276 332.111L332.825 334.156L332.091 333.583L331.682 333.747L331.601 335.056L331.111 335.137L328.988 337.346L328.416 337.264L327.927 336.691L326.947 335.219L327.192 334.156L323.273 328.594L324.007 324.832L324.824 323.687L324.906 322.542L295.512 324.178L296.9 314.445L298.86 310.519L303.759 303.649L302.289 301.605H303.922V298.906L301.963 296.861L302.371 295.47L301.391 294.653L300.085 288.846L300.575 287.701L301.554 286.474L301.963 284.02L300.738 282.139L300.33 280.34L301.064 279.767V279.113L299.677 278.213L299.595 277.641L300.901 276.905L299.921 276.005L301.309 270.198L304.085 268.889V268.235L303.187 267.09L305.555 262.674H307.106L308.331 261.692L308.086 257.439L310.617 253.759L312.087 253.268L311.679 250.733L342.95 248.606L344.011 250.242L342.95 305.04L346.542 332.193L345.317 333.256Z" fill="#D0D0D0"/>
<path opacity="0.3" d="M289.389 153.569L288.491 152.669L288.001 151.361L286.613 150.298L274.937 150.952L252.729 151.933L231.582 151.852L232.644 152.915L232.399 154.06L234.113 157.086L237.298 162.239L239.666 164.692L241.298 165.183L242.033 164.365L243.258 166.083L243.176 167.064L240.972 169.191L240.564 171.072L242.605 173.116L244.728 176.96L247.34 177.533L247.749 216.873L247.912 225.706L279.836 225.133L312.332 223.497L313.638 225.542V227.341L312.25 228.568L309.964 232.739L319.109 232.085L319.925 230.449L320.905 230.04V229.468L319.925 228.568L319.435 227.75L320.823 227.914L321.476 227.341L320.333 226.115L321.476 225.706L321.558 224.888L321.068 224.07V223.007L320.497 222.434L320.66 221.616H321.558L322.13 222.189L321.885 223.007L322.538 223.579L323.191 222.761L324.007 220.553L325.15 221.289L325.722 220.962L326.702 217.609L325.885 216.791L326.702 215.155L326.865 214.419L325.804 213.765H323.518L322.374 212.538L320.905 209.43V207.876L321.558 207.385L321.64 206.322L320.252 204.768L319.517 202.723L317.312 199.37L313.393 198.307L307.351 192.5L307.025 190.537L309.311 184.321L308.984 182.767L309.964 181.868V180.804L307.678 179.578L305.228 179.005L302.452 179.986L301.391 178.105L301.881 176.551L301.309 174.589L294.288 167.718L292.491 166.492L290.45 161.666L289.471 157.25L290.614 154.223L289.389 153.569Z" fill="#D0D0D0"/>
<path opacity="0.3" d="M37.6695 56.7327L84.4535 63.1939L126.094 67.5287L127.727 50.5986L131.972 -3.95363L88.2909 -8.53373L43.9563 -14.8314L-9.84941 -25.0548L-13.7685 -7.06156L-10.7475 -1.00928L-12.0539 2.91652L-9.11459 6.84232L-7.56327 7.41483L-4.37903 14.2032V15.9207L-2.50113 18.3744H-1.76631L-0.623233 20.0919H1.98949V21.4005L-3.80749 35.3044L-4.21573 38.6577L-3.07266 39.0666L-1.76631 41.1931L0.519828 40.0481L3.45914 38.0851L5.01044 39.6391L5.41868 41.6838L5.01044 44.301L7.05163 52.2344L9.17447 55.097L11.0524 56.242L11.379 58.6956V62.0489L13.2569 63.93L14.5632 62.0489L20.1969 63.3575L21.9115 62.376L29.2598 63.7664L31.5459 61.0674L33.0156 60.5767L33.9953 62.0489L35.3017 65.4022L36.0365 65.484L37.6695 56.7327Z" fill="#D0D0D0"/>
<path opacity="0.3" d="M164.631 106.296L195.657 107.605L198.433 110.222L199.821 110.385L201.536 112.021L203.006 111.939L204.475 110.303L205.7 110.794L206.517 110.222L207.088 110.631L207.823 110.303L208.394 110.631L209.129 110.303L209.946 110.712L211.089 110.222L212.722 110.712L213.212 111.612L218.192 113.411L219.172 114.475L219.907 116.601L221.376 117.174L222.601 117.01L223.009 117.746V119.627L223.499 121.018V122.163L224.561 125.189L226.357 128.706L226.52 131.732L228.806 135.821L229.133 140.81L230.194 141.383L230.031 143.755L230.684 146.454L230.113 148.253L231.582 151.852L232.644 152.915L232.399 154.06L234.113 157.086L237.298 162.239H210.844L175.164 161.257L145.771 159.621L146.914 141.546L119.889 139.583L122.909 103.433L164.631 106.296Z" fill="#D0D0D0"/>
<path opacity="0.3" d="M540.292 26.5531L539.23 26.6349L538.414 25.7352L536.863 26.8803L536.454 31.8693L537.434 33.7504L536.536 36.613L538.251 38.903L537.924 40.2934L538.006 41.3566L537.108 43.0742L535.965 43.4013L535.475 44.4646L533.76 45.2825L533.189 46.5093L534.332 49.29L533.923 51.3347L534.332 52.5615L533.515 54.1155L533.842 55.6695L532.78 57.2234L532.944 59.0228L532.372 59.9224L532.944 63.6029L533.515 64.8297L533.107 66.9561L533.842 68.4283L533.678 70.473L533.27 71.5363L533.189 72.6813L534.903 74.8078L549.926 71.6998L550.743 70.473L550.988 69.0826L552.539 68.5919L552.947 67.6922L554.335 66.7926L555.397 67.0379L556.05 63.1121L554.172 61.9671L553.519 60.1678L550.906 58.532L550.416 55.2605L540.7 25.1627L540.292 26.5531Z" fill="#D0D0D0"/>
<path opacity="0.3" d="M523.881 109.813L511.96 105.805L510.49 107.85L510.572 109.649L508.123 114.066L509.347 115.538L508.776 117.174L507.959 117.992L508.368 120.936L510.572 121.672L511.388 123.962L513.103 124.862L516.532 127.479L513.838 129.605L512.532 131.486L511.062 133.94L509.756 134.431L508.612 135.821L507.796 137.621L507.551 139.338L508.204 140.074L508.531 141.955L509.511 142.446L511.47 143.673L512.94 144.327L514.246 144.981L514.328 145.881L514.981 145.963L515.879 144.981L516.532 145.309L518.247 145.472L518.084 147.844L518.247 149.889L519.717 149.316L520.941 146.126L522.248 142.201L524.615 139.911L525.105 137.048L524.615 136.067L526.003 133.695V132.713L525.432 131.814L526.412 129.605L526.167 126.661L525.677 119.954L524.697 118.809V119.954L525.105 120.445H524.207L523.717 120.118L522.656 119.954L521.921 120.445L520.941 119.137L521.513 117.746V116.928L522.901 116.356L523.554 114.638L523.881 109.813Z" fill="#D0D0D0"/>
<path opacity="0.3" d="M127.89 222.271H127.237L120.787 303.486L94.8227 301.359L66.7359 298.415L66.491 300.868L68.1239 302.668L42.9765 299.314L41.8334 307.657L29.0148 305.857L43.2215 204.359L86.1681 209.675L128.38 213.601L127.89 222.271Z" fill="#D0D0D0"/>
<path d="M548.702 98.5261L547.64 98.6078L547.232 99.4257L548.702 98.5261ZM523.717 117.092L524.289 117.583L525.35 117.337L526.248 117.583L526.983 116.519H528.535L530.494 115.783L534.658 114.066L534.25 113.657L532.699 114.311L531.066 115.047L531.229 114.393L533.352 113.493L534.005 112.675L534.985 112.757L538.332 110.876V111.448L534.903 113.902L538.577 111.612L539.965 109.813L541.19 109.731L544.864 107.196L547.477 104.66L549.926 102.779L550.743 101.798L549.355 101.716L548.538 102.697L548.375 103.27L547.64 103.842L546.987 102.943L545.599 103.76L545.517 104.497L544.782 104.333L545.191 103.597L544.211 103.024L543.721 103.76L544.456 104.006L544.619 104.415L544.374 104.824L543.231 106.95H541.68L542.415 105.478L543.149 104.987L543.394 103.597L544.537 102.288L545.272 101.634L546.497 101.061L545.517 100.898L544.946 101.634H544.374L543.476 102.288L543.313 103.106L541.517 104.824L541.19 105.56L540.047 106.296L533.76 107.85L533.923 108.586L533.189 109.158L531.556 109.404L530.739 108.913L530.576 109.813L529.678 109.486L529.759 110.303L528.78 110.222L527.8 110.631L527.636 111.53H526.82L526.983 112.348H526.412L526.575 113.166L525.105 113.493L523.881 115.374L523.717 117.092ZM523.064 116.765L521.758 117.092V117.91L521.186 119.218L521.676 119.791L523.636 117.91L523.554 117.174L523.064 116.765ZM514.818 38.903L514.328 40.4569L515.471 41.193L515.144 42.4198L515.553 45.037L517.349 46.9181L517.022 48.7175L517.512 50.3532L517.186 51.1711L516.941 54.279L519.472 59.7588L518.819 61.231L519.553 63.0303L520.288 61.7217L521.839 62.9485L524.289 74.5623L523.881 76.1981L524.779 77.0159L524.371 89.2841L524.942 90.102L527.228 103.433L528.698 104.66L525.84 107.441L527.228 109.24L526.167 111.939L524.942 113.33L523.717 115.211L523.554 114.638L523.881 109.813L511.96 105.805L510.654 104.905L509.102 105.151L506.653 103.352L504.204 98.6078H502.571L502.244 97.381L500.856 96.4814L443.295 107.85L442.641 102.943L446.152 99.7529L446.642 98.3625L449.826 96.3178L450.316 94.3549L452.194 92.7191L452.847 91.8195L451.459 89.1205L450.071 88.7116L448.602 86.2579L448.438 83.6407L454.644 80.451L461.339 79.1424H464.931L467.544 80.451L468.279 80.3692L469.748 79.0606L472.524 78.4881H474.974L477.097 77.4249L479.138 75.2984L481.097 72.763L482.649 72.4358L483.547 72.0269L483.873 69.4097L482.73 67.2014L481.751 66.6289L483.384 65.5657L483.302 64.0935H482.077L480.199 62.9485L480.118 60.4131L485.18 55.424L485.751 53.4611L488.772 48.3085L493.589 43.0741L495.304 41.6837L497.345 41.7655L514.165 37.5126L514.818 38.903Z" fill="#38A6FA"/>
<path opacity="0.3" d="M512.858 195.444L489.099 200.433L456.93 206.404L432.925 209.266V213.519L431.7 213.438L430.557 214.419L428.598 218.672L426.475 217.772L423.617 219.817L423.046 221.535L421.821 222.516L421.168 221.862L421.086 220.635L420.433 220.471L417.167 223.17L416.677 225.951L412.84 227.914L412.432 228.895L409.819 231.022L406.88 231.431L403.124 233.884L402.471 237.238L401.409 237.974L400.185 237.892L399.041 238.955L398.96 242.963L416.432 240.509L420.025 238.955L421.086 238.874L427.047 235.357L445.989 233.557L446.315 233.966L446.152 235.111L446.724 235.357L447.703 234.13L450.398 236.583L450.479 238.71L466.564 236.42L486.568 250.406L489.834 248.606L492.283 248.034H493.671L494.569 248.933L495.222 247.298L495.712 243.208L497.1 240.019L501.509 235.029L504.857 232.167L509.266 230.286L511.307 229.959L512.368 230.286L512.94 231.185L515.634 225.788L518.329 221.453L517.757 221.207L514.165 226.769L513.756 226.115L515.389 224.315L515.063 223.089L513.43 222.68L514.246 223.743L513.266 223.825L512.287 222.352L511.307 223.988L510.001 224.152L510.817 221.943L511.389 220.553L511.225 218.181L509.429 218.099L510.164 217.363L511.062 217.609L513.266 217.691L513.92 217.282H515.797L517.43 215.728L517.594 213.11L518.655 211.965L519.635 211.802L520.696 210.984L520.288 207.958L518.492 204.85L516.287 204.686L515.553 205.995L515.144 205.177L512.94 205.341L511.96 205.668L510.409 206.649L510.164 206.322H509.429L507.959 207.304L505.836 207.712V206.649L506.49 205.831L507.306 206.404H508.123L509.511 204.686L512.532 203.296L514.165 201.497H516.124L516.777 202.56L518.165 203.214L517.757 201.987L517.512 200.679L515.226 198.143L514.981 196.998L514.654 197.816L513.92 196.753L512.858 195.444ZM518.573 220.798L520.778 218.754L524.534 216.055V213.029L524.207 210.493L522.819 207.058L524.044 208.203L524.86 210.82L525.187 217.036L523.799 217.363L521.268 219.326L518.655 221.943L518.573 220.798ZM520.125 205.013L519.39 204.85V205.668L521.431 207.467L521.268 206.322L520.125 205.013ZM522.493 206.731L521.35 204.441L519.553 201.66L517.594 199.207L515.797 195.69L515.144 195.117L516.941 198.634L517.185 199.697L519.962 204.196L521.431 205.913L522.493 206.731Z" fill="#D0D0D0"/>
<path opacity="0.3" d="M215.416 6.10625L214.518 8.3963L215.171 9.54133L214.926 13.7125L214.518 14.6122L216.723 22.0548L217.784 24.0995L218.355 35.5498L219.172 37.758L218.845 42.5017L221.213 48.554L221.458 53.2976L221.376 55.0152L197.29 54.688L159.733 52.9705L127.727 50.5987L131.972 -3.95361L168.306 -1.17284L213.457 0.135762L215.416 6.10625Z" fill="#D0D0D0"/>
<path opacity="0.3" d="M395.857 120.772L397.409 120.445L399.858 121.508L401.573 121.999L402.144 122.735H402.961L403.777 121.508L404.839 122.163H406.063L405.982 122.981L403.451 123.389L401.818 124.289L403.369 124.943L404.675 123.717L406.635 123.389L408.431 124.616L409.656 124.534L411.697 123.144L414.636 121.427L418.882 121.181L422.883 116.356L425.985 113.82L433.578 109.649L437.579 134.104L435.783 135.085L436.926 136.803L436.844 138.602L437.334 140.238L436.436 143.018L436.354 147.435L435.538 150.379L435.946 151.279L435.62 153.078L434.722 153.487L433.089 156.186L431.619 157.822H431.129L429.659 159.212L428.598 158.231L427.373 159.703L427.128 160.685H426.067L425.005 162.484L425.087 164.201L424.271 164.61L425.414 165.51V167.064L424.597 167.228L424.026 167.882L423.209 168.291L422.719 166.573L421.413 166.164L420.596 168.045L420.352 169.845L419.453 170.908L420.515 173.852L419.29 174.507L418.964 177.369H417.739L415.126 178.514L414.146 176.797L411.289 175.652L410.635 173.28L410.227 172.626L407.451 174.098L406.961 175.488H406.227L405.165 176.061L404.185 175.406L401.736 174.752L400.185 175.406V176.224L398.388 176.061L396.837 174.343L394.959 174.507L391.612 173.934V173.116L389.815 170.336L387.448 169.354L385.896 170.008L384.1 169.927L383.039 169.518L377.65 122.735L395.122 119.873L395.857 120.772Z" fill="#D0D0D0"/>
<path opacity="0.3" d="M245.462 276.005L241.707 272.897L239.91 272.161L239.502 273.47L235.338 273.715L234.848 272.488L230.766 274.533L229.46 273.96L226.439 274.206L225.949 275.596L223.009 276.332L221.948 275.351L220.968 275.432L219.335 273.96L217.621 274.533L215.988 274.124L214.518 272.488L212.477 275.923L211.497 276.577L210.681 275.105L210.926 273.47L209.946 272.897L208.068 274.942L206.68 273.96L206.598 272.733L205.537 273.142L203.414 271.752L200.965 273.878L199.087 272.979L199.658 271.261L197.78 271.343L196.229 268.889L193.371 267.99L191.738 269.871L189.86 268.072L188.717 268.399L187.084 268.481L184.227 266.927L182.349 267.008L181.369 266.436L180.961 264.064L179.083 262.674L178.185 263.9L177.042 263.083L176.062 262.755L175.164 263.573L173.939 263.328L171.898 260.874L169.694 259.811L170.837 224.888L127.89 222.271L128.38 213.601L141.852 214.419L197.127 216.791L247.749 216.873L247.912 225.706L251.259 245.662L250.688 277.559L245.462 276.005Z" fill="#D0D0D0"/>
<path opacity="0.3" d="M510.654 104.906L509.102 105.151L506.653 103.352L504.204 98.6079H502.571L502.244 97.3811L500.856 96.4814L443.294 107.85L442.641 102.943L439.212 105.723L438.477 105.805L436.273 108.259L433.578 109.649L437.579 134.104L440.192 150.216L454.398 147.844L503.795 138.193L504.775 136.476L506 135.576L507.306 135.331L508.612 135.821L509.756 134.431L511.062 133.94L512.532 131.486L513.838 129.605L516.532 127.479L513.103 124.862L511.388 123.962L510.572 121.672L508.368 120.936L507.959 117.992L508.776 117.174L509.347 115.538L508.123 114.066L510.572 109.649L510.49 107.85L511.96 105.805L510.654 104.906Z" fill="#D0D0D0"/>
<path opacity="0.3" d="M557.111 89.6112L556.05 88.7116L553.927 87.6483L553.437 85.849H552.784L552.212 83.7225L546.905 85.3583L549.518 95.4182L549.191 96.3178L549.518 97.79L554.09 94.8456L554.172 92.392L553.519 91.7377L553.845 91.247L553.764 90.1837L553.029 89.6112L554.009 89.2841L553.274 87.9755L554.743 88.548L554.988 89.693L555.56 90.6745L554.417 90.0202L555.315 91.4106L555.07 92.392L554.58 91.4923V93.537L555.07 92.801L555.397 93.537L556.458 92.3102L556.295 90.2655L557.438 92.801L558.254 92.0649L557.111 89.6112ZM553.274 99.5893H554.009L554.417 99.0986L553.764 98.0354L553.192 98.6079L553.274 99.5893Z" fill="#D0D0D0"/>
<path opacity="0.3" d="M466.564 236.42L450.479 238.71L450.398 236.583L447.703 234.13L446.724 235.357L446.152 235.111L446.315 233.966L445.989 233.557L427.047 235.357L421.086 238.874L420.025 238.955L416.432 240.509L416.351 242.063L414.8 242.881L413.656 245.498L413.82 246.562L418.8 249.67L420.923 249.424L423.454 252.696L423.781 254.086L427.21 258.257L429.333 259.648L430.476 259.811L432.272 261.12L433.17 262.919L434.803 264.228L436.273 264.637L438.477 266.845L438.559 267.99L440.682 270.28L444.764 272.161L447.703 277.641L447.948 279.849L451.133 281.567L453.174 285.492L453.827 288.028L457.256 288.355L457.909 287.128H458.399L459.869 285.901L460.277 284.266L462.89 282.548L463.135 280.585L462.155 279.849L462.808 279.277L463.461 279.604L464.523 279.277L465.992 277.559L469.095 276.087L470.401 274.124L470.483 273.551L474.402 269.953L474.321 269.544L473.586 268.89L474.484 267.663H475.137L475.464 268.072L476.035 267.417H477.097L477.586 266.191L479.464 264.473L479.219 260.057L479.873 258.175L482.812 253.105L484.771 251.305L486.568 250.406L466.564 236.42Z" fill="#D0D0D0"/>
<path opacity="0.3" d="M159.733 52.9705L197.29 54.688L221.376 55.0152L221.295 56.8145L220.56 58.4502L218.029 60.0042L217.784 60.9856L219.172 63.0303L219.499 64.5025L221.621 64.9932L222.846 66.5472L222.683 98.8533L220.887 98.7715L220.805 100.08L221.866 101.307L221.785 102.207L220.968 102.616L221.295 103.924L222.356 104.251L222.928 105.887L221.54 110.058L220.723 113.575L221.785 114.556L222.03 115.62L222.601 117.01L221.376 117.174L219.907 116.601L219.172 114.475L218.192 113.411L213.212 111.612L212.722 110.712L211.089 110.222L209.946 110.712L209.129 110.304L208.394 110.631L207.823 110.304L207.088 110.631L206.517 110.222L205.7 110.794L204.475 110.304L203.006 111.939L201.536 112.021L199.821 110.385L198.433 110.222L195.657 107.605L164.631 106.296L122.909 103.433L126.094 67.5286L127.727 50.5986L159.733 52.9705Z" fill="#D0D0D0"/>
<path opacity="0.3" d="M342.95 248.606L380.263 245.335L398.96 242.963L399.041 238.955L400.185 237.892L401.409 237.974L402.471 237.238L403.124 233.884L406.88 231.431L409.819 231.022L412.432 228.895L412.84 227.914L416.677 225.951L417.167 223.17L420.433 220.471L421.086 220.635L421.168 221.862L421.821 222.516L423.046 221.534L423.617 219.817L426.475 217.772L428.598 218.672L430.557 214.419L431.7 213.438L432.925 213.519V209.266L433.17 208.694L429.414 209.103L429.251 209.921L405.655 212.62L401.083 213.765L384.345 214.91L380.099 215.564L365.893 216.382L363.77 217.036L345.317 218.672L344.746 218.181H341.725L342.705 220.798L342.215 221.534L323.191 222.761L322.538 223.579L321.885 223.007H321.068V224.07L321.558 224.888L321.476 225.706L320.333 226.115L321.476 227.341L320.823 227.914L319.435 227.75L319.925 228.568L320.905 229.468V230.04L319.925 230.449L319.109 232.085L319.19 232.576L320.333 233.394L320.007 233.966H318.782V234.375L319.517 235.111L319.598 235.766L318.455 235.929L318.047 236.583L316.741 236.747L316.006 237.483L316.496 238.219L317.394 238.137L317.802 238.873L316.496 239.937L316.822 241.164L315.189 240.673L315.108 241.245L315.434 242.145L315.189 243.29L314.128 242.636L313.475 243.29L314.373 243.372L314.455 244.599L313.965 245.416L314.863 246.153L314.618 247.379L315.271 247.952L314.7 248.77L313.72 248.361L312.985 250.16L311.679 250.733L342.95 248.606Z" fill="#D0D0D0"/>
<path opacity="0.3" d="M66.491 300.868L66.736 298.415L94.8227 301.359L120.787 303.486L127.237 222.271H127.89L170.837 224.888L169.694 259.811L171.898 260.874L173.939 263.328L175.164 263.573L176.062 262.755L177.042 263.083L178.185 263.9L179.083 262.674L180.961 264.064L181.369 266.436L182.349 267.008L184.227 266.927L187.084 268.481L188.717 268.399L189.86 268.072L191.738 269.871L193.371 267.99L196.229 268.89L197.78 271.343L199.658 271.261L199.087 272.979L200.965 273.879L203.414 271.752L205.537 273.142L206.598 272.734L206.68 273.96L208.068 274.942L209.946 272.897L210.926 273.47L210.681 275.105L211.497 276.578L212.477 275.923L214.518 272.488L215.988 274.124L217.621 274.533L219.335 273.96L220.968 275.433L221.948 275.351L223.009 276.332L225.949 275.596L226.439 274.206L229.46 273.96L230.766 274.533L234.848 272.488L235.338 273.715L239.502 273.47L239.91 272.161L241.707 272.897L245.462 276.005L250.688 277.559L252.811 279.44L255.097 278.377L257.71 279.031L257.873 288.764L258.281 305.04L258.853 307.82L260.976 310.11L261.547 314.527L264.65 318.289L265.303 321.806H266.119L266.038 327.777L263.343 333.011L264.405 334.892L263.343 336.119L263.915 338.572L263.833 342.089L262.037 344.952L261.955 345.606L260.567 346.588L261.384 348.06L262.364 348.959L259.506 349.205L252.647 352.395L249.79 353.54L248.32 355.012L247.749 354.603L249.463 352.722L250.933 352.149L251.341 351.413L248.973 351.331L248.402 350.677L249.055 349.041L248.32 347.569H247.83L245.871 348.632L244.319 350.759L244.564 352.149L247.259 354.93L248.32 355.175V355.83L246.442 357.138L242.442 360.41L239.176 363.599L236.563 364.744L232.481 367.198L229.46 368.834L225.785 370.388L222.438 372.433L225.051 369.979V369.079L225.54 368.425L225.377 366.953L224.152 366.871L223.254 368.098L221.132 369.161L219.662 368.18L219.417 366.789H218.192L218.845 368.588L219.988 369.161L220.968 369.897L222.438 371.206L221.866 371.86L218.682 373.25L217.294 373.332L216.314 372.351L215.906 374.068L216.314 374.968L214.11 376.604L212.885 376.767L212.232 377.34L211.905 378.73L210.436 381.429L209.129 382.002L207.823 381.511L206.353 382.411L206.598 383.556L207.66 384.21L208.476 384.864L207.006 387.727L206.762 390.017L205.945 391.407L204.802 392.225L202.434 392.552L203.904 393.043L205.455 392.552L205.129 395.169L204.23 395.088L204.394 396.069L204.639 397.214L203.577 397.95V400.486L204.884 401.631L205.374 404.166L205.047 405.965L204.23 406.293L204.557 407.519L205.455 407.846L206.108 409.237V411.363L207.006 413.081L208.803 415.207L208.721 415.78L206.925 415.616L205.618 416.761L205.782 417.906L205.047 417.661L203.904 417.497L201.128 414.471L199.25 413.981H193.453L191.167 413.326L188.228 410.873L186.84 410.055L185.125 410.137L182.512 408.01L178.103 406.702V405.638L176.96 404.166L176.225 400.322L175.327 398.932L173.939 397.787V396.478L172.796 395.987L173.286 393.861L173.041 392.062L171.98 390.916L172.551 388.463L171.898 385.846L170.51 384.701H169.612L166.346 381.838L166.428 380.284L165.774 378.894L165.121 378.73L164.386 376.767L162.754 375.459L160.386 373.414L160.222 371.696L159.406 371.124L159.569 369.815L159.977 369.243L158.834 368.016L158.916 367.443L157.283 365.644L157.365 363.927L155.16 359.919L155.079 358.529L153.609 355.993L149.445 352.067V351.168L146.751 349.777L146.669 348.305L145.689 347.978V347.406L145.036 347.242L143.321 344.952H142.668L142.097 344.461L141.035 345.361H139.239L137.116 344.461H133.36L129.931 342.744L128.87 344.298L127.074 343.807L124.379 344.788L122.991 347.078L121.358 349.696L120.46 353.294L119.317 354.276L118.419 354.357L117.684 355.666L116.623 356.157L116.541 357.629L114.173 357.711L112.704 356.484H111.887L110.254 354.112L107.315 353.703L105.927 351.822L104.865 351.658L103.151 351.004L100.375 348.223L100.538 347.569L99.2317 346.588L98.4152 346.506L95.6392 343.97L95.5576 342.335L93.6797 339.063L93.843 337.755L93.2714 336.691L93.9246 335.465L93.843 333.502L91.7201 330.148L91.2303 326.713L89.9239 325.405V324.587L88.9441 324.423L88.3726 323.524L86.4131 322.133L85.6782 322.051L84.1269 320.743V319.843L81.7591 318.371L81.2692 316.653L79.1464 314.772L76.5337 311.174L74.0843 310.11L72.3697 308.638L72.533 307.657L71.4715 306.512L70.0835 303.486L68.124 302.668L66.491 300.868ZM209.293 413.981L209.946 414.062L209.456 410.137L206.598 400.077L206.435 393.452L210.436 384.864L215.416 378.158L221.295 373.986V373.414H220.642L218.519 374.232L215.579 376.113L215.008 377.34L208.313 386.827L206.027 393.288V400.486L208.966 410.3L209.293 413.981Z" fill="#D0D0D0"/>
<path opacity="0.3" d="M26.4021 128.215L29.0965 110.303L-10.0127 103.597L-27.1587 192.745L10.5625 199.452L43.2215 204.359L52.611 132.141L26.4021 128.215Z" fill="#D0D0D0"/>
<path opacity="0.3" d="M537.434 33.7504L536.536 36.6129L538.251 38.903L537.924 40.2934L538.006 41.3566L537.108 43.0742L535.964 43.4013L535.475 44.4645L533.76 45.2824L533.188 46.5092L534.332 49.29L533.923 51.3347L534.332 52.5615L533.515 54.1155L533.842 55.6694L532.78 57.2234L532.943 59.0227L532.372 59.9224L532.943 63.6028L533.515 64.8296L533.107 66.9561L533.842 68.4283L533.678 70.473L533.27 71.5362L533.188 72.6812L534.903 74.8077L524.779 77.016L523.881 76.1981L524.289 74.5624L521.839 62.9485L520.288 61.7217L519.553 63.0303L518.818 61.231L519.472 59.7588L516.941 54.279L517.186 51.1711L517.512 50.3532L517.022 48.7175L517.349 46.9182L515.553 45.0371L515.144 42.4199L515.471 41.193L514.328 40.457L514.818 38.903L514.165 37.5126L536.454 31.8693L537.434 33.7504Z" fill="#D0D0D0"/>
<path opacity="0.3" d="M517.512 167.064L516.614 169.354L517.022 170.254L517.349 169.354L518.002 166.819L517.512 167.064ZM489.262 161.339L488.691 160.521L489.507 160.439L490.323 159.703L490.65 158.231L490.487 157.822L490.568 157.413L490.323 156.841L489.834 156.432L489.507 156.35L489.099 156.023L488.609 155.532H487.792L487.303 155.45L486.976 155.123L487.058 154.714L485.67 154.223L485.016 154.469L484.037 154.387L483.465 153.814L483.057 153.651L482.894 153.078L483.383 152.424V151.688L482.404 151.524L481.587 150.788L480.852 150.87L479.546 150.625L479.219 151.197L478.893 152.506L478.485 154.387L470.32 150.134L470.157 150.87L470.891 152.179L470.238 154.06L470.32 156.432L469.34 157.086L468.932 158.804L468.197 159.458L467.054 160.93L466.319 161.584L465.503 163.629L463.543 162.729L461.665 169.681L460.604 170.99L458.318 170.581L457.256 169.027L455.378 168.454L455.297 172.298L454.154 173.689L454.48 174.916L452.766 176.715L453.092 178.269L450.071 183.422L449.255 186.121L450.479 187.102L449.255 188.656L449.336 189.801L447.459 191.437L446.887 190.537L443.376 193.072L442.151 192.255L441.662 193.4L442.315 193.809L441.906 194.545L437.416 196.508L434.966 195.035L434.313 196.426L432.762 197.898L430.884 197.98L427.292 196.099L427.21 194.872L425.985 194.299L426.638 193.318L426.067 192.827L422.066 198.225L419.698 199.043L417.249 201.497L416.922 203.296L415.208 204.359L415.126 205.75L413.983 206.895L412.513 207.304L412.105 208.857L411.289 209.185L405.655 212.62L429.251 209.921L429.414 209.103L433.17 208.694L432.925 209.266L456.93 206.404L489.099 200.433L512.858 195.444L512.368 194.463L512.695 194.381L513.43 195.117L513.348 193.972L513.103 192.418L514.41 193.4L515.144 195.117V194.054L512.368 189.556V188.574L511.797 187.92L510.735 188.492L511.144 189.637H510.49L510.164 188.82L509.674 189.556L508.939 188.656L507.224 188.574L507.061 189.147L508.286 190.864L507.143 190.292L506.735 189.474L506.408 190.128L505.755 190.21L504.53 191.6L504.775 190.292V189.147L503.55 188.574L502.081 188.165L501.917 186.775L501.428 185.712L500.938 186.611L499.55 185.793L497.917 186.039L498.08 185.303L499.305 185.139L500.04 185.548L501.428 184.894L502.162 185.221L502.571 186.039V186.611L504.122 186.938L504.367 187.675L505.102 188.002L505.837 188.983L506.98 187.675H507.469L507.388 185.957L506.326 186.775L505.837 186.039L507.061 185.875L506.081 185.139L505.102 185.63L505.02 184.239L503.632 184.403L501.836 183.503L500.366 181.704L503.305 183.503L504.04 183.749L505.428 183.094L504.04 182.358L504.53 181.868L503.714 181.459L504.367 181.295L504.122 180.559L505.02 181.295L505.347 180.641L505.673 181.704L506.653 182.358L507.143 181.949L506.735 181.459L506.653 179.414L505.755 179.332L504.449 178.678L505.183 177.778L503.55 177.696L503.224 177.287L502.081 177.778L500.938 177.124L500.529 176.142L498.815 175.161L497.1 173.689L495.304 172.135L497.753 173.198L498.488 174.18L500.203 174.752L502.081 176.797L502.244 175.406L502.734 176.47L504.612 176.879V173.607L503.959 172.707L504.857 173.035L504.938 171.726L502.407 170.581L501.101 170.417L500.04 170.254L500.284 169.272L499.06 169.027L498.978 168.536H497.508L497.345 169.191L496.774 168.373H494.569L493.753 168.046L493.589 167.228L492.61 166.737L492.283 165.51L491.793 165.183L491.222 166.083L490.487 166.246L489.752 166.819H488.527L487.792 165.755L488.119 163.22L488.527 161.257L489.017 161.666L489.262 161.339ZM507.143 170.826L507.878 170.744V170.254L507.224 170.336L507.143 170.826ZM513.266 182.44L512.45 184.648L513.43 183.585L513.266 182.44ZM511.797 169.927L512.368 170.172L512.205 171.726L511.797 171.317L510.735 172.135L511.552 172.462L510.082 176.061L510.164 182.685L511.715 185.221L512.123 183.994L512.45 181.786L512.205 179.905L512.777 179.169L512.613 178.024L513.593 177.533L513.103 177.124L513.511 176.551L514.165 177.451L514.001 178.351L513.675 181.54L514.573 179.741L514.899 177.206L514.981 174.752L514.736 173.116L515.226 171.235L516.124 169.763L516.206 167.964L516.451 167.228L512.695 168.536L512.123 169.191L511.797 169.927Z" fill="#D0D0D0"/>
<path opacity="0.3" d="M426.638 193.318L425.985 194.299L427.21 194.872L427.292 196.099L430.884 197.98L432.762 197.898L434.313 196.426L434.966 195.035L437.416 196.508L441.906 194.545L442.315 193.809L441.662 193.4L442.151 192.255L443.376 193.073L446.887 190.537L447.459 191.437L449.336 189.801L449.255 188.656L450.479 187.102L449.255 186.121L450.071 183.422L453.092 178.269L452.766 176.715L454.48 174.916L454.154 173.689L455.297 172.299L455.378 168.455L457.256 169.027L458.318 170.581L460.604 170.99L461.665 169.681L463.543 162.729L465.503 163.629L466.319 161.584L467.054 160.93L468.197 159.458L468.932 158.804L469.34 157.086L470.32 156.432L470.238 154.06L470.891 152.179L470.157 150.87L470.32 150.134L478.485 154.387L478.893 152.506L479.219 151.197L479.546 150.625L478.811 150.298L478.974 148.989L478.158 148.58L477.995 148.008H477.423L476.77 147.026L476.933 146.208L474.81 146.535L473.014 145.227L471.871 145.472L471.136 146.617H470.075L468.687 148.989L465.992 149.316L464.441 148.498L462.318 151.606L460.522 151.361L457.991 154.551L457.256 155.859L455.787 157.168L454.399 147.844L440.192 150.216L437.579 134.104L435.783 135.085L436.926 136.803L436.844 138.602L437.334 140.238L436.436 143.019L436.354 147.435L435.538 150.379L435.946 151.279L435.62 153.078L434.721 153.487L433.089 156.186L431.619 157.822H431.129L429.659 159.213L428.598 158.231L427.373 159.703L427.128 160.685H426.067L425.005 162.484L425.087 164.202L424.271 164.61L425.414 165.51V167.064L424.597 167.228L424.026 167.882L423.209 168.291L422.719 166.573L421.413 166.164L420.596 168.046L420.352 169.845L419.453 170.908L420.515 173.852L419.29 174.507L418.964 177.369H417.739L415.126 178.514L415.044 179.414L415.534 180.232L415.044 183.176L416.596 184.485L417.249 185.385L418.065 185.875L417.984 186.611L421.576 191.191H422.719L423.944 192.664L424.924 192.909L426.067 192.827L426.638 193.318Z" fill="#D0D0D0"/>
<path opacity="0.3" d="M334.867 67.774L332.499 68.4283L332.662 70.3094L330.703 73.0902L330.539 75.6256L331.029 76.1981L331.682 75.6256L332.09 74.317L333.723 73.4173L335.03 69.9822L337.887 69.0826L338.541 66.3836L339.112 65.6475L339.439 63.93L340.908 63.0303V61.8035L341.725 61.0674L342.868 61.1492V62.7849L342.051 62.8667L342.46 63.8482L341.888 65.6475L341.398 65.7293L340.419 69.4097L339.847 69.8187L337.561 75.7074L337.316 79.1424L337.806 80.7782L337.887 81.8414L335.928 83.3954L336.173 84.9494L335.438 87.4848L335.683 88.7934L336.01 91.8195L335.111 95.1728L333.887 99.2622L334.703 100.489L334.458 100.734L335.111 102.125L334.703 103.024L335.601 103.76V105.969L336.663 107.196L336.336 109.649L336.581 112.921L299.105 115.211L298.044 112.921L295.349 112.348L293.145 111.121L291.512 106.623L291.593 104.578L292.9 101.879L292.41 100.98L290.695 99.6711L290.532 97.5446L289.634 93.8642L289.471 91.4106L287.674 88.9569L285.388 88.3844L281.142 85.4401L280.653 82.7411L275.509 80.2057L275.345 79.1424H272.651L270.855 77.016L269.222 75.9527L269.793 71.7816L269.059 70.473L269.467 66.0564L270.283 64.5843L270.038 62.376L269.059 61.3128L267.589 61.0674V59.677L269.875 54.9333L274.692 51.7436L274.366 41.1113L275.101 41.4384L275.59 41.0295L275.672 40.1298L276.407 39.6391L277.55 40.6205L278.121 40.5387H280.244L285.796 38.4123L286.041 37.5944H287.021L287.593 36.6129L287.919 37.2672L289.389 36.5312L290.858 35.1408L291.103 35.5497L291.92 34.7318L293.716 36.0404L293.063 37.349L292.083 38.494L292.491 39.7209L291.348 41.0295L291.675 41.7655L293.553 40.8659V39.7209L296.247 41.2748L297.799 41.8473L299.35 42.4198L301.799 45.5278L315.679 48.6357L316.822 49.4536L320.088 50.1079L320.66 50.5168L322.946 50.3532L326.947 51.0075L328.09 52.2344L327.273 53.0522L327.926 53.7065L331.029 54.279L332.009 55.2605L332.09 58.8591L331.029 61.1492L332.662 61.231L333.479 60.5767L334.213 61.231L333.315 63.7664L334.132 65.075L335.111 65.3204L334.867 67.774ZM294.451 37.2672L294.043 37.349L292.818 38.6576L292.981 39.0666L294.206 38.5758V38.0851L294.941 37.8397L294.451 37.2672ZM295.757 36.3676L294.941 36.6129L294.778 37.1854L295.512 37.1037L295.757 36.3676ZM294.696 35.059L294.533 35.7951H295.921L296.411 35.4679L296.492 34.65L294.696 35.059ZM296.982 32.6053L296.737 34.1593L297.717 33.7504L297.799 32.6053H296.982ZM344.583 58.6956L342.95 58.9409L342.623 60.0042L343.684 61.3946L344.583 58.6956Z" fill="#D0D0D0"/>
<path opacity="0.3" d="M126.094 67.5286L84.4535 63.1939L37.6695 56.7327L36.0365 65.4839L29.0965 110.303L26.4021 128.215L52.611 132.141L89.2707 136.803L119.889 139.583L122.91 103.433L126.094 67.5286Z" fill="#D0D0D0"/>
<path opacity="0.3" d="M492.038 156.105L489.915 154.632L489.099 156.023L489.507 156.35L489.834 156.432L490.324 156.841L490.569 157.413L490.487 157.822L490.65 158.231L492.038 156.105Z" fill="#D0D0D0"/>
<path opacity="0.3" d="M490.487 160.276C492.741 160.276 494.569 158.445 494.569 156.186C494.569 153.928 492.741 152.097 490.487 152.097C488.232 152.097 486.404 153.928 486.404 156.186C486.404 158.445 488.232 160.276 490.487 160.276Z" fill="#D0D0D0"/>
</g>
<path d="M34.52 188V162.08H38.912L50.936 180.35V162.08H55.328V188H50.936L38.912 169.73V188H34.52ZM69.1978 188.54C67.2298 188.54 65.5018 188.114 64.0138 187.262C62.5258 186.41 61.3618 185.228 60.5218 183.716C59.6938 182.204 59.2798 180.464 59.2798 178.496C59.2798 176.372 59.6878 174.53 60.5038 172.97C61.3198 171.398 62.4538 170.18 63.9058 169.316C65.3578 168.452 67.0378 168.02 68.9458 168.02C70.9618 168.02 72.6718 168.494 74.0758 169.442C75.4918 170.378 76.5418 171.704 77.2258 173.42C77.9098 175.136 78.1678 177.158 77.9998 179.486H73.6978V177.902C73.6858 175.79 73.3138 174.248 72.5818 173.276C71.8498 172.304 70.6978 171.818 69.1258 171.818C67.3498 171.818 66.0298 172.37 65.1658 173.474C64.3018 174.566 63.8698 176.168 63.8698 178.28C63.8698 180.248 64.3018 181.772 65.1658 182.852C66.0298 183.932 67.2898 184.472 68.9458 184.472C70.0138 184.472 70.9318 184.238 71.6998 183.77C72.4798 183.29 73.0798 182.6 73.4998 181.7L77.7838 182.996C77.0398 184.748 75.8878 186.11 74.3278 187.082C72.7798 188.054 71.0698 188.54 69.1978 188.54ZM62.5018 179.486V176.21H75.8758V179.486H62.5018ZM85.453 188L79.513 168.524L83.761 168.56L87.559 181.034L91.411 168.56H95.065L98.899 181.034L102.715 168.56H106.963L101.023 188H97.639L93.229 174.626L88.837 188H85.453ZM123.718 188V177.38L114.898 162.08H119.956L125.914 172.412L131.854 162.08H136.912L128.11 177.38V188H123.718ZM145.129 188.54C143.185 188.54 141.487 188.102 140.035 187.226C138.583 186.35 137.455 185.144 136.651 183.608C135.859 182.06 135.463 180.284 135.463 178.28C135.463 176.24 135.871 174.452 136.687 172.916C137.503 171.38 138.637 170.18 140.089 169.316C141.541 168.452 143.221 168.02 145.129 168.02C147.085 168.02 148.789 168.458 150.241 169.334C151.693 170.21 152.821 171.422 153.625 172.97C154.429 174.506 154.831 176.276 154.831 178.28C154.831 180.296 154.423 182.078 153.607 183.626C152.803 185.162 151.675 186.368 150.223 187.244C148.771 188.108 147.073 188.54 145.129 188.54ZM145.129 184.472C146.857 184.472 148.141 183.896 148.981 182.744C149.821 181.592 150.241 180.104 150.241 178.28C150.241 176.396 149.815 174.896 148.963 173.78C148.111 172.652 146.833 172.088 145.129 172.088C143.965 172.088 143.005 172.352 142.249 172.88C141.505 173.396 140.953 174.122 140.593 175.058C140.233 175.982 140.053 177.056 140.053 178.28C140.053 180.164 140.479 181.67 141.331 182.798C142.195 183.914 143.461 184.472 145.129 184.472ZM158.797 188V168.56H162.631V173.294L162.163 172.682C162.403 172.034 162.721 171.446 163.117 170.918C163.525 170.378 164.011 169.934 164.575 169.586C165.055 169.262 165.583 169.01 166.159 168.83C166.747 168.638 167.347 168.524 167.959 168.488C168.571 168.44 169.165 168.464 169.741 168.56V172.61C169.165 172.442 168.499 172.388 167.743 172.448C166.999 172.508 166.327 172.718 165.727 173.078C165.127 173.402 164.635 173.816 164.251 174.32C163.879 174.824 163.603 175.4 163.423 176.048C163.243 176.684 163.153 177.374 163.153 178.118V188H158.797ZM173.14 188L173.176 162.08H177.568V177.92L184.678 168.56H190.096L182.554 178.28L190.744 188H185.002L177.568 178.64V188H173.14Z" fill="#38A6FA"/>
<path d="M33.68 232V214.72H36.608L44.624 226.9V214.72H47.552V232H44.624L36.608 219.82V232H33.68ZM58.2146 232.36C56.4866 232.36 55.0066 231.984 53.7746 231.232C52.5426 230.472 51.5946 229.416 50.9306 228.064C50.2746 226.712 49.9466 225.144 49.9466 223.36C49.9466 221.576 50.2746 220.008 50.9306 218.656C51.5946 217.304 52.5426 216.252 53.7746 215.5C55.0066 214.74 56.4866 214.36 58.2146 214.36C59.9426 214.36 61.4226 214.74 62.6546 215.5C63.8946 216.252 64.8426 217.304 65.4986 218.656C66.1626 220.008 66.4946 221.576 66.4946 223.36C66.4946 225.144 66.1626 226.712 65.4986 228.064C64.8426 229.416 63.8946 230.472 62.6546 231.232C61.4226 231.984 59.9426 232.36 58.2146 232.36ZM58.2146 229.636C59.3746 229.644 60.3386 229.388 61.1066 228.868C61.8826 228.348 62.4626 227.616 62.8466 226.672C63.2386 225.728 63.4346 224.624 63.4346 223.36C63.4346 222.096 63.2386 221 62.8466 220.072C62.4626 219.136 61.8826 218.408 61.1066 217.888C60.3386 217.368 59.3746 217.1 58.2146 217.084C57.0546 217.076 56.0906 217.332 55.3226 217.852C54.5546 218.372 53.9746 219.104 53.5826 220.048C53.1986 220.992 53.0066 222.096 53.0066 223.36C53.0066 224.624 53.1986 225.724 53.5826 226.66C53.9666 227.588 54.5426 228.312 55.3106 228.832C56.0866 229.352 57.0546 229.62 58.2146 229.636ZM72.0446 232L66.5966 214.72H69.5726L74.1326 229.192L78.7526 214.72H81.7286L76.2806 232H72.0446ZM87.8563 231.976V229.456L95.2483 222.868C95.8243 222.356 96.2243 221.872 96.4483 221.416C96.6723 220.96 96.7843 220.52 96.7843 220.096C96.7843 219.52 96.6603 219.008 96.4123 218.56C96.1643 218.104 95.8203 217.744 95.3803 217.48C94.9483 217.216 94.4483 217.084 93.8803 217.084C93.2803 217.084 92.7483 217.224 92.2843 217.504C91.8283 217.776 91.4723 218.14 91.2163 218.596C90.9603 219.052 90.8403 219.544 90.8563 220.072H87.8803C87.8803 218.92 88.1363 217.916 88.6483 217.06C89.1683 216.204 89.8803 215.54 90.7843 215.068C91.6963 214.596 92.7483 214.36 93.9403 214.36C95.0443 214.36 96.0363 214.608 96.9163 215.104C97.7963 215.592 98.4883 216.272 98.9922 217.144C99.4963 218.008 99.7483 219.004 99.7483 220.132C99.7483 220.956 99.6363 221.648 99.4123 222.208C99.1883 222.768 98.8523 223.284 98.4043 223.756C97.9643 224.228 97.4163 224.752 96.7603 225.328L91.5163 229.972L91.2523 229.252H99.7483V231.976H87.8563ZM108.849 232.36C107.625 232.36 106.545 232.1 105.609 231.58C104.673 231.052 103.941 230.32 103.413 229.384C102.893 228.448 102.633 227.368 102.633 226.144V220.576C102.633 219.352 102.893 218.272 103.413 217.336C103.941 216.4 104.673 215.672 105.609 215.152C106.545 214.624 107.625 214.36 108.849 214.36C110.073 214.36 111.149 214.624 112.077 215.152C113.013 215.672 113.745 216.4 114.273 217.336C114.801 218.272 115.065 219.352 115.065 220.576V226.144C115.065 227.368 114.801 228.448 114.273 229.384C113.745 230.32 113.013 231.052 112.077 231.58C111.149 232.1 110.073 232.36 108.849 232.36ZM108.849 229.612C109.457 229.612 110.009 229.468 110.505 229.18C111.001 228.884 111.393 228.492 111.681 228.004C111.969 227.508 112.113 226.956 112.113 226.348V220.36C112.113 219.744 111.969 219.192 111.681 218.704C111.393 218.208 111.001 217.816 110.505 217.528C110.009 217.232 109.457 217.084 108.849 217.084C108.241 217.084 107.689 217.232 107.193 217.528C106.697 217.816 106.305 218.208 106.017 218.704C105.729 219.192 105.585 219.744 105.585 220.36V226.348C105.585 226.956 105.729 227.508 106.017 228.004C106.305 228.492 106.697 228.884 107.193 229.18C107.689 229.468 108.241 229.612 108.849 229.612ZM117.95 231.976V229.456L125.342 222.868C125.918 222.356 126.318 221.872 126.542 221.416C126.766 220.96 126.878 220.52 126.878 220.096C126.878 219.52 126.754 219.008 126.506 218.56C126.258 218.104 125.914 217.744 125.474 217.48C125.042 217.216 124.542 217.084 123.974 217.084C123.374 217.084 122.842 217.224 122.378 217.504C121.922 217.776 121.566 218.14 121.31 218.596C121.054 219.052 120.934 219.544 120.95 220.072H117.974C117.974 218.92 118.23 217.916 118.742 217.06C119.262 216.204 119.974 215.54 120.878 215.068C121.79 214.596 122.842 214.36 124.034 214.36C125.138 214.36 126.13 214.608 127.01 215.104C127.89 215.592 128.582 216.272 129.086 217.144C129.59 218.008 129.842 219.004 129.842 220.132C129.842 220.956 129.73 221.648 129.506 222.208C129.282 222.768 128.946 223.284 128.498 223.756C128.058 224.228 127.51 224.752 126.854 225.328L121.61 229.972L121.346 229.252H129.842V231.976H117.95ZM132.247 231.976V229.456L139.639 222.868C140.215 222.356 140.615 221.872 140.839 221.416C141.063 220.96 141.175 220.52 141.175 220.096C141.175 219.52 141.051 219.008 140.803 218.56C140.555 218.104 140.211 217.744 139.771 217.48C139.339 217.216 138.839 217.084 138.271 217.084C137.671 217.084 137.139 217.224 136.675 217.504C136.219 217.776 135.863 218.14 135.607 218.596C135.351 219.052 135.231 219.544 135.247 220.072H132.271C132.271 218.92 132.527 217.916 133.039 217.06C133.559 216.204 134.271 215.54 135.175 215.068C136.087 214.596 137.139 214.36 138.331 214.36C139.435 214.36 140.427 214.608 141.307 215.104C142.187 215.592 142.879 216.272 143.383 217.144C143.887 218.008 144.139 219.004 144.139 220.132C144.139 220.956 144.027 221.648 143.803 222.208C143.579 222.768 143.243 223.284 142.795 223.756C142.355 224.228 141.807 224.752 141.151 225.328L135.907 229.972L135.643 229.252H144.139V231.976H132.247Z" fill="#838492"/>
<path d="M34.52 69V43.08H38.426L47.39 61.44L56.354 43.08H60.26V69H56.21V52.386L48.254 69H46.526L38.588 52.386V69H34.52ZM65.6769 46.608V42.63H70.0149V46.608H65.6769ZM65.6769 69V49.56H70.0149V69H65.6769ZM80.8427 69.54C79.4387 69.54 78.2507 69.276 77.2787 68.748C76.3067 68.208 75.5687 67.494 75.0647 66.606C74.5727 65.718 74.3267 64.74 74.3267 63.672C74.3267 62.736 74.4827 61.896 74.7947 61.152C75.1067 60.396 75.5867 59.748 76.2347 59.208C76.8827 58.656 77.7227 58.206 78.7547 57.858C79.5347 57.606 80.4467 57.378 81.4907 57.174C82.5467 56.97 83.6867 56.784 84.9107 56.616C86.1467 56.436 87.4367 56.244 88.7807 56.04L87.2327 56.922C87.2447 55.578 86.9447 54.588 86.3327 53.952C85.7207 53.316 84.6887 52.998 83.2367 52.998C82.3607 52.998 81.5147 53.202 80.6987 53.61C79.8827 54.018 79.3127 54.72 78.9887 55.716L75.0287 54.474C75.5087 52.83 76.4207 51.51 77.7647 50.514C79.1207 49.518 80.9447 49.02 83.2367 49.02C84.9647 49.02 86.4827 49.302 87.7907 49.866C89.1107 50.43 90.0887 51.354 90.7247 52.638C91.0727 53.322 91.2827 54.024 91.3547 54.744C91.4267 55.452 91.4627 56.226 91.4627 57.066V69H87.6647V64.788L88.2947 65.472C87.4187 66.876 86.3927 67.908 85.2167 68.568C84.0527 69.216 82.5947 69.54 80.8427 69.54ZM81.7067 66.084C82.6907 66.084 83.5307 65.91 84.2267 65.562C84.9227 65.214 85.4747 64.788 85.8827 64.284C86.3027 63.78 86.5847 63.306 86.7287 62.862C86.9567 62.31 87.0827 61.68 87.1067 60.972C87.1427 60.252 87.1607 59.67 87.1607 59.226L88.4927 59.622C87.1847 59.826 86.0627 60.006 85.1267 60.162C84.1907 60.318 83.3867 60.468 82.7147 60.612C82.0427 60.744 81.4487 60.894 80.9327 61.062C80.4287 61.242 80.0027 61.452 79.6547 61.692C79.3067 61.932 79.0367 62.208 78.8447 62.52C78.6647 62.832 78.5747 63.198 78.5747 63.618C78.5747 64.098 78.6947 64.524 78.9347 64.896C79.1747 65.256 79.5227 65.544 79.9787 65.76C80.4467 65.976 81.0227 66.084 81.7067 66.084ZM119.495 69V57.192C119.495 55.86 119.165 54.822 118.505 54.078C117.845 53.322 116.951 52.944 115.823 52.944C115.127 52.944 114.503 53.106 113.951 53.43C113.399 53.742 112.961 54.21 112.637 54.834C112.313 55.446 112.151 56.178 112.151 57.03L110.225 55.896C110.213 54.552 110.513 53.37 111.125 52.35C111.749 51.318 112.589 50.514 113.645 49.938C114.701 49.362 115.877 49.074 117.173 49.074C119.321 49.074 120.965 49.722 122.105 51.018C123.257 52.302 123.833 53.994 123.833 56.094V69H119.495ZM96.1129 69V49.56H99.9469V55.59H100.487V69H96.1129ZM107.831 69V57.246C107.831 55.89 107.501 54.834 106.841 54.078C106.181 53.322 105.281 52.944 104.141 52.944C103.037 52.944 102.149 53.322 101.477 54.078C100.817 54.834 100.487 55.818 100.487 57.03L98.5429 55.734C98.5429 54.474 98.8549 53.34 99.4789 52.332C100.103 51.324 100.943 50.532 101.999 49.956C103.067 49.368 104.261 49.074 105.581 49.074C107.033 49.074 108.245 49.386 109.217 50.01C110.201 50.622 110.933 51.462 111.413 52.53C111.905 53.586 112.151 54.78 112.151 56.112V69H107.831ZM128.888 46.608V42.63H133.226V46.608H128.888ZM128.888 69V49.56H133.226V69H128.888Z" fill="#F26F21"/>
<path d="M40.988 113.36C39.26 113.36 37.78 112.984 36.548 112.232C35.316 111.472 34.368 110.416 33.704 109.064C33.048 107.712 32.72 106.144 32.72 104.36C32.72 102.576 33.048 101.008 33.704 99.656C34.368 98.304 35.316 97.252 36.548 96.5C37.78 95.74 39.26 95.36 40.988 95.36C42.716 95.36 44.196 95.74 45.428 96.5C46.668 97.252 47.616 98.304 48.272 99.656C48.936 101.008 49.268 102.576 49.268 104.36C49.268 106.144 48.936 107.712 48.272 109.064C47.616 110.416 46.668 111.472 45.428 112.232C44.196 112.984 42.716 113.36 40.988 113.36ZM40.988 110.636C42.148 110.644 43.112 110.388 43.88 109.868C44.656 109.348 45.236 108.616 45.62 107.672C46.012 106.728 46.208 105.624 46.208 104.36C46.208 103.096 46.012 102 45.62 101.072C45.236 100.136 44.656 99.408 43.88 98.888C43.112 98.368 42.148 98.1 40.988 98.084C39.828 98.076 38.864 98.332 38.096 98.852C37.328 99.372 36.748 100.104 36.356 101.048C35.972 101.992 35.78 103.096 35.78 104.36C35.78 105.624 35.972 106.724 36.356 107.66C36.74 108.588 37.316 109.312 38.084 109.832C38.86 110.352 39.828 110.62 40.988 110.636ZM58.9646 113.36C57.2366 113.36 55.7566 112.984 54.5246 112.232C53.2926 111.472 52.3446 110.416 51.6806 109.064C51.0246 107.712 50.6966 106.144 50.6966 104.36C50.6966 102.576 51.0246 101.008 51.6806 99.656C52.3446 98.304 53.2926 97.252 54.5246 96.5C55.7566 95.74 57.2366 95.36 58.9646 95.36C60.9566 95.36 62.6166 95.86 63.9446 96.86C65.2726 97.852 66.2046 99.192 66.7406 100.88L63.8246 101.684C63.4886 100.556 62.9166 99.676 62.1086 99.044C61.3006 98.404 60.2526 98.084 58.9646 98.084C57.8046 98.084 56.8366 98.344 56.0606 98.864C55.2926 99.384 54.7126 100.116 54.3206 101.06C53.9366 101.996 53.7406 103.096 53.7326 104.36C53.7326 105.624 53.9246 106.728 54.3086 107.672C54.7006 108.608 55.2846 109.336 56.0606 109.856C56.8366 110.376 57.8046 110.636 58.9646 110.636C60.2526 110.636 61.3006 110.316 62.1086 109.676C62.9166 109.036 63.4886 108.156 63.8246 107.036L66.7406 107.84C66.2046 109.528 65.2726 110.872 63.9446 111.872C62.6166 112.864 60.9566 113.36 58.9646 113.36ZM73.5273 113V98.432H67.9353V95.72H82.0113V98.432H76.4193V113H73.5273ZM87.5281 112.976V110.456L94.9201 103.868C95.4961 103.356 95.8961 102.872 96.1201 102.416C96.3441 101.96 96.4561 101.52 96.4561 101.096C96.4561 100.52 96.3321 100.008 96.0841 99.56C95.8361 99.104 95.4921 98.744 95.0521 98.48C94.6201 98.216 94.1201 98.084 93.5521 98.084C92.9521 98.084 92.4201 98.224 91.9561 98.504C91.5001 98.776 91.1441 99.14 90.8881 99.596C90.6321 100.052 90.5121 100.544 90.5281 101.072H87.5521C87.5521 99.92 87.8081 98.916 88.3201 98.06C88.8401 97.204 89.5521 96.54 90.4561 96.068C91.3681 95.596 92.4201 95.36 93.6121 95.36C94.7161 95.36 95.7081 95.608 96.5881 96.104C97.4681 96.592 98.1601 97.272 98.6641 98.144C99.1681 99.008 99.4201 100.004 99.4201 101.132C99.4201 101.956 99.3081 102.648 99.0841 103.208C98.8601 103.768 98.5241 104.284 98.0761 104.756C97.6361 105.228 97.0881 105.752 96.4321 106.328L91.1881 110.972L90.9241 110.252H99.4201V112.976H87.5281ZM108.521 113.36C107.297 113.36 106.217 113.1 105.281 112.58C104.345 112.052 103.613 111.32 103.085 110.384C102.565 109.448 102.305 108.368 102.305 107.144V101.576C102.305 100.352 102.565 99.272 103.085 98.336C103.613 97.4 104.345 96.672 105.281 96.152C106.217 95.624 107.297 95.36 108.521 95.36C109.745 95.36 110.821 95.624 111.749 96.152C112.685 96.672 113.417 97.4 113.945 98.336C114.473 99.272 114.737 100.352 114.737 101.576V107.144C114.737 108.368 114.473 109.448 113.945 110.384C113.417 111.32 112.685 112.052 111.749 112.58C110.821 113.1 109.745 113.36 108.521 113.36ZM108.521 110.612C109.129 110.612 109.681 110.468 110.177 110.18C110.673 109.884 111.065 109.492 111.353 109.004C111.641 108.508 111.785 107.956 111.785 107.348V101.36C111.785 100.744 111.641 100.192 111.353 99.704C111.065 99.208 110.673 98.816 110.177 98.528C109.681 98.232 109.129 98.084 108.521 98.084C107.913 98.084 107.361 98.232 106.865 98.528C106.369 98.816 105.977 99.208 105.689 99.704C105.401 100.192 105.257 100.744 105.257 101.36V107.348C105.257 107.956 105.401 108.508 105.689 109.004C105.977 109.492 106.369 109.884 106.865 110.18C107.361 110.468 107.913 110.612 108.521 110.612ZM117.622 112.976V110.456L125.014 103.868C125.59 103.356 125.99 102.872 126.214 102.416C126.438 101.96 126.55 101.52 126.55 101.096C126.55 100.52 126.426 100.008 126.178 99.56C125.93 99.104 125.586 98.744 125.146 98.48C124.714 98.216 124.214 98.084 123.646 98.084C123.046 98.084 122.514 98.224 122.05 98.504C121.594 98.776 121.238 99.14 120.982 99.596C120.726 100.052 120.606 100.544 120.622 101.072H117.646C117.646 99.92 117.902 98.916 118.414 98.06C118.934 97.204 119.646 96.54 120.55 96.068C121.462 95.596 122.514 95.36 123.706 95.36C124.81 95.36 125.802 95.608 126.682 96.104C127.562 96.592 128.254 97.272 128.758 98.144C129.262 99.008 129.514 100.004 129.514 101.132C129.514 101.956 129.402 102.648 129.178 103.208C128.954 103.768 128.618 104.284 128.17 104.756C127.73 105.228 127.182 105.752 126.526 106.328L121.282 110.972L121.018 110.252H129.514V112.976H117.622ZM131.919 112.976V110.456L139.311 103.868C139.887 103.356 140.287 102.872 140.511 102.416C140.735 101.96 140.847 101.52 140.847 101.096C140.847 100.52 140.723 100.008 140.475 99.56C140.227 99.104 139.883 98.744 139.443 98.48C139.011 98.216 138.511 98.084 137.943 98.084C137.343 98.084 136.811 98.224 136.347 98.504C135.891 98.776 135.535 99.14 135.279 99.596C135.023 100.052 134.903 100.544 134.919 101.072H131.943C131.943 99.92 132.199 98.916 132.711 98.06C133.231 97.204 133.943 96.54 134.847 96.068C135.759 95.596 136.811 95.36 138.003 95.36C139.107 95.36 140.099 95.608 140.979 96.104C141.859 96.592 142.551 97.272 143.055 98.144C143.559 99.008 143.811 100.004 143.811 101.132C143.811 101.956 143.699 102.648 143.475 103.208C143.251 103.768 142.915 104.284 142.467 104.756C142.027 105.228 141.479 105.752 140.823 106.328L135.579 110.972L135.315 110.252H143.811V112.976H131.919Z" fill="#838492"/>
<defs>
<clipPath id="clip0_14_3626">
<path d="M0 12C0 5.37259 5.37258 0 12 0H580C586.627 0 592 5.37258 592 12V435H0V12Z" fill="white"/>
</clipPath>
</defs>
</svg>
