<svg width="672" height="618" viewBox="0 0 672 618" fill="none" xmlns="http://www.w3.org/2000/svg">
<g filter="url(#filter0_d_14_3626)">
<rect x="40" y="20" width="672" height="618" rx="12" fill="white" shape-rendering="crispEdges"/>
<g clip-path="url(#clip0_14_3626)">
<path opacity="0.3" d="M400.994 352.275L401.32 346.304L400.585 345.323L399.197 344.75L397.156 342.46L397.565 340.089L437.409 335.917L436.837 334.118L435.612 332.891L435.204 331.746L435.694 326.594L433.734 321.932L434.143 319.805L434.388 316.779L436.184 313.671L436.021 312.771L434.633 311.954V309.336L433.163 307.782L430.795 302.793L420.263 265.335L382.95 268.606L384.011 270.242L382.95 325.04L386.542 352.193L387.277 351.784L388.338 351.866L388.828 352.193L389.481 352.111L391.114 349.003V347.122L392.013 346.223L393.156 346.632L395.932 351.866V352.602L393.237 354.401L396.095 354.074L400.096 352.766L400.994 352.275Z" fill="#D0D0D0"/>
<path opacity="0.3" d="M-111.1 437.825H-109.14L-108.569 438.397L-109.385 439.379L-110.936 439.542L-112.978 440.605L-115.999 440.524L-114.202 439.787L-113.957 438.888L-111.916 438.642L-111.1 437.825ZM-104.323 436.434L-103.262 436.843H-102.527L-102.118 437.825L-101.874 437.334L-101.139 437.497L-100.241 438.724V439.133L-103.67 440.687L-105.629 440.605L-106.446 440.196L-107.344 440.769H-108.977L-109.875 439.624L-106.038 439.215L-104.323 436.434ZM-99.914 436.352L-99.0975 436.434L-98.526 437.007V437.825L-99.5874 437.906L-100.322 437.007L-99.914 436.352ZM-97.8728 436.598L-96.8114 436.516L-96.893 437.334L-97.7911 437.825L-97.8728 436.598ZM-97.6278 438.397L-94.8518 438.315L-94.6885 439.215L-95.7499 439.297L-95.9949 438.888L-96.6481 439.379L-96.9747 438.888L-97.7095 438.724L-97.6278 438.397ZM38.152 444.613L39.8666 444.695L39.0502 446.249L38.152 446.167L37.8254 445.513L38.2337 444.449M37.3356 442.077L37.8254 441.014L37.6622 439.133L39.6217 438.724L43.2958 442.323L44.3573 445.104L45.9086 446.412L46.1535 450.583H45.0104L43.949 448.702L41.4179 446.739H40.9281L41.8262 449.029L43.2142 449.193L43.3775 450.911L42.6427 450.992L39.2951 447.394L39.2135 446.658L40.7648 445.84V445.022L40.3565 444.368L39.0502 443.877L37.6622 442.814L38.8052 442.895L39.2135 442.568L38.7236 441.832L38.2337 442.241L37.3356 442.077ZM35.2127 437.17L36.2742 437.252L38.2337 439.297L38.0704 439.951L37.4172 439.869L37.3356 441.341L37.7438 441.75V442.977L37.0906 443.222L36.764 444.204L36.1109 443.877L35.7843 442.077L36.6824 440.932L34.9678 439.133L35.0494 438.152L35.2127 437.17ZM36.4374 435.943L37.9887 436.107L40.0299 436.189L42.806 438.806L42.6427 439.215L41.7445 439.706L40.8464 439.542L40.7648 438.97L39.785 437.661L39.5401 438.233L40.3565 439.297L40.1932 440.278L39.5401 440.196L38.4786 440.36L38.397 438.97L36.2742 436.679L36.4374 435.943ZM26.0682 428.664L26.803 428.337H28.1094L28.6809 427.928L32.0285 429.728L32.1101 430.954L31.7019 431.363H31.0487L29.9056 430.791L30.8038 431.854H32.2734L32.6816 433.49H31.9468L30.1506 432.263L29.2525 432.099L29.7423 433.163L29.824 433.899L30.4772 433.408L31.8652 434.389L32.9266 434.308L32.7633 434.962L34.3146 438.479V441.26L34.6412 442.977L33.988 443.222L33.0082 441.587L32.6 440.36L31.2936 439.051L31.1304 436.843L30.6405 435.453H30.0689L30.3139 436.352V436.761L29.1708 437.579L29.2525 434.88L27.9461 433.572L26.8847 431.69L25.9049 430.709L26.0682 428.664ZM31.9468 426.783L32.845 428.255L34.8045 428.174L35.621 429.891L35.1311 430.382L36.764 432.999V434.062L35.7843 434.717V435.289L34.1513 436.843L33.7431 435.698L33.6614 434.635L34.1513 434.062V433.163L32.9266 431.609L32.5184 428.583L31.7835 427.356L31.9468 426.783ZM-14.3473 411.816L-17.6132 415.169V416.478L-15.8986 415.824L-15.2455 414.27L-13.4492 412.307L-14.3473 411.816ZM-40.148 425.393V425.884L-38.6783 426.865L-38.515 425.72L-38.0251 426.456L-35.1675 426.538L-34.5959 426.047L-34.4326 424.575L-34.8409 424.002H-35.9839V423.348L-35.6573 422.857V422.53L-36.8821 422.285L-39.5764 425.229L-40.148 425.393ZM-46.7614 430.464L-45.5367 435.207H-43.8221L-41.8626 433.163L-41.6176 434.144L-36.4738 430.873L-35.9023 430.055L-36.7188 429.155V428.583L-36.3105 427.519L-37.0454 427.438L-38.6783 428.255V427.274L-40.8828 426.783L-42.8423 427.029L-43.0056 429.809L-43.6588 428.174L-44.8835 428.092L-45.7 428.583L-46.7614 430.464ZM-48.5577 437.17L-48.476 436.598L-46.7614 435.534L-46.2715 435.78L-45.2101 435.943L-44.1487 436.925L-45.9449 436.761L-46.2715 436.271L-47.088 436.761L-48.5577 437.17ZM-52.8033 439.869L-53.7015 440.524L-52.4767 441.669L-51.8236 441.096L-51.9052 440.033L-52.8033 439.869ZM-57.9471 433.408L-56.8041 433.49L-56.4775 433.981L-57.9471 434.062V433.408ZM-69.2961 443.141V443.55L-68.7246 443.631L-68.8063 443.141H-69.2961ZM-69.6227 440.524L-70.4392 441.341V441.75L-69.8677 442.65L-69.0512 441.832L-69.6227 441.75V440.524ZM-71.2557 439.869L-71.5006 440.687L-72.562 440.769L-72.8886 440.932V441.996L-73.2969 442.732H-72.807L-72.2354 441.996L-71.5823 441.914L-70.8474 441.096L-70.6841 440.033L-71.2557 439.869ZM-74.8482 438.233L-75.0115 439.706L-73.8684 440.36L-72.8886 439.869V439.051L-71.5006 438.806L-71.5823 438.315L-72.3171 438.152L-72.8886 438.642L-73.6235 438.233H-74.8482ZM-78.8489 438.152L-78.0324 438.724L-78.2774 439.706L-79.4204 438.806L-78.8489 438.152ZM-82.2781 439.215L-81.135 439.297L-81.7066 439.951L-82.2781 439.215ZM-85.1358 441.669L-83.6661 442.568L-85.0541 442.65L-85.1358 441.669ZM-105.874 416.151L-104.894 416.642L-105.548 417.132L-105.874 416.151ZM-106.446 410.998L-106.119 411.98L-105.466 410.998H-106.446ZM-86.6054 395.213L-85.3807 395.131L-84.6459 395.459L-83.7478 395.05L-82.6863 394.968L-81.38 395.622L-80.7268 397.176L-80.8084 397.912L-81.7882 399.548L-83.7478 399.384L-85.4623 397.912L-86.2788 397.585L-87.177 395.949L-86.6054 395.213ZM-103.833 383.436L-103.751 384.99L-102.118 386.626V387.034L-102.772 386.871L-104.16 386.217L-104.405 385.317L-104.65 384.008L-103.833 383.436ZM-88.8915 364.379V365.361L-87.3402 366.833H-85.4623L-84.9725 367.733V369.041L-83.2579 370.595L-81.7882 371.577L-81.8699 372.149L-82.4414 373.049L-83.5845 372.067L-85.2991 372.149L-85.9522 371.495L-86.6871 369.777L-87.9118 367.978L-90.0346 367.896L-90.8511 367.324L-90.0346 365.606L-88.8915 364.379ZM-75.1748 360.699H-74.3583L-74.2766 361.599H-75.0931L-75.1748 360.699ZM-61.9479 376.811L-61.213 376.893V377.874L-62.601 377.465L-61.9479 376.811ZM42.3977 440.36L41.4179 440.687L41.3363 441.587H42.3161L42.3977 440.36ZM-86.2788 436.679L-87.3402 436.352L-90.6878 436.843L-92.9739 437.988L-93.0556 439.542L-91.5043 440.115L-90.2796 439.379L-88.8915 439.297L-85.0541 440.442L-84.9725 439.379L-86.2788 438.479V436.679ZM-84.5642 438.561L-84.8908 437.416L-83.911 437.579L-83.8294 438.724H-82.3597L-82.0332 436.679L-81.7882 438.642L-79.747 438.561L-77.1343 435.862L-76.4811 435.943L-77.0527 437.007L-75.9096 437.743L-72.4804 437.579L-70.3576 436.598L-69.2145 436.516L-68.9695 437.743L-68.4797 437.334L-68.1531 436.189L-63.3359 436.352L-61.7846 435.044L-62.846 434.144L-62.3561 433.163L-60.2333 433.326L-60.3966 432.345L-58.3554 432.508L-57.7838 431.609L-56.8857 431.772L-53.1299 430.218L-52.9666 428.828L-48.3944 426.865L-46.7614 425.311L-45.7816 424.82L-44.7202 425.475L-42.8423 424.739L-41.9442 423.185L-41.536 422.121L-40.148 421.385L-38.9232 420.813L-38.5967 419.668L-39.4948 418.277L-41.291 418.114L-41.4543 417.05L-40.8011 415.742L-39.6581 415.578L-38.5967 414.352L-37.0454 414.27L-34.2693 411.653L-33.9427 410.507L-32.718 408.626L-29.6154 405.273L-27.5742 404.537L-26.0229 403.801L-24.3083 404.455L-23.1653 406.582H-24.39L-25.5331 405.355L-27.9825 406.991L-29.3705 407.072L-29.5338 409.608L-32.0649 413.615L-31.575 415.251H-29.6971L-30.187 416.069L-31.33 416.151L-33.2896 417.623V418.359L-31.7383 419.177L-28.9622 418.686L-27.8192 417.296L-26.6761 417.378L-24.2267 415.987L-23.8185 414.106L-22.5121 414.024L-17.3683 414.679L-16.5518 413.779L-15.7353 410.099L-17.0417 410.998L-16.5518 409.199L-17.8582 408.054L-17.205 406.827L-17.1234 408.054H-14.3473L-13.7758 407.236L-12.4694 407.154L-12.7144 408.545L-11.1631 408.626L-12.7144 409.69L-9.36684 410.589L-12.2245 410.916L-13.2859 411.898L-12.5511 413.043L-8.7953 411.653L-6.91741 413.043L-6.34587 412.307L-5.856 413.452L-2.5901 415.333H-0.222305L2.96194 414.924L6.47279 415.824L8.10574 417.378L11.7799 417.705L13.2495 416.478L13.9027 418.441L12.4331 419.013L13.4128 419.995L19.4547 423.103L20.5978 425.147L25.0068 428.501L27.7012 426.865L27.2113 425.066L24.3536 423.43L26.8847 424.411L27.2929 423.839L28.0277 424.902V427.11L29.7423 426.62L31.4569 428.092L29.4157 420.077L30.3955 421.14L31.5386 426.047L33.3348 428.092L35.2944 427.765L36.764 430.627H37.4989L37.9887 435.207L40.7648 435.616L42.0711 437.416L43.5408 438.315L43.8674 440.605L42.3977 442.732L44.7655 444.04L45.7453 442.077L45.582 444.613L44.9288 445.349L46.0719 446.739L46.6434 444.776L46.4801 443.795L47.1333 443.959L47.6232 445.84L46.8067 446.985L47.2966 449.111L47.7048 449.438L47.9498 448.13L48.5213 448.62L48.2763 450.256L49.2561 450.42L48.9295 451.156L50.3175 451.074V450.256H49.5011L49.5827 448.866L48.9295 448.375L50.3175 448.13L50.7258 447.475V446.167L51.134 447.23L50.6441 448.702L51.6239 451.892L53.0935 451.974L54.8898 448.539L54.9714 446.985L53.91 443.713L53.8284 442.732L54.2366 441.75L53.6651 441.178L52.2771 441.26L50.2359 439.624H48.8479L47.2149 438.479H45.9902L45.582 437.17L44.4389 436.925L44.2756 435.698L43.4591 435.289L43.5408 433.899L39.3768 427.846L37.9071 426.62V425.638L34.3963 422.776L33.8247 421.876L32.5184 420.24L30.9671 419.75V417.95L29.9873 416.887L28.5993 416.314L26.8847 417.378L25.5783 419.095L25.2517 421.058L24.027 421.14L21.9858 423.348L21.3326 423.103V421.058L19.3731 419.259L17.4952 417.623L17.087 415.987L15.0458 414.924L15.2091 413.125L12.9229 413.043L12.3514 413.943H11.3716L10.8001 413.37L9.82034 414.024L8.35069 413.043V342.869L2.717 339.516L1.24734 339.107L-0.548904 340.007L-2.34515 340.088L-4.22305 338.78L-7.73389 338.289L-12.4694 335.345L-17.1234 335.018L-18.7563 335.427L-18.9196 333.954L-20.3893 333.382L-19.4911 332.564L-19.6544 331.828L-22.2672 330.928H-24.2267L-24.5533 331.255L-25.2881 330.765L-25.2065 328.638L-25.8596 327.902L-27.9008 330.274L-28.554 330.192V329.538L-27.166 328.884V328.229L-28.7173 326.266L-29.6154 326.185L-33.2896 328.72H-36.4738L-36.1472 327.984L-37.6169 327.902L-41.8626 330.683H-43.3322L-43.8221 330.029L-46.0266 331.255L-48.9659 334.282L-51.252 336.49L-52.4767 337.471L-54.5996 337.553L-56.3958 337.226L-58.2737 336.163L-60.5599 339.352L-60.6415 341.315L-58.5187 343.278L-56.8041 346.959L-56.6408 351.293L-54.273 352.929L-51.497 353.256L-50.9254 353.911L-52.1502 355.792L-51.5786 358L-52.9666 355.873V353.911L-54.1913 353.665L-54.1097 354.647L-53.5382 356.364L-51.1704 359.39H-52.3134L-54.1097 360.29L-59.1718 358.245L-59.2535 356.61L-58.1104 355.546V354.401L-59.825 353.992L-61.7029 354.156L-65.622 354.319L-64.3973 356.201L-65.9486 354.728L-72.807 355.71L-73.4602 356.937L-69.4594 360.781L-70.1126 361.926L-70.3576 363.561L-70.9291 364.216L-71.0107 365.77L-67.4182 368.714L-64.0707 368.878L-60.3149 370.432H-58.682L-58.0288 369.941L-54.9262 370.023L-54.8445 369.368L-53.8647 370.268L-53.7831 371.904L-55.8243 371.822L-55.7426 374.521L-55.3344 377.138L-57.7022 379.346L-59.2535 379.265L-60.8864 378.61L-61.7029 378.692L-64.234 380.41L-65.622 380.573L-66.7651 378.283H-69.2961L-71.0924 379.919L-71.5006 381.391L-74.195 382.863L-78.5223 386.38L-78.7673 388.916L-78.1957 390.715L-77.3792 391.696L-76.5628 391.369L-75.8279 392.187L-76.4811 392.678L-77.7058 393.414L-76.8077 394.641L-78.9305 395.54L-78.2774 397.34L-76.8894 399.221L-76.2362 402.574L-72.9703 403.801L-70.8474 403.147L-69.4594 402.247L-69.0512 403.964L-68.8063 407.563L-70.3576 408.708V412.307L-70.8474 413.043H-72.2354L-70.8474 414.024L-69.1328 413.943L-68.8063 413.125L-65.0505 412.634L-63.4175 414.76L-62.3561 414.188L-61.2947 418.359L-60.4782 418.768L-59.6617 418.196L-59.5801 416.233L-58.8452 415.415L-58.2737 416.314L-58.1104 417.623L-56.8041 417.95L-52.9666 416.969L-52.8033 417.95L-54.4363 418.85L-55.7426 420.24L-58.0288 425.965L-61.5396 427.601L-62.6827 428.828L-62.9276 429.973L-63.7441 429.482L-71.3373 432.181L-72.807 435.534L-73.8684 435.207L-73.4602 434.308L-74.6849 433.163L-77.5425 432.999L-81.8699 435.616L-83.6661 436.679H-85.544L-85.9522 438.642L-84.5642 438.561Z" fill="#D0D0D0"/>
<path opacity="0.3" d="M-10.02 287.008L-7.57055 285.209L-6.91738 283.246L-7.73386 281.938L-9.2035 281.774L-10.1016 280.465L-9.2035 274.822L-7.89715 274.577L-5.9376 271.96L-4.63125 266.234L-2.6717 263.29L1.24737 261.9L2.30879 260.836L1.98221 259.282L0.104313 257.238L-0.875455 252.494L-2.01853 251.022L-3.07994 248.241L-2.34511 246.524L-1.20205 244.07L-0.793815 241.698L-1.20205 237.691L-0.385577 226.567L2.47209 226.077L5.49306 227.222L6.47282 229.43H8.10578L10.0653 227.058L12.8413 212.745L50.5625 219.452L83.2215 224.359L69.0148 325.858L38.5603 321.441L-13.8574 290.771L-13.4492 288.399L-11.8162 286.927L-10.02 287.008Z" fill="#D0D0D0"/>
<path opacity="0.3" d="M352.985 270.16L353.72 268.361L354.7 268.77L355.271 267.952L354.618 267.379L354.863 266.153L353.965 265.417L354.455 264.599L354.373 263.372L353.475 263.29L354.128 262.636L355.19 263.29L355.434 262.145L355.108 261.245L355.19 260.673L356.822 261.164L356.496 259.937L357.802 258.874L357.394 258.137L356.496 258.219L356.006 257.483L356.741 256.747L358.047 256.583L358.455 255.929L359.598 255.766L359.517 255.111L358.782 254.375V253.966H360.007L360.333 253.394L359.19 252.576L359.109 252.085L349.964 252.739L352.25 248.568L353.638 247.341V245.542L352.332 243.497L319.836 245.133L287.912 245.706L291.259 265.662L290.688 297.559L292.811 299.44L295.097 298.377L297.71 299.031L297.873 308.764L340.575 307.701L341.554 306.474L341.963 304.02L340.738 302.139L340.33 300.34L341.064 299.767V299.113L339.676 298.213L339.595 297.641L340.901 296.905L339.921 296.005L341.309 290.198L344.085 288.89V288.235L343.187 287.09L345.555 282.674H347.106L348.331 281.692L348.086 277.439L350.617 273.759L352.087 273.268L351.679 270.733L352.985 270.16Z" fill="#D0D0D0"/>
<path opacity="0.3" d="M181.852 234.419L168.38 233.601L126.168 229.675L83.2215 224.359L92.611 152.141L129.271 156.803L159.889 159.583L186.914 161.546L185.771 179.621L181.852 234.419Z" fill="#D0D0D0"/>
<path opacity="0.3" d="M589.191 116.318L589.518 115.418L586.905 105.358L586.824 105.113L574.658 107.894V108.466L573.923 108.712L573.515 108.139L564.942 110.102L567.228 123.433L568.698 124.66L565.84 127.441L567.228 129.24L571.637 125.56L573.025 124.497H573.678L575.638 121.961L576.781 122.043L579.149 121.143H580.863L585.191 118.935L587.477 118.199L588.293 117.381L589.518 117.79L589.191 116.318Z" fill="#D0D0D0"/>
<path opacity="0.3" d="M547.306 155.331L546 155.576L544.775 156.476L543.795 158.193L550.001 180.358L558.9 178.476L557.104 172.261L556.206 172.67L553.511 170.543L553.103 169.153L551.634 168.335L551.47 165.309L549.756 163.509L548.858 162.855L547.878 161.955L547.551 159.338L547.796 157.621L548.613 155.821L547.306 155.331Z" fill="#D0D0D0"/>
<path d="M489.745 334.036L486.479 333.464L485.091 332.728L483.294 333.873V335.917L484.438 337.635L484.029 341.152L482.315 341.642L481.498 340.743L481.008 338.126L440.103 340.824L437.409 335.917L397.565 340.088L397.156 342.46L399.197 344.75L400.586 345.323L401.32 346.304L400.994 352.275L400.096 352.765L400.504 353.093L401.32 352.847L401.892 352.193L410.465 349.985L417.976 349.576L424.59 351.13L431.53 355.219L433.489 355.873L435.286 357.509L435.204 359.717H437.164L438.715 358.9L440.756 358.981L442.389 358.327L444.757 356.691L447.288 354.319L448.186 353.992L448.676 354.401H449.819L450.227 353.747L449.819 352.765L449.329 352.275L449.492 351.62L451.125 350.721L455.208 350.394L455.861 351.212L456.677 351.293L458.555 352.111L461.005 353.583L461.984 354.974L462.883 355.955L465.169 357.1V359.063L467.455 360.617L468.271 360.699L469.578 361.844L470.149 363.153L470.966 363.316L471.619 365.034L472.19 365.524L473.007 364.625L475.375 364.706L475.783 365.851L476.681 366.588V367.651L479.049 369.45L479.212 377.302L477.742 382.045L478.559 383.027L478.396 385.808L477.742 386.953L478.314 387.934L480.192 389.815L480.437 391.042L481.09 391.86L480.763 390.306L481.825 389.815L482.478 386.871L480.029 385.889L480.11 385.399L482.233 385.072L482.968 387.198L483.866 387.689L483.948 386.053L484.846 386.298L485.336 386.953L485.254 387.525L482.886 390.96L482.723 391.86L481.335 393.414V394.314L484.356 397.421L488.683 403.883L490.153 405.6V407.072L492.439 410.835L494.317 411.325L494.888 410.344L493.174 410.589L490.724 406.909L490.888 405.764L492.112 405.109V403.883L491.623 402.819L492.357 402.083L492.684 402.819L493.255 403.228V406.5L492.276 406.009L491.623 406.745L492.766 408.054L493.582 410.18L494.562 409.69L496.44 410.671L498.154 412.47L499.461 416.642L501.992 420.567L502.645 419.504L504.931 419.095L507.544 420.158L507.789 421.549L510.483 424.657L510.565 425.556L512.361 427.765L511.789 428.174V430.382L513.994 431.527H515.219L517.423 430.055L518.648 430.3L519.546 430.627L521.424 429.237L521.587 428.664L522.567 428.91L524.526 427.519L525.588 425.638L525.016 423.021L524.853 421.958L525.751 418.686L526.241 418.523L526.731 419.831L527.384 418.359L526.731 412.47L526.404 403.883L525.588 398.321L525.016 396.931L519.628 387.852L515.382 380.41L513.586 377.711L512.524 374.766L512.361 371.986L513.096 371.74V371.004L512.198 369.205L508.932 365.933L502.727 358L498.073 349.494L494.562 340.743L494.072 337.717L493.092 336.899L492.684 333.791L489.745 334.036ZM497.256 444.04L498.644 443.959L498.073 443.141L497.256 444.04ZM503.216 443.141V442.568L504.523 442.405L507.544 439.706L508.769 439.215L510.728 438.479L510.973 439.542L512.361 440.196L510.238 441.178H508.279L505.094 443.222L503.216 443.141ZM517.26 436.925L514.81 438.07L513.994 439.133L514.892 439.215L517.26 436.925ZM520.362 434.553L519.464 434.798L518.321 436.434L519.219 436.271L520.444 434.962L520.362 434.553ZM527.139 421.712L525.751 426.292L525.098 427.11L524.282 429.237L523.302 430.545L522.73 431.936L521.179 433.735V434.471L523.383 432.181L525.343 429.319L525.833 427.683L527.547 423.675L527.139 421.712Z" fill="#F26F21"/>
<path opacity="0.3" d="M497.991 308.682V309.827L494.562 314.898L493.582 315.062L494.807 315.47V317.106L494.072 318.006L493.582 322.913L491.704 327.984L492.112 329.62L492.684 333.791L489.745 334.036L486.479 333.464L485.091 332.728L483.294 333.873V335.917L484.438 337.635L484.029 341.152L482.315 341.642L481.498 340.743L481.008 338.126L440.103 340.825L437.409 335.917L436.837 334.118L435.612 332.891L435.204 331.746L435.694 326.594L433.734 321.932L434.143 319.805L434.388 316.779L436.184 313.671L436.021 312.771L434.633 311.954V309.336L433.163 307.782L430.795 302.793L420.263 265.335L438.96 262.963L456.432 260.509L456.351 262.063L454.8 262.881L453.656 265.498L453.82 266.562L458.8 269.669L460.923 269.424L463.454 272.696L463.781 274.086L467.21 278.257L469.333 279.648L470.476 279.811L472.272 281.12L473.17 282.919L474.803 284.228L476.273 284.637L478.477 286.845L478.559 287.99L480.682 290.28L484.764 292.161L487.703 297.641L487.948 299.849L491.133 301.567L493.174 305.492L493.827 308.028L497.256 308.355L497.991 308.682Z" fill="#D0D0D0"/>
<path opacity="0.3" d="M134.823 422.857L134.659 425.475L136.047 427.029L136.129 428.01L132.21 431.69L132.128 432.672L133.68 435.289L135.068 438.724V440.851L134.659 441.832L134.741 444.613L138.089 446.33L138.987 447.23L139.967 446.33L141.681 443.386L145.355 441.014L148.05 440.605L150.091 439.787L151.479 438.806L154.092 435.943L151.805 435.044L150.662 433.899L150.744 432.508L150.336 432.018H148.703L148.866 429.973L148.295 428.991L146.172 427.11L142.498 425.556L140.212 425.393L137.517 423.184L136.537 422.694L134.823 422.857ZM122.331 408.953L121.433 410.18L121.351 411.571L123.555 413.534L125.107 413.943L125.597 414.76L125.923 417.214L128.863 417.378L133.19 415.251L133.108 413.206L131.965 412.798L129.107 410.671L127.638 410.426L125.27 411.489L124.045 409.281L122.331 408.953ZM121.106 418.359L121.841 417.214L123.882 416.969L124.372 418.441L121.106 418.359ZM115.391 411.244L116.779 414.515L119.31 414.024L119.555 412.389L118.412 411.162L115.391 411.244ZM112.043 405.764L111.145 407.727H115.227L119.146 409.035L121.188 407.727L121.351 406.5L117.432 406.663L112.043 405.764ZM98.9795 397.094L97.4282 398.812L95.0604 399.303L95.7136 401.102L97.5098 403.392L97.5915 404.21L99.3061 403.964L101.184 404.046L102.572 405.028L105.43 404.373V403.801L104.613 403.147L104.205 401.429L103.552 401.184L103.144 402.002L102.164 400.938L102.327 399.793L100.857 397.094L99.9593 396.522L98.9795 397.094ZM73.0156 386.953L69.5864 389.324L69.7497 391.206L71.7092 392.187L73.2605 393.25L75.465 393.577L77.5878 391.778L77.4245 390.224L78.0777 388.834V387.689L77.2612 386.953H73.0156ZM64.1976 390.878L63.9527 391.86L62.4014 392.596L61.9115 394.068L62.728 394.722L63.6261 393.496L65.1774 393.005L65.504 390.878H64.1976Z" fill="#D0D0D0"/>
<path opacity="0.3" d="M10.9634 119.753L-8.95862 115.336L-2.01858 84.8297L0.34921 80.086L0.675795 78.3685L1.32898 77.6324L0.594154 75.9966L-1.77363 75.0152L-1.61034 71.5801L1.65556 66.8364L3.69675 66.1821L5.00312 64.301L4.92146 62.9924L6.39112 61.6838L9.00384 57.1855L12.433 53.2597L12.0248 50.6425L9.16715 48.1071L7.86078 45.1627L8.75891 41.6459L8.18737 38.3744L18.5566 -7.50842L30.1506 -5.0548L26.2315 12.9385L29.2524 18.9907L27.9461 22.9165L30.8854 26.8423L32.4367 27.4148L35.6209 34.2032V35.9207L37.4988 38.3744H38.2337L39.3767 40.0919H41.9895V41.4005L36.1925 55.3044L35.7842 58.6577L36.9273 59.0666L38.2337 61.1931L40.5198 60.0481L43.4591 58.0852L45.0104 59.6391L45.4187 61.6838L45.0104 64.301L47.0516 72.2344L49.1744 75.097L51.0523 76.242L51.3789 78.6956V82.0489L53.2568 83.93L54.5632 82.0489L60.1969 83.3575L61.9115 82.3761L69.2597 83.7664L71.5459 81.0675L73.0155 80.5767L73.9953 82.0489L75.3017 85.4022L76.0365 85.484L69.0964 130.304L29.9873 123.597L10.9634 119.753Z" fill="#D0D0D0"/>
<path opacity="0.3" d="M385.073 187.473L384.256 191.726V193.362L386.216 196.224V196.797L385.971 197.533L386.705 199.087L386.461 201.05L385.154 202.522L384.093 205.957L380.99 210.292L380.909 216.017H380.092L380.827 217.571V218.307L379.031 220.515L379.112 221.415L380.337 223.214L380.255 223.95L377.234 224.441L376.744 225.422L375.765 224.932L374.948 225.341L374.622 228.04L376.01 229.512L375.683 231.475L374.458 231.72L368.825 229.266L365.559 232.293L365.804 233.765H363.518L362.375 232.538L360.905 229.43V227.876L361.558 227.385L361.64 226.322L360.252 224.768L359.517 222.723L357.312 219.37L353.393 218.307L347.351 212.5L347.025 210.537L349.311 204.321L348.984 202.767L349.964 201.868V200.804L347.678 199.577L345.229 199.005L342.453 199.986L341.391 198.105L341.881 196.551L341.309 194.588L334.288 187.718L332.492 186.491L330.45 181.666L329.471 177.249L330.614 174.223L331.185 173.651L331.267 171.77L330.695 171.034L331.512 169.807L332.981 169.316L333.716 169.071L334.533 168.089V166.126L335.921 164.163L336.329 163.755L336.411 160.892L335.676 159.747L334.859 159.502L333.961 158.193L334.778 154.922L337.227 154.267H339.187L342.616 152.795L344.004 150.996L344.085 149.033L344.984 147.97L346.045 145.352L345.963 143.226L343.677 140.363H342.697L341.963 139.464L342.126 138.155L340.738 136.765L338.697 135.701L339.105 135.211L376.581 132.921L376.663 136.683L379.439 140.445L380.419 143.798L381.725 146.416L385.073 187.473Z" fill="#D0D0D0"/>
<path opacity="0.3" d="M389.726 145.68L385.562 147.561L381.725 146.416L385.072 187.473L384.256 191.726V193.362L386.216 196.224V196.797L385.971 197.533L386.705 199.087L386.46 201.05L385.154 202.522L384.093 205.957L380.99 210.292L380.908 216.017H380.092L380.827 217.571L381.725 218.225L382.215 217.407L381.643 216.017L385.399 215.608L385.562 216.589L386.46 216.753L386.787 216.017L386.297 214.954L386.542 214.299L387.604 214.954L388.992 214.626L390.38 215.117L393.156 216.835L394.625 214.545L397.483 212.745L399.932 215.444L401.239 213.727L401.484 211.519L404.586 209.637L404.75 210.701L406.301 211.682L408.75 211.519L409.73 210.946L409.812 208.165L411.853 205.139L415.609 201.54L415.527 200.15L416.507 197.042L418.303 197.86L423.773 194.18L423.447 192.789L422.222 191.072L423.039 189.518L417.65 142.735L417.568 141.59L391.114 144.371L389.726 145.68Z" fill="#D0D0D0"/>
<path opacity="0.3" d="M330.695 119.671L332.41 120.98L332.9 121.879L331.593 124.578L331.512 126.623L333.145 131.121L335.349 132.348L338.044 132.921L339.105 135.211L338.697 135.702L340.738 136.765L342.126 138.155L341.963 139.464L342.697 140.363H343.677L345.963 143.226L346.045 145.352L344.984 147.97L344.085 149.033L344.004 150.996L342.616 152.795L339.187 154.267H337.227L334.778 154.922L333.961 158.193L334.859 159.502L335.676 159.747L336.411 160.892L336.329 163.755L335.921 164.164L334.533 166.126V168.089L333.716 169.071L332.981 169.316L331.512 169.807L330.695 171.034L331.267 171.77L331.185 173.651L330.614 174.223L329.389 173.569L328.491 172.669L328.001 171.361L326.613 170.298L314.937 170.952L292.729 171.933L271.582 171.852L270.113 168.253L270.684 166.454L270.031 163.755L270.194 161.383L269.133 160.81L268.806 155.821L266.52 151.732L266.357 148.706L264.561 145.189L263.499 142.163V141.018L263.009 139.627V137.746L262.601 137.01L262.03 135.62L261.785 134.556L260.723 133.575L261.54 130.058L262.928 125.887L262.356 124.251L261.295 123.924L260.968 122.616L261.785 122.207L261.866 121.307L260.805 120.08L260.887 118.771L262.683 118.853H285.707L315.345 118.117L330.532 117.545L330.695 119.671Z" fill="#D0D0D0"/>
<path opacity="0.3" d="M250.844 182.239L215.164 181.257L185.771 179.621L181.852 234.419L237.127 236.791L287.749 236.873L287.34 197.533L284.728 196.96L282.605 193.116L280.564 191.072L280.972 189.19L283.176 187.064L283.258 186.083L282.033 184.365L281.298 185.183L279.666 184.692L277.298 182.239H250.844Z" fill="#D0D0D0"/>
<path opacity="0.3" d="M441.083 233.765L424.345 234.91L420.099 235.564L405.893 236.382L403.77 237.036L385.317 238.672L384.746 238.181H381.725L382.705 240.798L382.215 241.535L363.191 242.761L364.007 240.553L365.15 241.289L365.722 240.962L366.702 237.609L365.885 236.791L366.702 235.155L366.865 234.419L365.804 233.765L365.559 232.293L368.825 229.266L374.458 231.72L375.683 231.475L376.01 229.512L374.622 228.04L374.948 225.341L375.765 224.932L376.744 225.422L377.234 224.441L380.255 223.95L380.337 223.214L379.112 221.415L379.031 220.515L380.827 218.307V217.571L381.725 218.225L382.215 217.407L381.643 216.017L385.399 215.608L385.562 216.589L386.46 216.753L386.787 216.017L386.297 214.954L386.542 214.299L387.604 214.954L388.992 214.626L390.38 215.117L393.156 216.835L394.625 214.545L397.483 212.745L399.932 215.444L401.239 213.727L401.484 211.519L404.586 209.637L404.75 210.701L406.301 211.682L408.75 211.519L409.73 210.946L409.812 208.165L411.853 205.139L415.609 201.54L415.527 200.15L416.507 197.042L418.303 197.86L423.773 194.18L423.447 192.789L422.222 191.072L423.039 189.518L424.1 189.927L425.896 190.008L427.448 189.354L429.815 190.336L431.612 193.116V193.934L434.959 194.507L436.837 194.343L438.388 196.061L440.185 196.224V195.406L441.736 194.752L444.185 195.406L445.165 196.061L446.227 195.488H446.961L447.451 194.098L450.227 192.626L450.635 193.28L451.289 195.652L454.146 196.797L455.126 198.514L455.044 199.414L455.534 200.232L455.044 203.176L456.596 204.485L457.249 205.384L458.065 205.875L457.984 206.611L461.576 211.191H462.719L463.944 212.664L464.924 212.909L466.067 212.827L462.066 218.225L459.698 219.043L457.249 221.497L456.922 223.296L455.208 224.359L455.126 225.75L453.983 226.895L452.513 227.304L452.105 228.857L451.289 229.185L445.655 232.62L441.083 233.765ZM361.068 243.007L360.497 242.434L360.66 241.616H361.558L362.13 242.189L361.885 243.007H361.068Z" fill="#D0D0D0"/>
<path opacity="0.3" d="M367.927 356.691L366.947 355.219L367.192 354.156L363.273 348.594L364.007 344.832L364.824 343.687L364.906 342.542L335.512 344.178L336.9 334.445L338.86 330.519L343.759 323.649L342.289 321.605H343.922V318.906L341.963 316.861L342.371 315.47L341.391 314.653L340.085 308.846L340.575 307.701L297.873 308.764L298.281 325.04L298.853 327.82L300.976 330.11L301.547 334.527L304.65 338.289L305.303 341.806H306.119L306.038 347.777L303.343 353.011L304.405 354.892L303.343 356.119L303.915 358.573L303.833 362.089L302.037 364.952L301.955 365.606L300.567 366.588L301.384 368.06L302.364 368.96L303.67 367.896L307.997 367.16L312.978 367.078L320.816 370.186L327.348 371.004L328.572 369.859L330.042 369.696L333.961 371.495L335.267 371.168L336.166 369.941L332.736 368.469L330.94 369.287L330.042 369.123L328.899 367.487L331.593 365.688L332.9 365.606V366.997L334.124 366.915L336.9 366.669L337.227 368.551L338.125 368.878L338.615 370.432L342.534 371.25L343.922 372.558V373.131H342.942L341.718 374.521L343.106 375.503L347.515 376.32L349.719 378.61L353.312 377.793L350.291 377.956L350.209 377.465L352.495 376.893L352.658 375.421L353.638 375.175V374.03L354.536 374.112V375.421L356.577 375.503L357.231 373.949L357.966 374.194L358.129 376.239L359.109 376.402L357.639 378.038L359.762 377.302L361.395 376.402L363.763 373.703H363.191L362.13 374.685L361.803 374.603L361.395 373.949L362.13 372.967V371.086L363.028 370.432L363.599 371.004L364.416 370.35L365.232 370.268L365.722 371.331L365.232 372.885H367.192L371.356 374.276L371.764 375.339L373.07 376.484L375.356 376.566L376.418 377.138L377.888 376.32L378.622 374.93V373.54H377.479L376.5 372.395L375.601 371.495L372.989 370.759L370.866 370.922L367.437 368.96V367.078L368.498 366.261L370.458 366.751L367.927 365.443L368.09 364.788H371.029L373.152 361.926L371.029 360.454L371.682 359.227L370.703 358.573H370.049L368.416 360.29V362.008L367.927 362.58L367.028 362.498L365.722 361.353H364.661V360.126L365.15 359.554L365.804 360.126L367.192 358.818L367.763 357.509L368.416 357.264L367.927 356.691ZM359.517 354.483L361.068 355.301L361.721 356.201L363.763 356.282L364.987 356.937L365.15 358.082L364.824 358.573L364.089 357.346L362.946 358.327L362.211 359.472L359.925 360.126L358.619 360.208L355.598 359.39L355.679 358L357.312 356.364L358.21 354.401L359.517 354.483ZM355.679 355.465V356.364L354.21 358H353.23V356.201L354.536 354.974L355.679 355.465Z" fill="#D0D0D0"/>
<path opacity="0.3" d="M590.416 75.2605L590.906 78.532L593.519 80.1678L594.172 81.9671L596.05 83.1121L597.193 82.8668L598.009 80.4131L597.356 78.0413L598.663 77.3052L599.071 75.0152L598.581 73.9519L601.275 72.3979L599.479 70.5168L600.214 68.5539L601.357 66.7546L601.765 69.3718L603.072 67.7361L604.133 68.4721L605.113 67.8178V66.4275L607.726 65.3642L607.97 62.9924L610.012 62.8288L612.216 59.8027V59.2302L611.481 58.8212L611.4 56.1222L611.89 55.2226L612.053 56.5312L612.869 56.1222L612.706 53.505L611.971 53.7504L611.89 54.7318L610.91 53.5868L611.645 52.4418L612.135 52.5236L613.033 52.1964L613.441 54.4865L615.074 54.2411L617.442 54.8136V53.9958L616.543 53.0143L617.605 53.0961L617.687 51.215L618.176 51.8693L618.421 53.4232L620.136 54.6501L620.299 53.8322L621.034 53.6686L620.789 53.0143L621.442 52.5236L621.361 51.215L620.054 51.0514L618.421 51.6239L619.564 50.3153L620.136 49.661L621.197 49.4974L621.524 50.5607L622.912 51.8693L623.239 50.1517L625.116 49.1703L624.382 48.1071L624.463 46.7167L625.361 47.1256H625.933L627.321 45.9806L627.648 44.0995L629.444 44.3448L629.525 43.7723L629.689 42.4637L630.097 43.6087L631.322 42.7909L633.2 39.4376L633.118 37.6382L631.975 36.0025L629.525 33.3853H627.974L627.321 35.1846L624.953 32.731L625.198 32.0767V30.8499L623.892 27.1695L623.239 27.0059L622.667 27.333H618.748L618.503 24.3887L611.89 3.12392L605.929 0.0977775L603.562 0.0159912L598.091 5.41397L595.887 4.59609L595.07 1.40638H592.866L587.232 17.3549L587.804 22.4258L586.416 24.3887L586.089 28.1509L587.15 31.177L587.804 31.3406V32.6492L586.497 36.3297L585.272 37.4747L584.211 39.274L583.884 45.6534L581.925 44.8356L580.7 45.1627L590.416 75.2605ZM618.666 55.059L617.85 55.7133V56.7765L618.421 56.1222L619.156 56.7765L619.483 56.3676L620.381 56.5312L619.564 55.8769L619.891 55.2226L618.666 55.059ZM617.278 57.1855L616.462 58.0851L616.87 58.4123L616.788 59.2302H617.687V57.758L617.278 57.1855ZM614.829 55.8769L615.564 56.9401L616.38 57.3491L616.625 56.5312V55.059L615.564 54.4865L615.237 55.4679L614.829 55.8769ZM614.012 59.9663L612.624 58.5759L613.931 56.613L614.584 56.8583L614.747 57.758L615.564 58.4123V59.3119L614.747 60.1298L614.012 59.9663Z" fill="#D0D0D0"/>
<path opacity="0.3" d="M547.878 190.254V188.863H547.224V190.336L547.878 190.254ZM557.512 187.064L558.492 185.265L558.574 183.22L558.084 182.729L557.512 183.465L557.349 185.183L556.696 186.328L556.451 187.228L552.695 188.536L552.123 189.191L551.062 189.354L550.735 190.09L549.674 190.581L549.429 188.536L549.756 187.964L549.102 187.555L549.266 186.328L547.959 187.146V185.51L548.939 185.265L547.388 184.938L546.816 184.283L547.143 183.22L546.49 182.729L545.918 184.038L546.326 184.692L545.755 185.183L544.857 185.592L543.224 184.774L543.06 183.793L542.244 182.893L541.101 181.503L542.326 180.848L541.509 180.358V179.621L541.999 178.804L543.387 178.558L542.244 178.067L542.162 177.495L541.101 177.413L540.774 178.313L540.284 178.558L540.366 175.777L541.183 174.96L541.836 175.532L541.917 174.223L541.101 173.487L540.366 174.387L539.55 175.532L539.06 174.714L539.223 172.751L539.958 171.933L540.693 172.67L541.672 172.097L541.346 170.707L540.529 171.524L539.795 169.807L539.631 168.417L540.529 166.454L541.428 165.309L542.571 165.145L542.162 164.491L542.571 164L542.326 163.428L542.489 161.71L541.264 162.037L540.611 162.937L541.428 164L539.305 166.944L538.57 166.617L537.998 167.353L537.508 169.153L536.039 169.562L537.1 170.052L538.162 171.116L537.998 171.688L538.733 172.67L537.835 173.487L538.243 173.733L537.835 174.796V176.514L537.427 177.577L538.162 178.476L538.733 181.257L539.795 182.402L541.101 183.547L541.428 185.837L542.734 187.473L543.06 188.618V189.436H542.489L541.264 188.454L540.938 188.618L539.958 188.454L538.57 187.309L537.427 187.064L536.61 187.473L535.631 187.228L535.304 187.391L533.916 186.737L533.099 185.919L532.283 184.856L531.793 184.692L531.14 185.265L529.834 186.328L528.935 185.674L528.609 183.793L529.262 182.075L529.017 181.666L529.262 181.339L528.691 180.521L529.507 180.439L530.323 179.703L530.65 178.231L532.038 176.105L529.915 174.632L529.099 176.023L528.609 175.532H527.792L527.303 175.45L526.976 175.123L527.058 174.714L525.67 174.223L525.016 174.469L524.037 174.387L523.465 173.815L523.057 173.651L522.894 173.078L523.383 172.424V171.688L522.404 171.524L521.587 170.788L520.852 170.87L519.546 170.625L518.811 170.298L518.974 168.989L518.158 168.58L517.995 168.008H517.423L516.77 167.026L516.933 166.208L514.81 166.535L513.014 165.227L511.871 165.472L511.136 166.617H510.075L508.687 168.989L505.992 169.316L504.441 168.498L502.318 171.606L500.522 171.361L497.991 174.551L497.256 175.859L495.787 177.168L494.399 167.844L543.795 158.193L550.001 180.358L558.9 178.476V182.811L558.818 185.347L558.002 186.819L557.512 187.064ZM546.571 185.592L545.51 186.328L546.163 187.8L547.551 188.454L547.224 187.146L546.571 185.592Z" fill="#D0D0D0"/>
<path opacity="0.3" d="M610.746 112.474H613.522L614.257 111.983L614.339 110.92L612.788 109.448L613.114 110.266L611.889 111.492H610.011L610.093 112.147L610.746 112.474ZM603.398 113.946L602.418 113.455L603.235 112.801L603.725 111.083L604.704 110.266L605.358 110.102L605.847 110.838L606.746 111.002L607.235 110.511L607.644 112.065L606.582 112.31L604.296 112.883L603.398 113.946ZM574.903 94.8078L589.926 91.6999L590.743 90.473L590.988 89.0827L592.539 88.5919L592.947 87.6923L594.335 86.7926L595.397 87.038L596.785 89.7369L597.601 90.0641L598.499 89.0009L599.152 90.0641V90.9638L596.703 92.9267L596.866 93.581L596.131 94.3988L596.458 95.0531L595.397 95.2985L596.131 96.2799L595.478 96.8525L595.968 97.6703L596.703 97.5068L596.948 96.8525L597.846 97.3432H599.316L601.357 99.4697L601.52 101.596L602.99 101.678L603.643 102.578L604.133 104.213L604.949 104.786H606.501L608.052 104.704L608.705 103.968L610.011 102.987L610.91 102.741L609.93 101.024L609.685 101.76L608.46 98.8154H607.807L607.48 99.5514L606.501 98.7336L607.562 97.8339L609.032 98.1611L610.91 99.8786L611.971 102.087L612.951 104.786L612.134 107.076V105.604L611.563 104.786L608.705 106.667L607.97 106.422L606.664 107.239L606.582 108.221L604.786 109.202L603.153 110.92L601.52 112.474H600.54L603.235 109.775L603.643 108.221L603.235 107.73L602.99 106.667L602.255 106.585L602.173 107.648L601.357 108.63H600.377L600.132 109.53L600.459 110.511L599.479 111.411L598.581 111.247L598.254 112.065L597.111 109.611L596.05 108.712L593.927 107.648L593.437 105.849H592.784L592.212 103.723L586.905 105.358L586.824 105.113L574.658 107.894V108.466L573.923 108.712L573.515 108.139L564.942 110.102L564.37 109.284L564.779 97.016L574.903 94.8078Z" fill="#D0D0D0"/>
<path opacity="0.3" d="M417.568 141.59L417.65 142.735L435.122 139.873L435.531 138.891L438.715 134.066V130.549L439.368 128.831L441.164 128.177L442.797 121.798L443.614 121.389L444.43 121.879L444.267 122.37L443.369 123.024L443.614 123.76L444.267 124.088L445.818 122.943L446.145 114.927L444.838 113.046L443.859 110.02V107.975L441.981 104.377V102.905L441.001 100.206L439.123 97.752L436.755 96.9342L432.836 99.3878L430.795 103.15L430.632 103.886L428.182 106.749L426.958 106.585L424.59 104.295L424.508 101.514L425.733 99.9603L427.366 99.7967L428.346 98.4063L428.509 95.1348L429.162 94.4805L430.06 94.3988L430.795 93.0084L430.632 85.1568L430.387 84.0935L429.407 83.1121L428.019 82.2942L427.937 80.822L428.509 80.3313L429.979 80.9856L429.734 79.5952L428.182 77.387L427.611 76.0783L426.713 75.1787H424.916L418.303 72.8068L417.16 71.4165L414.629 71.1711L413.649 71.4165L410.057 69.5353H408.914L409.322 70.3532L407.117 70.2714L407.199 70.7622L407.689 71.2529L405.648 72.9704L405.729 74.4426L406.954 76.3237L408.179 76.4873V76.978L406.954 77.387L405.239 77.3052L402.953 79.3498L403.035 81.3945L403.362 86.1382L401.565 88.919L402.218 85.2385L401.565 84.7478L400.83 89.0826L400.014 87.2015L400.422 85.3203L400.014 84.5025L400.504 83.4392L400.014 82.5396L400.83 81.7217V80.7402L399.769 81.231L398.708 83.7664L398.136 84.3389L397.075 86.3018L395.687 86.1382L395.605 87.1197H394.299L394.462 88.3465L394.625 89.9822L392.176 90.9637L392.257 92.0269L393.074 93.4173L392.992 97.6703L391.931 101.269L390.543 103.314L391.523 104.459L392.176 107.321L391.359 109.366L391.196 111.083L392.584 113.864L394.625 117.872L395.605 119.426L396.911 125.069L396.83 132.266L396.095 135.456L394.462 138.073L393.727 141.099L392.094 143.553L391.114 144.371L417.568 141.59ZM339.35 62.4198L341.799 65.5278L355.679 68.6357L356.822 69.4536L360.088 70.1079L360.66 70.5168L362.946 70.3532L366.947 71.0075L368.09 72.2343L367.273 73.0522L367.926 73.7065L371.029 74.279L372.009 75.2605L372.09 78.8591L371.029 81.1492L372.662 81.231L373.479 80.5767L374.213 81.231L373.315 83.7664L374.132 85.075L375.111 85.3203L375.765 83.8482L378.132 80.0859L379.439 75.1787L381.317 73.5429L380.908 72.2343L381.317 71.4982L382.133 72.8068L381.888 74.6062L384.256 72.8068L384.419 70.9257L386.134 71.4165L386.787 70.1079L387.359 70.5986L386.787 71.8254L385.971 72.2343L385.154 73.8701L386.297 75.3423L387.195 74.9333L386.787 74.3608L387.604 73.134L389.155 71.7436H389.808L389.971 69.6171L391.604 68.145L398.054 67.736L399.606 65.2006L402.708 64.9552L405.811 65.9367L409.24 68.145L409.812 67.9814L409.648 65.1188L410.22 64.9552L413.894 65.8549L415.119 65.6913L417.487 65.1188L418.875 65.446L420.344 65.5278V64.6281L419.773 63.892L418.548 63.7284L417.65 63.0741L418.058 61.9291L417.405 61.6837L415.282 61.7655L415.2 60.9477L416.099 60.2934L416.588 60.9477L416.997 59.4755L416.425 58.903L416.997 58.7394L415.854 57.6762L416.099 56.6129L416.18 55.059H415.119L413.894 55.8768L412.343 55.9586L411.935 57.4308L410.383 57.5944L410.138 56.6129L408.342 56.6947L407.526 57.6762L406.954 57.5944L406.791 56.9401L404.668 57.2672L404.586 53.3414L405.403 51.7057L404.831 51.6239L403.362 52.5235H401.565L398.463 54.7318L393.401 54.9772L390.053 55.6315L388.502 56.8583L387.359 57.9215L385.317 59.3119L385.072 59.9662L384.583 58.5758L383.521 58.0851V58.5758L384.093 59.1483V60.2116L382.868 59.7208H382.378L382.133 60.7023L380.5 59.1483L379.439 58.9848L378.377 60.2116L375.765 60.1298L375.356 58.9848L373.723 57.4308L372.662 56.1222V55.5497L371.764 54.4047L369.641 53.4232L366.947 53.3414L366.049 52.6053H364.906L364.334 52.9325L362.538 54.7318L361.966 55.6315L361.15 55.059L361.313 54.2411L361.966 52.5235L364.579 48.4342L365.232 48.2706L366.62 46.7166L367.192 45.408L369.641 44.9173L370.294 44.4266L370.213 43.6087L369.804 43.1998L366.13 43.3633L364.497 43.7723L362.374 44.7537L361.395 45.7352L360.007 47.5345L358.537 48.3524L355.843 51.1332L355.516 52.4418L349.474 56.204L346.208 56.6129L344.739 56.9401L342.861 59.3937L341.391 59.9662L337.799 61.8473L339.35 62.4198ZM421.569 65.5278L424.672 65.6095L425.161 65.2006L424.998 63.5649L423.61 62.0927L422.059 62.1745L421.977 62.5834L422.875 62.9106L421.569 63.5649L421.324 64.3827L420.834 63.892L420.508 64.5463L421.569 65.5278ZM360.252 31.2588L358.374 31.4224L356.169 32.9763L350.372 37.3111L351.025 38.1289L352.495 38.3743L354.781 36.7386L353.883 36.3296L355.761 35.021H356.577L359.027 33.467L358.945 32.731L360.252 31.2588ZM393.809 82.6213V83.4392L395.523 84.7478L395.36 82.7849L393.809 82.6213ZM393.237 84.9114L394.135 84.9932V85.7293H393.319L393.237 84.9114ZM410.71 67.4907V68.2267L411.363 68.0632V67.6542L410.71 67.4907ZM414.547 70.0261L414.466 69.1264L413.159 68.9628L412.669 68.6357H411.935L411.608 68.8811L412.343 69.2082L413.241 70.1079L414.547 70.0261ZM399.851 71.0075L399.769 71.9072L399.524 72.4797L399.687 74.279L400.014 74.5244L400.586 74.6062L400.994 73.8701L401.075 72.5615L400.83 72.0708L400.749 71.1711L399.851 71.0075Z" fill="#D0D0D0"/>
<path opacity="0.3" d="M255.416 26.1063L254.518 28.3963L255.171 29.5413L254.926 33.7125L254.518 34.6122L256.723 42.0548L257.784 44.0995L258.355 55.5498L259.172 57.758L258.845 62.5017L261.213 68.554L261.458 73.2977L261.376 75.0152L261.295 76.8145L260.56 78.4503L258.029 80.0042L257.784 80.9857L259.172 83.0304L259.499 84.5026L261.621 84.9933L262.846 86.5472L262.683 118.853H285.707L315.345 118.117L330.532 117.545L329.634 113.864L329.471 111.411L327.674 108.957L325.388 108.385L321.142 105.44L320.653 102.741L315.509 100.206L315.345 99.1425H312.651L310.855 97.0161L309.222 95.9528L309.793 91.7816L309.059 90.4731L309.467 86.0565L310.283 84.5844L310.038 82.3761L309.059 81.3129L307.589 81.0675V79.6771L309.875 74.9334L314.692 71.7437L314.366 61.1113L315.101 61.4385L315.59 61.0295L315.672 60.1299L316.407 59.6391L317.55 60.6206L318.121 60.5388L317.142 58.7395L320.653 56.2041L323.184 53.1779L324.49 52.5236L328.327 47.6982L333.471 42.9545L336.655 41.237L341.799 39.0287L348.004 35.3483L347.515 35.0211L344.494 35.5936L342.208 35.6754L341.391 34.3668L340.248 33.6307L332.246 34.6122L331.43 32.3221L330.124 32.2403L328.736 32.8946L325.715 35.43H322.367L320.653 34.6122L320.408 33.2218L317.223 32.5675L316.733 31.2589L316.162 30.1956L315.345 30.9317L313.223 31.0135L305.139 26.5152H302.772L302.119 25.9427L299.587 27.0059L298.934 28.0692L296.24 28.7235L295.179 28.5599V27.1695L294.607 26.4334H289.79L289.463 25.2884H287.34L286.442 25.6155L284.483 24.2252L284.728 23.0801L284.238 21.1172L283.666 20.2176L283.503 17.7639L282.686 15.2285L280.972 13.9199H278.604L278.686 20.4629L253.457 20.1358L255.416 26.1063Z" fill="#D0D0D0"/>
<path opacity="0.3" d="M385.317 353.256L381.235 353.338L379.276 352.111L372.825 354.156L372.091 353.583L371.682 353.747L371.601 355.056L371.111 355.137L368.988 357.346L368.416 357.264L367.927 356.691L366.947 355.219L367.192 354.156L363.273 348.594L364.007 344.832L364.824 343.687L364.906 342.542L335.512 344.178L336.9 334.445L338.86 330.519L343.759 323.649L342.289 321.605H343.922V318.906L341.963 316.861L342.371 315.47L341.391 314.653L340.085 308.846L340.575 307.701L341.554 306.474L341.963 304.02L340.738 302.139L340.33 300.34L341.064 299.767V299.113L339.677 298.213L339.595 297.641L340.901 296.905L339.921 296.005L341.309 290.198L344.085 288.889V288.235L343.187 287.09L345.555 282.674H347.106L348.331 281.692L348.086 277.439L350.617 273.759L352.087 273.268L351.679 270.733L382.95 268.606L384.011 270.242L382.95 325.04L386.542 352.193L385.317 353.256Z" fill="#D0D0D0"/>
<path opacity="0.3" d="M329.389 173.569L328.491 172.669L328.001 171.361L326.613 170.298L314.937 170.952L292.729 171.933L271.582 171.852L272.644 172.915L272.399 174.06L274.113 177.086L277.298 182.239L279.665 184.692L281.298 185.183L282.033 184.365L283.258 186.083L283.176 187.064L280.972 189.191L280.564 191.072L282.605 193.116L284.728 196.96L287.34 197.533L287.749 236.873L287.912 245.706L319.836 245.133L352.332 243.497L353.638 245.542V247.341L352.25 248.568L349.964 252.739L359.109 252.085L359.925 250.449L360.905 250.04V249.468L359.925 248.568L359.435 247.75L360.823 247.914L361.476 247.341L360.333 246.115L361.476 245.706L361.558 244.888L361.068 244.07V243.007L360.497 242.434L360.66 241.616H361.558L362.13 242.189L361.885 243.007L362.538 243.579L363.191 242.761L364.007 240.553L365.15 241.289L365.722 240.962L366.702 237.609L365.885 236.791L366.702 235.155L366.865 234.419L365.804 233.765H363.518L362.374 232.538L360.905 229.43V227.876L361.558 227.385L361.64 226.322L360.252 224.768L359.517 222.723L357.312 219.37L353.393 218.307L347.351 212.5L347.025 210.537L349.311 204.321L348.984 202.767L349.964 201.868V200.804L347.678 199.578L345.229 199.005L342.452 199.986L341.391 198.105L341.881 196.551L341.309 194.589L334.288 187.718L332.491 186.492L330.45 181.666L329.471 177.25L330.614 174.223L329.389 173.569Z" fill="#D0D0D0"/>
<path opacity="0.3" d="M77.6695 76.7327L124.453 83.1939L166.094 87.5287L167.727 70.5986L171.972 16.0464L128.291 11.4663L83.9563 5.16863L30.1506 -5.05481L26.2315 12.9384L29.2525 18.9907L27.9461 22.9165L30.8854 26.8423L32.4367 27.4148L35.621 34.2032V35.9207L37.4989 38.3744H38.2337L39.3768 40.0919H41.9895V41.4005L36.1925 55.3044L35.7843 58.6577L36.9273 59.0666L38.2337 61.1931L40.5198 60.048L43.4591 58.0851L45.0104 59.6391L45.4187 61.6838L45.0104 64.301L47.0516 72.2344L49.1745 75.097L51.0524 76.242L51.379 78.6956V82.0489L53.2569 83.93L54.5632 82.0489L60.1969 83.3575L61.9115 82.376L69.2598 83.7664L71.5459 81.0674L73.0156 80.5767L73.9953 82.0489L75.3017 85.4022L76.0365 85.484L77.6695 76.7327Z" fill="#D0D0D0"/>
<path opacity="0.3" d="M204.631 126.296L235.657 127.605L238.433 130.222L239.821 130.385L241.536 132.021L243.006 131.939L244.475 130.303L245.7 130.794L246.517 130.222L247.088 130.631L247.823 130.303L248.394 130.631L249.129 130.303L249.946 130.712L251.089 130.222L252.722 130.712L253.212 131.612L258.192 133.411L259.172 134.475L259.907 136.601L261.376 137.174L262.601 137.01L263.009 137.746V139.627L263.499 141.018V142.163L264.561 145.189L266.357 148.706L266.52 151.732L268.806 155.821L269.133 160.81L270.194 161.383L270.031 163.755L270.684 166.454L270.113 168.253L271.582 171.852L272.644 172.915L272.399 174.06L274.113 177.086L277.298 182.239H250.844L215.164 181.257L185.771 179.621L186.914 161.546L159.889 159.583L162.909 123.433L204.631 126.296Z" fill="#D0D0D0"/>
<path opacity="0.3" d="M580.292 46.5531L579.23 46.6349L578.414 45.7352L576.863 46.8803L576.454 51.8693L577.434 53.7504L576.536 56.613L578.251 58.903L577.924 60.2934L578.006 61.3566L577.108 63.0742L575.965 63.4013L575.475 64.4646L573.76 65.2824L573.189 66.5093L574.332 69.29L573.923 71.3347L574.332 72.5615L573.515 74.1155L573.842 75.6695L572.78 77.2234L572.944 79.0228L572.372 79.9224L572.944 83.6029L573.515 84.8297L573.107 86.9561L573.842 88.4283L573.678 90.473L573.27 91.5363L573.189 92.6813L574.903 94.8078L589.926 91.6998L590.743 90.473L590.988 89.0826L592.539 88.5919L592.947 87.6922L594.335 86.7926L595.397 87.0379L596.05 83.1121L594.172 81.9671L593.519 80.1678L590.906 78.532L590.416 75.2605L580.7 45.1627L580.292 46.5531Z" fill="#D0D0D0"/>
<path opacity="0.3" d="M563.881 129.813L551.96 125.805L550.49 127.85L550.572 129.649L548.123 134.066L549.347 135.538L548.776 137.174L547.959 137.992L548.368 140.936L550.572 141.672L551.388 143.962L553.103 144.862L556.532 147.479L553.838 149.605L552.532 151.486L551.062 153.94L549.756 154.431L548.612 155.821L547.796 157.621L547.551 159.338L548.204 160.074L548.531 161.955L549.511 162.446L551.47 163.673L552.94 164.327L554.246 164.981L554.328 165.881L554.981 165.963L555.879 164.981L556.532 165.309L558.247 165.472L558.084 167.844L558.247 169.889L559.717 169.316L560.941 166.126L562.248 162.201L564.615 159.911L565.105 157.048L564.615 156.067L566.003 153.695V152.713L565.432 151.814L566.412 149.605L566.167 146.661L565.677 139.954L564.697 138.809V139.954L565.105 140.445H564.207L563.717 140.118L562.656 139.954L561.921 140.445L560.941 139.137L561.513 137.746V136.928L562.901 136.356L563.554 134.638L563.881 129.813Z" fill="#D0D0D0"/>
<path opacity="0.3" d="M167.89 242.271H167.237L160.787 323.486L134.823 321.359L106.736 318.415L106.491 320.868L108.124 322.668L82.9765 319.314L81.8334 327.657L69.0148 325.857L83.2215 224.359L126.168 229.675L168.38 233.601L167.89 242.271Z" fill="#D0D0D0"/>
<path d="M588.702 118.526L587.64 118.608L587.232 119.426L588.702 118.526ZM563.717 137.092L564.289 137.583L565.35 137.337L566.248 137.583L566.983 136.519H568.535L570.494 135.783L574.658 134.066L574.25 133.657L572.699 134.311L571.066 135.047L571.229 134.393L573.352 133.493L574.005 132.675L574.985 132.757L578.332 130.876V131.448L574.903 133.902L578.577 131.612L579.965 129.813L581.19 129.731L584.864 127.196L587.477 124.66L589.926 122.779L590.743 121.798L589.355 121.716L588.538 122.697L588.375 123.27L587.64 123.842L586.987 122.943L585.599 123.76L585.517 124.497L584.782 124.333L585.191 123.597L584.211 123.024L583.721 123.76L584.456 124.006L584.619 124.415L584.374 124.824L583.231 126.95H581.68L582.415 125.478L583.149 124.987L583.394 123.597L584.537 122.288L585.272 121.634L586.497 121.061L585.517 120.898L584.946 121.634H584.374L583.476 122.288L583.313 123.106L581.517 124.824L581.19 125.56L580.047 126.296L573.76 127.85L573.923 128.586L573.189 129.158L571.556 129.404L570.739 128.913L570.576 129.813L569.678 129.486L569.759 130.303L568.78 130.222L567.8 130.631L567.636 131.53H566.82L566.983 132.348H566.412L566.575 133.166L565.105 133.493L563.881 135.374L563.717 137.092ZM563.064 136.765L561.758 137.092V137.91L561.186 139.218L561.676 139.791L563.636 137.91L563.554 137.174L563.064 136.765ZM554.818 58.903L554.328 60.4569L555.471 61.193L555.144 62.4198L555.553 65.037L557.349 66.9181L557.022 68.7175L557.512 70.3532L557.186 71.1711L556.941 74.279L559.472 79.7588L558.819 81.231L559.553 83.0303L560.288 81.7217L561.839 82.9485L564.289 94.5623L563.881 96.1981L564.779 97.0159L564.371 109.284L564.942 110.102L567.228 123.433L568.698 124.66L565.84 127.441L567.228 129.24L566.167 131.939L564.942 133.33L563.717 135.211L563.554 134.638L563.881 129.813L551.96 125.805L550.654 124.905L549.102 125.151L546.653 123.352L544.204 118.608H542.571L542.244 117.381L540.856 116.481L483.295 127.85L482.641 122.943L486.152 119.753L486.642 118.362L489.826 116.318L490.316 114.355L492.194 112.719L492.847 111.819L491.459 109.121L490.071 108.712L488.602 106.258L488.438 103.641L494.644 100.451L501.339 99.1424H504.931L507.544 100.451L508.279 100.369L509.748 99.0606L512.524 98.4881H514.974L517.097 97.4249L519.138 95.2984L521.097 92.763L522.649 92.4358L523.547 92.0269L523.873 89.4097L522.73 87.2014L521.751 86.6289L523.384 85.5657L523.302 84.0935H522.077L520.199 82.9485L520.118 80.4131L525.18 75.424L525.751 73.4611L528.772 68.3085L533.589 63.0741L535.304 61.6837L537.345 61.7655L554.165 57.5126L554.818 58.903Z" fill="#38A6FA"/>
<path opacity="0.3" d="M552.858 215.444L529.099 220.433L496.93 226.404L472.925 229.266V233.519L471.7 233.438L470.557 234.419L468.598 238.672L466.475 237.772L463.617 239.817L463.046 241.535L461.821 242.516L461.168 241.862L461.086 240.635L460.433 240.471L457.167 243.17L456.677 245.951L452.84 247.914L452.432 248.895L449.819 251.022L446.88 251.431L443.124 253.884L442.471 257.238L441.409 257.974L440.185 257.892L439.041 258.955L438.96 262.963L456.432 260.509L460.025 258.955L461.086 258.874L467.047 255.357L485.989 253.557L486.315 253.966L486.152 255.111L486.724 255.357L487.703 254.13L490.398 256.583L490.479 258.71L506.564 256.42L526.568 270.406L529.834 268.606L532.283 268.034H533.671L534.569 268.933L535.222 267.298L535.712 263.208L537.1 260.019L541.509 255.029L544.857 252.167L549.266 250.286L551.307 249.959L552.368 250.286L552.94 251.185L555.634 245.788L558.329 241.453L557.757 241.207L554.165 246.769L553.756 246.115L555.389 244.315L555.063 243.089L553.43 242.68L554.246 243.743L553.266 243.825L552.287 242.352L551.307 243.988L550.001 244.152L550.817 241.943L551.389 240.553L551.225 238.181L549.429 238.099L550.164 237.363L551.062 237.609L553.266 237.691L553.92 237.282H555.797L557.43 235.728L557.594 233.11L558.655 231.965L559.635 231.802L560.696 230.984L560.288 227.958L558.492 224.85L556.287 224.686L555.553 225.995L555.144 225.177L552.94 225.341L551.96 225.668L550.409 226.649L550.164 226.322H549.429L547.959 227.304L545.836 227.712V226.649L546.49 225.831L547.306 226.404H548.123L549.511 224.686L552.532 223.296L554.165 221.497H556.124L556.777 222.56L558.165 223.214L557.757 221.987L557.512 220.679L555.226 218.143L554.981 216.998L554.654 217.816L553.92 216.753L552.858 215.444ZM558.573 240.798L560.778 238.754L564.534 236.055V233.029L564.207 230.493L562.819 227.058L564.044 228.203L564.86 230.82L565.187 237.036L563.799 237.363L561.268 239.326L558.655 241.943L558.573 240.798ZM560.125 225.013L559.39 224.85V225.668L561.431 227.467L561.268 226.322L560.125 225.013ZM562.493 226.731L561.35 224.441L559.553 221.66L557.594 219.207L555.797 215.69L555.144 215.117L556.941 218.634L557.185 219.697L559.962 224.196L561.431 225.913L562.493 226.731Z" fill="#D0D0D0"/>
<path opacity="0.3" d="M255.416 26.1063L254.518 28.3963L255.171 29.5413L254.926 33.7125L254.518 34.6122L256.723 42.0548L257.784 44.0995L258.355 55.5498L259.172 57.758L258.845 62.5017L261.213 68.554L261.458 73.2976L261.376 75.0152L237.29 74.688L199.733 72.9705L167.727 70.5987L171.972 16.0464L208.306 18.8272L253.457 20.1358L255.416 26.1063Z" fill="#D0D0D0"/>
<path opacity="0.3" d="M435.857 140.772L437.409 140.445L439.858 141.508L441.573 141.999L442.144 142.735H442.961L443.777 141.508L444.839 142.163H446.063L445.982 142.981L443.451 143.389L441.818 144.289L443.369 144.943L444.675 143.717L446.635 143.389L448.431 144.616L449.656 144.534L451.697 143.144L454.636 141.427L458.882 141.181L462.883 136.356L465.985 133.82L473.578 129.649L477.579 154.104L475.783 155.085L476.926 156.803L476.844 158.602L477.334 160.238L476.436 163.018L476.354 167.435L475.538 170.379L475.946 171.279L475.62 173.078L474.722 173.487L473.089 176.186L471.619 177.822H471.129L469.659 179.212L468.598 178.231L467.373 179.703L467.128 180.685H466.067L465.005 182.484L465.087 184.201L464.271 184.61L465.414 185.51V187.064L464.597 187.228L464.026 187.882L463.209 188.291L462.719 186.573L461.413 186.164L460.596 188.045L460.352 189.845L459.453 190.908L460.515 193.852L459.29 194.507L458.964 197.369H457.739L455.126 198.514L454.146 196.797L451.289 195.652L450.635 193.28L450.227 192.626L447.451 194.098L446.961 195.488H446.227L445.165 196.061L444.185 195.406L441.736 194.752L440.185 195.406V196.224L438.388 196.061L436.837 194.343L434.959 194.507L431.612 193.934V193.116L429.815 190.336L427.448 189.354L425.896 190.008L424.1 189.927L423.039 189.518L417.65 142.735L435.122 139.873L435.857 140.772Z" fill="#D0D0D0"/>
<path opacity="0.3" d="M285.462 296.005L281.707 292.897L279.91 292.161L279.502 293.47L275.338 293.715L274.848 292.488L270.766 294.533L269.46 293.96L266.439 294.206L265.949 295.596L263.009 296.332L261.948 295.351L260.968 295.432L259.335 293.96L257.621 294.533L255.988 294.124L254.518 292.488L252.477 295.923L251.497 296.577L250.681 295.105L250.926 293.47L249.946 292.897L248.068 294.942L246.68 293.96L246.598 292.733L245.537 293.142L243.414 291.752L240.965 293.878L239.087 292.979L239.658 291.261L237.78 291.343L236.229 288.889L233.371 287.99L231.738 289.871L229.86 288.072L228.717 288.399L227.084 288.481L224.227 286.927L222.349 287.008L221.369 286.436L220.961 284.064L219.083 282.674L218.185 283.9L217.042 283.083L216.062 282.755L215.164 283.573L213.939 283.328L211.898 280.874L209.694 279.811L210.837 244.888L167.89 242.271L168.38 233.601L181.852 234.419L237.127 236.791L287.749 236.873L287.912 245.706L291.259 265.662L290.688 297.559L285.462 296.005Z" fill="#D0D0D0"/>
<path opacity="0.3" d="M550.654 124.906L549.102 125.151L546.653 123.352L544.204 118.608H542.571L542.244 117.381L540.856 116.481L483.294 127.85L482.641 122.943L479.212 125.723L478.477 125.805L476.273 128.259L473.578 129.649L477.579 154.104L480.192 170.216L494.398 167.844L543.795 158.193L544.775 156.476L546 155.576L547.306 155.331L548.612 155.821L549.756 154.431L551.062 153.94L552.532 151.486L553.838 149.605L556.532 147.479L553.103 144.862L551.388 143.962L550.572 141.672L548.368 140.936L547.959 137.992L548.776 137.174L549.347 135.538L548.123 134.066L550.572 129.649L550.49 127.85L551.96 125.805L550.654 124.906Z" fill="#D0D0D0"/>
<path opacity="0.3" d="M597.111 109.611L596.05 108.712L593.927 107.648L593.437 105.849H592.784L592.212 103.723L586.905 105.358L589.518 115.418L589.191 116.318L589.518 117.79L594.09 114.846L594.172 112.392L593.519 111.738L593.845 111.247L593.764 110.184L593.029 109.611L594.009 109.284L593.274 107.975L594.743 108.548L594.988 109.693L595.56 110.674L594.417 110.02L595.315 111.411L595.07 112.392L594.58 111.492V113.537L595.07 112.801L595.397 113.537L596.458 112.31L596.295 110.266L597.438 112.801L598.254 112.065L597.111 109.611ZM593.274 119.589H594.009L594.417 119.099L593.764 118.035L593.192 118.608L593.274 119.589Z" fill="#D0D0D0"/>
<path opacity="0.3" d="M506.564 256.42L490.479 258.71L490.398 256.583L487.703 254.13L486.724 255.357L486.152 255.111L486.315 253.966L485.989 253.557L467.047 255.357L461.086 258.874L460.025 258.955L456.432 260.509L456.351 262.063L454.8 262.881L453.656 265.498L453.82 266.562L458.8 269.67L460.923 269.424L463.454 272.696L463.781 274.086L467.21 278.257L469.333 279.648L470.476 279.811L472.272 281.12L473.17 282.919L474.803 284.228L476.273 284.637L478.477 286.845L478.559 287.99L480.682 290.28L484.764 292.161L487.703 297.641L487.948 299.849L491.133 301.567L493.174 305.492L493.827 308.028L497.256 308.355L497.909 307.128H498.399L499.869 305.901L500.277 304.266L502.89 302.548L503.135 300.585L502.155 299.849L502.808 299.277L503.461 299.604L504.523 299.277L505.992 297.559L509.095 296.087L510.401 294.124L510.483 293.551L514.402 289.953L514.321 289.544L513.586 288.89L514.484 287.663H515.137L515.464 288.072L516.035 287.417H517.097L517.586 286.191L519.464 284.473L519.219 280.057L519.873 278.175L522.812 273.105L524.771 271.305L526.568 270.406L506.564 256.42Z" fill="#D0D0D0"/>
<path opacity="0.3" d="M199.733 72.9705L237.29 74.688L261.376 75.0152L261.295 76.8145L260.56 78.4502L258.029 80.0042L257.784 80.9856L259.172 83.0303L259.499 84.5025L261.621 84.9932L262.846 86.5472L262.683 118.853L260.887 118.771L260.805 120.08L261.866 121.307L261.785 122.207L260.968 122.616L261.295 123.924L262.356 124.251L262.928 125.887L261.54 130.058L260.723 133.575L261.785 134.556L262.03 135.62L262.601 137.01L261.376 137.174L259.907 136.601L259.172 134.475L258.192 133.411L253.212 131.612L252.722 130.712L251.089 130.222L249.946 130.712L249.129 130.304L248.394 130.631L247.823 130.304L247.088 130.631L246.517 130.222L245.7 130.794L244.475 130.304L243.006 131.939L241.536 132.021L239.821 130.385L238.433 130.222L235.657 127.605L204.631 126.296L162.909 123.433L166.094 87.5286L167.727 70.5986L199.733 72.9705Z" fill="#D0D0D0"/>
<path opacity="0.3" d="M382.95 268.606L420.263 265.335L438.96 262.963L439.041 258.955L440.185 257.892L441.409 257.974L442.471 257.238L443.124 253.884L446.88 251.431L449.819 251.022L452.432 248.895L452.84 247.914L456.677 245.951L457.167 243.17L460.433 240.471L461.086 240.635L461.168 241.862L461.821 242.516L463.046 241.534L463.617 239.817L466.475 237.772L468.598 238.672L470.557 234.419L471.7 233.438L472.925 233.519V229.266L473.17 228.694L469.414 229.103L469.251 229.921L445.655 232.62L441.083 233.765L424.345 234.91L420.099 235.564L405.893 236.382L403.77 237.036L385.317 238.672L384.746 238.181H381.725L382.705 240.798L382.215 241.534L363.191 242.761L362.538 243.579L361.885 243.007H361.068V244.07L361.558 244.888L361.476 245.706L360.333 246.115L361.476 247.341L360.823 247.914L359.435 247.75L359.925 248.568L360.905 249.468V250.04L359.925 250.449L359.109 252.085L359.19 252.576L360.333 253.394L360.007 253.966H358.782V254.375L359.517 255.111L359.598 255.766L358.455 255.929L358.047 256.583L356.741 256.747L356.006 257.483L356.496 258.219L357.394 258.137L357.802 258.873L356.496 259.937L356.822 261.164L355.189 260.673L355.108 261.245L355.434 262.145L355.189 263.29L354.128 262.636L353.475 263.29L354.373 263.372L354.455 264.599L353.965 265.416L354.863 266.153L354.618 267.379L355.271 267.952L354.7 268.77L353.72 268.361L352.985 270.16L351.679 270.733L382.95 268.606Z" fill="#D0D0D0"/>
<path opacity="0.3" d="M106.491 320.868L106.736 318.415L134.823 321.359L160.787 323.486L167.237 242.271H167.89L210.837 244.888L209.694 279.811L211.898 280.874L213.939 283.328L215.164 283.573L216.062 282.755L217.042 283.083L218.185 283.9L219.083 282.674L220.961 284.064L221.369 286.436L222.349 287.008L224.227 286.927L227.084 288.481L228.717 288.399L229.86 288.072L231.738 289.871L233.371 287.99L236.229 288.89L237.78 291.343L239.658 291.261L239.087 292.979L240.965 293.879L243.414 291.752L245.537 293.142L246.598 292.734L246.68 293.96L248.068 294.942L249.946 292.897L250.926 293.47L250.681 295.105L251.497 296.578L252.477 295.923L254.518 292.488L255.988 294.124L257.621 294.533L259.335 293.96L260.968 295.433L261.948 295.351L263.009 296.332L265.949 295.596L266.439 294.206L269.46 293.96L270.766 294.533L274.848 292.488L275.338 293.715L279.502 293.47L279.91 292.161L281.707 292.897L285.462 296.005L290.688 297.559L292.811 299.44L295.097 298.377L297.71 299.031L297.873 308.764L298.281 325.04L298.853 327.82L300.976 330.11L301.547 334.527L304.65 338.289L305.303 341.806H306.119L306.038 347.777L303.343 353.011L304.405 354.892L303.343 356.119L303.915 358.572L303.833 362.089L302.037 364.952L301.955 365.606L300.567 366.588L301.384 368.06L302.364 368.959L299.506 369.205L292.647 372.395L289.79 373.54L288.32 375.012L287.749 374.603L289.463 372.722L290.933 372.149L291.341 371.413L288.973 371.331L288.402 370.677L289.055 369.041L288.32 367.569H287.83L285.871 368.632L284.319 370.759L284.564 372.149L287.259 374.93L288.32 375.175V375.83L286.442 377.138L282.441 380.41L279.176 383.599L276.563 384.744L272.481 387.198L269.46 388.834L265.785 390.388L262.438 392.433L265.051 389.979V389.079L265.54 388.425L265.377 386.953L264.152 386.871L263.254 388.098L261.132 389.161L259.662 388.18L259.417 386.789H258.192L258.845 388.588L259.988 389.161L260.968 389.897L262.438 391.206L261.866 391.86L258.682 393.25L257.294 393.332L256.314 392.351L255.906 394.068L256.314 394.968L254.11 396.604L252.885 396.767L252.232 397.34L251.905 398.73L250.436 401.429L249.129 402.002L247.823 401.511L246.353 402.411L246.598 403.556L247.66 404.21L248.476 404.864L247.006 407.727L246.762 410.017L245.945 411.407L244.802 412.225L242.434 412.552L243.904 413.043L245.455 412.552L245.129 415.169L244.23 415.088L244.394 416.069L244.639 417.214L243.577 417.95V420.486L244.884 421.631L245.374 424.166L245.047 425.965L244.23 426.293L244.557 427.519L245.455 427.846L246.108 429.237V431.363L247.006 433.081L248.803 435.207L248.721 435.78L246.925 435.616L245.618 436.761L245.782 437.906L245.047 437.661L243.904 437.497L241.128 434.471L239.25 433.981H233.453L231.167 433.326L228.228 430.873L226.84 430.055L225.125 430.137L222.512 428.01L218.103 426.702V425.638L216.96 424.166L216.225 420.322L215.327 418.932L213.939 417.787V416.478L212.796 415.987L213.286 413.861L213.041 412.062L211.98 410.916L212.551 408.463L211.898 405.846L210.51 404.701H209.612L206.346 401.838L206.428 400.284L205.774 398.894L205.121 398.73L204.386 396.767L202.754 395.459L200.386 393.414L200.222 391.696L199.406 391.124L199.569 389.815L199.977 389.243L198.834 388.016L198.916 387.443L197.283 385.644L197.365 383.927L195.16 379.919L195.079 378.529L193.609 375.993L189.445 372.067V371.168L186.751 369.777L186.669 368.305L185.689 367.978V367.406L185.036 367.242L183.321 364.952H182.668L182.097 364.461L181.035 365.361H179.239L177.116 364.461H173.36L169.931 362.744L168.87 364.298L167.074 363.807L164.379 364.788L162.991 367.078L161.358 369.696L160.46 373.294L159.317 374.276L158.419 374.357L157.684 375.666L156.623 376.157L156.541 377.629L154.173 377.711L152.704 376.484H151.887L150.254 374.112L147.315 373.703L145.927 371.822L144.865 371.658L143.151 371.004L140.375 368.223L140.538 367.569L139.232 366.588L138.415 366.506L135.639 363.97L135.558 362.335L133.68 359.063L133.843 357.755L133.271 356.691L133.925 355.465L133.843 353.502L131.72 350.148L131.23 346.713L129.924 345.405V344.587L128.944 344.423L128.373 343.524L126.413 342.133L125.678 342.051L124.127 340.743V339.843L121.759 338.371L121.269 336.653L119.146 334.772L116.534 331.174L114.084 330.11L112.37 328.638L112.533 327.657L111.472 326.512L110.084 323.486L108.124 322.668L106.491 320.868ZM249.293 433.981L249.946 434.062L249.456 430.137L246.598 420.077L246.435 413.452L250.436 404.864L255.416 398.158L261.295 393.986V393.414H260.642L258.519 394.232L255.579 396.113L255.008 397.34L248.313 406.827L246.027 413.288V420.486L248.966 430.3L249.293 433.981Z" fill="#D0D0D0"/>
<path opacity="0.3" d="M66.4021 148.215L69.0965 130.303L29.9873 123.597L12.8413 212.745L50.5625 219.452L83.2215 224.359L92.611 152.141L66.4021 148.215Z" fill="#D0D0D0"/>
<path opacity="0.3" d="M577.434 53.7504L576.536 56.6129L578.251 58.903L577.924 60.2934L578.006 61.3566L577.108 63.0742L575.964 63.4013L575.475 64.4645L573.76 65.2824L573.188 66.5092L574.332 69.29L573.923 71.3347L574.332 72.5615L573.515 74.1155L573.842 75.6694L572.78 77.2234L572.943 79.0227L572.372 79.9224L572.943 83.6028L573.515 84.8296L573.107 86.9561L573.842 88.4283L573.678 90.473L573.27 91.5362L573.188 92.6812L574.903 94.8077L564.779 97.016L563.881 96.1981L564.289 94.5624L561.839 82.9485L560.288 81.7217L559.553 83.0303L558.818 81.231L559.472 79.7588L556.941 74.279L557.186 71.1711L557.512 70.3532L557.022 68.7175L557.349 66.9182L555.553 65.0371L555.144 62.4199L555.471 61.193L554.328 60.457L554.818 58.903L554.165 57.5126L576.454 51.8693L577.434 53.7504Z" fill="#D0D0D0"/>
<path opacity="0.3" d="M557.512 187.064L556.614 189.354L557.022 190.254L557.349 189.354L558.002 186.819L557.512 187.064ZM529.262 181.339L528.691 180.521L529.507 180.439L530.323 179.703L530.65 178.231L530.487 177.822L530.568 177.413L530.323 176.841L529.834 176.432L529.507 176.35L529.099 176.023L528.609 175.532H527.792L527.303 175.45L526.976 175.123L527.058 174.714L525.67 174.223L525.016 174.469L524.037 174.387L523.465 173.814L523.057 173.651L522.894 173.078L523.383 172.424V171.688L522.404 171.524L521.587 170.788L520.852 170.87L519.546 170.625L519.219 171.197L518.893 172.506L518.485 174.387L510.32 170.134L510.157 170.87L510.891 172.179L510.238 174.06L510.32 176.432L509.34 177.086L508.932 178.804L508.197 179.458L507.054 180.93L506.319 181.584L505.503 183.629L503.543 182.729L501.665 189.681L500.604 190.99L498.318 190.581L497.256 189.027L495.378 188.454L495.297 192.298L494.154 193.689L494.48 194.916L492.766 196.715L493.092 198.269L490.071 203.422L489.255 206.121L490.479 207.102L489.255 208.656L489.336 209.801L487.459 211.437L486.887 210.537L483.376 213.072L482.151 212.255L481.662 213.4L482.315 213.809L481.906 214.545L477.416 216.508L474.966 215.035L474.313 216.426L472.762 217.898L470.884 217.98L467.292 216.099L467.21 214.872L465.985 214.299L466.638 213.318L466.067 212.827L462.066 218.225L459.698 219.043L457.249 221.497L456.922 223.296L455.208 224.359L455.126 225.75L453.983 226.895L452.513 227.304L452.105 228.857L451.289 229.185L445.655 232.62L469.251 229.921L469.414 229.103L473.17 228.694L472.925 229.266L496.93 226.404L529.099 220.433L552.858 215.444L552.368 214.463L552.695 214.381L553.43 215.117L553.348 213.972L553.103 212.418L554.41 213.4L555.144 215.117V214.054L552.368 209.556V208.574L551.797 207.92L550.735 208.492L551.144 209.637H550.49L550.164 208.82L549.674 209.556L548.939 208.656L547.225 208.574L547.061 209.147L548.286 210.864L547.143 210.292L546.735 209.474L546.408 210.128L545.755 210.21L544.53 211.6L544.775 210.292V209.147L543.55 208.574L542.081 208.165L541.917 206.775L541.428 205.712L540.938 206.611L539.55 205.793L537.917 206.039L538.08 205.303L539.305 205.139L540.04 205.548L541.428 204.894L542.162 205.221L542.571 206.039V206.611L544.122 206.938L544.367 207.675L545.102 208.002L545.837 208.983L546.98 207.675H547.469L547.388 205.957L546.326 206.775L545.837 206.039L547.061 205.875L546.081 205.139L545.102 205.63L545.02 204.239L543.632 204.403L541.836 203.503L540.366 201.704L543.305 203.503L544.04 203.749L545.428 203.094L544.04 202.358L544.53 201.868L543.714 201.459L544.367 201.295L544.122 200.559L545.02 201.295L545.347 200.641L545.673 201.704L546.653 202.358L547.143 201.949L546.735 201.459L546.653 199.414L545.755 199.332L544.449 198.678L545.183 197.778L543.55 197.696L543.224 197.287L542.081 197.778L540.938 197.124L540.529 196.142L538.815 195.161L537.1 193.689L535.304 192.135L537.753 193.198L538.488 194.18L540.203 194.752L542.081 196.797L542.244 195.406L542.734 196.47L544.612 196.879V193.607L543.959 192.707L544.857 193.035L544.938 191.726L542.407 190.581L541.101 190.417L540.04 190.254L540.284 189.272L539.06 189.027L538.978 188.536H537.508L537.345 189.191L536.774 188.373H534.569L533.753 188.046L533.589 187.228L532.61 186.737L532.283 185.51L531.793 185.183L531.222 186.083L530.487 186.246L529.752 186.819H528.527L527.792 185.755L528.119 183.22L528.527 181.257L529.017 181.666L529.262 181.339ZM547.143 190.826L547.878 190.744V190.254L547.225 190.336L547.143 190.826ZM553.266 202.44L552.45 204.648L553.43 203.585L553.266 202.44ZM551.797 189.927L552.368 190.172L552.205 191.726L551.797 191.317L550.735 192.135L551.552 192.462L550.082 196.061L550.164 202.685L551.715 205.221L552.123 203.994L552.45 201.786L552.205 199.905L552.777 199.169L552.613 198.024L553.593 197.533L553.103 197.124L553.511 196.551L554.165 197.451L554.001 198.351L553.675 201.54L554.573 199.741L554.899 197.206L554.981 194.752L554.736 193.116L555.226 191.235L556.124 189.763L556.206 187.964L556.451 187.228L552.695 188.536L552.123 189.191L551.797 189.927Z" fill="#D0D0D0"/>
<path opacity="0.3" d="M466.638 213.318L465.985 214.299L467.21 214.872L467.292 216.099L470.884 217.98L472.762 217.898L474.313 216.426L474.966 215.035L477.416 216.508L481.906 214.545L482.315 213.809L481.662 213.4L482.151 212.255L483.376 213.073L486.887 210.537L487.459 211.437L489.336 209.801L489.255 208.656L490.479 207.102L489.255 206.121L490.071 203.422L493.092 198.269L492.766 196.715L494.48 194.916L494.154 193.689L495.297 192.299L495.378 188.455L497.256 189.027L498.318 190.581L500.604 190.99L501.665 189.681L503.543 182.729L505.503 183.629L506.319 181.584L507.054 180.93L508.197 179.458L508.932 178.804L509.34 177.086L510.32 176.432L510.238 174.06L510.891 172.179L510.157 170.87L510.32 170.134L518.485 174.387L518.893 172.506L519.219 171.197L519.546 170.625L518.811 170.298L518.974 168.989L518.158 168.58L517.995 168.008H517.423L516.77 167.026L516.933 166.208L514.81 166.535L513.014 165.227L511.871 165.472L511.136 166.617H510.075L508.687 168.989L505.992 169.316L504.441 168.498L502.318 171.606L500.522 171.361L497.991 174.551L497.256 175.859L495.787 177.168L494.399 167.844L480.192 170.216L477.579 154.104L475.783 155.085L476.926 156.803L476.844 158.602L477.334 160.238L476.436 163.019L476.354 167.435L475.538 170.379L475.946 171.279L475.62 173.078L474.721 173.487L473.089 176.186L471.619 177.822H471.129L469.659 179.213L468.598 178.231L467.373 179.703L467.128 180.685H466.067L465.005 182.484L465.087 184.202L464.271 184.61L465.414 185.51V187.064L464.597 187.228L464.026 187.882L463.209 188.291L462.719 186.573L461.413 186.164L460.596 188.046L460.352 189.845L459.453 190.908L460.515 193.853L459.29 194.507L458.964 197.369H457.739L455.126 198.514L455.044 199.414L455.534 200.232L455.044 203.176L456.596 204.485L457.249 205.385L458.065 205.875L457.984 206.611L461.576 211.191H462.719L463.944 212.664L464.924 212.909L466.067 212.827L466.638 213.318Z" fill="#D0D0D0"/>
<path opacity="0.3" d="M374.867 87.774L372.499 88.4283L372.662 90.3094L370.703 93.0902L370.539 95.6256L371.029 96.1981L371.682 95.6256L372.09 94.317L373.723 93.4173L375.03 89.9822L377.887 89.0826L378.541 86.3836L379.112 85.6475L379.439 83.93L380.908 83.0303V81.8035L381.725 81.0674L382.868 81.1492V82.7849L382.051 82.8667L382.46 83.8482L381.888 85.6475L381.398 85.7293L380.419 89.4097L379.847 89.8187L377.561 95.7074L377.316 99.1424L377.806 100.778L377.887 101.841L375.928 103.395L376.173 104.949L375.438 107.485L375.683 108.793L376.01 111.82L375.111 115.173L373.887 119.262L374.703 120.489L374.458 120.734L375.111 122.125L374.703 123.024L375.601 123.76V125.969L376.663 127.196L376.336 129.649L376.581 132.921L339.105 135.211L338.044 132.921L335.349 132.348L333.145 131.121L331.512 126.623L331.593 124.578L332.9 121.879L332.41 120.98L330.695 119.671L330.532 117.545L329.634 113.864L329.471 111.411L327.674 108.957L325.388 108.384L321.142 105.44L320.653 102.741L315.509 100.206L315.345 99.1424H312.651L310.855 97.016L309.222 95.9527L309.793 91.7816L309.059 90.473L309.467 86.0564L310.283 84.5843L310.038 82.376L309.059 81.3128L307.589 81.0674V79.677L309.875 74.9333L314.692 71.7436L314.366 61.1113L315.101 61.4384L315.59 61.0295L315.672 60.1298L316.407 59.6391L317.55 60.6205L318.121 60.5387H320.244L325.796 58.4123L326.041 57.5944H327.021L327.593 56.6129L327.919 57.2672L329.389 56.5312L330.858 55.1408L331.103 55.5497L331.92 54.7318L333.716 56.0404L333.063 57.349L332.083 58.494L332.491 59.7209L331.348 61.0295L331.675 61.7655L333.553 60.8659V59.7209L336.247 61.2748L337.799 61.8473L339.35 62.4198L341.799 65.5278L355.679 68.6357L356.822 69.4536L360.088 70.1079L360.66 70.5168L362.946 70.3532L366.947 71.0075L368.09 72.2344L367.273 73.0522L367.926 73.7065L371.029 74.279L372.009 75.2605L372.09 78.8591L371.029 81.1492L372.662 81.231L373.479 80.5767L374.213 81.231L373.315 83.7664L374.132 85.075L375.111 85.3204L374.867 87.774ZM334.451 57.2672L334.043 57.349L332.818 58.6576L332.981 59.0666L334.206 58.5758V58.0851L334.941 57.8397L334.451 57.2672ZM335.757 56.3676L334.941 56.6129L334.778 57.1854L335.512 57.1037L335.757 56.3676ZM334.696 55.059L334.533 55.7951H335.921L336.411 55.4679L336.492 54.65L334.696 55.059ZM336.982 52.6053L336.737 54.1593L337.717 53.7504L337.799 52.6053H336.982ZM384.583 78.6956L382.95 78.9409L382.623 80.0042L383.684 81.3946L384.583 78.6956Z" fill="#D0D0D0"/>
<path opacity="0.3" d="M166.094 87.5286L124.454 83.1939L77.6695 76.7327L76.0365 85.4839L69.0965 130.303L66.4021 148.215L92.611 152.141L129.271 156.803L159.889 159.583L162.91 123.433L166.094 87.5286Z" fill="#D0D0D0"/>
<path opacity="0.3" d="M532.038 176.105L529.915 174.632L529.099 176.023L529.507 176.35L529.834 176.432L530.324 176.841L530.569 177.413L530.487 177.822L530.65 178.231L532.038 176.105Z" fill="#D0D0D0"/>
<path opacity="0.3" d="M530.487 180.276C532.741 180.276 534.569 178.445 534.569 176.186C534.569 173.928 532.741 172.097 530.487 172.097C528.232 172.097 526.404 173.928 526.404 176.186C526.404 178.445 528.232 180.276 530.487 180.276Z" fill="#D0D0D0"/>
</g>
<path d="M74.52 90V64.08H78.912L90.936 82.35V64.08H95.328V90H90.936L78.912 71.73V90H74.52ZM109.198 90.54C107.23 90.54 105.502 90.114 104.014 89.262C102.526 88.41 101.362 87.228 100.522 85.716C99.6938 84.204 99.2798 82.464 99.2798 80.496C99.2798 78.372 99.6878 76.53 100.504 74.97C101.32 73.398 102.454 72.18 103.906 71.316C105.358 70.452 107.038 70.02 108.946 70.02C110.962 70.02 112.672 70.494 114.076 71.442C115.492 72.378 116.542 73.704 117.226 75.42C117.91 77.136 118.168 79.158 118 81.486H113.698V79.902C113.686 77.79 113.314 76.248 112.582 75.276C111.85 74.304 110.698 73.818 109.126 73.818C107.35 73.818 106.03 74.37 105.166 75.474C104.302 76.566 103.87 78.168 103.87 80.28C103.87 82.248 104.302 83.772 105.166 84.852C106.03 85.932 107.29 86.472 108.946 86.472C110.014 86.472 110.932 86.238 111.7 85.77C112.48 85.29 113.08 84.6 113.5 83.7L117.784 84.996C117.04 86.748 115.888 88.11 114.328 89.082C112.78 90.054 111.07 90.54 109.198 90.54ZM102.502 81.486V78.21H115.876V81.486H102.502ZM125.453 90L119.513 70.524L123.761 70.56L127.559 83.034L131.411 70.56H135.065L138.899 83.034L142.715 70.56H146.963L141.023 90H137.639L133.229 76.626L128.837 90H125.453ZM163.718 90V79.38L154.898 64.08H159.956L165.914 74.412L171.854 64.08H176.912L168.11 79.38V90H163.718ZM185.129 90.54C183.185 90.54 181.487 90.102 180.035 89.226C178.583 88.35 177.455 87.144 176.651 85.608C175.859 84.06 175.463 82.284 175.463 80.28C175.463 78.24 175.871 76.452 176.687 74.916C177.503 73.38 178.637 72.18 180.089 71.316C181.541 70.452 183.221 70.02 185.129 70.02C187.085 70.02 188.789 70.458 190.241 71.334C191.693 72.21 192.821 73.422 193.625 74.97C194.429 76.506 194.831 78.276 194.831 80.28C194.831 82.296 194.423 84.078 193.607 85.626C192.803 87.162 191.675 88.368 190.223 89.244C188.771 90.108 187.073 90.54 185.129 90.54ZM185.129 86.472C186.857 86.472 188.141 85.896 188.981 84.744C189.821 83.592 190.241 82.104 190.241 80.28C190.241 78.396 189.815 76.896 188.963 75.78C188.111 74.652 186.833 74.088 185.129 74.088C183.965 74.088 183.005 74.352 182.249 74.88C181.505 75.396 180.953 76.122 180.593 77.058C180.233 77.982 180.053 79.056 180.053 80.28C180.053 82.164 180.479 83.67 181.331 84.798C182.195 85.914 183.461 86.472 185.129 86.472ZM198.797 90V70.56H202.631V75.294L202.163 74.682C202.403 74.034 202.721 73.446 203.117 72.918C203.525 72.378 204.011 71.934 204.575 71.586C205.055 71.262 205.583 71.01 206.159 70.83C206.747 70.638 207.347 70.524 207.959 70.488C208.571 70.44 209.165 70.464 209.741 70.56V74.61C209.165 74.442 208.499 74.388 207.743 74.448C206.999 74.508 206.327 74.718 205.727 75.078C205.127 75.402 204.635 75.816 204.251 76.32C203.879 76.824 203.603 77.4 203.423 78.048C203.243 78.684 203.153 79.374 203.153 80.118V90H198.797ZM213.14 90L213.176 64.08H217.568V79.92L224.678 70.56H230.096L222.554 80.28L230.744 90H225.002L217.568 80.64V90H213.14Z" fill="#38A6FA"/>
<path d="M72.48 134L77.928 116.72H82.164L87.612 134H84.636L79.692 118.496H80.34L75.456 134H72.48ZM75.516 130.256V127.556H84.588V130.256H75.516ZM96.2728 134.36C94.8968 134.36 93.6848 134.08 92.6368 133.52C91.5968 132.96 90.7808 132.172 90.1888 131.156C89.6048 130.14 89.3128 128.948 89.3128 127.58V116.744L92.2408 116.72V127.508C92.2408 128.156 92.3488 128.736 92.5648 129.248C92.7888 129.76 93.0888 130.196 93.4648 130.556C93.8408 130.908 94.2728 131.176 94.7608 131.36C95.2488 131.544 95.7528 131.636 96.2728 131.636C96.8088 131.636 97.3168 131.544 97.7968 131.36C98.2848 131.168 98.7168 130.896 99.0928 130.544C99.4688 130.184 99.7648 129.748 99.9808 129.236C100.197 128.724 100.305 128.148 100.305 127.508V116.72H103.233V127.58C103.233 128.948 102.937 130.14 102.345 131.156C101.761 132.172 100.945 132.96 99.8968 133.52C98.8568 134.08 97.6488 134.36 96.2728 134.36ZM113.714 134.36C112.594 134.36 111.542 134.164 110.558 133.772C109.582 133.372 108.722 132.788 107.978 132.02C107.242 131.252 106.666 130.312 106.25 129.2C105.834 128.08 105.626 126.8 105.626 125.36C105.626 123.472 105.978 121.86 106.682 120.524C107.386 119.18 108.35 118.152 109.574 117.44C110.798 116.72 112.178 116.36 113.714 116.36C115.842 116.36 117.526 116.856 118.766 117.848C120.014 118.832 120.858 120.216 121.298 122L118.346 122.468C118.018 121.444 117.482 120.628 116.738 120.02C115.994 119.404 115.046 119.096 113.894 119.096C112.734 119.08 111.77 119.332 111.002 119.852C110.234 120.372 109.654 121.104 109.262 122.048C108.878 122.992 108.686 124.096 108.686 125.36C108.686 126.624 108.878 127.724 109.262 128.66C109.646 129.588 110.222 130.312 110.99 130.832C111.766 131.352 112.734 131.62 113.894 131.636C114.766 131.644 115.53 131.488 116.186 131.168C116.842 130.84 117.378 130.348 117.794 129.692C118.21 129.028 118.49 128.2 118.634 127.208H115.586V124.94H121.706C121.722 125.068 121.734 125.256 121.742 125.504C121.75 125.752 121.754 125.9 121.754 125.948C121.754 127.58 121.43 129.032 120.782 130.304C120.142 131.568 119.222 132.56 118.022 133.28C116.822 134 115.386 134.36 113.714 134.36ZM128.489 133.976V131.456L135.881 124.868C136.457 124.356 136.857 123.872 137.081 123.416C137.305 122.96 137.417 122.52 137.417 122.096C137.417 121.52 137.293 121.008 137.045 120.56C136.797 120.104 136.453 119.744 136.013 119.48C135.581 119.216 135.081 119.084 134.513 119.084C133.913 119.084 133.381 119.224 132.917 119.504C132.461 119.776 132.105 120.14 131.849 120.596C131.593 121.052 131.473 121.544 131.489 122.072H128.513C128.513 120.92 128.769 119.916 129.281 119.06C129.801 118.204 130.513 117.54 131.417 117.068C132.329 116.596 133.381 116.36 134.573 116.36C135.677 116.36 136.669 116.608 137.549 117.104C138.429 117.592 139.121 118.272 139.625 119.144C140.129 120.008 140.381 121.004 140.381 122.132C140.381 122.956 140.269 123.648 140.045 124.208C139.821 124.768 139.485 125.284 139.037 125.756C138.597 126.228 138.049 126.752 137.393 127.328L132.149 131.972L131.885 131.252H140.381V133.976H128.489ZM149.482 134.36C148.258 134.36 147.178 134.1 146.242 133.58C145.306 133.052 144.574 132.32 144.046 131.384C143.526 130.448 143.266 129.368 143.266 128.144V122.576C143.266 121.352 143.526 120.272 144.046 119.336C144.574 118.4 145.306 117.672 146.242 117.152C147.178 116.624 148.258 116.36 149.482 116.36C150.706 116.36 151.782 116.624 152.71 117.152C153.646 117.672 154.378 118.4 154.906 119.336C155.434 120.272 155.698 121.352 155.698 122.576V128.144C155.698 129.368 155.434 130.448 154.906 131.384C154.378 132.32 153.646 133.052 152.71 133.58C151.782 134.1 150.706 134.36 149.482 134.36ZM149.482 131.612C150.09 131.612 150.642 131.468 151.138 131.18C151.634 130.884 152.026 130.492 152.314 130.004C152.602 129.508 152.746 128.956 152.746 128.348V122.36C152.746 121.744 152.602 121.192 152.314 120.704C152.026 120.208 151.634 119.816 151.138 119.528C150.642 119.232 150.09 119.084 149.482 119.084C148.874 119.084 148.322 119.232 147.826 119.528C147.33 119.816 146.938 120.208 146.65 120.704C146.362 121.192 146.218 121.744 146.218 122.36V128.348C146.218 128.956 146.362 129.508 146.65 130.004C146.938 130.492 147.33 130.884 147.826 131.18C148.322 131.468 148.874 131.612 149.482 131.612ZM158.583 133.976V131.456L165.975 124.868C166.551 124.356 166.951 123.872 167.175 123.416C167.399 122.96 167.511 122.52 167.511 122.096C167.511 121.52 167.387 121.008 167.139 120.56C166.891 120.104 166.547 119.744 166.107 119.48C165.675 119.216 165.175 119.084 164.607 119.084C164.007 119.084 163.475 119.224 163.011 119.504C162.555 119.776 162.199 120.14 161.943 120.596C161.687 121.052 161.567 121.544 161.583 122.072H158.607C158.607 120.92 158.863 119.916 159.375 119.06C159.895 118.204 160.607 117.54 161.511 117.068C162.423 116.596 163.475 116.36 164.667 116.36C165.771 116.36 166.763 116.608 167.643 117.104C168.523 117.592 169.215 118.272 169.719 119.144C170.223 120.008 170.475 121.004 170.475 122.132C170.475 122.956 170.363 123.648 170.139 124.208C169.915 124.768 169.579 125.284 169.131 125.756C168.691 126.228 168.143 126.752 167.487 127.328L162.243 131.972L161.979 131.252H170.475V133.976H158.583ZM172.88 133.976V131.456L180.272 124.868C180.848 124.356 181.248 123.872 181.472 123.416C181.696 122.96 181.808 122.52 181.808 122.096C181.808 121.52 181.684 121.008 181.436 120.56C181.188 120.104 180.844 119.744 180.404 119.48C179.972 119.216 179.472 119.084 178.904 119.084C178.304 119.084 177.772 119.224 177.308 119.504C176.852 119.776 176.496 120.14 176.24 120.596C175.984 121.052 175.864 121.544 175.88 122.072H172.904C172.904 120.92 173.16 119.916 173.672 119.06C174.192 118.204 174.904 117.54 175.808 117.068C176.72 116.596 177.772 116.36 178.964 116.36C180.068 116.36 181.06 116.608 181.94 117.104C182.82 117.592 183.512 118.272 184.016 119.144C184.52 120.008 184.772 121.004 184.772 122.132C184.772 122.956 184.66 123.648 184.436 124.208C184.212 124.768 183.876 125.284 183.428 125.756C182.988 126.228 182.44 126.752 181.784 127.328L176.54 131.972L176.276 131.252H184.772V133.976H172.88Z" fill="#838492"/>
<path d="M74.52 207V181.08H78.426L87.39 199.44L96.354 181.08H100.26V207H96.21V190.386L88.254 207H86.526L78.588 190.386V207H74.52ZM105.677 184.608V180.63H110.015V184.608H105.677ZM105.677 207V187.56H110.015V207H105.677ZM120.843 207.54C119.439 207.54 118.251 207.276 117.279 206.748C116.307 206.208 115.569 205.494 115.065 204.606C114.573 203.718 114.327 202.74 114.327 201.672C114.327 200.736 114.483 199.896 114.795 199.152C115.107 198.396 115.587 197.748 116.235 197.208C116.883 196.656 117.723 196.206 118.755 195.858C119.535 195.606 120.447 195.378 121.491 195.174C122.547 194.97 123.687 194.784 124.911 194.616C126.147 194.436 127.437 194.244 128.781 194.04L127.233 194.922C127.245 193.578 126.945 192.588 126.333 191.952C125.721 191.316 124.689 190.998 123.237 190.998C122.361 190.998 121.515 191.202 120.699 191.61C119.883 192.018 119.313 192.72 118.989 193.716L115.029 192.474C115.509 190.83 116.421 189.51 117.765 188.514C119.121 187.518 120.945 187.02 123.237 187.02C124.965 187.02 126.483 187.302 127.791 187.866C129.111 188.43 130.089 189.354 130.725 190.638C131.073 191.322 131.283 192.024 131.355 192.744C131.427 193.452 131.463 194.226 131.463 195.066V207H127.665V202.788L128.295 203.472C127.419 204.876 126.393 205.908 125.217 206.568C124.053 207.216 122.595 207.54 120.843 207.54ZM121.707 204.084C122.691 204.084 123.531 203.91 124.227 203.562C124.923 203.214 125.475 202.788 125.883 202.284C126.303 201.78 126.585 201.306 126.729 200.862C126.957 200.31 127.083 199.68 127.107 198.972C127.143 198.252 127.161 197.67 127.161 197.226L128.493 197.622C127.185 197.826 126.063 198.006 125.127 198.162C124.191 198.318 123.387 198.468 122.715 198.612C122.043 198.744 121.449 198.894 120.933 199.062C120.429 199.242 120.003 199.452 119.655 199.692C119.307 199.932 119.037 200.208 118.845 200.52C118.665 200.832 118.575 201.198 118.575 201.618C118.575 202.098 118.695 202.524 118.935 202.896C119.175 203.256 119.523 203.544 119.979 203.76C120.447 203.976 121.023 204.084 121.707 204.084ZM159.495 207V195.192C159.495 193.86 159.165 192.822 158.505 192.078C157.845 191.322 156.951 190.944 155.823 190.944C155.127 190.944 154.503 191.106 153.951 191.43C153.399 191.742 152.961 192.21 152.637 192.834C152.313 193.446 152.151 194.178 152.151 195.03L150.225 193.896C150.213 192.552 150.513 191.37 151.125 190.35C151.749 189.318 152.589 188.514 153.645 187.938C154.701 187.362 155.877 187.074 157.173 187.074C159.321 187.074 160.965 187.722 162.105 189.018C163.257 190.302 163.833 191.994 163.833 194.094V207H159.495ZM136.113 207V187.56H139.947V193.59H140.487V207H136.113ZM147.831 207V195.246C147.831 193.89 147.501 192.834 146.841 192.078C146.181 191.322 145.281 190.944 144.141 190.944C143.037 190.944 142.149 191.322 141.477 192.078C140.817 192.834 140.487 193.818 140.487 195.03L138.543 193.734C138.543 192.474 138.855 191.34 139.479 190.332C140.103 189.324 140.943 188.532 141.999 187.956C143.067 187.368 144.261 187.074 145.581 187.074C147.033 187.074 148.245 187.386 149.217 188.01C150.201 188.622 150.933 189.462 151.413 190.53C151.905 191.586 152.151 192.78 152.151 194.112V207H147.831ZM168.888 184.608V180.63H173.226V184.608H168.888ZM168.888 207V187.56H173.226V207H168.888Z" fill="#F26F21"/>
<path d="M80.988 251.36C79.26 251.36 77.78 250.984 76.548 250.232C75.316 249.472 74.368 248.416 73.704 247.064C73.048 245.712 72.72 244.144 72.72 242.36C72.72 240.576 73.048 239.008 73.704 237.656C74.368 236.304 75.316 235.252 76.548 234.5C77.78 233.74 79.26 233.36 80.988 233.36C82.716 233.36 84.196 233.74 85.428 234.5C86.668 235.252 87.616 236.304 88.272 237.656C88.936 239.008 89.268 240.576 89.268 242.36C89.268 244.144 88.936 245.712 88.272 247.064C87.616 248.416 86.668 249.472 85.428 250.232C84.196 250.984 82.716 251.36 80.988 251.36ZM80.988 248.636C82.148 248.644 83.112 248.388 83.88 247.868C84.656 247.348 85.236 246.616 85.62 245.672C86.012 244.728 86.208 243.624 86.208 242.36C86.208 241.096 86.012 240 85.62 239.072C85.236 238.136 84.656 237.408 83.88 236.888C83.112 236.368 82.148 236.1 80.988 236.084C79.828 236.076 78.864 236.332 78.096 236.852C77.328 237.372 76.748 238.104 76.356 239.048C75.972 239.992 75.78 241.096 75.78 242.36C75.78 243.624 75.972 244.724 76.356 245.66C76.74 246.588 77.316 247.312 78.084 247.832C78.86 248.352 79.828 248.62 80.988 248.636ZM98.9646 251.36C97.2366 251.36 95.7566 250.984 94.5246 250.232C93.2926 249.472 92.3446 248.416 91.6806 247.064C91.0246 245.712 90.6966 244.144 90.6966 242.36C90.6966 240.576 91.0246 239.008 91.6806 237.656C92.3446 236.304 93.2926 235.252 94.5246 234.5C95.7566 233.74 97.2366 233.36 98.9646 233.36C100.957 233.36 102.617 233.86 103.945 234.86C105.273 235.852 106.205 237.192 106.741 238.88L103.825 239.684C103.489 238.556 102.917 237.676 102.109 237.044C101.301 236.404 100.253 236.084 98.9646 236.084C97.8046 236.084 96.8366 236.344 96.0606 236.864C95.2926 237.384 94.7126 238.116 94.3206 239.06C93.9366 239.996 93.7406 241.096 93.7326 242.36C93.7326 243.624 93.9246 244.728 94.3086 245.672C94.7006 246.608 95.2846 247.336 96.0606 247.856C96.8366 248.376 97.8046 248.636 98.9646 248.636C100.253 248.636 101.301 248.316 102.109 247.676C102.917 247.036 103.489 246.156 103.825 245.036L106.741 245.84C106.205 247.528 105.273 248.872 103.945 249.872C102.617 250.864 100.957 251.36 98.9646 251.36ZM113.527 251V236.432H107.935V233.72H122.011V236.432H116.419V251H113.527ZM127.528 250.976V248.456L134.92 241.868C135.496 241.356 135.896 240.872 136.12 240.416C136.344 239.96 136.456 239.52 136.456 239.096C136.456 238.52 136.332 238.008 136.084 237.56C135.836 237.104 135.492 236.744 135.052 236.48C134.62 236.216 134.12 236.084 133.552 236.084C132.952 236.084 132.42 236.224 131.956 236.504C131.5 236.776 131.144 237.14 130.888 237.596C130.632 238.052 130.512 238.544 130.528 239.072H127.552C127.552 237.92 127.808 236.916 128.32 236.06C128.84 235.204 129.552 234.54 130.456 234.068C131.368 233.596 132.42 233.36 133.612 233.36C134.716 233.36 135.708 233.608 136.588 234.104C137.468 234.592 138.16 235.272 138.664 236.144C139.168 237.008 139.42 238.004 139.42 239.132C139.42 239.956 139.308 240.648 139.084 241.208C138.86 241.768 138.524 242.284 138.076 242.756C137.636 243.228 137.088 243.752 136.432 244.328L131.188 248.972L130.924 248.252H139.42V250.976H127.528ZM148.521 251.36C147.297 251.36 146.217 251.1 145.281 250.58C144.345 250.052 143.613 249.32 143.085 248.384C142.565 247.448 142.305 246.368 142.305 245.144V239.576C142.305 238.352 142.565 237.272 143.085 236.336C143.613 235.4 144.345 234.672 145.281 234.152C146.217 233.624 147.297 233.36 148.521 233.36C149.745 233.36 150.821 233.624 151.749 234.152C152.685 234.672 153.417 235.4 153.945 236.336C154.473 237.272 154.737 238.352 154.737 239.576V245.144C154.737 246.368 154.473 247.448 153.945 248.384C153.417 249.32 152.685 250.052 151.749 250.58C150.821 251.1 149.745 251.36 148.521 251.36ZM148.521 248.612C149.129 248.612 149.681 248.468 150.177 248.18C150.673 247.884 151.065 247.492 151.353 247.004C151.641 246.508 151.785 245.956 151.785 245.348V239.36C151.785 238.744 151.641 238.192 151.353 237.704C151.065 237.208 150.673 236.816 150.177 236.528C149.681 236.232 149.129 236.084 148.521 236.084C147.913 236.084 147.361 236.232 146.865 236.528C146.369 236.816 145.977 237.208 145.689 237.704C145.401 238.192 145.257 238.744 145.257 239.36V245.348C145.257 245.956 145.401 246.508 145.689 247.004C145.977 247.492 146.369 247.884 146.865 248.18C147.361 248.468 147.913 248.612 148.521 248.612ZM157.622 250.976V248.456L165.014 241.868C165.59 241.356 165.99 240.872 166.214 240.416C166.438 239.96 166.55 239.52 166.55 239.096C166.55 238.52 166.426 238.008 166.178 237.56C165.93 237.104 165.586 236.744 165.146 236.48C164.714 236.216 164.214 236.084 163.646 236.084C163.046 236.084 162.514 236.224 162.05 236.504C161.594 236.776 161.238 237.14 160.982 237.596C160.726 238.052 160.606 238.544 160.622 239.072H157.646C157.646 237.92 157.902 236.916 158.414 236.06C158.934 235.204 159.646 234.54 160.55 234.068C161.462 233.596 162.514 233.36 163.706 233.36C164.81 233.36 165.802 233.608 166.682 234.104C167.562 234.592 168.254 235.272 168.758 236.144C169.262 237.008 169.514 238.004 169.514 239.132C169.514 239.956 169.402 240.648 169.178 241.208C168.954 241.768 168.618 242.284 168.17 242.756C167.73 243.228 167.182 243.752 166.526 244.328L161.282 248.972L161.018 248.252H169.514V250.976H157.622ZM171.919 250.976V248.456L179.311 241.868C179.887 241.356 180.287 240.872 180.511 240.416C180.735 239.96 180.847 239.52 180.847 239.096C180.847 238.52 180.723 238.008 180.475 237.56C180.227 237.104 179.883 236.744 179.443 236.48C179.011 236.216 178.511 236.084 177.943 236.084C177.343 236.084 176.811 236.224 176.347 236.504C175.891 236.776 175.535 237.14 175.279 237.596C175.023 238.052 174.903 238.544 174.919 239.072H171.943C171.943 237.92 172.199 236.916 172.711 236.06C173.231 235.204 173.943 234.54 174.847 234.068C175.759 233.596 176.811 233.36 178.003 233.36C179.107 233.36 180.099 233.608 180.979 234.104C181.859 234.592 182.551 235.272 183.055 236.144C183.559 237.008 183.811 238.004 183.811 239.132C183.811 239.956 183.699 240.648 183.475 241.208C183.251 241.768 182.915 242.284 182.467 242.756C182.027 243.228 181.479 243.752 180.823 244.328L175.579 248.972L175.315 248.252H183.811V250.976H171.919Z" fill="#838492"/>
</g>
<defs>
<filter id="filter0_d_14_3626" x="0" y="0" width="672" height="618" filterUnits="userSpaceOnUse" color-interpolation-filters="sRGB">
<feFlood flood-opacity="0" result="BackgroundImageFix"/>
<feOffset dy="20"/>
<feGaussianBlur stdDeviation="20"/>
<feComposite in2="hardAlpha" operator="out"/>
<feColorMatrix type="matrix" values="0 0 0 0 0 0 0 0 0 0 0 0 0 0 0 0 0 0 0.1 0"/>
<feBlend mode="normal" in2="BackgroundImageFix" result="effect1_dropShadow_14_3626"/>
<feBlend mode="normal" in="SourceGraphic" in2="effect1_dropShadow_14_3626" result="shape"/>
</filter>
<clipPath id="clip0_14_3626">
<path d="M40 32C40 25.3726 45.3726 20 52 20H620C626.627 20 632 25.3726 632 32V455H40V32Z" fill="white"/>
</clipPath>
</defs>
</svg>
